<?xml version="1.0" encoding="UTF-8"?>
<svg width="70px" height="70px" viewBox="0 0 70 70" version="1.1" xmlns="http://www.w3.org/2000/svg" xmlns:xlink="http://www.w3.org/1999/xlink">
    <title>PurePlay SaaS based </title>
    <g id="PurePlay-SaaS-based-" stroke="none" stroke-width="1" fill="none" fill-rule="evenodd">
        <g id="1585364_browser_launch_publish_software_startup_icon" transform="translate(5.000000, 1.000000)" fill="#0968AC" fill-rule="nonzero">
            <path d="M57.4772637,16.4488142 C56.7023413,20.1915753 55.3392247,24.4276948 53.0733841,29.0372912 L56.7144327,29.0372912 L56.7144327,60.6226785 C56.7144327,62.3180792 55.3416736,63.6965624 53.6533132,63.6965624 L23.5025104,63.6965624 L26.9666263,57.6725183 L25.3762216,56.7503532 L21.382379,63.6965624 L19.6150416,63.6965624 L24.051216,55.982958 L22.4608114,55.0607928 L17.4949103,63.6965624 L15.7265015,63.6965624 L21.1348875,54.2923218 L19.5444828,53.3701567 L13.6063701,63.6965624 L7.34668684,63.6965624 C5.65832637,63.6965624 4.28556732,62.3180792 4.28556732,60.6226785 L4.28556732,29.0374449 L24.5619638,29.0374449 C26.7753063,23.5914447 29.270884,19.0882046 31.8559994,15.3621962 L7.34668684,15.3621962 C3.28825458,15.3621962 0,18.6653919 0,22.7395177 L0,60.6226785 C0,64.6968043 3.28825458,68 7.34668684,68 L53.6533132,68 C57.710521,68 61,64.6968043 61,60.6226785 L61,22.7395177 C61,20.0738455 59.5877525,17.7456858 57.4772637,16.4488142 Z M16.8588096,20.1099637 C17.9816283,20.1099637 18.891546,21.0249052 18.891546,22.1536354 C18.891546,23.2811361 17.9816283,24.1960776 16.8588096,24.1960776 C15.7335421,24.1960776 14.8236243,23.2811361 14.8236243,22.1536354 C14.8237774,21.0249052 15.7336951,20.1099637 16.8588096,20.1099637 Z M9.3639646,20.1099637 C10.4867832,20.1099637 11.3979255,21.0249052 11.3979255,22.1536354 C11.3979255,23.2811361 10.4867832,24.1960776 9.3639646,24.1960776 C8.23992151,24.1960776 7.32877929,23.2811361 7.32877929,22.1536354 C7.32877929,21.0249052 8.23992151,20.1099637 9.3639646,20.1099637 Z M41.9780503,42.0425869 C61.7091083,18.1970857 55.1791282,0 55.1791282,0 C55.1791282,0 36.2168703,3.41846636 25.5196351,32.5003289 L21.1599887,32.1904814 C18.6884408,32.0799752 17.0155389,34.4407181 15.7001759,36.7220011 C14.390782,39.0040526 10.1459276,46.3896736 10.1459276,46.3896736 L22.3593353,45.746617 L21.1122352,50.3605169 L28.7781968,54.8019718 L32.1334899,51.412861 L37.6865138,62.356349 C37.6865138,62.356349 41.9313682,54.9724187 43.2444354,52.6903672 C44.5561251,50.407701 45.7542473,47.7703085 44.42465,45.6780694 L41.9780503,42.0425869 Z M39.5649698,19.0039802 C40.6842681,17.0539082 43.1689788,16.3851848 45.1097286,17.5126854 C47.0492539,18.6383417 47.7141291,21.1311079 46.5936063,23.0793356 C45.4720121,25.028178 42.9920461,25.6956719 41.0488474,24.5724747 C39.1082507,23.4474332 38.4446,20.954667 39.5649698,19.0039802 Z" id="Shape"></path>
        </g>
    </g>
</svg>