<?xml version="1.0" encoding="UTF-8"?>
<svg width="70px" height="70px" viewBox="0 0 70 70" version="1.1" xmlns="http://www.w3.org/2000/svg" xmlns:xlink="http://www.w3.org/1999/xlink">
    <title>500+ Features </title>
    <g id="500+-Features-" stroke="none" stroke-width="1" fill="none" fill-rule="evenodd">
        <g id="4068169_diamond_gem_jewel_ruby_shopping_icon" transform="translate(2.000000, 7.000000)" fill="#0968AC" fill-rule="nonzero">
            <path d="M48.7276596,15.6944444 L66,15.6944444 L52.6595745,0.555555556 C52.3787234,0.277777778 51.9574468,0.138888889 51.5361702,0.138888889 L43.6723404,0.138888889 C43.6723404,0.138888889 43.6723404,0.138888889 43.6723404,0.138888889 L48.7276596,15.6944444 Z" id="Path"></path>
            <path d="M22.3276596,0.138888889 C22.3276596,0.138888889 22.3276596,0.138888889 22.3276596,0.138888889 L14.6042553,0 C14.1829787,0 13.7617021,0.138888889 13.4808511,0.416666667 L0.140425532,15.5555556 L17.412766,15.5555556 L22.3276596,0.138888889 Z" id="Path"></path>
            <path d="M45.7787234,15.6944444 L41.0042553,0.972222222 C40.8638298,0.416666667 40.3021277,0 39.6,0 L26.2595745,0 C25.6978723,0 25.1361702,0.416666667 24.8553191,0.972222222 L20.0808511,15.6944444 L45.7787234,15.6944444 Z" id="Path"></path>
            <polygon id="Path" points="38.8978723 49.0277778 66 18.4722222 48.7276596 18.4722222"></polygon>
            <polygon id="Path" points="0 18.4722222 27.1021277 49.0277778 17.2723404 18.4722222"></polygon>
            <path d="M20.2212766,18.4722222 L31.5957447,54.0277778 C31.5957447,54.1666667 31.7361702,54.3055556 31.7361702,54.4444444 C31.7361702,54.4444444 31.7361702,54.4444444 31.8765957,54.5833333 C31.8765957,54.5833333 32.0170213,54.7222222 32.1574468,54.7222222 C32.2978723,54.7222222 32.2978723,54.8611111 32.4382979,54.8611111 C32.4382979,54.8611111 32.5787234,54.8611111 32.7191489,55 C32.8595745,55 32.8595745,55 33,55 C33.1404255,55 33.2808511,55 33.2808511,55 C33.4212766,55 33.4212766,55 33.5617021,54.8611111 C33.7021277,54.8611111 33.7021277,54.7222222 33.8425532,54.7222222 C33.9829787,54.7222222 33.9829787,54.5833333 34.1234043,54.5833333 C34.1234043,54.5833333 34.1234043,54.5833333 34.2638298,54.4444444 C34.4042553,54.3055556 34.4042553,54.1666667 34.4042553,54.0277778 L45.7787234,18.4722222 L20.2212766,18.4722222 Z" id="Path"></path>
        </g>
    </g>
</svg>