<?xml version="1.0" encoding="UTF-8"?>
<svg width="70px" height="70px" viewBox="0 0 70 70" version="1.1" xmlns="http://www.w3.org/2000/svg" xmlns:xlink="http://www.w3.org/1999/xlink">
    <title>Demo videos for set up </title>
    <g id="Demo-videos-for-set-up-" stroke="none" stroke-width="1" fill="none" fill-rule="evenodd">
        <g id="352195_collection_video_icon" transform="translate(-2.000000, -2.000000)">
            <polygon id="Path" points="0 0 74 0 74 74 0 74"></polygon>
            <path d="M12.3333333,18.5 L6.16666667,18.5 L6.16666667,61.6666667 C6.16666667,65.07375 8.92625,67.8333333 12.3333333,67.8333333 L55.5,67.8333333 L55.5,61.6666667 L12.3333333,61.6666667 L12.3333333,18.5 Z M61.6666667,6.16666667 L24.6666667,6.16666667 C21.2595833,6.16666667 18.5,8.92625 18.5,12.3333333 L18.5,49.3333333 C18.5,52.7404167 21.2595833,55.5 24.6666667,55.5 L61.6666667,55.5 C65.07375,55.5 67.8333333,52.7404167 67.8333333,49.3333333 L67.8333333,12.3333333 C67.8333333,8.92625 65.07375,6.16666667 61.6666667,6.16666667 Z M37,44.7083333 L37,16.9583333 L55.5,30.8333333 L37,44.7083333 Z" id="Shape" fill="#0968AC" fill-rule="nonzero"></path>
        </g>
    </g>
</svg>