<?xml version="1.0" encoding="UTF-8"?>
<svg width="70px" height="70px" viewBox="0 0 70 70" version="1.1" xmlns="http://www.w3.org/2000/svg" xmlns:xlink="http://www.w3.org/1999/xlink">
    <title>24x7 Support</title>
    <g id="24x7-Support" stroke="none" stroke-width="1" fill="none" fill-rule="evenodd">
        <g id="Group-74" transform="translate(7.000000, 3.000000)">
            <path d="M27.2608696,59.0769231 L27.2608696,64 C33.0649565,64 37.6745217,61.9003077 41.1961304,59.0769231 L27.2608696,59.0769231 Z" id="Path" fill="#0968AC" fill-rule="nonzero"></path>
            <path d="M54.5217391,36.9230769 L47.0869565,36.9230769 C47.0869565,21.5630769 39.6521739,14.7692308 39.6521739,14.7692308 C32.2173913,32 7.43478261,19.6923077 7.43478261,36.9230769 L0,36.9230769 C0,36.9230769 0,36.6326154 0,27.0769231 C0,9.84615385 14.8695652,0 27.2608696,0 C37.173913,0 39.6521739,4.92307692 39.6521739,4.92307692 C49.5652174,4.92307692 54.5217391,17.2307692 54.5217391,27.0769231 L54.5217391,36.9230769 Z" id="Path" fill="#0968AC" fill-rule="nonzero"></path>
            <path d="M28.5,46.7692308 C28.0638261,46.7692308 26.457913,46.7692308 26.0217391,46.7692308 C23.9697391,46.7692308 22.3043478,48.4233846 22.3043478,50.4615385 C22.3043478,52.4996923 23.9697391,54.1538462 26.0217391,54.1538462 C26.457913,54.1538462 28.0638261,54.1538462 28.5,54.1538462 C30.552,54.1538462 32.2173913,52.4996923 32.2173913,50.4615385 C32.2173913,48.4233846 30.552,46.7692308 28.5,46.7692308 Z" id="Path" fill="#0968AC" fill-rule="nonzero"></path>
            <path d="M29.7391304,51.6923077 L42.1304348,51.6923077 C47.604913,51.6923077 52.0434783,47.2836923 52.0434783,41.8461538 L52.0434783,34.4615385" id="Path" stroke="#0968AC" stroke-width="4.92307692" stroke-linecap="round"></path>
            <path d="M52.0434783,44.3076923 L47.0869565,44.3076923 L47.0869565,32 L52.0434783,32 C54.7819565,32 57,34.2030769 57,36.9230769 L57,39.3846154 C57,42.1046154 54.7819565,44.3076923 52.0434783,44.3076923 Z" id="Path" fill="#0968AC" fill-rule="nonzero"></path>
            <path d="M2.47826087,34.4615385 L2.47826087,39.3846154 C2.47826087,45.5384615 7.43478261,46.7692308 7.43478261,46.7692308 C7.43478261,46.7692308 12.3913043,61.5384615 27.2608696,61.5384615" id="Path" stroke="#0968AC" stroke-width="4.92307692" stroke-linecap="round"></path>
        </g>
    </g>
</svg>