<?xml version="1.0" encoding="UTF-8"?>
<svg width="70px" height="70px" viewBox="0 0 70 70" version="1.1" xmlns="http://www.w3.org/2000/svg" xmlns:xlink="http://www.w3.org/1999/xlink">
    <title>No Servers at theatre</title>
    <g id="No-Servers-at-theatre" stroke="none" stroke-width="1" fill="none" fill-rule="evenodd">
        <g id="678154_data_database_server_storage_icon" transform="translate(15.000000, 6.000000)" fill="#0968AC" fill-rule="nonzero">
            <path d="M20.5,0 C31.819381,0 40.9966897,2.05006739 41,4.57957698 C41.0004379,5.79460322 38.8407933,6.95989631 34.9962295,7.81906923 C31.1516657,8.67824216 25.9371584,9.16086264 20.5,9.16086264 C15.0628416,9.16086264 9.84833426,8.67824216 6.00377049,7.81906923 C2.15920672,6.95989631 -0.000437949394,5.79460322 0,4.57957698 C0.00331032455,2.05006739 9.18061903,0 20.5,0 Z" id="rect4208-path"></path>
            <path d="M40.9315331,6.32767681 L40.9315331,20.1433031 C40.9747309,20.2689271 40.9975702,20.3949026 41.0000001,20.5209476 C40.9920957,20.6287523 40.969261,20.7364652 40.9315331,20.8439098 L40.9315331,20.8729601 L40.9248538,20.8729601 C40.1519218,23.4297199 31.2408664,25.4105731 20.5000001,25.4132346 C15.0631651,25.4132346 9.84894077,24.8978657 6.00443065,23.9803804 C2.15992053,23.0628952 6.66151951e-08,21.8184971 6.66151951e-08,20.5209476 C0.00750563069,20.4137171 0.0297830502,20.3065744 0.0667962151,20.1996933 L0.0667962151,6.38748439 C0.90032798,8.93337736 9.79832235,10.8980294 20.4983302,10.8987095 C31.2887302,10.8959674 40.222875,8.89734444 40.9315331,6.32767681 Z" id="rect4208-path"></path>
            <path d="M40.9315331,22.5680871 L40.9315331,36.3837134 C40.9747309,36.5093374 40.9975702,36.6353129 41.0000001,36.7613579 C40.9920957,36.8691626 40.969261,36.9768755 40.9315331,37.0843201 L40.9315331,37.1133704 L40.9248538,37.1133704 C40.151923,39.6701303 31.2408669,41.6509837 20.5000001,41.6536449 C15.0631649,41.6536449 9.84894017,41.1382762 6.0044299,40.2207909 C2.15991963,39.3033057 6.66151951e-08,38.0589075 6.66151951e-08,36.7613579 C0.00750562884,36.6541274 0.0297830484,36.5469847 0.0667962151,36.4401036 L0.0667962151,22.6278947 C0.900326783,25.1737878 9.79832187,27.13844 20.4983302,27.1391198 C31.2887307,27.136378 40.2228762,25.1377549 40.9315331,22.5680871 Z" id="rect4208-path"></path>
            <path d="M40.9315331,38.9161509 L40.9315331,52.7300693 C40.9747309,52.8556933 40.9975702,52.9816689 41.0000001,53.1077139 C40.9922539,53.2160886 40.969419,53.324372 40.9315331,53.4323847 L40.9315331,53.4614342 L40.9248538,53.4614342 C40.1483579,56.0175194 31.2383046,57.9974045 20.5000001,58 C15.0631653,58 9.84894076,57.4846316 6.00443045,56.5671465 C2.15992013,55.6496614 6.66151951e-08,54.4052633 6.66151951e-08,53.1077139 C0.00766206797,53.0010533 0.0299393601,52.8944811 0.0667962151,52.7881682 L0.0667962151,38.9742506 C0.896785898,41.5208193 9.79577529,43.4864352 20.4983302,43.4871844 C31.2887325,43.4844429 40.2228793,41.4858191 40.9315331,38.9161509 Z" id="rect4208-path"></path>
        </g>
    </g>
</svg>