<?xml version="1.0" encoding="UTF-8"?>
<svg width="70px" height="70px" viewBox="0 0 70 70" version="1.1" xmlns="http://www.w3.org/2000/svg" xmlns:xlink="http://www.w3.org/1999/xlink">
    <title>Self Subscription </title>
    <g id="Self-Subscription-" stroke="none" stroke-width="1" fill="none" fill-rule="evenodd">
        <g id="4200767_banking_business_commerce_finance_money_icon" transform="translate(6.000000, 7.000000)" fill="#0968AC" fill-rule="nonzero">
            <path d="M7.73333333,0 C3.48248008,0 0,3.47393109 0,7.71428571 L0,46.2857143 C0,50.5260681 3.48250908,54 7.73333333,54 L50.2666667,54 C54.517506,54 58,50.5260681 58,46.2857143 L58,19.2857143 C58,15.0582533 54.5376571,11.5962323 50.3044266,11.5751953 L13.5371093,11.5751953 C12.2494712,11.5689467 12.2494712,9.64534461 13.5371093,9.63909045 C13.5371093,9.63909045 35.4414645,9.64285714 46.4,9.64285714 L46.4,7.71428571 C46.4,3.47393109 42.9175195,0 38.6666667,0 L7.73333333,0 Z M48.3333333,30.8533764 C49.4010838,30.8533764 50.2666667,31.7168272 50.2666667,32.7819478 C50.2666667,33.8470683 49.4010838,34.7105192 48.3333333,34.7105192 C47.2655829,34.7105192 46.4,33.8470683 46.4,32.7819478 C46.4,31.7168272 47.2655829,30.8533764 48.3333333,30.8533764 L48.3333333,30.8533764 Z" id="rect1021"></path>
        </g>
    </g>
</svg>