<?xml version="1.0" encoding="UTF-8"?>
<svg width="70px" height="70px" viewBox="0 0 70 70" version="1.1" xmlns="http://www.w3.org/2000/svg" xmlns:xlink="http://www.w3.org/1999/xlink">
    <title>Simple Onboarding </title>
    <g id="Simple-Onboarding-" stroke="none" stroke-width="1" fill="none" fill-rule="evenodd">
        <g id="1607781_finish_quick_race_start_stop_icon" transform="translate(6.000000, 3.000000)" fill="#0968AC" fill-rule="nonzero">
            <path d="M30.5665349,9.2952381 L30.5665349,6.0952381 L35.1515152,6.0952381 L35.1515152,0 L19.8682477,0 L19.8682477,6.0952381 L24.4532279,6.0952381 L24.4532279,9.2952381 C10.6982872,10.8190476 0,22.4 0,36.5714286 C0,51.7333333 12.3030303,64 27.5098814,64 C42.7167325,64 55.0197628,51.7333333 55.0197628,36.5714286 C55.0197628,22.4761905 44.3214756,10.8190476 30.5665349,9.2952381 Z M27.5098814,60.952381 C14.0606061,60.952381 3.05665349,49.9809524 3.05665349,36.5714286 C3.05665349,23.1619048 14.0606061,12.1904762 27.5098814,12.1904762 C40.9591568,12.1904762 51.9631094,23.1619048 51.9631094,36.5714286 C51.9631094,49.9809524 40.9591568,60.952381 27.5098814,60.952381 Z" id="Shape"></path>
            <path d="M27.5098814,36.5714286 L27.5098814,16.7619048 C16.5059289,16.7619048 7.64163373,25.6 7.64163373,36.5714286 C7.64163373,47.5428571 16.5059289,56.3809524 27.5098814,56.3809524 C38.513834,56.3809524 47.3781291,47.5428571 47.3781291,36.5714286 C47.3781291,32.9904762 46.3847167,29.5619048 44.7035573,26.6666667 L27.5098814,36.5714286 Z" id="Path"></path>
            <path d="M47.2252964,5.94285714 L42.7931489,10.3619048 C47.2252964,12.952381 50.969697,16.6857143 53.5678524,21.1047619 L58,16.6857143 C55.2490119,12.3428571 51.5046113,8.68571429 47.2252964,5.94285714 Z" id="Path"></path>
        </g>
    </g>
</svg>