<?xml version="1.0" encoding="UTF-8"?>
<svg width="70px" height="70px" viewBox="0 0 70 70" version="1.1" xmlns="http://www.w3.org/2000/svg" xmlns:xlink="http://www.w3.org/1999/xlink">
    <title>Instant Access to HQ </title>
    <g id="Instant-Access-to-HQ-" stroke="none" stroke-width="1" fill="none" fill-rule="evenodd">
        <g id="216207_flash_icon" transform="translate(14.000000, 3.000000)" fill="#0968AC" fill-rule="nonzero">
            <path d="M39.2965321,31.1136667 L24.8066489,22.6472222 L32.1113813,4.97377778 C32.3368782,4.51222222 32.4632931,3.99211111 32.4632931,3.44444444 C32.4632931,1.54311111 30.9428974,0 29.0569235,0 C28.2061852,0.0137777778 27.4955284,0.285888889 26.9317862,0.737111111 C26.8190377,0.826666667 26.7507053,0.881777778 26.6926228,0.943777778 L1.06797672,25.3993333 C0.28557086,26.1467778 -0.100507141,27.2214444 0.0224911602,28.2995556 C0.145489461,29.3776667 0.770730826,30.3352222 1.70005132,30.8828889 L16.1933511,39.3562222 L8.80320322,57.2328889 C8.17796185,58.7346667 8.68703816,60.4706667 10.0126865,61.3937778 C10.6037617,61.8002222 11.283669,62 11.956743,62 C12.8040646,62 13.6513863,61.6796667 14.3073772,61.0562222 L39.9320233,36.5937778 C40.7144291,35.8463333 41.1005071,34.7716667 40.9775088,33.6935556 C40.8510939,32.6154444 40.2258526,31.6578889 39.2965321,31.1136667 Z" id="Path"></path>
        </g>
    </g>
</svg>