<?xml version="1.0" encoding="UTF-8"?>
<svg width="70px" height="70px" viewBox="0 0 70 70" version="1.1" xmlns="http://www.w3.org/2000/svg" xmlns:xlink="http://www.w3.org/1999/xlink">
    <title>Ticketing in 3 mins</title>
    <g id="Ticketing-in-3-mins" stroke="none" stroke-width="1" fill="none" fill-rule="evenodd">
        <g id="306038_ticket_star_icon" transform="translate(3.000000, 3.000000)" fill="#0968AC" fill-rule="nonzero">
            <path d="M56.0229369,14.2048266 C54.3032833,15.9246334 51.5146345,15.9252635 49.794981,14.2054566 C48.0757999,12.4862798 48.0757999,9.69716539 49.795611,7.97735853 C49.8006512,7.97231834 49.8064789,7.96932573 49.8107316,7.96507307 L41.8456389,0 L33.0794693,8.76614805 L33.6001851,9.28670503 L32.6844435,10.2024443 L32.1637278,9.68188731 L0,41.8455359 L7.96509267,49.810609 C7.97013287,49.8055688 7.97296798,49.7997411 7.97722065,49.7954884 C9.69781928,48.0748941 12.486153,48.0756816 14.205334,49.7947009 C15.9251451,51.5145078 15.9251451,54.3023621 14.2045465,56.0229565 C14.2004514,56.0270516 14.1946236,56.0300442 14.1894259,56.0349269 L22.1545186,64 L54.3180889,31.8365089 L53.7975306,31.3161094 L54.7132721,30.4003701 L55.2338304,30.9209271 L64,22.1547791 L56.0349073,14.189706 C56.0309697,14.1938012 56.0281346,14.1997864 56.0229369,14.2048266 Z M37,36.8057586 L32.2737182,38.2753448 L30.8060283,43 L27.9471694,38.959639 L23,39.0225958 L25.9596263,35.0567597 L24.3700367,30.3708129 L29.0565009,31.959639 L33.0222445,29 L32.9588477,33.9477849 L37,36.8057586 Z M53.0068491,28.6936363 L52.0911075,29.6093755 L49.9168908,27.4353217 L50.8326323,26.5195824 L53.0068491,28.6936363 Z M49.1251067,24.8119035 L48.2093652,25.7276428 L46.0351485,23.5535889 L46.95089,22.6378497 L49.1251067,24.8119035 Z M45.2433644,20.9303283 L44.3276229,21.8460675 L42.1543512,19.6728012 L43.0700928,18.7570619 L45.2433644,20.9303283 Z M41.3625672,17.049383 L40.4468256,17.9651223 L38.2733965,15.7916985 L39.189138,14.8759592 L41.3625672,17.049383 Z M37.4808248,13.1678078 L36.5650833,14.083547 L34.3916541,11.9101232 L35.3073957,10.9943839 L37.4808248,13.1678078 Z" id="Shape"></path>
        </g>
    </g>
</svg>