<?xml version="1.0" encoding="UTF-8"?>
<svg width="70px" height="70px" viewBox="0 0 70 70" version="1.1" xmlns="http://www.w3.org/2000/svg" xmlns:xlink="http://www.w3.org/1999/xlink">
    <title>Centralized Control </title>
    <g id="Centralized-Control-" stroke="none" stroke-width="1" fill="none" fill-rule="evenodd">
        <g id="3850401_cloud_computing_data_global_internet_icon" transform="translate(7.000000, 3.000000)" fill="#0968AC" fill-rule="nonzero">
            <path d="M36.4227295,33.6455078 L48.1729227,33.6455078 C52.4936625,33.6455078 56,30.5978655 56,26.706264 C56,23.1916155 53.1383769,20.3331473 49.3944906,19.8033622 C49.4736736,19.436663 49.5189617,19.1046317 49.5189617,18.7174944 C49.5189617,15.5492466 46.6572673,12.9817941 43.1396078,12.9817941 C41.7823182,12.9817941 40.5154623,13.3685128 39.4749045,14.0306919 C39.5993043,13.3989954 39.6558431,12.7462331 39.6558431,12.0839843 C39.6558431,5.41127234 33.64976,0 26.2411702,0 C19.2511392,0 13.5164997,4.80496651 12.8831074,10.958217 C12.6682026,10.9378487 12.4532978,10.9207589 12.227071,10.9207589 C8.89035023,10.9207589 6.175771,13.3417271 6.175771,16.3470283 C6.175771,16.5507811 6.18709303,16.716727 6.20966582,16.9102259 C2.57892868,18.1735491 0,21.2865513 0,25.0049526 C0,29.8338449 4.35470583,33.6455078 9.71607467,33.6455078 L19.5772705,33.6455078 L19.5772705,47.3763951 L16.2480265,47.3763951 C15.7188823,45.2724609 13.783315,43.7056361 11.4592387,43.7056361 C8.7284953,43.7056361 6.51479092,45.8609096 6.51479092,48.5195312 C6.51479092,51.1780831 8.7284953,53.3333566 11.4592387,53.3333566 C13.7835286,53.3333566 15.7193095,51.7662528 16.2482402,49.6621094 L20.7439372,49.6621094 C21.3882243,49.6621094 21.9106039,49.1503906 21.9106039,48.5192522 L21.9106039,33.6455078 L26.8336182,33.6455078 L26.8336182,54.3724888 C26.8336182,54.4222238 26.8562623,54.4647042 26.8625286,54.512765 C24.6825766,55.0147182 23.0556235,56.9103655 23.0556235,59.1861746 C23.0556234,61.8447963 25.2692566,64 28,64 C30.7307434,64 32.9444478,61.8447963 32.9444478,59.1861746 C32.9444478,56.9105747 31.3176371,55.015067 29.1379699,54.5129046 C29.1443074,54.4647739 29.1669515,54.4222935 29.1669515,54.3724888 L29.1669515,33.6455078 L34.0893961,33.6455078 L34.0893961,48.5192522 C34.0893961,49.1503906 34.6117757,49.6621094 35.2560628,49.6621094 L39.751831,49.6621094 C40.2807616,51.7662528 42.2165426,53.3333566 44.5407613,53.3333566 C47.2715047,53.3333566 49.4852091,51.1780831 49.4852091,48.5195312 C49.4852091,45.8609096 47.2715047,43.7056361 44.5407613,43.7056361 C42.2167562,43.7056361 40.281189,45.2724609 39.7520446,47.3763951 L36.4227295,47.3763951 L36.4227295,33.6455078 Z" id="Path"></path>
        </g>
    </g>
</svg>