<?xml version="1.0" encoding="UTF-8"?>
<svg width="70px" height="70px" viewBox="0 0 70 70" version="1.1" xmlns="http://www.w3.org/2000/svg" xmlns:xlink="http://www.w3.org/1999/xlink">
    <title>Ensure 100% Compliance </title>
    <g id="Ensure-100%-Compliance-" stroke="none" stroke-width="1" fill="none" fill-rule="evenodd">
        <g id="298810_law_icon" transform="translate(0.000000, 5.000000)" fill="#0968AC" fill-rule="nonzero">
            <path d="M34.6440173,9.2322517 C37.0923118,9.16013842 39.0365456,7.21307989 39.1085543,4.76122841 C39.1805629,2.09303709 37.0203031,-0.0703612719 34.3559827,0.00175200689 C31.9076882,0.0738652857 29.9634544,2.02092381 29.8914457,4.47277529 C29.8194371,7.14096661 31.9796969,9.30436498 34.6440173,9.2322517 Z M68.0560357,36.9237508 L66.7598798,36.9237508 L57.61478,19.1838842 C58.9109358,19.0396576 60.2070917,18.5348647 61.3592303,18.0300717 C63.0874381,17.2368256 63.4474814,14.9292007 62.1513256,13.5590484 L62.0793169,13.4869351 C61.2872216,12.6936891 60.0630744,12.405236 58.9829445,12.9100289 C57.9748233,13.3427086 56.5346501,13.8475015 55.1664855,13.8475015 C51.1340005,13.8475015 49.333784,9.2322517 34.5,9.2322517 C19.666216,9.2322517 17.8659995,13.8475015 13.8335145,13.8475015 C12.3933413,13.8475015 11.0251767,13.4148219 10.0170555,12.9100289 C8.93692559,12.4773492 7.71277837,12.6936891 6.92068311,13.4869351 L6.84867445,13.5590484 C5.55251856,14.9292007 5.91256186,17.1647124 7.64076971,18.0300717 C8.79290827,18.6069779 10.0890642,19.0396576 11.38522,19.1838842 L2.24012019,36.9237508 L0.943964302,36.9237508 C0.36789502,36.9237508 -0.0641569423,37.4285437 0.00785171804,38.00545 C0.799946981,42.6206998 6.63264847,46.1542505 13.7615058,46.1542505 C20.8903632,46.1542505 26.7230647,42.6206998 27.51516,38.00545 C27.5871686,37.4285437 27.1551166,36.9237508 26.5790474,36.9237508 L25.2828915,36.9237508 L16.1377916,19.2559975 C22.1145104,18.7512045 25.2828915,15.7224468 29.8914457,15.7224468 L29.8914457,50.7695003 C27.3711426,50.7695003 25.2828915,52.8607854 25.2828915,55.3847502 L20.1702766,55.3847502 C18.1540341,55.3847502 16.065783,57.4760352 16.065783,60 L52.934217,60 C52.934217,57.4760352 50.8459659,55.3847502 47.8216022,55.3847502 L43.7171085,55.3847502 C43.7171085,52.8607854 41.6288574,50.7695003 39.1085543,50.7695003 L39.1085543,15.7224468 C43.7171085,15.7224468 46.8854896,18.7512045 52.8622084,19.2559975 L43.7171085,36.9237508 L42.4209526,36.9237508 C41.8448834,36.9237508 41.4128314,37.4285437 41.48484,38.00545 C42.2769353,42.6206998 48.1096368,46.1542505 55.2384942,46.1542505 C62.3673515,46.1542505 68.200053,42.6206998 68.9921483,38.00545 C69.0641569,37.4285437 68.632105,36.9237508 68.0560357,36.9237508 Z M20.6743372,36.9237508 L6.84867445,36.9237508 L13.7615058,23.9433606 L20.6743372,36.9237508 Z M48.3256628,36.9237508 L55.2384942,23.9433606 L62.1513256,36.9237508 L48.3256628,36.9237508 Z" id="Shape"></path>
        </g>
    </g>
</svg>