<?xml version="1.0" encoding="UTF-8"?>
<svg width="70px" height="70px" viewBox="0 0 70 70" version="1.1" xmlns="http://www.w3.org/2000/svg" xmlns:xlink="http://www.w3.org/1999/xlink">
    <title>15+ Sales Channels </title>
    <g id="15+-Sales-Channels-" stroke="none" stroke-width="1" fill="none" fill-rule="evenodd">
        <g id="2149502_gis_layer_layer-icon_multimedia_icon" transform="translate(3.000000, 7.000000)" fill="#0968AC" fill-rule="nonzero">
            <path d="M32,30.0390002 C31.8188933,30.0381661 31.6400263,29.9991257 31.4752194,29.9244589 L0.756353885,16.1794952 C0.296152934,15.9743576 0,15.5196379 0,15.018173 C0,14.5167081 0.296152934,14.0619885 0.756353885,13.8568509 L31.4752194,0.111887158 C31.8089874,-0.0372957193 32.1910126,-0.0372957193 32.5247806,0.111887158 L63.2436461,13.8568509 C63.7038471,14.0619885 64,14.5167081 64,15.018173 C64,15.5196379 63.7038471,15.9743576 63.2436461,16.1794952 L32.5247806,29.9244589 C32.3599737,29.9991257 32.1811067,30.0381661 32,30.0390002 Z" id="Path"></path>
            <path d="M63.2436461,38.8205048 L55.0007505,35.1297275 L33.5743419,44.7193851 C32.5712183,45.168843 31.4223819,45.168843 30.4192584,44.7193851 L8.99924946,35.1297275 L0.756353885,38.8205048 C0.296152934,39.0256424 0,39.4803621 0,39.981827 C0,40.4832919 0.296152934,40.9380115 0.756353885,41.1431491 L31.4752194,54.8881128 C31.8089874,55.0372957 32.1910126,55.0372957 32.5247806,54.8881128 L63.2436461,41.1431491 C63.7038471,40.9380115 64,40.4832919 64,39.981827 C64,39.4803621 63.7038471,39.0256424 63.2436461,38.8205048 L63.2436461,38.8205048 Z" id="Path"></path>
            <path d="M63.2436461,26.3354961 L55.0007505,22.6447188 L33.5743419,32.2343764 C32.5712183,32.6838343 31.4223819,32.6838343 30.4192584,32.2343764 L8.99924946,22.6447188 L0.756353885,26.3354961 C0.296152934,26.5406337 0,26.9953534 0,27.4968183 C0,27.9982832 0.296152934,28.4530028 0.756353885,28.6581405 L31.4752194,42.4031042 C31.8089874,42.552287 32.1910126,42.552287 32.5247806,42.4031042 L63.2436461,28.6581405 C63.7038471,28.4530028 64,27.9982832 64,27.4968183 C64,26.9953534 63.7038471,26.5406337 63.2436461,26.3354961 L63.2436461,26.3354961 Z" id="Path"></path>
        </g>
    </g>
</svg>