<?xml version="1.0" encoding="UTF-8"?>
<svg width="70px" height="70px" viewBox="0 0 70 70" version="1.1" xmlns="http://www.w3.org/2000/svg" xmlns:xlink="http://www.w3.org/1999/xlink">
    <!-- Generator: Sketch 57.1 (83088) - https://sketch.com -->
    <title>app_booking</title>
    <desc>Created with Sketch.</desc>
    <g id="app_booking" stroke="none" stroke-width="1" fill="none" fill-rule="evenodd">
        <g id="7743576_qr_phone_code_scan_ticket_icon" transform="translate(18.000000, 4.000000)">
            <g id="Group">
                <path d="M28.6000041,0 C31.4718852,0 33.8000049,2.32811964 33.8000049,5.20000075 L33.8000049,57.2000083 C33.8000049,60.0718894 31.4718852,62.400009 28.6000041,62.400009 L5.20000075,62.400009 C2.32811964,62.400009 0,60.0718894 0,57.2000083 L0,5.20000075 C0,2.32811964 2.32811964,0 5.20000075,0 L28.6000041,0 Z M31.2000045,7.80000113 L2.60000038,7.80000113 L2.60000038,54.6000079 L31.2000045,54.6000079 L31.2000045,7.80000113 Z" id="Combined-Shape" fill="#0968AC" fill-rule="nonzero"></path>
                <rect id="Rectangle-30-Copy-62" stroke="#0968AC" stroke-width="2.60000038" x="6.50000094" y="20.800003" width="5.20000075" height="5.20000075"></rect>
                <rect id="Rectangle-30-Copy-63" stroke="#0968AC" stroke-width="2.60000038" x="22.1000032" y="20.800003" width="5.20000075" height="5.20000075"></rect>
                <rect id="Rectangle-30-Copy-64" stroke="#0968AC" stroke-width="2.60000038" x="6.50000094" y="36.4000053" width="5.20000075" height="5.20000075"></rect>
                <rect id="Rectangle-40-Copy-9" fill="#0968AC" fill-rule="nonzero" x="15.6000023" y="19.5000028" width="2.60000038" height="2.60000038"></rect>
                <rect id="Rectangle-40-Copy-11" fill="#0968AC" fill-rule="nonzero" x="15.6000023" y="24.7000036" width="2.60000038" height="2.60000038"></rect>
                <rect id="Rectangle-40-Copy-15" fill="#0968AC" fill-rule="nonzero" x="15.6000023" y="29.9000043" width="2.60000038" height="2.60000038"></rect>
                <rect id="Rectangle-40-Copy-16" fill="#0968AC" fill-rule="nonzero" x="10.4000015" y="29.9000043" width="2.60000038" height="2.60000038"></rect>
                <rect id="Rectangle-40-Copy-27" fill="#0968AC" fill-rule="nonzero" x="18.2000026" y="32.5000047" width="2.60000038" height="2.60000038"></rect>
                <rect id="Rectangle-40-Copy-28" fill="#0968AC" fill-rule="nonzero" x="20.800003" y="35.1000051" width="2.60000038" height="2.60000038"></rect>
                <rect id="Rectangle-40-Copy-29" fill="#0968AC" fill-rule="nonzero" x="20.800003" y="40.3000058" width="2.60000038" height="2.60000038"></rect>
                <rect id="Rectangle-40-Copy-30" fill="#0968AC" fill-rule="nonzero" x="23.4000034" y="32.5000047" width="2.60000038" height="2.60000038"></rect>
                <rect id="Rectangle-40-Copy-31" fill="#0968AC" fill-rule="nonzero" x="26.0000038" y="35.1000051" width="2.60000038" height="2.60000038"></rect>
                <rect id="Rectangle-40-Copy-32" fill="#0968AC" fill-rule="nonzero" x="26.0000038" y="40.3000058" width="2.60000038" height="2.60000038"></rect>
                <rect id="Rectangle-40-Copy-33" fill="#0968AC" fill-rule="nonzero" x="18.2000026" y="37.7000054" width="2.60000038" height="2.60000038"></rect>
                <rect id="Rectangle-40-Copy-34" fill="#0968AC" fill-rule="nonzero" x="23.4000034" y="37.7000054" width="2.60000038" height="2.60000038"></rect>
                <rect id="Rectangle-40-Copy-35" fill="#0968AC" fill-rule="nonzero" x="20.800003" y="29.9000043" width="2.60000038" height="2.60000038"></rect>
                <rect id="Rectangle-40-Copy-36" fill="#0968AC" fill-rule="nonzero" x="26.0000038" y="29.9000043" width="2.60000038" height="2.60000038"></rect>
                <rect id="Rectangle-40-Copy-37" fill="#0968AC" fill-rule="nonzero" x="15.6000023" y="35.1000051" width="2.60000038" height="2.60000038"></rect>
                <rect id="Rectangle-40-Copy-38" fill="#0968AC" fill-rule="nonzero" x="15.6000023" y="40.3000058" width="2.60000038" height="2.60000038"></rect>
                <rect id="Rectangle-40-Copy-39" fill="#0968AC" fill-rule="nonzero" x="5.20000075" y="29.9000043" width="2.60000038" height="2.60000038"></rect>
            </g>
        </g>
    </g>
</svg>