<?xml version="1.0" encoding="UTF-8"?>
<svg width="70px" height="70px" viewBox="0 0 70 70" version="1.1" xmlns="http://www.w3.org/2000/svg" xmlns:xlink="http://www.w3.org/1999/xlink">
    <!-- Generator: Sketch 57.1 (83088) - https://sketch.com -->
    <title>bookmyshow</title>
    <desc>Created with Sketch.</desc>
    <g id="bookmyshow" stroke="none" stroke-width="1" fill="none" fill-rule="evenodd">
        <g id="bookmyshow-logo-vector" transform="translate(10.000000, 10.000000)" fill-rule="nonzero">
            <path d="M51,14.8714044 L48.1148571,9.89509306 L42.9857143,12.3976311 L40.1005714,7.4213198 L34.9714286,9.92385787 L32.0862857,4.94754653 L26.9571429,7.4500846 L24.072,2.47377327 L18.9428571,4.97631134 L16.0577143,0 L10.9285714,2.50253807 L0,38.5160745 L13.2308571,42.6294416 C14.1051429,39.7241963 16.7862857,37.5956007 19.9337143,37.5956007 C23.8097143,37.5956007 26.9571429,40.7884941 26.9571429,44.7292724 L26.9571429,44.8730964 C26.9862857,45.5059222 26.928,46.1675127 26.724,46.8003384 L40.188,51" id="Path" fill="#0968AC"></path>
            <path d="M10.2481426,36.9123783 C9.49925706,36.7955494 9,36.1821975 9,35.4520167 L9,17.4895688 C9,16.6425591 9.68647845,16 10.5601783,16 L23.9777117,16 C24.320951,16 24.6641902,16.0292072 25.0074294,16.0876217 C27.8781575,16.5841446 30,18.9791377 30,21.8122392 L30,35.4520167 C30,35.8609179 29.8439822,36.240612 29.5319465,36.5326843 C29.2511144,36.7955494 28.8454681,36.9707928 28.4398217,36.9707928 L28.1589896,36.9415855 C27.410104,36.8247566 26.910847,36.2114047 26.910847,35.4812239 L26.910847,21.8706537 C26.910847,20.4979138 25.8811293,19.3296245 24.4769688,19.0959666 L23.9777117,19.0375522 L21.0445765,19.0375522 L21.0445765,35.4812239 C21.0445765,35.8901252 20.8885587,36.2698192 20.576523,36.5618915 C20.2956909,36.8247566 19.8900446,37 19.4843982,37 L19.2035661,36.9707928 C18.4546805,36.8539638 17.9554235,36.240612 17.9554235,35.5104312 L17.9554235,19.0375522 L12.089153,19.0375522 L12.089153,35.4812239 C12.089153,35.8901252 11.9331352,36.2698192 11.6210996,36.5326843 C11.3402675,36.7955494 10.9346211,36.9707928 10.5289747,36.9707928 L10.2481426,36.9123783" id="Path" fill="#FFFFFF"></path>
            <path d="M27.3834353,41.9455599 C26.5533741,41.8366797 26,41.2650588 26,40.5845577 C26,40.2034771 26.1729294,39.8496165 26.4842024,39.6046361 C26.7954753,39.3596557 27.2450918,39.1963355 27.6947083,39.1963355 C29.1473153,39.1963355 30.3924071,38.4341742 30.8074377,37.3181524 L32.5713177,32.5274247 L26.7954753,16.8214592 C26.5187882,16.086518 27.0375765,15.2971367 27.9368094,15.0521563 L28.6976989,15.0249363 C29.3202447,15.1065964 29.839033,15.487677 30.0465483,15.9776378 L34.3351977,27.6822568 L38.693019,15.9776378 C38.9005343,15.3243568 39.7651813,14.8888361 40.6644143,15.0249363 L40.7681719,15.0521563 C41.7019908,15.2971367 42.220779,16.086518 41.909506,16.8214592 L35.9607342,32.9357253 L34.0930966,38.1075337 C33.6088942,39.3052156 32.778833,40.2579172 31.6720848,40.9111982 C30.4961648,41.6189194 29.1127294,42 27.6601224,42 L27.3834353,41.9455599" id="Path" fill="#FFFFFF"></path>
        </g>
    </g>
</svg>