<?xml version="1.0" encoding="UTF-8"?>
<svg width="70px" height="70px" viewBox="0 0 70 70" version="1.1" xmlns="http://www.w3.org/2000/svg" xmlns:xlink="http://www.w3.org/1999/xlink">
    <!-- Generator: Sketch 57.1 (83088) - https://sketch.com -->
    <title>paytm</title>
    <desc>Created with Sketch.</desc>
    <g id="paytm" stroke="none" stroke-width="1" fill="none" fill-rule="evenodd">
        <g id="1220356_paytm_icon" transform="translate(2.000000, 24.000000)" fill="#0968AC" fill-rule="nonzero">
            <path d="M52.4371901,4.6927686 C52.7140496,4.47128099 52.8524793,4.36053719 52.9909091,4.24979339 C54.9150826,2.61632231 57.3791322,2.79628099 59.0264463,4.73429752 C59.192562,4.92809917 59.2756198,4.94194215 59.4417355,4.77582645 C59.5524793,4.65123967 59.6770661,4.55433884 59.7878099,4.42975207 C61.0752066,3.17004132 62.7778926,2.79628099 64.3698347,3.50227273 C66.0448347,4.24979339 66.9446281,5.56487603 66.9584711,7.40599174 C66.986157,11.3789256 66.972314,15.3380165 66.972314,19.3109504 C66.972314,20.7229339 66.1002066,21.6088843 64.7020661,21.6088843 C64.1483471,21.6088843 63.5946281,21.5673554 63.0409091,21.6227273 C62.4733471,21.6780992 62.3072314,21.4981405 62.3072314,20.9028926 C62.3349174,17.0268595 62.3210744,13.1508264 62.3210744,9.27479339 C62.3210744,9.10867769 62.3210744,8.95640496 62.3210744,8.79028926 C62.3072314,7.89049587 61.947314,7.51673554 61.0890496,7.47520661 C60.313843,7.43367769 59.7739669,7.90433884 59.6909091,8.69338843 C59.6770661,8.87334711 59.6909091,9.06714876 59.6909091,9.24710744 C59.6909091,12.5971074 59.6909091,15.9332645 59.6909091,19.2832645 C59.6909091,20.7506198 58.8464876,21.6088843 57.3791322,21.5950413 C56.6316116,21.5811983 55.6210744,21.9272727 55.1919421,21.4427686 C54.8181818,21.0274793 55.0673554,20.0446281 55.0673554,19.3109504 C55.0673554,15.8778926 55.0673554,12.4309917 55.0673554,8.99793388 C55.0673554,7.77975207 54.2783058,7.15681818 53.2539256,7.57210744 C52.6171488,7.83512397 52.4095041,8.34731405 52.4095041,9.01177686 C52.4233471,12.2233471 52.4095041,15.4210744 52.4095041,18.6326446 C52.4095041,18.8818182 52.4095041,19.1448347 52.4095041,19.3940083 C52.3679752,20.7367769 51.5097107,21.5811983 50.1807851,21.5950413 C49.6270661,21.6088843 49.0733471,21.5535124 48.5196281,21.6088843 C47.9243802,21.6642562 47.7444215,21.4981405 47.7582645,20.8613636 C47.7859504,15.4210744 47.7721074,9.98078512 47.7721074,4.52665289 C47.7721074,4.29132231 47.7859504,4.06983471 47.7721074,3.83450413 C47.7444215,3.52995868 47.8690083,3.43305785 48.1735537,3.43305785 C49.4471074,3.44690083 50.7068182,3.44690083 51.9803719,3.43305785 C52.2987603,3.43305785 52.4510331,3.5161157 52.4233471,3.86219008 C52.3956612,4.11136364 52.4233471,4.33285124 52.4371901,4.6927686 Z" id="Path"></path>
            <path d="M23.0900826,12.1956612 C23.0900826,14.0921488 23.0900826,15.9747934 23.0900826,17.871281 C23.0762397,20.3353306 21.788843,21.6088843 19.3247934,21.6227273 C18.2450413,21.6227273 17.1514463,21.6365702 16.0716942,21.6227273 C13.8845041,21.5950413 12.278719,20.1415289 12.1679752,17.9543388 C12.0849174,16.3900826 12.0710744,14.8119835 12.1541322,13.2477273 C12.264876,11.0051653 13.981405,9.42706612 16.2516529,9.39938017 C16.8469008,9.38553719 17.4559917,9.39938017 18.0512397,9.39938017 C18.6326446,9.38553719 18.8541322,9.05330579 18.8402893,8.49958678 C18.8402893,7.94586777 18.5911157,7.69669421 18.0373967,7.72438017 C17.4144628,7.73822314 16.7915289,7.73822314 16.168595,7.72438017 C14.6458678,7.69669421 13.8014463,6.8661157 13.8152893,5.37107438 C13.8152893,4.76198347 13.5384298,3.94524793 13.939876,3.58533058 C14.2859504,3.28078512 15.075,3.47458678 15.6702479,3.47458678 C17.2206612,3.4607438 18.7572314,3.47458678 20.3076446,3.47458678 C21.9549587,3.47458678 23.0762397,4.59586777 23.0900826,6.25702479 C23.1039256,8.22272727 23.0900826,10.2161157 23.0900826,12.1956612 Z M18.8541322,15.3380165 C18.8541322,15.102686 18.8541322,14.8811983 18.8541322,14.6458678 C18.8541322,13.2338843 18.8541322,13.2338843 17.4421488,13.2892562 C16.736157,13.3169421 16.3485537,13.6768595 16.3347107,14.4105372 C16.3208678,14.9919421 16.3208678,15.5595041 16.3347107,16.1409091 C16.3485537,17.1376033 16.7915289,17.4006198 18.2311983,17.4421488 C19.2971074,17.4698347 18.7572314,16.722314 18.8541322,16.3070248 C18.9095041,16.0024793 18.8402893,15.656405 18.8541322,15.3380165 Z" id="Shape"></path>
            <path d="M35.4103306,10.6867769 C35.4103306,12.8047521 35.4380165,14.9365702 35.3964876,17.0545455 C35.3688017,18.6880165 34.9811983,20.1692149 33.4030992,21.0413223 C32.7663223,21.3873967 32.0741736,21.5811983 31.3543388,21.5950413 C29.7623967,21.6227273 28.1704545,21.5950413 26.5785124,21.6227273 C26.1909091,21.6227273 26.1078512,21.4842975 26.1216942,21.1382231 C26.1493802,20.5568182 26.1078512,19.9892562 26.1355372,19.4078512 C26.1632231,18.3004132 27.0076446,17.4559917 28.1150826,17.4144628 C28.8349174,17.3867769 29.5409091,17.4006198 30.2607438,17.4144628 C30.8421488,17.4144628 31.1605372,17.1791322 31.1605372,16.5561983 C31.1605372,15.9194215 30.8559917,15.6979339 30.2745868,15.6840909 C29.3055785,15.656405 28.3365702,15.7948347 27.381405,15.5179752 C25.7340909,15.0334711 24.5297521,13.6630165 24.4882231,11.9603306 C24.4051653,9.26095041 24.4605372,6.56157025 24.4466942,3.86219008 C24.4466942,3.55764463 24.543595,3.4607438 24.8481405,3.47458678 C25.9832645,3.48842975 27.1045455,3.50227273 28.2396694,3.47458678 C28.7380165,3.4607438 28.6688017,3.73760331 28.6688017,4.04214876 C28.6688017,6.07706612 28.6688017,8.0981405 28.6688017,10.1330579 C28.6688017,11.0190083 29.0840909,11.4896694 29.8592975,11.5173554 C30.7729339,11.5450413 31.1743802,11.171281 31.1743802,10.2438017 C31.1743802,8.19504132 31.1882231,6.13243802 31.1605372,4.08367769 C31.1605372,3.59917355 31.285124,3.4607438 31.7696281,3.47458678 C32.7801653,3.5161157 33.8045455,3.52995868 34.8150826,3.47458678 C35.3688017,3.44690083 35.4518595,3.65454545 35.4380165,4.13904959 C35.3964876,6.31239669 35.4103306,8.49958678 35.4103306,10.6867769 Z" id="Path"></path>
            <path d="M0.138429752,13.8291322 C0.138429752,11.5727273 0.138429752,9.30247934 0.138429752,7.04607438 C0.138429752,4.83119835 1.49504132,3.44690083 3.72376033,3.47458678 C5.17727273,3.48842975 6.63078512,3.30847107 8.07045455,3.58533058 C9.91157025,3.94524793 11.0743802,5.37107438 11.0882231,7.26756198 C11.1020661,9.27479339 11.0882231,11.2820248 11.0882231,13.2892562 C11.0882231,15.8086777 9.60702479,17.3452479 7.08760331,17.4144628 C6.32623967,17.4421488 5.56487603,17.4283058 4.8035124,17.4144628 C4.45743802,17.4006198 4.30516529,17.5113636 4.31900826,17.885124 C4.34669421,18.438843 4.33285124,18.992562 4.31900826,19.546281 C4.29132231,20.7367769 3.44690083,21.5950413 2.27024793,21.6088843 C1.57809917,21.6227273 0.705991736,21.8995868 0.263016529,21.4981405 C-0.152272727,21.1243802 0.152272727,20.2384298 0.138429752,19.5739669 C0.124586777,17.6636364 0.138429752,15.7394628 0.138429752,13.8291322 Z M4.31900826,10.4376033 C4.31900826,10.8805785 4.31900826,11.3097107 4.31900826,11.752686 C4.31900826,13.3169421 4.31900826,13.3169421 5.88326446,13.1785124 C6.56157025,13.1231405 6.87995868,12.7909091 6.89380165,12.1126033 C6.90764463,11.3373967 6.8661157,10.5483471 6.90764463,9.7731405 C6.99070248,7.53057851 6.57541322,7.75206612 4.7481405,7.73822314 C4.41590909,7.73822314 4.30516529,7.83512397 4.30516529,8.16735537 C4.33285124,8.91487603 4.31900826,9.67623967 4.31900826,10.4376033 Z" id="Shape"></path>
            <path d="M39.3278926,13.8568182 C39.3278926,12.0157025 39.3140496,10.1607438 39.3417355,8.3196281 C39.3417355,7.89049587 39.2448347,7.71053719 38.7741736,7.72438017 C38.1512397,7.75206612 37.3206612,7.93202479 36.9745868,7.62747934 C36.5454545,7.22603306 36.877686,6.3677686 36.822314,5.70330579 C36.822314,5.66177686 36.822314,5.60640496 36.822314,5.56487603 C36.822314,4.9142562 36.6146694,4.15289256 36.8915289,3.66838843 C37.1683884,3.1838843 38.0128099,3.48842975 38.6080579,3.33615702 C39.7847107,3.03161157 40.6706612,2.35330579 41.3904959,1.41198347 C41.888843,0.775206612 42.5117769,0.31838843 43.3146694,0.166115702 C43.7438017,0.0830578512 44.0068182,0.138429752 43.9791322,0.69214876 C43.9376033,1.46735537 43.9791322,2.25640496 43.9652893,3.04545455 C43.9514463,3.37768595 44.0760331,3.48842975 44.4082645,3.47458678 C44.9619835,3.4607438 45.5157025,3.48842975 46.0694215,3.4607438 C46.4016529,3.44690083 46.5123967,3.5714876 46.4985537,3.90371901 C46.4847107,5.03884298 46.4847107,6.16012397 46.4985537,7.29524793 C46.4985537,7.61363636 46.4154959,7.77975207 46.0694215,7.73822314 C46.0002066,7.72438017 45.9309917,7.73822314 45.8617769,7.73822314 C45.252686,7.79359504 44.4082645,7.46136364 44.089876,7.87665289 C43.7853306,8.2642562 43.9791322,9.06714876 43.9791322,9.69008264 C43.9791322,13.4553719 43.9652893,17.2068182 43.9929752,20.9721074 C43.9929752,21.4981405 43.8545455,21.6642562 43.3285124,21.6227273 C42.8301653,21.5811983 42.3179752,21.6227273 41.8057851,21.6088843 C40.3107438,21.5535124 39.3278926,20.5429752 39.3278926,19.0479339 C39.3278926,17.317562 39.3278926,15.5871901 39.3278926,13.8568182 Z" id="Path"></path>
        </g>
    </g>
</svg>