<?xml version="1.0" encoding="UTF-8"?>
<svg width="70px" height="70px" viewBox="0 0 70 70" version="1.1" xmlns="http://www.w3.org/2000/svg" xmlns:xlink="http://www.w3.org/1999/xlink">
    <!-- Generator: Sketch 57.1 (83088) - https://sketch.com -->
    <title>other_partner</title>
    <desc>Created with Sketch.</desc>
    <g id="other_partner" stroke="none" stroke-width="1" fill="none" fill-rule="evenodd">
        <g id="noun-ticket-counter-3928324" transform="translate(1.000000, 6.000000)" fill="#0968AC" fill-rule="nonzero">
            <g id="Group-110" transform="translate(0.000000, 0.029278)">
                <path d="M38.7505556,11.1731825 C40.6468651,10.6698611 42.6422063,10.6698611 44.538381,11.1731825 C46.0888889,10.3120111 47.1756746,8.80519048 47.5035317,7.06228571 C47.8308222,5.31884127 47.3649278,3.52007937 46.232323,2.1550873 C45.0997317,0.790095238 43.4185532,4.97379915e-14 41.6444817,4.97379915e-14 C39.8705452,4.97379915e-14 38.1892992,0.790027778 37.0566405,2.1550873 C35.9240492,3.52007937 35.4581008,5.31884127 35.7854317,7.06228571 C36.1132484,8.80519048 37.1999397,10.3119841 38.7505825,11.1731825 L38.7505556,11.1731825 Z" id="Path"></path>
                <path d="M52.0793651,22.3405635 C52.0793651,18.6128413 50.0909048,15.1681825 46.862254,13.3039841 C43.6336032,11.4404603 39.6566825,11.4404603 36.4280317,13.3039841 C33.199381,15.1680476 31.2109206,18.6128413 31.2109206,22.3405635 L31.2109206,22.6957825 L52.0790952,22.6957825 L52.0793651,22.3405635 Z" id="Path"></path>
                <path d="M3.77777778,57.8516746 L64.2222222,57.8516746 L64.2222222,32.5405635 L3.77777778,32.5405635 L3.77777778,57.8516746 Z M16.6220873,48.2258968 C16.6220873,47.5997841 17.1296183,47.0927794 17.755731,47.0927794 C18.635346,47.0927794 19.4485802,46.6231881 19.8886913,45.8611024 C20.3287619,45.0990167 20.3287619,44.1598881 19.8886913,43.3977214 C19.4486206,42.6356357 18.6354,42.1660444 17.755731,42.1660444 C17.1296183,42.1660444 16.6220873,41.6590397 16.6220873,41.032927 L16.6220873,36.9679032 C16.6220873,36.3423167 17.1296183,35.8347857 17.755731,35.8347857 L50.2446198,35.8347857 L50.2440928,35.8347857 C50.8702055,35.8347857 51.3777365,36.3423167 51.3777365,36.9679032 L51.3777365,41.032927 C51.3777365,41.6590397 50.8702055,42.1660444 50.2440928,42.1660444 C49.3644778,42.1660444 48.5512436,42.6356357 48.1111325,43.3977214 C47.6710619,44.1598071 47.6710619,45.0989357 48.1111325,45.8611024 C48.5512032,46.6231881 49.3644238,47.0927794 50.2440928,47.0927794 C50.8702055,47.0927794 51.3777365,47.5997841 51.3777365,48.2258968 L51.3777365,51.7017222 L51.3777365,51.7011951 C51.3777365,52.3273078 50.8702055,52.8348387 50.2440928,52.8348387 L17.755204,52.8348387 L17.755731,52.8348387 C17.1296183,52.8348387 16.6220873,52.3273078 16.6220873,51.7011951 L16.6220873,48.2258968 Z" id="Shape"></path>
                <path d="M15.6089683,16.296119 C15.6864424,15.1350595 16.3510317,14.0942143 17.3713016,13.5349683 C18.3916389,12.9757897 19.6265,12.9757897 20.6467698,13.5349683 C21.6671071,14.0941468 22.3316587,15.1349921 22.4091032,16.296119 L22.4091032,20.6104762 L27.4865714,20.6104762 L27.4865714,9.27714286 L10.5243492,9.27714286 L10.5243492,20.6104762 L15.6092381,20.6104762 L15.6089683,16.296119 Z" id="Path"></path>
                <path d="M16.7423016,16.296119 L16.7423016,22.7186111 L21.2759048,22.7186111 L21.2753778,16.296119 C21.2753778,15.486069 20.8432135,14.7381905 20.1422603,14.3328889 C19.4407809,13.928127 18.5769111,13.928127 17.8754587,14.3328889 C17.1739793,14.738177 16.7423016,15.4860421 16.7423016,16.296119 L16.7423016,16.296119 Z" id="Path"></path>
                <polygon id="Path" points="43.3540476 23.8516746 0 23.8516746 0 31.4072302 68 31.4072302 68 23.8516746"></polygon>
                <polygon id="Path" points="26.5429365 51.7006429 41.4584127 51.7006429 41.4584127 36.9673095 26.5429365 36.9673095"></polygon>
                <path d="M25.4096032,36.9673095 L17.7481349,36.9673095 L17.7481349,41.0323333 C19.0330381,41.0323333 20.2204206,41.718 20.8629127,42.8305556 C21.5053643,43.9431246 21.5053643,45.3144444 20.8629127,46.427 C20.2204611,47.539569 19.033119,48.2252222 17.7481349,48.2252222 L17.7481349,51.7010476 L25.4096032,51.7005205 L25.4096032,36.9673095 Z" id="Path"></path>
                <path d="M42.5903968,51.7006429 L50.2440397,51.7006429 L50.2440397,48.2248175 L50.2440397,48.2253445 C48.9591365,48.2253445 47.7722937,47.5396778 47.1298016,46.4271222 C46.48735,45.3145532 46.48735,43.9432333 47.1298016,42.8306778 C47.7722532,41.7181087 48.9591905,41.0324556 50.2440397,41.0324556 L50.2440397,36.9674318 L42.5903968,36.9674318 L42.5903968,51.7006429 Z" id="Path"></path>
            </g>
        </g>
    </g>
</svg>