<?xml version="1.0" encoding="UTF-8"?>
<svg width="70px" height="70px" viewBox="0 0 70 70" version="1.1" xmlns="http://www.w3.org/2000/svg" xmlns:xlink="http://www.w3.org/1999/xlink">
    <!-- Generator: Sketch 57.1 (83088) - https://sketch.com -->
    <title>website_booking</title>
    <desc>Created with Sketch.</desc>
    <g id="website_booking" stroke="none" stroke-width="1" fill="none" fill-rule="evenodd">
        <g transform="translate(5.000000, 10.000000)" fill-rule="nonzero">
            <polygon id="Path" fill="#0968AC" points="37 46 34 40 26 40 23 46"></polygon>
            <path d="M60,32 L0,32 L0,2 C0,0.8954305 0.8954305,0 2,0 L58,0 C59.1045695,0 60,0.8954305 60,2 L60,32 Z" id="Path" stroke="#FFFFFF" fill="#0968AC"></path>
            <path d="M60,32 L60,38 C60,39.1045695 59.1045695,40 58,40 L2,40 C0.8954305,40 0,39.1045695 0,38 L0,32 L60,32 Z" id="Path" stroke="#FFFFFF" fill="#0968AC"></path>
            <path d="M23,46 L37,46 C39.209139,46 41,47.790861 41,50 L41,50 L19,50 L19,50 C19,47.790861 20.790861,46 23,46 Z" id="Path" fill="#0968AC"></path>
            <path d="M30,38 C28.8954305,38 28,37.1045695 28,36 C28,34.8954305 28.8954305,34 30,34 C31.1045695,34 32,34.8954305 32,36 C32,37.1045695 31.1045695,38 30,38 Z" id="Shape" fill="#939393"></path>
            <rect id="Rectangle" fill="#0968AC" x="10" y="8" width="16" height="6"></rect>
            <rect id="Rectangle" fill="#0968AC" x="42" y="4" width="14" height="12"></rect>
            <rect id="Rectangle" fill="#0968AC" x="42" y="20" width="14" height="4"></rect>
            <circle id="Oval" fill="#FFFFFF" cx="30" cy="36" r="2"></circle>
            <path d="M12,26 L46,26 C46.5522847,26 47,25.5522847 47,25 L47,23 C47,22.7348052 46.8945494,22.4804927 46.707,22.293 L45,20.586 L45,19.414 L46.707,17.707 C46.8945494,17.5195073 47,17.2651948 47,17 L47,15 C47,14.7348052 46.8945494,14.4804927 46.707,14.293 L45,12.586 L45,11.414 L46.707,9.707 C46.8945494,9.51950727 47,9.26519481 47,9 L47,7 C47,6.44771525 46.5522847,6 46,6 L12,6 C11.4477152,6 11,6.44771525 11,7 L11,9 C11,9.26519481 11.1054506,9.51950727 11.293,9.707 L13,11.414 L13,12.586 L11.293,14.293 C11.1054506,14.4804927 11,14.7348052 11,15 L11,17 C11,17.2651948 11.1054506,17.5195073 11.293,17.707 L13,19.414 L13,20.586 L11.293,22.293 C11.1054506,22.4804927 11,22.7348052 11,23 L11,25 C11,25.5522847 11.4477152,26 12,26 Z M13,23.414 L14.707,21.707 C14.8945494,21.5195073 14.9999434,21.2651948 15,21 L15,19 C14.9999434,18.7348052 14.8945494,18.4804927 14.707,18.293 L13,16.586 L13,15.414 L14.707,13.707 C14.8945494,13.5195073 14.9999434,13.2651948 15,13 L15,11 C14.9999434,10.7348052 14.8945494,10.4804927 14.707,10.293 L13,8.586 L13,8 L37,8 L37,11 L39,11 L39,8 L45,8 L45,8.586 L43.293,10.293 C43.1054506,10.4804927 43.0000566,10.7348052 43,11 L43,13 C43.0000566,13.2651948 43.1054506,13.5195073 43.293,13.707 L45,15.414 L45,16.586 L43.293,18.293 C43.1054506,18.4804927 43.0000566,18.7348052 43,19 L43,21 C43.0000566,21.2651948 43.1054506,21.5195073 43.293,21.707 L45,23.414 L45,24 L39,24 L39,21 L37,21 L37,24 L13,24 L13,23.414 Z" id="Shape" fill="#FFFFFF"></path>
            <rect id="Rectangle" fill="#FFFFFF" x="37" y="13" width="2" height="6"></rect>
            <path d="M34,10 L18,10 C17.4477153,10 17,10.4477152 17,11 L17,17 C17,17.5522847 17.4477153,18 18,18 L34,18 C34.5522847,18 35,17.5522847 35,17 L35,11 C35,10.4477152 34.5522847,10 34,10 Z M33,16 L19,16 L19,12 L33,12 L33,16 Z" id="Shape" fill="#FFFFFF"></path>
            <rect id="Rectangle" fill="#FFFFFF" x="17" y="20" width="17" height="2"></rect>
        </g>
    </g>
</svg>