<?xml version="1.0" encoding="UTF-8"?>
<svg width="70px" height="70px" viewBox="0 0 70 70" version="1.1" xmlns="http://www.w3.org/2000/svg" xmlns:xlink="http://www.w3.org/1999/xlink">
    <!-- Generator: Sketch 57.1 (83088) - https://sketch.com -->
    <title>kiosk_booking copy</title>
    <desc>Created with Sketch.</desc>
    <g id="kiosk_booking-copy" stroke="none" stroke-width="1" fill="none" fill-rule="evenodd">
        <g id="Group-109" transform="translate(9.000000, 1.000000)">
            <g id="vecteezy_vending-machine-icon-in-trendy-flat-style-isolated-on-soft_5569131">
                <path d="M0.923117267,0 L50.7172632,0 C51.2249714,0 51.6403176,0.41534626 51.6403176,0.923117267 L51.6403176,67.0176731 C51.6403176,67.5253813 51.2249714,67.9407276 50.7172632,67.9407276 L0.923117267,67.9407276 C0.41534626,67.9407276 1.70530257e-13,67.5253813 1.70530257e-13,67.0176731 L1.70530257e-13,0.923117267 C1.70530257e-13,0.41534626 0.41534626,0 0.923117267,0" id="Fill-13" fill="#0968AC"></path>
                <polygon id="Fill-14" fill="#FFFFFF" points="3.6994386 9.85937211 47.9833869 9.85937211 47.9833869 5.5738024 3.6994386 5.5738024"></polygon>
                <polygon id="Fill-15" fill="#FFFFFF" points="3.6994386 57.9703453 36.5553056 57.9703453 36.5553056 13.5971117 3.6994386 13.5971117"></polygon>
                <polygon id="Fill-17" fill="#FFFFFF" points="39.1191505 57.9703453 48.0950877 57.9703453 48.0950877 13.5971117 39.1191505 13.5971117"></polygon>
                <polygon id="Fill-18" fill="#0968AC" points="40.8489751 25.0252558 46.5548218 25.0252558 46.5548218 15.7800185 40.8489751 15.7800185"></polygon>
                <path d="M43.0564949,31.6339391 L44.3538319,31.6339391 L44.3538319,30.2528421 L43.0564949,30.2528421 L43.0564949,31.6339391 Z M43.0801662,39.6318818 L44.3775032,39.6318818 L44.3775032,38.2507849 L43.0801662,38.2507849 L43.0801662,39.6318818 Z M43.0564949,35.5882364 L44.3538319,35.5882364 L44.3538319,34.2071394 L43.0564949,34.2071394 L43.0564949,35.5882364 Z" id="Fill-19" fill="#83D2BA"></path>
                <path d="M40.8449566,42.42547 L46.5590286,42.42547 L46.5590286,41.8335623 L40.8449566,41.8335623 L40.8449566,42.42547 Z M40.8449566,27.3122031 L46.5590286,27.3122031 L46.5590286,27.0238781 L40.8449566,27.0238781 L40.8449566,27.3122031 Z" id="Fill-20" fill="#83D2BA"></path>
                <path d="M41.5793943,55.0934995 L42.3048532,55.0934995 L42.3048532,45.8304303 L41.5793943,45.8304303 L41.5793943,55.0934995 Z M40.8449566,27.8822604 L46.5590286,27.8822604 L46.5590286,26.7551431 L40.8449566,26.7551431 L40.8449566,27.8822604 Z M44.8729677,55.0934995 L45.5984266,55.0934995 L45.5984266,45.8304303 L44.8729677,45.8304303 L44.8729677,55.0934995 Z" id="Fill-21" fill="#83D2BA"></path>
                <path d="M12.481108,57.9703453 L36.5553056,57.9703453 L36.5553056,24.3952982 C23.0296473,29.8197267 13.3041404,42.7110323 12.481108,57.9703453" id="Fill-24" fill="#FFFFFF"></path>
                <path d="M40.8489751,25.0252558 L46.5548846,25.0252558 L46.5548846,21.8866445 C44.6050489,22.1035162 42.699542,22.4662456 40.8489751,22.9636565 L40.8489751,25.0252558" id="Fill-27" fill="#0968AC"></path>
                <path d="M43.0564949,31.6339391 L44.3538319,31.6339391 L44.3538319,30.2528421 L43.0564949,30.2528421 L43.0564949,31.6339391 Z M43.0801662,39.6318818 L44.3775032,39.6318818 L44.3775032,38.2507849 L43.0801662,38.2507849 L43.0801662,39.6318818 Z M43.0564949,35.5882364 L44.3538319,35.5882364 L44.3538319,34.2071394 L43.0564949,34.2071394 L43.0564949,35.5882364 Z" id="Fill-28" fill="#0968AC"></path>
                <path d="M40.8449566,42.42547 L46.5590286,42.42547 L46.5590286,41.8335623 L40.8449566,41.8335623 L40.8449566,42.42547 Z M40.8449566,27.3122031 L46.5590286,27.3122031 L46.5590286,27.0238781 L40.8449566,27.0238781 L40.8449566,27.3122031 Z" id="Fill-29" fill="#0968AC"></path>
                <path d="M41.5793943,55.0934995 L42.3048532,55.0934995 L42.3048532,45.8304303 L41.5793943,45.8304303 L41.5793943,55.0934995 Z M40.8449566,27.8822604 L46.5590286,27.8822604 L46.5590286,26.7551431 L40.8449566,26.7551431 L40.8449566,27.8822604 Z M44.8729677,55.0934995 L45.5984266,55.0934995 L45.5984266,45.8304303 L44.8729677,45.8304303 L44.8729677,55.0934995 Z" id="Fill-30" fill="#0968AC"></path>
            </g>
            <rect id="Rectangle" fill="#0968AC" x="6.21606648" y="16.5761773" width="27.5641736" height="38.9916898"></rect>
            <path d="M6.8378638,7.24241871 L6.26003679,7.24241871 L6.26003679,9.0674902 L5.78295054,9.0674902 L5.78295054,7.24241871 L5.21144968,7.24241871 L5.21144968,6.81458221 L6.83798316,6.81458221 L6.83798316,7.24241871 L6.8378638,7.24241871 Z M7.57300871,9.06761727 L7.0958031,9.06761727 L7.0958031,6.81458221 L7.57300871,6.81458221 L7.57300871,9.06761727 Z M9.0676482,8.67980705 C9.2151785,8.67980705 9.37225769,8.6498191 9.46953697,8.60623493 L9.53864704,9.00738724 C9.45390067,9.05084435 9.25301596,9.1043398 8.99865749,9.1043398 C8.26697405,9.1043398 7.89027047,8.61627326 7.89027047,7.97445497 C7.89027047,7.20569618 8.40519419,6.78116343 9.04580513,6.78116343 C9.29383745,6.78116343 9.48218924,6.83135512 9.56693562,6.88141975 L9.46643358,7.28257206 C9.37225769,7.23911495 9.2372603,7.1989616 9.06454481,7.1989616 C8.68784123,7.1989616 8.39266127,7.44293133 8.39266127,7.94433996 C8.39266127,8.39568396 8.64379699,8.67980705 9.0676482,8.67980705 Z M11.0304219,9.06761727 L10.5092914,8.09491502 L10.3302497,8.33227724 L10.3302497,9.06761727 L9.85614752,9.06761727 L9.85614752,6.81458221 L10.3302497,6.81458221 L10.3302497,7.81066488 L10.3365759,7.81066488 C10.3836041,7.72375066 10.4338552,7.64357102 10.4841062,7.56326432 L10.9614312,6.81445514 L11.5516717,6.81445514 L10.8514996,7.77381528 L11.5861671,9.0674902 L11.0304219,9.0674902 L11.0304219,9.06761727 Z M13.1346384,9.06761727 L11.7876486,9.06761727 L11.7876486,6.81458221 L13.0907135,6.81458221 L13.0907135,7.23250744 L12.2648542,7.23250744 L12.2648542,7.7004973 L13.0435659,7.7004973 L13.0435659,8.1149917 L12.2648542,8.1149917 L12.2648542,8.6498191 L13.1346384,8.6498191 L13.1346384,9.06761727 L13.1346384,9.06761727 Z M14.943675,7.24241871 L14.365848,7.24241871 L14.365848,9.0674902 L13.8886424,9.0674902 L13.8886424,7.24241871 L13.3171415,7.24241871 L13.3171415,6.81458221 L14.943675,6.81458221 L14.943675,7.24241871 Z" id="Shape" fill="#0968AC" fill-rule="nonzero"></path>
        </g>
    </g>
</svg>