<?xml version="1.0" encoding="UTF-8"?>
<svg width="70px" height="70px" viewBox="0 0 70 70" version="1.1" xmlns="http://www.w3.org/2000/svg" xmlns:xlink="http://www.w3.org/1999/xlink">
    <!-- Generator: Sketch 57.1 (83088) - https://sketch.com -->
    <title>pos_booking</title>
    <desc>Created with Sketch.</desc>
    <g id="pos_booking" stroke="none" stroke-width="1" fill="none" fill-rule="evenodd">
        <g id="noun-cash-register-2282758" transform="translate(11.000000, 1.000000)" fill="#0968AC" fill-rule="nonzero">
            <path d="M3.16138182,29.8532364 L44.3149818,29.8532364 C46.0531855,29.8532364 47.4657309,28.4400727 47.4657309,26.7024873 L47.4662138,3.24001455 C47.4662138,1.50181091 46.0530502,0.0892654545 44.3154647,0.0892654545 L3.16186474,0.0892654545 C1.42366111,0.0892654545 0.0106211055,1.50242909 0.0106211055,3.24001455 L0.0106211055,26.7024873 C0.0106211055,28.4406909 1.42378474,29.8537309 3.1613702,29.8537309 L3.16138182,29.8532364 Z M6.41796364,5.86778182 L41.0584,5.86778182 L41.0584,24.0744727 L6.41796364,24.0739898 L6.41796364,5.86778182 Z" id="Shape"></path>
            <polygon id="Path" points="20.0834909 19.9610909 22.8093018 19.9610909 22.8093018 21.3742545 20.0834909 21.3742545"></polygon>
            <polygon id="Path" points="24.6592727 19.9610909 34.9312291 19.9610909 34.9312291 21.3742545 24.6592727 21.3742545"></polygon>
            <path d="M35.639439,58.5925091 C35.639439,54.0498618 34.5445564,49.5211855 32.4674036,45.4796364 L32.4674036,37.1574255 L30.7104073,34.7059636 L31.4783004,34.7059636 C32.9546422,34.7059636 34.1557695,33.5048611 34.1557695,32.0284945 L34.1557695,31.2654233 L13.3279876,31.2654233 L13.3279876,32.0284945 C13.3279876,33.5048364 14.5290902,34.7059636 15.9987804,34.7059636 L16.7666735,34.7059636 L15.0096771,37.1574255 L15.0096771,45.4796364 C12.9397571,49.5210618 11.8443389,54.0424436 11.8443389,58.5776727 C11.8791116,59.2528385 11.6246,62.3379491 12.7416669,66.6884655 C12.9251927,67.4090305 13.575248,67.9108211 14.3170415,67.9108211 L33.1592233,67.9108211 C33.9010415,67.9108211 34.5511215,67.4090305 34.7345978,66.6884655 C35.8251076,62.4563927 35.6111549,59.1200655 35.6391709,58.5922618 L35.639439,58.5925091 Z M19.8597091,36.5926545 L27.6237018,36.5926545 L27.6237018,44.3571418 L19.8597091,44.3571418 L19.8597091,36.5926545 Z M20.3813062,65.0586909 L16.7523316,65.0586909 L16.7523316,63.6455273 L20.3813062,63.6455273 L20.3813062,65.0586909 Z M20.3813062,61.4925236 L16.7523316,61.4925236 L16.7523316,60.07936 L20.3813062,60.07936 L20.3813062,61.4925236 Z M20.3813062,57.9258618 L16.7523316,57.9258618 L16.7523316,56.5126982 L20.3813062,56.5126982 L20.3813062,57.9258618 Z M20.3813062,54.3592 L16.7523316,54.3592 L16.7523316,52.9460364 L20.3813062,52.9460364 L20.3813062,54.3592 Z M20.3813062,50.7930327 L16.7523316,50.7930327 L16.7523316,49.3798691 L20.3813062,49.3798691 L20.3813062,50.7930327 Z M25.5557353,65.0581964 L21.9272553,65.0581964 L21.9272553,63.6450327 L25.5557353,63.6450327 L25.5557353,65.0581964 Z M25.5557353,61.4920291 L21.9272553,61.4920291 L21.9272553,60.0788655 L25.5557353,60.0788655 L25.5557353,61.4920291 Z M25.5557353,57.9253673 L21.9272553,57.9253673 L21.9272553,56.5122036 L25.5557353,56.5122036 L25.5557353,57.9253673 Z M25.5557353,54.3587055 L21.9272553,54.3587055 L21.9272553,52.9455418 L25.5557353,52.9455418 L25.5557353,54.3587055 Z M25.5557353,50.7925382 L21.9272553,50.7925382 L21.9272553,49.3793745 L25.5557353,49.3793745 L25.5557353,50.7925382 Z M26.5713833,47.2752073 L20.9116815,47.2752073 L20.9116815,45.8620436 L26.5713833,45.8620436 L26.5713833,47.2752073 Z M30.7311287,65.0578255 L27.1021542,65.0578255 L27.1021542,63.6446618 L30.7311287,63.6446618 L30.7311287,65.0578255 Z M30.7311287,61.4916582 L27.1021542,61.4916582 L27.1021542,60.0784945 L30.7311287,60.0784945 L30.7311287,61.4916582 Z M30.7311287,57.9249964 L27.1021542,57.9249964 L27.1021542,56.5118327 L30.7311287,56.5118327 L30.7311287,57.9249964 Z M30.7311287,54.3583345 L27.1021542,54.3583345 L27.1021542,52.9451709 L30.7311287,52.9451709 L30.7311287,54.3583345 Z M30.7311287,50.7921673 L27.1021542,50.7921673 L27.1021542,49.3790036 L30.7311287,49.3790036 L30.7311287,50.7921673 Z" id="Shape"></path>
        </g>
    </g>
</svg>