<?xml version="1.0" encoding="UTF-8"?>
<svg width="70px" height="70px" viewBox="0 0 70 70" version="1.1" xmlns="http://www.w3.org/2000/svg" xmlns:xlink="http://www.w3.org/1999/xlink">
    <!-- Generator: Sketch 57.1 (83088) - https://sketch.com -->
    <title>mobile_pos_booking</title>
    <desc>Created with Sketch.</desc>
    <g id="mobile_pos_booking" stroke="none" stroke-width="1" fill="none" fill-rule="evenodd">
        <g id="noun-pos-4076369" transform="translate(16.000000, 1.000000)" fill="#0968AC" fill-rule="nonzero">
            <path d="M1.61248822,64.7426981 C1.71259529,66.5412762 3.20284368,67.9512206 5.00477088,67.9512206 L32.3663983,67.9512206 C34.1706552,67.9512206 35.6585011,66.5411889 35.7586809,64.7421156 L37.2795803,37.3732077 L0.093627409,37.3732077 L1.61248822,64.7426981 Z M23.7831092,42.4701499 L27.1804882,42.4701499 L27.1804882,45.8675289 L23.7831092,45.8675289 L23.7831092,42.4701499 Z M23.7831092,49.2654904 L27.1804882,49.2654904 L27.1804882,52.6628694 L23.7831092,52.6628694 L23.7831092,49.2654904 Z M23.7831092,56.0608308 L27.1804882,56.0608308 L27.1804882,59.4582099 L23.7831092,59.4582099 L23.7831092,56.0608308 Z M16.9877687,42.4701499 L20.3851478,42.4701499 L20.3851478,45.8675289 L16.9877687,45.8675289 L16.9877687,42.4701499 Z M16.9877687,49.2654904 L20.3851478,49.2654904 L20.3851478,52.6628694 L16.9877687,52.6628694 L16.9877687,49.2654904 Z M16.9877687,56.0608308 L20.3851478,56.0608308 L20.3851478,59.4582099 L16.9877687,59.4582099 L16.9877687,56.0608308 Z M10.1930107,42.4701499 L13.5903897,42.4701499 L13.5903897,45.8675289 L10.1930107,45.8675289 L10.1930107,42.4701499 Z M10.1930107,49.2654904 L13.5903897,49.2654904 L13.5903897,52.6628694 L10.1930107,52.6628694 L10.1930107,49.2654904 Z M10.1930107,56.0608308 L13.5903897,56.0608308 L13.5903897,59.4582099 L10.1930107,59.4582099 L10.1930107,56.0608308 Z" id="Shape"></path>
            <path d="M37.3729165,10.1927195 L37.3729165,5.09635974 C37.3729165,2.2865182 35.0863983,-2.84217094e-14 32.2765567,-2.84217094e-14 L11.8911178,-2.84217094e-14 C9.08127623,-2.84217094e-14 6.79475803,2.2865182 6.79475803,5.09635974 L6.79475803,11.8917002 L3.39737901,11.8917002 C1.52381156,11.8917002 -1.13686838e-13,13.4155118 -1.13686838e-13,15.2890792 L0.00341266809,33.9752463 L37.3729165,33.9752463 L37.3729165,15.2890792 C37.3729165,13.4155118 35.8490229,11.8917002 33.9754555,11.8917002 L30.5780765,11.8917002 L30.5780765,10.1927195 L37.3729165,10.1927195 Z M30.5781585,5.09635974 C30.5781585,4.16012934 31.3392051,3.39737901 32.2771392,3.39737901 C33.2150732,3.39737901 33.9761199,4.16012934 33.9761199,5.09635974 L33.9761199,6.79534047 L30.5787409,6.79534047 L30.5781585,5.09635974 Z M10.1927195,11.8911178 L10.1927195,5.09635974 C10.1927195,4.16012934 10.9537662,3.39737901 11.8917002,3.39737901 L27.472,3.39737901 C27.2848617,3.92919143 27.1807794,4.49969251 27.1807794,5.09635974 L27.1807794,16.98806 L10.1938844,16.9874911 L10.1927195,11.8911178 Z M30.5781585,28.879469 L27.1807794,28.879469 L27.1807794,22.0841285 L30.5781585,22.0841285 L30.5781585,28.879469 Z" id="Shape"></path>
        </g>
    </g>
</svg>