<?xml version="1.0" encoding="UTF-8"?>
<svg width="70px" height="70px" viewBox="0 0 70 70" version="1.1" xmlns="http://www.w3.org/2000/svg" xmlns:xlink="http://www.w3.org/1999/xlink">
    <!-- Generator: Sketch 57.1 (83088) - https://sketch.com -->
    <title>ivr_booking</title>
    <desc>Created with Sketch.</desc>
    <g id="ivr_booking" stroke="none" stroke-width="1" fill="none" fill-rule="evenodd">
        <g transform="translate(10.000000, 9.000000)" fill="#0968AC" fill-rule="nonzero" id="Shape">
            <path d="M4.87480284,12.9647173 L12.1697555,12.9647173 C12.0908912,13.2963844 12.051459,13.6429022 12.051459,13.9943703 L12.051459,15.0735258 L4.87480284,15.0735258 C4.65299685,15.0735258 4.46076498,15.2665858 4.46076498,15.4893472 L4.46076498,42.4979374 C4.46076498,42.7206989 4.65299685,42.9137588 4.87480284,42.9137588 L45.1251972,42.9137588 C45.3470032,42.9137588 45.539235,42.7206989 45.539235,42.4979374 L45.539235,15.4893472 C45.539235,15.2665858 45.3470032,15.0735258 45.1251972,15.0735258 L37.4605678,15.0735258 L37.4605678,13.9943703 C37.4605678,13.6429022 37.4211356,13.2963844 37.3422713,12.9647173 L45.1251972,12.9647173 C46.5102524,12.9647173 47.6389984,14.0983256 47.6389984,15.4893472 L47.6389984,42.4979374 C47.6389984,43.888959 46.5102524,45.0225673 45.1251972,45.0225673 L4.87480284,45.0225673 C3.48974763,45.0225673 2.35607256,43.888959 2.35607256,42.4979374 L2.35607256,15.4893472 C2.35607256,14.0983256 3.48974763,12.9647173 4.87480284,12.9647173 Z M0,46.220529 L18.5873423,46.220529 L18.5873423,47.1165251 L31.4126577,47.1165251 L31.4126577,46.220529 L50,46.220529 L50,48.5818005 C50,49.8837175 48.89097,50.9430721 47.5305599,50.9430721 L2.46944006,50.9430721 C1.10902997,50.9430721 0,49.8837175 0,48.5818005 L0,46.220529 Z"></path>
            <path d="M28.5193218,21.1920408 L28.5193218,22.0038826 C28.5193218,22.3850522 28.356664,22.711769 28.0609227,22.9394807 L24.7141167,25.5185635 L21.3673107,22.9394807 C21.0666404,22.711769 20.9089117,22.3850522 20.9089117,22.0038826 L20.9089117,19.875273 L20.6427445,19.5980587 C20.1597003,19.0881825 19.9033912,18.4990999 19.8541009,17.796166 L19.7801656,16.5982043 L19.7604495,16.5932541 C19.5238565,16.5239505 19.3266956,16.4397962 19.1788249,16.3160398 C19.0309543,16.1972337 18.9274448,16.0338753 18.8140773,15.717059 C18.7007098,15.4002427 18.5774842,14.9200679 18.4838328,14.494346 C18.3951104,14.0686241 18.3408912,13.6924048 18.3162461,13.3656879 C18.2916009,13.0340209 18.29653,12.7568066 18.3704653,12.5389954 C18.4493297,12.3211842 18.6563486,12.1479253 18.7992902,12.103373 C18.9422319,12.0538704 19.0210962,12.0835719 19.0851735,12.0687212 C19.1492508,12.0489202 19.0506703,12.0142684 19.0506703,11.9845669 L19.0457413,11.9400146 C19.0309543,11.9202135 19.0161672,11.9053628 19.0063091,11.8855618 L19.0063091,11.8855618 C18.4641167,11.1776753 18.0599369,9.78665372 17.9465694,8.53918952 C17.8332019,7.29667556 18.0155757,6.20266926 18.1979495,5.10371269 C18.533123,5.31657365 18.8732256,5.52448435 19.4844243,5.19776753 C20.1005521,4.86610046 20.9976341,3.99485562 22.0179416,3.39092453 C23.0431782,2.78699345 24.1867114,2.45037612 25.3696767,2.50482893 C26.552642,2.55928173 27.7701104,3.00975491 28.4651025,3.60378549 C29.1551656,4.19781606 29.3227524,4.93540403 29.4903391,5.67299199 C30.0325315,5.65814123 30.569795,5.64824072 30.9591877,6.27692308 C31.3485804,6.91055569 31.5851735,8.19267168 31.4964511,9.31142926 C31.4027997,10.4301868 30.9838328,11.3954865 30.5599369,11.8954623 C30.5205047,11.9400146 30.4860016,11.9845669 30.4465694,12.0192186 L30.4416404,12.0538704 C30.5500789,12.0637709 30.6486593,12.0835719 30.7472397,12.123174 C30.9493297,12.2023781 31.1415615,12.3360349 31.2253549,12.5983984 C31.3140773,12.8558117 31.3042192,13.2369813 31.2697161,13.6132007 C31.240142,13.98942 31.1809937,14.3656394 31.0922713,14.746809 C31.0035489,15.1279786 30.8753943,15.5091483 30.7620268,15.7814123 C30.6486593,16.0536763 30.5500789,16.2120844 30.4022082,16.3358408 C30.2543375,16.4546469 30.0522476,16.5388013 29.8156546,16.6081048 C29.7712934,16.6229556 29.7269322,16.6378064 29.682571,16.6477069 L29.6037066,17.8011162 C29.5642744,18.4644504 29.3326104,19.0287794 28.8988565,19.5188546 L27.2574921,19.8109197 C26.9913249,19.5386557 26.6265773,19.3851978 26.2371845,19.3851978 C25.448541,19.3851978 24.8077681,20.0287309 24.8077681,20.8207717 C24.8077681,21.6177627 25.448541,22.2612958 26.2371845,22.2612958 C26.8286672,22.2612958 27.3511435,21.8999272 27.5680205,21.3652997 L28.5193218,21.1920408 Z M19.8886041,22.4543557 C20.1695584,23.8354768 20.4455836,25.2165979 20.6180994,26.4046591 C20.7856861,27.5927202 20.8497634,28.5877214 20.9089117,29.5777724 C21.1898659,28.9886921 21.4658912,28.3996117 21.7764196,27.9590391 C22.0869479,27.5135161 22.4270505,27.2214511 22.767153,26.9244358 C23.1959779,27.607571 23.6297319,28.2907061 23.7529574,28.7015773 C23.8712539,29.1124484 23.6790221,29.2560058 23.447358,30.7806843 C23.215694,32.310313 22.9445978,35.2309634 22.6735016,38.1516137 C18.3458202,38.1516137 12.6232256,38.1516137 8.29554416,38.1516137 C8.63564669,35.16661 8.97574921,32.1865567 9.52779968,30.1619025 C10.0749211,28.1372482 10.8339905,27.063043 12.0218849,26.2413007 C13.2147082,25.4195584 16.2263407,24.8453288 17.3797319,24.2562485 C18.528194,23.6671682 19.2083991,23.0582868 19.8886041,22.4543557 L19.8886041,22.4543557 Z M30.1113959,22.4543557 C29.8304416,23.8354768 29.5544164,25.2165979 29.3819006,26.4046591 C29.2143139,27.5927202 29.1502366,28.5877214 29.0910883,29.5777724 C28.8101341,28.9886921 28.5341088,28.3996117 28.2235804,27.9590391 C27.9130521,27.5135161 27.5729495,27.2214511 27.232847,26.9244358 C26.8040221,27.607571 26.3702681,28.2907061 26.2470426,28.7015773 C26.1287461,29.1124484 26.3209779,29.2560058 26.552642,30.7806843 C26.784306,32.310313 27.0554022,35.2309634 27.3264984,38.1516137 C31.6541798,38.1516137 37.3767744,38.1516137 41.7044558,38.1516137 C41.3643533,35.16661 41.0242508,32.1865567 40.4722003,30.1619025 C39.9250789,28.1372482 39.1660095,27.063043 37.9781151,26.2413007 C36.7852918,25.4195584 33.7736593,24.8453288 32.6202681,24.2562485 C31.471806,23.6671682 30.7916009,23.0582868 30.1113959,22.4543557 L30.1113959,22.4543557 Z"></path>
            <path d="M15.2011041,11.2172774 C14.7919953,6.38582868 16.7882492,3.10876001 19.632295,1.39597185 C21.1701498,0.46532395 22.9593849,0 24.7436909,0 C26.5279968,0 28.3172319,0.46532395 29.8600158,1.39597185 C32.7040615,3.10876001 34.6953864,6.38582868 34.2862776,11.2172774 C34.0989748,11.1380733 33.8968849,11.0984712 33.6898659,11.0984712 L33.3596215,11.0984712 C33.714511,6.70264499 31.930205,3.73744237 29.3819006,2.20286338 C27.9869874,1.36132007 26.3702681,0.945498665 24.7436909,0.945498665 C23.1220426,0.945498665 21.5003943,1.36132007 20.1104101,2.20286338 C17.5621057,3.73744237 15.7728707,6.70264499 16.1326893,11.0984712 L15.8024448,11.0984712 C15.5904968,11.0984712 15.3884069,11.1380733 15.2011041,11.2172774 Z M26.2371845,19.7069643 C26.6068612,19.7069643 26.9321767,19.8851735 27.1342666,20.1623878 L31.4373028,19.3851978 L31.4373028,19.3851978 L31.4373028,19.3851978 C31.4373028,19.3851978 31.4323738,19.3851978 31.4373028,19.3802475 L31.4373028,19.3802475 L32.2801656,18.0040767 L31.9351341,18.0040767 L31.9351341,11.7816064 L33.6898659,11.7816064 C34.6559543,11.7816064 35.4445978,12.687503 35.4445978,13.7914099 L35.4445978,15.9942732 C35.4445978,17.0981801 34.6559543,18.0040767 33.6898659,18.0040767 L33.3793375,18.0040767 L32.2358044,19.875273 L32.2358044,19.875273 C32.1667981,19.9891289 32.0731467,20.0881339 31.9647082,20.1623878 C31.8562697,20.2366416 31.7379732,20.2861441 31.5999606,20.3108954 L27.3215694,21.0831352 C27.2032729,21.5732104 26.7645899,21.9395292 26.2371845,21.9395292 C25.6210568,21.9395292 25.1232256,21.4395535 25.1232256,20.8207717 C25.1232256,20.2069401 25.6210568,19.7069643 26.2371845,19.7069643 Z M15.8024448,11.7816064 L17.5571767,11.7816064 L17.5571767,18.0040767 L15.8024448,18.0040767 C14.8363565,18.0040767 14.0477129,17.0981801 14.0477129,15.9942732 L14.0477129,13.7914099 C14.0477129,12.687503 14.8363565,11.7816064 15.8024448,11.7816064 Z"></path>
        </g>
    </g>
</svg>