<?xml version="1.0" encoding="UTF-8"?>
<svg width="70px" height="70px" viewBox="0 0 70 70" version="1.1" xmlns="http://www.w3.org/2000/svg" xmlns:xlink="http://www.w3.org/1999/xlink">
    <title>Bulk Booking </title>
    <g id="Bulk-Booking-" stroke="none" stroke-width="1" fill="none" fill-rule="evenodd">
        <g id="Group" transform="translate(-27.000000, -13.000000)" fill-rule="nonzero">
            <g id="306038_ticket_star_icon" transform="translate(68.578125, 47.500000) rotate(-8.000000) translate(-68.578125, -47.500000) translate(38.101216, 17.061263)" fill="#0968AC">
                <path d="M53.3564353,13.5117807 C51.7186314,15.1476791 49.0627129,15.1482784 47.4249089,13.51238 C45.7875551,11.8770809 45.7875551,9.22404591 47.425509,7.5881475 C47.4303093,7.58335322 47.4358596,7.58050661 47.4399099,7.57646144 L39.8539286,-2.27289575e-13 L31.5049989,8.3384524 L32.0009303,8.83361169 L31.128775,9.70467253 L30.6328435,9.20951324 L0,39.8039148 L7.5859813,47.3803762 C7.59078161,47.3755819 7.59348178,47.3700385 7.59753204,47.3659934 C9.23623601,45.7293458 11.8918545,45.730095 13.5292084,47.3652443 C15.1671623,49.0011427 15.1671623,51.6529791 13.5284583,53.2896266 C13.5245581,53.2935219 13.5190077,53.2963685 13.5140574,53.301013 L21.1000387,60.8774744 L51.7327323,30.2832227 L51.2369508,29.7882133 L52.1091061,28.9171524 L52.6048876,29.4123117 L60.9538173,21.0738593 L53.367836,13.4973979 C53.3640858,13.5012932 53.3613856,13.5069864 53.3564353,13.5117807 Z M35.2389256,35.0100254 L30.7375988,36.4079113 L29.3397659,40.9020531 L26.616979,37.0588192 L21.9052781,37.1187044 L24.7240362,33.3463592 L23.2101057,28.8890373 L27.6735102,30.4003454 L31.4504978,27.5851056 L31.3901185,32.2914908 L35.2389256,35.0100254 Z M50.483903,27.2936892 L49.6117477,28.16475 L47.5410163,26.0967671 L48.4131716,25.2257063 L50.483903,27.2936892 Z M46.7869185,23.6013441 L45.9147631,24.4724049 L43.8440317,22.404422 L44.7161871,21.5333611 L46.7869185,23.6013441 Z M43.0899339,19.9091488 L42.2177786,20.7802096 L40.1479472,18.7129758 L41.0201026,17.841915 L43.0899339,19.9091488 Z M39.3938494,16.2175528 L38.5216941,17.0886136 L36.4517127,15.02123 L37.3238681,14.1501691 L39.3938494,16.2175528 Z M35.6968648,12.5253575 L34.8247095,13.3964184 L32.7547282,11.3290347 L33.6268835,10.4579739 L35.6968648,12.5253575 Z" id="Shape"></path>
            </g>
            <g id="306038_ticket_star_icon" transform="translate(47.559567, 47.500000) rotate(-45.000000) translate(-47.559567, -47.500000) translate(13.929875, 13.912428)">
                <path d="M43.9767488,-1.4839928 L53.938009,8.46476673 C52.6681902,9.17756627 52.0310654,10.4089397 52.027956,11.6393383 C52.0256415,12.5551712 52.3746032,13.469834 53.0729638,14.1673183 C53.7716158,14.8651574 54.6874468,15.2138213 55.6032145,15.2137288 C56.8344279,15.2136044 58.0657694,14.5831084 58.7694816,13.3219833 L58.7694816,13.3219833 L68.7465084,23.252649 L58.0467725,33.9389575 L23.2828013,68.659137 L13.3216214,58.7104577 C14.5916172,57.9969795 15.2290957,56.7660479 15.2322355,55.5359566 C15.2345728,54.6202372 14.8853682,53.7057309 14.1868199,53.0080592 C13.488179,52.310359 12.572225,51.9615478 11.656235,51.9616635 C10.4254394,51.9618189 9.19437723,52.5919897 8.48992,53.853327 L8.48992,53.853327 L-1.48713114,43.9228332 L33.8016462,8.6783408 L43.9767488,-1.4839928 Z" id="Shape" stroke="#FFFFFF" stroke-width="2.1" fill="#0968AC"></path>
                <polygon id="Path" fill="#FFFFFF" points="38.8843317 38.6317522 33.9173504 40.174247 32.3749141 45.1333 29.3704596 40.8924901 24.1713413 40.9585703 27.2816951 36.7959826 25.6111511 31.8775584 30.5362871 33.5452087 34.7039975 30.4387372 34.6373721 35.6319898"></polygon>
            </g>
        </g>
    </g>
</svg>