<?xml version="1.0" encoding="UTF-8"?>
<svg width="70px" height="70px" viewBox="0 0 70 70" version="1.1" xmlns="http://www.w3.org/2000/svg" xmlns:xlink="http://www.w3.org/1999/xlink">
    <!-- Generator: Sketch 57.1 (83088) - https://sketch.com -->
    <title>phone_booking</title>
    <desc>Created with Sketch.</desc>
    <g id="phone_booking" stroke="none" stroke-width="1" fill="none" fill-rule="evenodd">
        <g id="noun-reservation-2252370" transform="translate(1.000000, 4.000000)" fill="#0968AC" fill-rule="nonzero">
            <path d="M25.3227237,0.0392918288 C24.5082848,0.0392918288 23.7269728,0.362794553 23.1506926,0.93900856 C22.5744786,1.51522257 22.2509759,2.29662724 22.2514912,3.11156887 L22.2514912,25.021063 L22.2514912,25.0205463 C22.2509749,25.8355144 22.5744786,26.6168264 23.1506926,27.1931066 C23.7269066,27.7693206 24.5083113,28.0928233 25.3227237,28.0923074 L31.4470895,28.0923074 C31.5592313,28.0938578 31.6496607,28.1853271 31.6496607,28.2974716 L31.6496607,35.4387945 C31.6481103,35.5157946 31.6899699,35.5876272 31.7581842,35.6237969 C31.8263985,35.6599718 31.9090807,35.6548043 31.9721328,35.6103609 L43.490592,28.1258629 C43.5226327,28.1041584 43.5603568,28.0917557 43.5991155,28.0907225 L64.8841739,28.0907225 C65.6980968,28.0907225 66.4784696,27.7672198 67.0540882,27.1915217 C67.6297863,26.6163396 67.953289,25.8360198 67.953805,25.0221365 L67.953805,3.10867345 C67.9532882,2.29475049 67.6297863,1.51437773 67.0540882,0.938759051 C66.4783902,0.363576949 65.6980571,0.0400742257 64.8841739,0.0400742257 L25.3227237,0.0392918288 Z" id="Shape"></path>
            <path d="M44.1801556,52.6484047 C44.1842899,52.2670226 44.0359798,51.9001136 43.7677634,51.6288016 C43.4995603,51.3580054 43.134186,51.2050451 42.7528039,51.2050451 C42.3719377,51.2050451 42.0060607,51.3580054 41.7383603,51.6288016 C41.4701572,51.9001136 41.3213245,52.2670226 41.3259681,52.6484047 C41.3213171,53.0297868 41.470144,53.3966957 41.7383603,53.6680078 C42.0060475,53.9388039 42.3719377,54.0917642 42.7528039,54.0917642 C43.134186,54.0917642 43.4995471,53.9388039 43.7677634,53.6680078 C44.0359665,53.3966957 44.1842833,53.0297868 44.1801556,52.6484047 Z" id="Path"></path>
            <path d="M49.1835798,49.0433463 C49.1964992,48.6567914 49.0523173,48.281614 48.7835969,48.0035813 C48.5148778,47.7250327 48.1448599,47.5684475 47.7583051,47.5684475 C47.3712342,47.5684475 47.0012163,47.7250327 46.7324973,48.0035813 C46.4637782,48.281614 46.3195891,48.6567914 46.3325144,49.0433463 C46.3195949,49.4299012 46.4637769,49.8050786 46.7324973,50.0831113 C47.0012163,50.361144 47.3712342,50.5182451 47.7583051,50.5182451 C48.1448599,50.5182451 48.5148778,50.361144 48.7835969,50.0831113 C49.052316,49.8050786 49.1965051,49.4299012 49.1835798,49.0433463 Z" id="Path"></path>
            <path d="M53.348249,43.8480934 C53.3523833,43.4667113 53.203544,43.0998023 52.9358568,42.8284903 C52.6676537,42.5576942 52.3022794,42.4047339 51.9208973,42.4047339 C51.5395152,42.4047339 51.1741541,42.5576942 50.9059377,42.8284903 C50.6377346,43.0998023 50.4894179,43.4667113 50.4935455,43.8480934 C50.4894113,44.2294755 50.6377214,44.5963844 50.9059377,44.8676965 C51.1741409,45.1384926 51.5395152,45.2914529 51.9208973,45.2914529 C52.3022794,45.2914529 52.6676405,45.1384926 52.9358568,44.8676965 C53.203544,44.5963844 53.3523767,44.2294755 53.348249,43.8480934 Z" id="Path"></path>
            <path d="M55.4054475,38.5218677 C55.4095817,38.1410016 55.2612716,37.7735767 54.9930553,37.5027805 C54.7248521,37.2314685 54.3594778,37.0790241 53.9780957,37.0790241 C53.5972296,37.0790241 53.2313525,37.2314685 52.9636521,37.5027805 C52.695449,37.7735767 52.5466163,38.1410016 52.5512599,38.5218677 C52.5466088,38.9032498 52.6954358,39.2701588 52.9636521,39.5414708 C53.2313393,39.8127829 53.5972296,39.9652272 53.9780957,39.9652272 C54.3594778,39.9652272 54.7248389,39.8127829 54.9930553,39.5414708 C55.2612716,39.2701588 55.4095751,38.9032498 55.4054475,38.5218677 Z" id="Path"></path>
            <path d="M56.1568872,32.7537743 C56.1610214,32.3729082 56.0127113,32.0054833 55.7444949,31.7346872 C55.4762918,31.4633751 55.1109175,31.3109307 54.7295354,31.3109307 C54.3481533,31.3109307 53.9827922,31.4633751 53.7150918,31.7346872 C53.4468887,32.0054833 53.298056,32.3729082 53.3026996,32.7537743 C53.2980486,33.1351564 53.4468755,33.5020654 53.7150918,33.7733774 C53.982779,34.0446895 54.3481533,34.1971339 54.7295354,34.1971339 C55.1109175,34.1971339 55.4762786,34.0446895 55.7444949,33.7733774 C56.0126981,33.5020654 56.1610148,33.1351564 56.1568872,32.7537743 Z" id="Path"></path>
            <path d="M13.9201556,21.9161089 C13.9242899,21.5347268 13.7759798,21.1678179 13.5077634,20.8965058 C13.2395603,20.6251938 12.874186,20.4727494 12.4928039,20.4727494 C12.1114218,20.4727494 11.7460607,20.6251938 11.4778444,20.8965058 C11.2101572,21.1678179 11.0613245,21.5347268 11.0654521,21.9161089 C11.0613179,22.2974911 11.2101572,22.6644 11.4778444,22.9357121 C11.7460475,23.2065082 12.1114218,23.3589525 12.4928039,23.3589525 C12.874186,23.3589525 13.2395471,23.2065082 13.5077634,22.9357121 C13.7759665,22.6644 13.9242833,22.2974911 13.9201556,21.9161089 Z" id="Path"></path>
            <path d="M17.8850584,16.3570428 C17.8897094,15.9761767 17.7408825,15.6087518 17.4726661,15.3379556 C17.204979,15.0666436 16.8396047,14.9141992 16.4582226,14.9141992 C16.0768405,14.9141992 15.7114794,15.0666436 15.443263,15.3379556 C15.1750599,15.6087518 15.0267432,15.9761767 15.0308708,16.3570428 C15.0267366,16.7384249 15.1750467,17.105863 15.443263,17.3766459 C15.7114661,17.647958 16.0768405,17.8004023 16.4582226,17.8004023 C16.8396047,17.8004023 17.2049658,17.647958 17.4726661,17.3766459 C17.7408693,17.1058498 17.8897019,16.7384249 17.8850584,16.3570428 Z" id="Path"></path>
            <path d="M24.5051362,50.9761868 L26.4161479,48.9711128 C26.7034809,48.6698358 27.0802062,48.4687992 27.4905346,48.3974918 C27.9003471,48.3261765 28.3225556,48.3887065 28.6946374,48.5752708 L36.7191665,52.6061891 C37.2705751,52.8826607 37.6581619,53.4035751 37.7635751,54.0107728 C37.8695149,54.6179837 37.6814075,55.2396809 37.2561019,55.6861658 L31.42067,61.8027261 L31.42067,61.8022093 C30.9596988,62.285393 30.2827152,62.4983097 29.6284599,62.366014 C22.374421,60.8947533 15.7096272,57.3300451 10.4601331,52.1130957 C5.20958054,46.8956171 1.60306693,40.2545043 0.0862964981,33.0095938 C-0.0501268482,32.3548358 0.159162335,31.6763175 0.640284825,31.2122241 L6.71715642,25.3405432 C7.16055875,24.9121299 7.78069494,24.7193751 8.38897743,24.8206607 C8.99671751,24.9224662 9.52072763,25.3064373 9.80083735,25.8557689 L13.8844093,33.853442 L13.8844093,33.8529253 C14.0730366,34.224491 14.1376366,34.6472155 14.0683798,35.0580599 C13.9991309,35.4689042 13.7996607,35.8466614 13.4994023,36.1355424 L11.5067642,38.0605774 C11.1925619,38.3634155 11.1186615,38.8388467 11.3258895,39.2228218 C14.0710257,44.2966272 18.2491891,48.4488607 23.3399284,51.1625105 C23.7254514,51.3692225 24.2019144,51.2927397 24.5037206,50.9754311 L24.5051362,50.9761868 Z" id="Path"></path>
        </g>
        <g id="noun-tickets-2051226-2" transform="translate(37.000000, 8.000000)" fill="#FFFFFF" fill-rule="nonzero">
            <g id="noun-tickets-2051226">
                <path d="M19.429364,0.000358703105 L5.164466,0.000358703105 C5.43009049,0.000199274533 5.64613947,0.214485234 5.64805784,0.480113805 L5.64805784,1.07974646 C5.64614457,1.34537095 5.43010682,1.55966483 5.164466,1.55966483 C4.89884151,1.55966483 4.6829558,1.34537911 4.68087416,1.07974646 L4.68087416,0.480113805 C4.68278739,0.214489315 4.89882518,0.000195437798 5.164466,0.000358703105 L0.570588449,0.000358703105 C0.304804776,0.000199274533 0.0889149796,0.214485234 0.0869966122,0.480113805 L0.0869966122,10.553175 C0.0889099184,10.8189587 0.304947633,11.0332567 0.570588449,11.0329305 L1.30320069,11.0329305 L4.68091498,9.5290934 L4.68091498,9.24130564 L4.68075555,9.24130564 C4.68282824,9.00150972 4.8601229,8.79934646 5.09769433,8.76616278 C5.33525759,8.73315911 5.56116371,8.8792036 5.6286331,9.10943625 L16.305776,4.35800768 C16.4231229,4.30698727 16.555776,4.30348115 16.6756739,4.34844156 C16.7954127,4.39356401 16.8926698,4.48396401 16.9464004,4.60019666 L19.7801147,10.8814212 C19.8662127,10.7938905 19.9140413,10.6757436 19.9131002,10.5528171 L19.9131002,0.479755846 C19.9113323,0.214131356 19.6952943,-0.000325786691 19.4294943,3.71536376e-07 L19.429364,0.000358703105 Z M5.64813947,8.07586891 C5.6462262,8.34165258 5.43034763,8.55595054 5.16454763,8.55595054 C4.89892314,8.55595054 4.68303743,8.34166483 4.6809558,8.07586891 L4.6809558,6.91019544 C4.68302849,6.64457095 4.89890682,6.43027707 5.16454763,6.43027707 C5.43033131,6.43027707 5.6462211,6.64456278 5.64813947,6.91019544 L5.64813947,8.07586891 Z M5.64813947,5.74456278 L5.64813947,5.74472221 C5.6462262,6.0103467 5.43034763,6.22464058 5.16454763,6.22464058 C4.89892314,6.22464058 4.68303743,6.01035487 4.6809558,5.74472221 L4.6809558,4.5766814 C4.68302849,4.31105691 4.89890682,4.09659976 5.16454763,4.09659976 C5.43033131,4.09659976 5.6462211,4.31104466 5.64813947,4.5766814 L5.64813947,5.74456278 Z M5.64813947,3.4108485 L5.64813947,3.41100793 C5.6462262,3.67663242 5.43034763,3.89108956 5.16454763,3.89108956 C4.89892314,3.89108956 4.68303743,3.67664466 4.6809558,3.41100793 L4.6809558,2.24533446 C4.68302849,1.97970997 4.89890682,1.76541609 5.16454763,1.76541609 C5.43033131,1.76541609 5.6462211,1.97970181 5.64813947,2.24533446 L5.64813947,3.4108485 Z M11.6926293,4.79717503 L7.34079253,4.7973345 C7.21292314,4.79829111 7.08983743,4.74822838 6.99911498,4.65830593 C6.90823335,4.56822429 6.85705376,4.44561613 6.85705376,4.31758348 C6.85705376,4.18971409 6.90823335,4.06710593 6.99911498,3.97702021 C7.08983743,3.88693858 7.21292314,3.83687327 7.34079253,3.83799164 L11.6926293,3.83799164 C11.8204987,3.8368756 11.9435844,3.88693858 12.034466,3.97702021 C12.1251884,4.06710185 12.176368,4.18971001 12.176368,4.31758348 C12.176368,4.44561205 12.1251884,4.56822021 12.034466,4.65830593 C11.9435844,4.74822838 11.8204987,4.79829368 11.6926293,4.7973345 L11.6926293,4.79717503 Z M15.319364,2.87848115 L7.34058845,2.87864058 C7.21271906,2.87959723 7.08963335,2.82953446 6.9989109,2.73944874 C6.90802927,2.64936711 6.85684967,2.52675895 6.85684967,2.39888548 C6.85684967,2.27101201 6.90802927,2.14840793 6.9989109,2.05832221 C7.08963335,1.96824058 7.21271906,1.91817527 7.34058845,1.91929364 L15.319364,1.91929364 C15.4472333,1.91817756 15.5703191,1.96824058 15.6610415,2.05832221 C15.7519231,2.14840385 15.8029436,2.27101201 15.8029436,2.39888548 C15.8029436,2.52675895 15.7519231,2.64936303 15.6610415,2.73944874 C15.5703191,2.82953038 15.4472333,2.87959568 15.319364,2.87864058 L15.319364,2.87848115 Z M18.6583436,10.7499097 L18.6583436,10.7500692 C18.6613729,10.7577223 18.6655182,10.7650565 18.6704611,10.7715933 L16.2598897,5.43036878 L18.6583436,10.7499097 Z" id="Shape"></path>
                <path d="M5.3967276,10.3054693 L5.3697746,10.3175783 C5.378759,10.313672 5.3873526,10.3093752 5.3967276,10.3054693 Z" id="Path"></path>
                <path d="M7.06609865,19.0749709 C7.26890682,18.9828158 7.50838437,19.0405322 7.64691498,19.2149587 L19.9999762,13.7194485 L18.6702619,10.7717342 L16.2596905,5.43050972 L5.36989457,10.2754077 L5.3482109,10.2849742 L3.83768029,10.9560354 L4.17441498,11.6829334 L4.17425551,11.6829334 C4.22766776,11.7986844 4.23261061,11.9310191 4.18812653,12.0505987 C4.14348163,12.1700191 4.05292245,12.2666395 3.9366898,12.3190926 C3.69450204,12.4297416 3.40832245,12.324673 3.29542449,12.0834436 L2.95518367,11.3487497 L1.77635684e-13,12.6642599 L3.74028571,20.9532395 L6.79355102,19.5948314 C6.75480735,19.3795905 6.86705306,19.1656069 7.06619184,19.0752395 L7.06609865,19.0749709 Z M7.5279762,13.6337465 C7.28244151,13.7367424 6.99977212,13.6224265 6.89467008,13.3778485 C6.84508641,13.2603424 6.84444559,13.1278485 6.89291624,13.0098648 C6.94138563,12.8920403 7.03481829,12.7982893 7.15280196,12.7496607 L11.7466795,10.8309669 L11.7466795,10.8308074 C11.9922142,10.7276523 12.2750469,10.8419682 12.3799856,11.0868645 C12.4295693,11.2043707 12.4302101,11.3367054 12.3817394,11.454689 C12.33327,11.5726727 12.2396782,11.6664237 12.1218537,11.7150523 L7.5279762,13.6337465 Z M16.5761395,13.2317995 C16.8202415,13.1256118 17.1043436,13.2359448 17.2129558,13.4790893 C17.2642946,13.5957995 17.2666864,13.7282934 17.2199713,13.8469138 C17.1730978,13.9655342 17.0809427,14.0605628 16.963755,14.1109465 L9.22702029,17.4685791 C8.98291824,17.5747669 8.69865294,17.4645932 8.59008151,17.2214485 C8.53890192,17.1045791 8.5363509,16.9722444 8.58322559,16.853624 C8.62993988,16.7350036 8.72225416,16.639975 8.83928273,16.5895914 L16.5761395,13.2317995 Z M6.42144559,11.0733097 L14.1581803,7.71551381 C14.4024415,7.60932605 14.6865476,7.71949981 14.7951191,7.9628036 C14.8462987,8.07951381 14.8488497,8.2118485 14.801975,8.33046891 C14.7552607,8.44908932 14.6631056,8.54411789 14.5459178,8.59450156 L6.80918314,11.9522975 C6.56492192,12.0584852 6.2808158,11.9481522 6.17224437,11.7051669 C6.12106478,11.5882975 6.11851376,11.4559628 6.16522886,11.3373424 C6.21210233,11.218722 6.30425743,11.1236934 6.42144518,11.0733097 L6.42144559,11.0733097 Z M4.30520069,14.262575 L3.80042518,13.1728199 L3.80042518,13.1729794 C3.74685376,13.0572283 3.7419109,12.9248936 3.78655416,12.8054732 C3.83119906,12.6858936 3.92159906,12.5892732 4.03782763,12.5368202 C4.28001539,12.426012 4.56635824,12.5310806 4.67909294,12.7724692 L5.18386845,13.8622243 L5.18402788,13.8620648 C5.23744012,13.977975 5.24238298,14.1103097 5.19773971,14.2297301 C5.15309645,14.3491505 5.06269482,14.4457709 4.94646624,14.498224 C4.70427849,14.6090322 4.4180989,14.5038044 4.30520094,14.262575 L4.30520069,14.262575 Z M5.31458845,16.4417995 L4.8099762,15.3520444 L4.80981678,15.3522039 C4.75640453,15.2364529 4.75146167,15.1041182 4.79610494,14.9846978 C4.84058657,14.8652774 4.93114984,14.7684978 5.04737841,14.7162039 C5.28956616,14.6053957 5.57574576,14.7104639 5.68864371,14.9516937 L6.19325596,16.0414488 C6.24682739,16.1571998 6.25177024,16.2895345 6.20712698,16.4089549 C6.16248208,16.5285345 6.07208208,16.6251549 5.95585351,16.677608 C5.71366576,16.7882569 5.42748616,16.6831884 5.3145882,16.441959 L5.31458845,16.4417995 Z M6.3239762,18.6211873 L5.81936396,17.5314322 L5.81920453,17.531751 C5.76579229,17.4158408 5.76084943,17.2835061 5.80533351,17.1640857 C5.84997841,17.0446653 5.94053759,16.9480449 6.05677024,16.8955918 C6.298958,16.7847837 6.58513759,16.8900114 6.69803555,17.1312408 L7.2026478,18.2209959 L7.2026478,18.2208365 C7.25606004,18.3365875 7.26116208,18.4689222 7.21651882,18.5885018 C7.17187392,18.7079222 7.08147392,18.8045426 6.96524535,18.8569957 C6.72289841,18.9676447 6.436878,18.8625761 6.32381678,18.6213467 L6.3239762,18.6211873 Z" id="Shape"></path>
            </g>
        </g>
    </g>
</svg>