<?xml version="1.0" encoding="UTF-8"?>
<svg width="70px" height="70px" viewBox="0 0 70 70" version="1.1" xmlns="http://www.w3.org/2000/svg" xmlns:xlink="http://www.w3.org/1999/xlink">
    <!-- Generator: Sketch 57.1 (83088) - https://sketch.com -->
    <title>corporate_booking</title>
    <desc>Created with Sketch.</desc>
    <g id="corporate_booking" stroke="none" stroke-width="1" fill="none" fill-rule="evenodd">
        <g id="Group-108" transform="translate(3.000000, 6.000000)" fill="#0968AC" fill-rule="nonzero">
            <g id="noun-corporate-1657183">
                <path d="M42.4703396,55.9661025 L32.830509,55.9661025 L32.830509,47.2902549 L25.1186444,47.2902549 L25.1186444,55.9661025 L15.4788138,55.9661025 C14.900424,55.9661025 14.5148307,56.3516958 14.5148307,56.9300856 C14.5148307,57.5084754 14.900424,57.8940687 15.4788138,57.8940687 L42.4703396,57.8940687 C43.0487295,57.8940687 43.4343227,57.5084754 43.4343227,56.9300856 C43.4343227,56.3516958 43.0487295,55.9661025 42.4703396,55.9661025 Z" id="Path"></path>
                <path d="M55.9661025,6.8029662 L46.3262719,6.8029662 L46.3262719,8.73093233 L55.9661025,8.73093233 L55.9661025,37.6504243 L1.98305088,37.6504243 L1.98305088,8.73093233 L11.6228815,8.73093233 L11.6228815,6.8029662 L1.98305088,6.8029662 C0.922669505,6.8029662 0.0550847466,7.67055096 0.0550847466,8.73093233 L0.0550847466,43.4343227 C0.0550847466,44.4947041 0.922669505,45.3622888 1.98305088,45.3622888 L55.9661025,45.3622888 C57.0264839,45.3622888 57.8940687,44.4947041 57.8940687,43.4343227 L57.8940687,8.73093233 C57.8940687,7.67055096 57.0264839,6.8029662 55.9661025,6.8029662 Z M31.8665259,42.4703396 L26.0826275,42.4703396 C25.5042377,42.4703396 25.1186444,42.0847464 25.1186444,41.5063566 C25.1186444,40.9279667 25.5042377,40.5423735 26.0826275,40.5423735 L31.8665259,40.5423735 C32.4449157,40.5423735 32.830509,40.9279667 32.830509,41.5063566 C32.830509,42.0847464 32.4449157,42.4703396 31.8665259,42.4703396 Z" id="Shape"></path>
                <path d="M24.1546614,8.73093233 L24.1546614,1.98305088 L22.2266952,1.98305088 L22.2266952,8.73093233 L13.5508477,8.73093233 L13.5508477,35.7224582 L19.3347461,35.7224582 L19.3347461,29.9385598 L23.1906783,29.9385598 L23.1906783,35.7224582 L28.9745767,35.7224582 L28.9745767,8.73093233 L24.1546614,8.73093233 Z M25.1186444,26.0826275 L17.4067799,26.0826275 L17.4067799,24.1546614 L25.1186444,24.1546614 L25.1186444,26.0826275 Z M25.1186444,22.2266952 L17.4067799,22.2266952 L17.4067799,20.2987291 L25.1186444,20.2987291 L25.1186444,22.2266952 Z M25.1186444,18.370763 L17.4067799,18.370763 L17.4067799,16.4427969 L25.1186444,16.4427969 L25.1186444,18.370763 Z M25.1186444,14.5148307 L17.4067799,14.5148307 L17.4067799,12.5868646 L25.1186444,12.5868646 L25.1186444,14.5148307 Z" id="Shape"></path>
                <path d="M37.6504243,3.91101701 L37.6504243,0.0550847466 L35.7224582,0.0550847466 L35.7224582,3.91101701 L28.9745767,3.91101701 L28.9745767,6.8029662 L30.9025428,6.8029662 L30.9025428,35.7224582 L34.7584751,35.7224582 L34.7584751,29.9385598 L38.6144074,29.9385598 L38.6144074,35.7224582 L44.3983057,35.7224582 L44.3983057,3.91101701 L37.6504243,3.91101701 Z M35.7224582,26.0826275 L32.830509,26.0826275 L32.830509,24.1546614 L35.7224582,24.1546614 L35.7224582,26.0826275 Z M35.7224582,22.2266952 L32.830509,22.2266952 L32.830509,20.2987291 L35.7224582,20.2987291 L35.7224582,22.2266952 Z M35.7224582,18.370763 L32.830509,18.370763 L32.830509,16.4427969 L35.7224582,16.4427969 L35.7224582,18.370763 Z M35.7224582,14.5148307 L32.830509,14.5148307 L32.830509,12.5868646 L35.7224582,12.5868646 L35.7224582,14.5148307 Z M35.7224582,10.6588985 L32.830509,10.6588985 L32.830509,8.73093233 L35.7224582,8.73093233 L35.7224582,10.6588985 Z M40.5423735,26.0826275 L37.6504243,26.0826275 L37.6504243,24.1546614 L40.5423735,24.1546614 L40.5423735,26.0826275 Z M40.5423735,22.2266952 L37.6504243,22.2266952 L37.6504243,20.2987291 L40.5423735,20.2987291 L40.5423735,22.2266952 Z M40.5423735,18.370763 L37.6504243,18.370763 L37.6504243,16.4427969 L40.5423735,16.4427969 L40.5423735,18.370763 Z M40.5423735,14.5148307 L37.6504243,14.5148307 L37.6504243,12.5868646 L40.5423735,12.5868646 L40.5423735,14.5148307 Z M40.5423735,10.6588985 L37.6504243,10.6588985 L37.6504243,8.73093233 L40.5423735,8.73093233 L40.5423735,10.6588985 Z" id="Shape"></path>
            </g>
            <g id="bulk_booking" transform="translate(37.457628, 39.016950)" stroke="#FFFFFF" stroke-width="0.5">
                <path d="M26.7822463,12.5009456 C26.9970556,12.5009456 27.2118648,12.3271323 27.2118648,12.0664125 L27.2118648,9.32885423 C27.2118648,8.80741455 26.7822463,8.37288148 26.2667041,8.37288148 L5.90278788,8.37288148 C5.38724567,8.37288148 4.95762719,8.80741455 4.95762719,9.32885423 L4.95762719,12.0664125 C4.95762719,12.283679 5.17243643,12.5009456 5.38724567,12.5009456 C6.11759712,12.5009456 6.67610114,13.1092919 6.67610114,13.847998 C6.67610114,14.5867042 6.07463528,15.1515972 5.38724567,15.1515972 C5.17243643,15.1515972 4.95762719,15.3688637 4.95762719,15.5861303 L4.95762719,18.3236886 C4.95762719,18.8451282 5.38724567,19.2796613 5.90278788,19.2796613 L26.2667041,19.2796613 C26.7822463,19.2796613 27.2118648,18.8451282 27.2118648,18.3236886 L27.2118648,15.5861303 C27.2118648,15.3688637 26.9970556,15.1515972 26.7822463,15.1515972 C26.0518949,15.1515972 25.4933909,14.543251 25.4933909,13.847998 C25.450429,13.1092919 26.0518949,12.5009456 26.7822463,12.5009456 Z M19.6076176,17.3677158 L9.33973574,17.3677158 C9.08196466,17.3677158 8.91011727,17.1939026 8.91011727,16.9331828 C8.91011727,16.672463 9.08196466,16.4986497 9.33973574,16.4986497 L19.6076176,16.4986497 C19.8653887,16.4986497 20.0372361,16.672463 20.0372361,16.9331828 C20.0372361,17.1939026 19.8224268,17.3677158 19.6076176,17.3677158 Z M19.6076176,15.2819571 L9.33973574,15.2819571 C9.08196466,15.2819571 8.91011727,15.1081439 8.91011727,14.8474241 C8.91011727,14.5867042 9.08196466,14.412891 9.33973574,14.412891 L19.6076176,14.412891 C19.8653887,14.412891 20.0372361,14.5867042 20.0372361,14.8474241 C20.0372361,15.1081439 19.8224268,15.2819571 19.6076176,15.2819571 Z M19.6076176,13.2396517 L9.33973574,13.2396517 C9.08196466,13.2396517 8.91011727,13.0658385 8.91011727,12.8051187 C8.91011727,12.5443989 9.08196466,12.3705856 9.33973574,12.3705856 L19.6076176,12.3705856 C19.8653887,12.3705856 20.0372361,12.5443989 20.0372361,12.8051187 C20.0372361,13.0658385 19.8224268,13.2396517 19.6076176,13.2396517 Z M19.6076176,11.1973464 L9.33973574,11.1973464 C9.08196466,11.1973464 8.91011727,11.0235332 8.91011727,10.7628133 C8.91011727,10.5020935 9.08196466,10.3282803 9.33973574,10.3282803 L19.6076176,10.3282803 C19.8653887,10.3282803 20.0372361,10.5020935 20.0372361,10.7628133 C20.0372361,11.0235332 19.8224268,11.1973464 19.6076176,11.1973464 Z M22.4430996,18.4105952 C22.4430996,18.671315 22.2712522,18.8451282 22.0134811,18.8451282 C21.75571,18.8451282 21.5838626,18.671315 21.5838626,18.4105952 L21.5838626,17.9760621 C21.5838626,17.7153423 21.75571,17.5415291 22.0134811,17.5415291 C22.2712522,17.5415291 22.4430996,17.7153423 22.4430996,17.9760621 L22.4430996,18.4105952 Z M22.4430996,16.672463 C22.4430996,16.9331828 22.2712522,17.106996 22.0134811,17.106996 C21.75571,17.106996 21.5838626,16.9331828 21.5838626,16.672463 L21.5838626,16.2379299 C21.5838626,15.97721 21.75571,15.8033968 22.0134811,15.8033968 C22.2712522,15.8033968 22.4430996,15.97721 22.4430996,16.2379299 L22.4430996,16.672463 Z M22.4430996,14.9343307 C22.4430996,15.1950505 22.2712522,15.3688637 22.0134811,15.3688637 C21.75571,15.3688637 21.5838626,15.1950505 21.5838626,14.9343307 L21.5838626,14.4997976 C21.5838626,14.2390778 21.75571,14.0652646 22.0134811,14.0652646 C22.2712522,14.0652646 22.4430996,14.2390778 22.4430996,14.4997976 L22.4430996,14.9343307 Z M22.4430996,13.1961985 C22.4430996,13.4569183 22.2712522,13.6307315 22.0134811,13.6307315 C21.75571,13.6307315 21.5838626,13.4569183 21.5838626,13.1961985 L21.5838626,12.7616654 C21.5838626,12.5009456 21.75571,12.3271323 22.0134811,12.3271323 C22.2712522,12.3271323 22.4430996,12.5009456 22.4430996,12.7616654 L22.4430996,13.1961985 Z M22.4430996,11.4580662 C22.4430996,11.718786 22.2712522,11.8925993 22.0134811,11.8925993 C21.75571,11.8925993 21.5838626,11.718786 21.5838626,11.4580662 L21.5838626,11.0235332 C21.5838626,10.7628133 21.75571,10.5890001 22.0134811,10.5890001 C22.2712522,10.5890001 22.4430996,10.7628133 22.4430996,11.0235332 L22.4430996,11.4580662 Z M22.4430996,9.71993398 C22.4430996,9.9806538 22.2712522,10.154467 22.0134811,10.154467 C21.75571,10.154467 21.5838626,9.9806538 21.5838626,9.71993398 L21.5838626,9.28540091 C21.5838626,9.02468109 21.75571,8.85086783 22.0134811,8.85086783 C22.2712522,8.85086783 22.4430996,9.02468109 22.4430996,9.28540091 L22.4430996,9.71993398 Z" id="Shape"></path>
                <path d="M6.08729809,15.3047088 C6.08729809,15.0461034 5.87464632,14.8305989 5.66199455,14.8305989 C4.98150888,14.8305989 4.38608391,14.2271861 4.38608391,13.5375716 L4.38608391,10.8222144 C4.38608391,10.6067099 4.42861426,10.3912053 4.51367495,10.2188017 C4.38608391,10.1757008 4.30102318,10.1325998 4.25849283,10.0032971 C4.13090177,9.78779257 4.25849283,9.52918713 4.42861426,9.44298534 L13.4875798,4.83118815 C13.7002316,4.70188541 13.9554137,4.83118815 14.0404744,5.00359177 C14.1680655,5.2190963 14.0830048,5.47770175 13.870353,5.56390358 L7.06549626,9.01197624 L9.61731752,9.01197624 L14.3381869,6.59832536 C14.5508387,6.46902266 14.8060208,6.55522448 14.8910815,6.77072902 C15.0186726,6.98623355 14.8910815,7.24483899 14.7209601,7.33104082 L11.5311835,9.05507715 L17.7831456,9.05507715 C17.7831456,9.05507715 17.7406153,9.01197624 17.7406153,9.01197624 L17.5279635,8.62406805 C17.4003724,8.40856352 17.5279635,8.14995807 17.6980849,8.06375624 C17.9107367,7.93445354 18.1659188,8.06375624 18.2935099,8.2361599 L18.4636313,8.62406805 C18.548692,8.79647171 18.5061617,8.92577441 18.4211009,9.05507715 L23.7799257,9.05507715 C23.822456,8.88267353 23.7799257,8.66716896 23.6948649,8.49476535 L22.504015,6.08111447 C22.376424,5.86560994 22.1637722,5.77940811 21.9511204,5.90871085 C21.3131651,6.25351812 20.5050884,5.95181176 20.2073758,5.30529813 C19.867133,4.6587845 20.1648455,3.88296815 20.8028008,3.53816089 C20.8878615,3.49505998 20.9729222,3.40885816 21.0154526,3.27955544 C21.0579829,3.15025271 21.0579829,3.0640509 20.9729222,2.93474817 L19.7820723,0.521097307 C19.6544812,0.305592763 19.4843598,0.13318913 19.2291777,0.0469873147 C19.0165259,-0.0392145018 18.7613438,0.00388640647 18.5061617,0.090088223 L14.7209601,2.0296291 C14.9336119,1.94342728 15.188794,2.0296291 15.3163851,2.20203273 L15.4439761,2.41753727 C15.5290368,2.63304181 15.4439761,2.89164726 15.2313244,2.97784908 C15.0186726,3.1071518 14.7634904,2.97784908 14.6784297,2.80544545 L14.5508387,2.5899409 C14.4232476,2.37443636 14.5508387,2.11583091 14.7209601,2.0296291 L0.515821621,9.27058168 C0.04798772,9.48608621 -0.122133699,10.0894989 0.0905180747,10.520508 L1.28136801,12.9341589 C1.36642872,13.1496634 1.62161084,13.2358652 1.83426262,13.1496634 C2.47221794,12.8479571 3.23776432,13.1065625 3.57800716,13.7530762 C3.87571965,14.3995898 3.62053751,15.1754061 3.02511255,15.5202134 C2.81246078,15.6495161 2.72740006,15.9081216 2.85499113,16.0805252 L4.04584106,18.4941761 C4.13090177,18.6665797 4.21596249,18.7527815 4.38608391,18.8389833 L4.38608391,17.0287452 C4.38608391,16.3391307 4.9389785,15.7357179 5.66199455,15.7357179 C5.87464632,15.7357179 6.08729809,15.5633143 6.08729809,15.3047088 Z M17.5279635,6.68452719 L17.7406153,7.07243538 C17.8682064,7.28793991 17.7406153,7.54654535 17.5704939,7.63274718 C17.3578421,7.76204988 17.10266,7.67584809 16.9750689,7.46034352 L16.8049475,7.07243538 C16.6773564,6.85693084 16.7624171,6.59832536 16.9750689,6.51212357 C17.1877207,6.38282083 17.4429028,6.46902266 17.5279635,6.68452719 Z M16.7624171,5.13289451 L16.9325385,5.52080266 C17.1877207,6.03801355 16.4221743,6.42592174 16.1669921,5.90871085 L15.9543404,5.52080266 C15.8267493,5.30529813 15.9543404,5.04669268 16.1244618,4.96049086 C16.4221743,4.83118815 16.6773564,4.91738994 16.7624171,5.13289451 Z M15.4439761,3.40885816 C15.6566279,3.32265635 15.91181,3.40885816 15.9968707,3.6243627 L16.2095225,4.01227086 C16.3371136,4.22777543 16.2095225,4.48638088 16.0394011,4.57258267 C15.8267493,4.70188541 15.5715672,4.57258267 15.4865065,4.40017905 L15.3163851,4.01227086 C15.1462636,3.79676633 15.2313244,3.53816089 15.4439761,3.40885816 Z" id="Shape"></path>
            </g>
        </g>
    </g>
</svg>