<?xml version="1.0" encoding="UTF-8"?>
<svg width="70px" height="70px" viewBox="0 0 70 70" version="1.1" xmlns="http://www.w3.org/2000/svg" xmlns:xlink="http://www.w3.org/1999/xlink">
    <title>Screens and Subscreens </title>
    <g id="Screens-and-Subscreens-" stroke="none" stroke-width="1" fill="none" fill-rule="evenodd">
        <g id="185134_actor_curtain_play_stage_star_icon" transform="translate(2.000000, 6.000000)" fill="#0968AC" fill-rule="nonzero">
            <path d="M54.3894141,27.4444444 C50.7639258,25.5126458 44.2924453,20.4359514 43.3125,8.44444444 C41.1522891,11.1349236 36.7121133,12.6666667 32.939543,12.6666667 C29.232457,12.6666667 24.8667891,11.06275 22.6875,8.44444444 C21.6633398,20.3957083 15.1686562,25.5012986 11.5632773,27.4444444 L2.0625,27.4444444 L2.0625,4.22222222 C0.923484375,4.22222222 0,3.27697222 0,2.11111111 C0,0.94525 0.923484375,0 2.0625,0 L63.9375,0 C65.0765156,0 66,0.94525 66,2.11111111 C66,3.27697222 65.0765156,4.22222222 63.9375,4.22222222 L63.9375,27.4444444 L54.3894141,27.4444444 Z M43.3125,57 L57.75,57 L57.75,52.7118056 C57.75,50.4165 55.9319063,48.5555556 53.6894531,48.5555556 L47.3730469,48.5555556 C45.1305938,48.5555556 43.3125,50.4165 43.3125,52.7118056 L43.3125,57 Z M28.8105469,46.0218264 L37.1894531,46.0218264 C37.8904453,46.0218264 38.5540547,46.1640625 39.1875,46.3743819 L39.1875,44.2673611 C39.1875,41.9717917 37.3696641,40.1111111 35.1269531,40.1111111 L30.8730469,40.1111111 C28.6303359,40.1111111 26.8125,41.9717917 26.8125,44.2673611 L26.8125,46.3743819 C27.4459453,46.1640625 28.1096836,46.0218264 28.8105469,46.0218264 Z M55.7751562,29.5555556 C53.6864883,31.7831736 52.5927187,34.1127847 52.0318477,36.3198194 C55.3350703,37.3989931 57.75,40.5326736 57.75,44.2673611 L57.75,46.4444444 L62.90625,46.4444444 C63.4762734,46.4444444 63.9375,45.9723472 63.9375,45.3888889 L63.9375,29.5555556 L55.7751562,29.5555556 Z M49.5644531,40.1111111 L45.3105469,40.1111111 C43.0678359,40.1111111 41.25,41.9717917 41.25,44.2673611 L41.25,47.5124028 C41.6316914,47.8257708 41.9761289,48.1783264 42.28125,48.5702014 C43.4726016,47.0238125 45.3025547,46.0219583 47.3730469,46.0219583 L53.625,46.0219583 L53.625,44.2673611 C53.625,41.9717917 51.8071641,40.1111111 49.5644531,40.1111111 Z M24.75,57 L41.25,57 L41.25,52.7118056 C41.25,50.4165 39.4319063,48.5555556 37.1894531,48.5555556 L28.8105469,48.5555556 C26.5679648,48.5555556 24.75,50.4165 24.75,52.7118056 L24.75,57 Z M8.25,44.2673611 C8.25,40.5378194 10.659,37.40625 13.9561641,36.3239097 C13.4012227,34.1159514 12.3126094,31.7842292 10.2249727,29.5555556 L2.0625,29.5555556 L2.0625,45.3888889 C2.0625,45.9723472 2.52372656,46.4444444 3.09375,46.4444444 L8.25,46.4444444 L8.25,44.2673611 Z M18.6269531,46.0218264 C20.6944805,46.0218264 22.5192773,47.0300139 23.7177188,48.5679583 C24.0238711,48.1803056 24.3693398,47.8257708 24.75,47.5124028 L24.75,44.2673611 C24.75,41.9717917 22.9321641,40.1111111 20.6894531,40.1111111 L16.4355469,40.1111111 C14.1928359,40.1111111 12.375,41.9717917 12.375,44.2673611 L12.375,46.0218264 L18.6269531,46.0218264 Z M22.6875,52.7118056 C22.6875,50.4165 20.8695352,48.5555556 18.6269531,48.5555556 L12.3105469,48.5555556 C10.0679648,48.5555556 8.25,50.4165 8.25,52.7118056 L8.25,57 L22.6875,57 L22.6875,52.7118056 Z M43.2853008,23.4284514 C43.2288398,23.3046875 43.0898789,23.2222222 42.9328711,23.2222222 L35.6898867,23.2222222 L33.3283242,17.1073889 C33.2759883,16.9765 33.1339336,16.8888889 32.9708672,16.8888889 C32.8107656,16.8888889 32.6697422,16.9765 32.6153438,17.1073889 L30.309082,23.2222222 L23.0660977,23.2222222 C22.9079297,23.2222222 22.7670352,23.3077222 22.7105742,23.4345208 C22.6561758,23.5634306 22.6965234,23.7087014 22.8162773,23.7984236 L28.8648164,28.4402292 L26.8335117,35.4508333 C26.7791133,35.5868681 26.8324805,35.7353056 26.9653828,35.8209375 C27.0953203,35.9097361 27.2765625,35.9107917 27.4115273,35.8272708 L32.9707383,31.6666667 L38.5902773,35.8270069 C38.7212461,35.9094722 38.8974609,35.9094722 39.0283008,35.8270069 C39.1592695,35.7466528 39.2176641,35.6023056 39.1711289,35.4662708 L37.1336367,28.4402292 L43.1944219,23.7891875 C43.3064414,23.6974861 43.3417617,23.5531389 43.2853008,23.4284514 Z" id="Shape"></path>
        </g>
    </g>
</svg>