<?xml version="1.0" encoding="UTF-8"?>
<svg width="70px" height="70px" viewBox="0 0 70 70" version="1.1" xmlns="http://www.w3.org/2000/svg" xmlns:xlink="http://www.w3.org/1999/xlink">
    <title>Sound System </title>
    <g id="Sound-System-" stroke="none" stroke-width="1" fill="none" fill-rule="evenodd">
        <g id="5402425_box_jukebox_music_sound_multimedia_icon" transform="translate(12.000000, 2.000000)" fill="#0968AC" fill-rule="nonzero">
            <path d="M36.1428571,0 L9.85714286,0 C4.41319318,0 0,4.43238098 0,9.9 L0,56.1 C0,61.567619 4.41319318,66 9.85714286,66 L36.1428571,66 C41.5868068,66 46,61.567619 46,56.1 L46,9.9 C46,4.43238098 41.5868068,0 36.1428571,0 Z M23,13.2 C26.6292998,13.2 29.5714286,16.1549207 29.5714286,19.8 C29.5714286,23.4450793 26.6292998,26.4 23,26.4 C19.3707002,26.4 16.4285714,23.4450793 16.4285714,19.8 C16.4285714,16.1549207 19.3707002,13.2 23,13.2 Z M23,52.8 C17.5560503,52.8 13.1428571,48.367619 13.1428571,42.9 C13.1428571,37.432381 17.5560503,33 23,33 C28.4439497,33 32.8571429,37.432381 32.8571429,42.9 C32.8571429,48.367619 28.4439497,52.8 23,52.8 Z" id="Shape"></path>
        </g>
    </g>
</svg>