<?xml version="1.0" encoding="UTF-8"?>
<svg width="70px" height="70px" viewBox="0 0 70 70" version="1.1" xmlns="http://www.w3.org/2000/svg" xmlns:xlink="http://www.w3.org/1999/xlink">
    <!-- Generator: Sketch 57.1 (83088) - https://sketch.com -->
    <title>ceo_app_for_metrics</title>
    <desc>Created with Sketch.</desc>
    <g id="ceo_app_for_metrics" stroke="none" stroke-width="1" fill="none" fill-rule="evenodd">
        <g id="if_chart_27_276279-copy" transform="translate(3.000000, 4.000000)" fill="#0968AC" fill-rule="nonzero">
            <path d="M32.9333333,30.652062 L32.9333333,57.7945375 C32.9333333,60.1075419 34.7867987,62 37.0521452,62 L42.6811881,62 C44.9465347,62 46.8,60.1075419 46.8,57.7945375 L46.8,22.3888889 L32.9333333,30.652062 Z" id="Shape"></path>
            <path d="M27.5043947,33.3654317 L23.6776107,26.6944444 L16.4666667,30.9763255 L16.4666667,57.7674981 C16.4666667,60.0953742 18.3386667,62 20.6266667,62 L26.1733333,62 C28.4613333,62 30.3333333,60.0953742 30.3333333,57.7674981 L30.3333333,31.6856928 L27.5043947,33.3654317 Z" id="Shape"></path>
            <path d="M62.444928,24.542274 C61.9197973,26.5409238 60.655296,27.7342595 59.062848,27.7342595 C59.0627093,27.7342595 59.0627093,27.7342595 59.0625707,27.7342595 C58.3195947,27.7342595 56.9007573,27.4394631 55.746496,25.46079 L52.4472,19.8055556 L49.4,21.5852931 L49.4,57.8381692 C49.4,60.1271761 51.272,62 53.56,62 L59.1066667,62 C61.3946667,62 63.2666667,60.1271761 63.2666667,57.8381692 L63.2666667,21.4238141 L62.444928,24.542274 Z" id="Shape"></path>
            <path d="M0.866666667,40.8071991 L0.866666667,57.8400626 C0.866666667,60.1280282 2.75211733,62 5.04011733,62 L10.5733333,62 C12.8613333,62 14.7333333,60.1280282 14.7333333,57.8400626 L14.7333333,32.7222222 L0.866666667,40.8071991 Z" id="Shape"></path>
            <path d="M62.1039307,4.08917293 L46.9642701,0.140127175 C44.9006729,-0.39892299 44.0779269,0.666084714 45.1535203,2.49679987 L49.5733884,10.0191471 L31.7024378,20.3793562 L27.791099,13.7226709 L21.1138879,17.5896414 L0,29.8257563 L0,38.75 L24.9939043,24.2644874 L28.9086446,30.9211727 L53.4830264,16.6758324 L57.9278392,24.2390061 C59.0034325,26.0695804 60.3403771,25.8829049 60.88278,23.8331347 L64.8732045,8.79407147 C65.4154657,6.74444197 64.1673862,4.62836387 62.1039307,4.08917293 Z" id="Shape"></path>
        </g>
    </g>
</svg>