<?xml version="1.0" encoding="UTF-8"?>
<svg width="70px" height="70px" viewBox="0 0 70 70" version="1.1" xmlns="http://www.w3.org/2000/svg" xmlns:xlink="http://www.w3.org/1999/xlink">
    <!-- Generator: Sketch 57.1 (83088) - https://sketch.com -->
    <title>foodpos</title>
    <desc>Created with Sketch.</desc>
    <g id="foodpos" stroke="none" stroke-width="1" fill="none" fill-rule="evenodd">
        <g id="5633203_payment_point-of-sale_pointofsale_pos_shopping_icon-copy" transform="translate(3.000000, 3.000000)" fill="#0968AC" fill-rule="nonzero">
            <path d="M62.2424598,50.9500116 L60.3722568,50.9500116 L60.3722568,17.945594 C60.3722568,16.398047 59.1029222,15.1332248 57.5331534,15.1332248 L47.8441497,15.1332248 L47.8441497,11.256917 L58.6748034,11.256917 C59.6136604,11.256917 60.3797676,10.4980237 60.3797676,9.56800744 L60.3797676,1.68890956 C60.3797676,0.758893281 59.6136604,0 58.6748034,0 L33.9715996,0 C33.0327426,0 32.2666354,0.758893281 32.2666354,1.68890956 L32.2666354,9.56800744 C32.2666354,10.4980237 33.0327426,11.256917 33.9715996,11.256917 L44.8398075,11.256917 L44.8398075,15.1332248 L6.4518249,15.1332248 C4.88956695,15.1332248 3.61272151,16.3906068 3.61272151,17.945594 L3.61272151,50.9574518 L1.74251848,50.9574518 C0.781128975,50.9500116 0,51.7312253 0,52.683562 L0,62.2664497 C0,63.2187863 0.781128975,64 1.75002934,64 L62.2499707,64 C63.2113602,64 64,63.2262265 64,62.2664497 L64,52.683562 C63.9924891,51.7312253 63.2113602,50.9500116 62.2424598,50.9500116 Z M14.7963854,45.0202279 L10.6654149,45.0202279 L10.6654149,42.0441758 L14.7963854,42.0441758 L14.7963854,45.0202279 Z M14.7963854,35.7200651 L10.6654149,35.7200651 L10.6654149,32.744013 L14.7963854,32.744013 L14.7963854,35.7200651 Z M14.7963854,26.2710997 L10.6654149,26.2710997 L10.6654149,23.2950477 L14.7963854,23.2950477 L14.7963854,26.2710997 Z M24.485389,45.0202279 L20.3544185,45.0202279 L20.3544185,42.0441758 L24.485389,42.0441758 L24.485389,45.0202279 Z M24.485389,35.7200651 L20.3544185,35.7200651 L20.3544185,32.744013 L24.485389,32.744013 L24.485389,35.7200651 Z M24.485389,26.2710997 L20.3544185,26.2710997 L20.3544185,23.2950477 L24.485389,23.2950477 L24.485389,26.2710997 Z M38.680906,58.85887 L25.3115831,58.85887 L25.3115831,55.8828179 L38.680906,55.8828179 L38.680906,58.85887 Z M53.6275085,45.0202279 L31.8460275,45.0202279 L31.8460275,42.0441758 L53.6275085,42.0441758 L53.6275085,45.0202279 Z M53.9279427,35.3480586 L31.6207018,35.3480586 L31.6207018,23.2950477 L53.9279427,23.2950477 L53.9279427,35.3480586 Z" id="XMLID_674_"></path>
        </g>
    </g>
</svg>