<?xml version="1.0" encoding="UTF-8"?>
<svg width="70px" height="70px" viewBox="0 0 70 70" version="1.1" xmlns="http://www.w3.org/2000/svg" xmlns:xlink="http://www.w3.org/1999/xlink">
    <!-- Generator: Sketch 57.1 (83088) - https://sketch.com -->
    <title>mobile_pos_booking</title>
    <desc>Created with Sketch.</desc>
    <g id="mobile_pos_booking" stroke="none" stroke-width="1" fill="none" fill-rule="evenodd">
        <g id="Review_management">
            <path d="M0,0 L70,0 L70,70 L0,70 L0,0 Z M44.7854166,18.7104166 L39.6229166,13.5479166 C39.0541666,12.9791666 38.1354166,12.9791666 37.5666666,13.5479166 L17.5,33.6145834 L17.5,40.8333334 L24.71875,40.8333334 L44.7854166,20.7666666 C45.3541666,20.1979166 45.3541666,19.2791666 44.7854166,18.7104166 Z" id="Shape"></path>
        </g>
        <g id="noun-pos-3837069" transform="translate(18.000000, 1.000000)" fill="#0968AC" fill-rule="nonzero">
            <path d="M25.6648485,8.4234632 L25.6475997,8.4234632 L25.6475997,0.000441558442 L7.61729671,0.000441558442 L7.61729671,8.4234632 L0.0791581818,8.4234632 L0.0791581818,33.7939394 L1.72749584,68 L31.5385781,68 L33.1869158,33.7939394 L33.1869158,32.1456017 L33.1874907,8.42361039 L25.6648485,8.4234632 Z M5.3369697,12.6734622 L27.9506494,12.6734622 C28.4065879,12.6734622 28.7751273,13.0425766 28.7751273,13.4979411 C28.7751273,13.9527169 28.4065879,14.322419 27.9506494,14.322419 L5.3369697,14.321844 C4.88103117,14.321844 4.51249177,13.9527306 4.51249177,13.4973661 C4.51306668,13.0425903 4.88160519,12.6734622 5.3369697,12.6734622 L5.3369697,12.6734622 Z M10.4125368,62.7741558 L6.36609524,62.7741558 L6.36667015,58.7277143 L10.4131117,58.7277143 L10.4125368,62.7741558 Z M10.4125368,54.5317316 L6.36609524,54.5317316 L6.36667015,50.48529 L10.4131117,50.48529 L10.4125368,54.5317316 Z M10.4125368,46.2893074 L6.36609524,46.2893074 L6.36667015,42.2428658 L10.4131117,42.2428658 L10.4125368,46.2893074 Z M18.654961,62.7741558 L14.6085195,62.7741558 L14.6090944,58.7277143 L18.6555359,58.7277143 L18.654961,62.7741558 Z M18.654961,54.5317316 L14.6085195,54.5317316 L14.6090944,50.48529 L18.6555359,50.48529 L18.654961,54.5317316 Z M18.654961,46.2893074 L14.6085195,46.2893074 L14.6090944,42.2428658 L18.6555359,42.2428658 L18.654961,46.2893074 Z M26.8973853,62.7741558 L22.8509437,62.7741558 L22.8515186,58.7277143 L26.8979602,58.7277143 L26.8973853,62.7741558 Z M26.8973853,54.5317316 L22.8509437,54.5317316 L22.8515186,50.48529 L26.8979602,50.48529 L26.8973853,54.5317316 Z M26.8973853,46.2893074 L22.8509437,46.2893074 L22.8515186,42.2428658 L26.8979602,42.2428658 L26.8973853,46.2893074 Z M29.6830303,34.6202424 L3.58251082,34.6202424 L3.58251082,17.5805022 L29.6830303,17.5805022 L29.6830303,34.6202424 Z" id="Shape"></path>
        </g>
    </g>
</svg>