<?xml version="1.0" encoding="UTF-8"?>
<svg width="70px" height="70px" viewBox="0 0 70 70" version="1.1" xmlns="http://www.w3.org/2000/svg" xmlns:xlink="http://www.w3.org/1999/xlink">
    <!-- Generator: Sketch 57.1 (83088) - https://sketch.com -->
    <title>handheld_Food_pos</title>
    <desc>Created with Sketch.</desc>
    <g id="handheld_Food_pos" stroke="none" stroke-width="1" fill="none" fill-rule="evenodd">
        <g id="2868416_payment_pos_point-of-sale_icon-copy" transform="translate(16.000000, 1.000000)" fill="#0968AC" fill-rule="nonzero">
            <path d="M34.5768679,14.0469688 L36.997351,14.0469688 C38.1010237,14.0469688 39,14.9389063 39,16.0339375 L39,36.6113125 C39,37.7105313 38.1010237,38.6024688 36.997351,38.6024688 L34.5768679,38.6024688 L34.5768679,14.0469688 Z" id="Path"></path>
            <path d="M17.2219832,23.022875 L17.2219832,19.6414687 C18.1272903,19.74825 18.51136,20.3114687 18.5598963,20.393125 C18.7920263,20.8516562 19.3660205,21.0400937 19.8302806,20.8139687 C20.3029817,20.5815625 20.4950166,20.0120625 20.2628865,19.54725 C19.9421251,18.8960937 18.9439659,17.8345625 17.2240935,17.7319687 L17.2240935,16.9782187 C17.2240935,16.6683437 16.9687505,16.4129062 16.6500993,16.4129062 C16.3377789,16.4129062 16.0803256,16.66625 16.0803256,16.9782187 L16.0803256,17.77175 C14.0903382,18.0669687 12.8853723,19.3755625 12.8853723,21.3290312 C12.8853723,23.475125 14.6179064,24.1828125 16.0803256,24.6497187 L16.0803256,28.8811875 C15.0357405,28.72625 14.1705286,28.2195625 14.1705286,27.679375 C14.1705286,27.15175 13.7442534,26.7309062 13.2166852,26.7309062 C12.6891169,26.7309062 12.2628418,27.15175 12.2628418,27.679375 C12.2628418,29.46325 14.1093306,30.5875937 16.0824358,30.7823125 L16.0824358,31.3664687 C16.0824358,31.6763437 16.3377789,31.9317812 16.6522095,31.9317812 C16.9708607,31.9317812 17.2262038,31.6784375 17.2262038,31.3664687 L17.2262038,30.7906875 C18.1315109,30.7090312 18.9608481,30.43475 19.59393,29.9720312 C20.537222,29.2852812 21.0415773,28.2635312 21.0415773,27.0198437 C21.0373567,24.2875 18.8869886,23.5295625 17.2219832,23.022875 Z M16.0782153,22.6418125 C15.1096,22.2816875 14.7951693,21.976 14.7951693,21.3290312 C14.7951693,20.9730937 14.8141618,20.01625 16.0782153,19.7105625 L16.0782153,22.6418125 Z M18.4628237,28.449875 C18.1462828,28.6780937 17.7052357,28.801625 17.2219832,28.8623437 L17.2219832,25.0265937 C18.5324627,25.485125 19.1254494,25.9143437 19.1254494,27.0219375 C19.1254494,27.6521562 18.9102016,28.12325 18.4628237,28.449875 Z" id="Shape"></path>
            <path d="M30.3879761,10.2070313 L16.6437684,10.2070313 L2.90589158,10.2070313 C1.2978636,10.2070313 -0.00628508069,11.498875 2.27861832e-05,13.0985 L2.27861832e-05,39.8964063 C2.27861832e-05,45.4909063 2.00269476,45.5725625 2.00269476,50.9995625 L2.00269476,64.1148125 C2.00058449,65.7081563 3.30895371,67 4.91487142,67 L28.3789963,67 C29.984914,67 31.2911729,65.7081563 31.2869524,64.1127188 L31.2869524,50.9974688 C31.2869524,45.5704688 33.2917143,45.4888125 33.2917143,39.8943125 L33.2917143,13.0985 C33.293822,11.498875 31.9917836,10.2070313 30.3879761,10.2070313 Z M5.90247916,59.4352813 L5.90247916,55.1012188 L10.2728544,55.1012188 L10.2728544,59.4352813 L5.90247916,59.4352813 Z M10.2728544,46.8350938 L10.2728544,51.1691563 L5.90247916,51.1691563 L5.90247916,46.8350938 L10.2728544,46.8350938 Z M5.90247916,42.905125 L5.90247916,38.5710625 L10.2728544,38.5710625 L10.2728544,42.905125 L5.90247916,42.905125 Z M8.45590942,65.9656875 L8.45590942,65.057 C8.45590942,64.194375 9.16285086,63.4950625 10.0322833,63.4950625 L23.2636947,63.4950625 C24.1352374,63.4950625 24.8379583,64.194375 24.8379583,65.057 L24.8379583,65.9656875 L8.45590942,65.9656875 Z M18.4522724,46.8350938 L18.4522724,51.1691563 L14.0840074,51.1691563 L14.0840074,46.8350938 L18.4522724,46.8350938 Z M14.0840074,42.905125 L14.0840074,38.5710625 L18.4522724,38.5710625 L18.4522724,42.905125 L14.0840074,42.905125 Z M18.4522724,55.099125 L18.4522724,59.4331875 L14.0840074,59.4331875 L14.0840074,55.099125 L18.4522724,55.099125 Z M26.6316903,42.905125 L22.261315,42.905125 L22.261315,38.5710625 L26.6316903,38.5710625 L26.6316903,42.905125 Z M26.6316903,46.8350938 L26.6316903,55.099125 L26.6316903,56.355375 L26.6316903,59.4352813 L22.261315,59.4352813 L22.261315,56.355375 L22.261315,55.099125 L22.261315,46.8350938 L26.6316903,46.8350938 Z M28.6723242,33.0624063 L4.62154348,33.0624063 L4.62154348,15.2906563 L28.6702139,15.2906563 L28.6702139,33.0624063 L28.6723242,33.0624063 Z" id="Shape"></path>
            <path d="M4.7059544,0 L4.7059544,8.85446875 L28.5879133,8.85446875 L28.5879133,0 L4.7059544,0 Z M25.6082079,7.1899375 L7.68777007,7.1899375 L7.68777007,6.122125 L25.6082079,6.122125 L25.6082079,7.1899375 Z M25.6082079,3.8525 L7.68777007,3.8525 L7.68777007,2.788875 L25.6082079,2.788875 L25.6082079,3.8525 Z" id="Shape"></path>
        </g>
    </g>
</svg>