<?xml version="1.0" encoding="UTF-8"?>
<svg width="70px" height="70px" viewBox="0 0 70 70" version="1.1" xmlns="http://www.w3.org/2000/svg" xmlns:xlink="http://www.w3.org/1999/xlink">
    <!-- Generator: Sketch 57.1 (83088) - https://sketch.com -->
    <title>kiosk_and_signage</title>
    <desc>Created with Sketch.</desc>
    <g id="kiosk_and_signage" stroke="none" stroke-width="1" fill="none" fill-rule="evenodd">
        <g id="525030_atm_atm-machine_automatic-teller-machine_cash-line_cash-machine_icon-copy" transform="translate(13.000000, 1.000000)" fill="#0968AC" fill-rule="nonzero">
            <rect id="Rectangle" x="7.1884984" y="38.1957447" width="30.4792332" height="29.8042553"></rect>
            <path d="M0,0 L0,34 L45,34 L45,0 L0,0 Z M25.1597444,26.0425532 L6.46964856,26.0425532 L6.46964856,7.81276596 L25.3035144,7.81276596 L25.3035144,26.0425532 L25.1597444,26.0425532 Z M38.5303514,28.212766 L34.6485623,28.212766 C33.7859425,28.212766 33.2108626,27.4893617 33.2108626,26.7659574 C33.2108626,25.8978723 33.9297125,25.3191489 34.6485623,25.3191489 L38.5303514,25.3191489 C39.3929712,25.3191489 39.9680511,26.0425532 39.9680511,26.7659574 C39.9680511,27.4893617 39.2492013,28.212766 38.5303514,28.212766 Z M38.5303514,21.7021277 L34.6485623,21.7021277 C33.7859425,21.7021277 33.2108626,20.9787234 33.2108626,20.2553191 C33.2108626,19.5319149 33.9297125,18.8085106 34.6485623,18.8085106 L38.5303514,18.8085106 C39.3929712,18.8085106 39.9680511,19.5319149 39.9680511,20.2553191 C39.9680511,20.9787234 39.2492013,21.7021277 38.5303514,21.7021277 Z M38.5303514,15.1914894 L34.6485623,15.1914894 C33.7859425,15.1914894 33.2108626,14.4680851 33.2108626,13.7446809 C33.2108626,12.8765957 33.9297125,12.2978723 34.6485623,12.2978723 L38.5303514,12.2978723 C39.3929712,12.2978723 39.9680511,13.0212766 39.9680511,13.7446809 C39.9680511,14.612766 39.2492013,15.1914894 38.5303514,15.1914894 Z M38.5303514,8.82553191 L34.6485623,8.82553191 C33.7859425,8.82553191 33.2108626,8.10212766 33.2108626,7.3787234 C33.2108626,6.65531915 33.9297125,5.93191489 34.6485623,5.93191489 L38.5303514,5.93191489 C39.3929712,5.93191489 39.9680511,6.65531915 39.9680511,7.3787234 C39.9680511,8.10212766 39.2492013,8.82553191 38.5303514,8.82553191 Z" id="Shape"></path>
        </g>
    </g>
</svg>