<?xml version="1.0" encoding="UTF-8"?>
<svg width="70px" height="70px" viewBox="0 0 70 70" version="1.1" xmlns="http://www.w3.org/2000/svg" xmlns:xlink="http://www.w3.org/1999/xlink">
    <!-- Generator: Sketch 57.1 (83088) - https://sketch.com -->
    <title>role-based_hq_modul</title>
    <desc>Created with Sketch.</desc>
    <g id="role-based_hq_modul" stroke="none" stroke-width="1" fill="none" fill-rule="evenodd">
        <g id="3938108_engineer_equipment_mechanical_professional_technician_icon-copy" transform="translate(5.000000, 4.000000)" fill="#0968AC" fill-rule="nonzero">
            <path d="M24.7692275,19.1796141 C23.957246,18.3685339 23.529483,17.2500147 23.5931217,16.10432 L23.8435767,11.6094609 C23.9055668,10.4922538 23.4886421,9.40152853 22.697164,8.61030718 L18.8564233,4.77102903 C18.0691943,3.98466121 16.9856646,3.56829413 15.8742011,3.62505289 L12.0541164,3.81992045 C11.6859753,3.83903487 11.3635735,4.07294878 11.2312965,4.41690542 C11.0990194,4.76086205 11.1816489,5.15042213 11.4421799,5.4111238 L14.2088042,8.17411357 C15.8765548,9.84167981 15.8765548,12.5448608 14.2088042,14.212427 L14.2088042,14.212427 C12.5406027,15.8795424 9.83639199,15.8795424 8.16819048,14.212427 L5.40156614,11.4494373 C5.14076515,11.1890055 4.75105667,11.1064075 4.406969,11.2386341 C4.06288133,11.3708608 3.82887831,11.6931398 3.80975661,12.0611407 L3.61481481,15.8797707 C3.55803443,16.9908109 3.97456013,18.073928 4.76122751,18.8608572 L8.60196825,22.7001354 C9.39349101,23.4913121 10.4846318,23.908078 11.6022646,23.8461115 L16.098836,23.5957519 C17.2449671,23.5321375 18.3639124,23.9597375 19.1753016,24.7714098 L27.7036825,33.2952526 L36.2243175,41.8203859 C37.036299,42.6314661 37.4640619,43.7499853 37.4004233,44.89568 L37.1499683,49.3905391 C37.0879782,50.5077462 37.5049029,51.5984715 38.296381,52.3896928 L42.1371217,56.228971 C42.9243507,57.0153388 44.0078804,57.4317059 45.1193439,57.3749471 L48.9394286,57.1800795 C49.3075697,57.1609651 49.6299715,56.9270512 49.7622485,56.5830946 C49.8945255,56.2391379 49.811896,55.8495779 49.5513651,55.5888762 L46.7911958,52.8258864 C45.1234452,51.1583202 45.1234452,48.4551392 46.7911958,46.787573 L46.7911958,46.787573 C48.4593973,45.1204576 51.163608,45.1204576 52.8318095,46.787573 L55.5984339,49.5531438 C55.8592349,49.8135755 56.2489433,49.8961735 56.593031,49.7639469 C56.9371187,49.6317203 57.1711217,49.3094412 57.1902434,48.9414403 L57.3851852,45.1228104 C57.4419656,44.0117701 57.0254399,42.928653 56.2387725,42.1417238 L52.3980317,38.3024456 C51.606509,37.511269 50.5153682,37.094503 49.3977354,37.1564695 L44.901164,37.4068291 C43.7550329,37.4704436 42.6360876,37.0428435 41.8246984,36.2311712 L33.2963175,27.713781 L24.7692275,19.1796141 Z" id="Path"></path>
            <path d="M19.2295238,41.7661843 C23.0055684,45.5410083 28.4222906,47.1738855 33.6565079,46.1152154 C34.312633,45.9829088 34.796583,45.4243505 34.8339048,44.7563045 L34.8339048,44.7563045 C34.8564086,44.3424687 34.7020088,43.9385549 34.409164,43.6451722 L32.8380106,42.0746171 C32.3447117,41.5893546 31.6701083,41.3336649 30.978963,41.3699966 C27.9296249,41.5047676 24.9639051,40.3528427 22.805591,38.1953505 C20.6472769,36.0378582 19.4949131,33.0732678 19.6297354,30.025091 C19.666081,29.3342088 19.4102939,28.6598623 18.9248466,28.1667513 L17.3536931,26.5961962 C17.0601987,26.3034629 16.656131,26.1491219 16.2421376,26.1716172 L16.2421376,26.1716172 C15.5735326,26.2067906 15.01311,26.6890162 14.878836,27.3446941 C13.8197626,32.5769182 15.4532618,37.9915777 19.2295238,41.7661843 L19.2295238,41.7661843 Z" id="Path"></path>
            <path d="M17.4066243,43.5883896 C13.0825292,39.2618082 11.1762409,33.078995 12.3136085,27.0698147 C12.3439128,26.9049472 12.2969464,26.7352906 12.1861649,26.6094504 C12.0753834,26.4836103 11.9130109,26.4154724 11.7455661,26.4245578 L11.7455661,26.4245578 C10.3924371,26.4959559 9.05072977,26.1436269 7.90740741,25.4166667 C7.33157681,25.0537561 6.64206958,24.9159071 5.97089947,25.0295126 L1.31037037,25.8167259 C0.554260668,25.9444829 0.000607084435,26.5987994 0,27.3653423 L0,33.6424008 C0.000607084435,34.4089437 0.554260668,35.0632602 1.31037037,35.1910172 L8.16948148,36.3524795 C8.70122595,38.3892642 9.51051399,40.3433218 10.5746243,42.159791 L6.54668783,47.825146 C6.10191344,48.450182 6.17338959,49.3048422 6.71580952,49.8473809 L8.93633862,52.0670644 L11.1568677,54.2867479 C11.6996131,54.8289613 12.5545989,54.9004102 13.179873,54.4558052 L18.8473862,50.4294026 C20.6645474,51.4931077 22.6193494,52.3020875 24.6569101,52.8336295 L25.8188148,59.6901286 C25.9466204,60.4459504 26.6011862,60.9993931 27.3680212,61 L33.6474709,61 C34.4143058,60.9993931 35.0688716,60.4459504 35.1966772,59.6901286 L35.9841905,55.0313743 C36.0978392,54.3604598 35.9599377,53.6712151 35.5968889,53.0956038 C34.8708726,51.9505149 34.5206368,50.607403 34.5950688,49.2537446 L34.5950688,49.2537446 C34.6041577,49.0863636 34.5359939,48.9240529 34.4101058,48.8133136 C34.2842177,48.7025743 34.1144964,48.6556258 33.9495661,48.6859186 C27.9311689,49.8275095 21.7375344,47.9190079 17.4066243,43.5883896 Z" id="Path"></path>
            <path d="M41.7704762,19.2338157 C37.9944316,15.4589917 32.5777094,13.8261145 27.3434921,14.8847846 C26.687367,15.0170912 26.203417,15.5756495 26.1660952,16.2436955 L26.1660952,16.2436955 C26.1435914,16.6575313 26.2979912,17.0614451 26.590836,17.3548278 L28.1619894,18.9253829 C28.6552883,19.4106454 29.3298917,19.6663351 30.021037,19.6300034 C33.0703751,19.4952324 36.0360949,20.6471573 38.194409,22.8046495 C40.3527231,24.9621418 41.5050869,27.9267322 41.3702646,30.974909 C41.333919,31.6657912 41.5897061,32.3401377 42.0751534,32.8332487 L43.6463069,34.4038038 C43.9398013,34.6965371 44.343869,34.8508781 44.7578624,34.8283828 L44.7578624,34.8283828 C45.4264674,34.7932094 45.98689,34.3109838 46.121164,33.6553059 C47.1802374,28.4230818 45.5467382,23.0084223 41.7704762,19.2338157 L41.7704762,19.2338157 Z" id="Path"></path>
            <path d="M47.831746,6.5441948 L42.1642328,10.5705974 C40.3470717,9.50689232 38.3922696,8.69791246 36.354709,8.16637048 L35.1928042,1.30987137 C35.0649986,0.554049602 34.4104328,0.000606853253 33.6435979,0 L27.3602751,0 C26.5934402,0.000606853253 25.9388744,0.554049602 25.8110688,1.30987137 L25.0235556,5.96862571 C24.9099068,6.63954024 25.0478083,7.32878489 25.4108571,7.90439621 C26.1368735,9.04948511 26.4871092,10.392597 26.4126772,11.7462554 L26.4126772,11.7462554 C26.4035883,11.9136364 26.4717522,12.0759471 26.5976403,12.1866864 C26.7235283,12.2974257 26.8932496,12.3443742 27.0581799,12.3140814 C33.0735541,11.1702245 39.2653943,13.0761989 43.5950533,17.4044675 C47.9247123,21.7327361 49.8310432,27.9223321 48.6863915,33.9353474 C48.6560872,34.1002149 48.7030536,34.2698715 48.8138351,34.3957116 C48.9246166,34.5215518 49.0869891,34.5896897 49.2544339,34.5806042 L49.2544339,34.5806042 C50.6070111,34.5076712 51.9486752,34.8581845 53.0925926,35.5833333 C53.6684232,35.9462439 54.3579304,36.0840929 55.0291005,35.9704874 L59.6896296,35.1832741 C60.4457393,35.0555171 60.9993929,34.4012006 61,33.6346577 L61,27.3614708 C60.9993929,26.5949279 60.4457393,25.9406113 59.6896296,25.8128544 L52.8305185,24.6513921 C52.2987741,22.6146074 51.489486,20.6605497 50.4253757,18.8440806 L54.4533122,13.1787256 C54.8980866,12.5536896 54.8266104,11.6990294 54.2841905,11.1564906 L52.0636614,8.93680714 L49.8431323,6.71712364 C49.3030858,6.18006476 48.4556004,6.10720225 47.831746,6.5441948 Z" id="Path"></path>
        </g>
    </g>
</svg>