<?xml version="1.0" encoding="UTF-8"?>
<svg width="70px" height="70px" viewBox="0 0 70 70" version="1.1" xmlns="http://www.w3.org/2000/svg" xmlns:xlink="http://www.w3.org/1999/xlink">
    <!-- Generator: Sketch 57.1 (83088) - https://sketch.com -->
    <title>ticketing_pos</title>
    <desc>Created with Sketch.</desc>
    <g id="ticketing_pos" stroke="none" stroke-width="1" fill="none" fill-rule="evenodd">
        <g id="if_106_835975-copy" transform="translate(4.000000, 4.000000)">
            <polygon id="Rectangle-path" fill="#0968AC" fill-rule="nonzero" points="13.5128205 0 30.2051282 0 30.2051282 10.9873418 13.5128205 10.9873418"></polygon>
            <polygon id="Rectangle-path" fill="#0968AC" fill-rule="nonzero" points="13.5128205 10.9873418 30.2051282 10.9873418 30.2051282 23.5443038 13.5128205 23.5443038"></polygon>
            <path d="M59.4593817,8.63291139 L50.232926,8.63291139 C48.7620417,8.63291139 47.6923077,9.9473717 47.6923077,11.393278 L47.6923077,59.2396333 C47.6923077,60.8169857 48.8957584,62 50.232926,62 L59.4593817,62 C60.930266,62 62,60.6855397 62,59.2396333 L62,11.393278 C62,9.81592567 60.7965492,8.63291139 59.4593817,8.63291139 Z" id="Shape" fill="#0968AC" fill-rule="nonzero"></path>
            <path d="M41.1855066,8.63291139 L35.3209037,8.63291139 L35.3209037,24.5378811 C36.2539087,24.9322192 37.0536273,25.9837875 37.0536273,27.1668018 C37.0536273,28.7441541 35.8540494,29.9271684 34.5211851,29.9271684 L32.7884615,29.9271684 L10.9294872,29.9271684 L9.33005003,29.9271684 C7.86389931,29.9271684 6.79760788,28.6127081 6.79760788,27.1668018 C6.79760788,25.9837875 7.46404003,24.9322192 8.53033146,24.5378811 L8.53033146,8.63291139 L2.53244215,8.63291139 C1.06629143,8.63291139 0,9.9473717 0,11.393278 L0,59.2396333 C0,60.8169857 1.19957786,62 2.53244215,62 L41.1855066,62 C42.6516573,62 43.7179487,60.6855397 43.7179487,59.2396333 L43.7179487,11.393278 C43.7179487,9.81592567 42.6516573,8.63291139 41.1855066,8.63291139 Z" id="Shape" fill="#0968AC" fill-rule="nonzero"></path>
            <path d="M13.5952158,53.9817921 L13.1953565,53.9817921 C11.7292058,53.9817921 10.6629143,52.6673318 10.6629143,51.2214255 C10.6629143,49.7755191 11.8624922,48.4610588 13.1953565,48.4610588 L13.5952158,48.4610588 C15.0613665,48.4610588 16.1276579,49.7755191 16.1276579,51.2214255 C16.1276579,52.6673318 14.9280801,53.9817921 13.5952158,53.9817921 Z" id="Path" fill="#FFFFFF"></path>
            <path d="M13.5952158,44.1233398 L13.1953565,44.1233398 C11.7292058,44.1233398 10.6629143,42.8088795 10.6629143,41.3629731 C10.6629143,39.9170668 11.8624922,38.6026065 13.1953565,38.6026065 L13.5952158,38.6026065 C15.0613665,38.6026065 16.1276579,39.9170668 16.1276579,41.3629731 C16.1276579,42.8088795 14.9280801,44.1233398 13.5952158,44.1233398 Z" id="Path" fill="#FFFFFF"></path>
            <path d="M30.6558787,53.9817921 L30.2560194,53.9817921 C28.7898687,53.9817921 27.7235772,52.6673318 27.7235772,51.2214255 C27.7235772,49.7755191 28.9231551,48.4610588 30.2560194,48.4610588 L30.6558787,48.4610588 C32.1220294,48.4610588 33.1883208,49.7755191 33.1883208,51.2214255 C33.1883208,52.6673318 32.1220294,53.9817921 30.6558787,53.9817921 Z" id="Path" fill="#FFFFFF"></path>
            <path d="M30.6558787,44.1233398 L30.2560194,44.1233398 C28.7898687,44.1233398 27.7235772,42.8088795 27.7235772,41.3629731 C27.7235772,39.9170668 28.9231551,38.6026065 30.2560194,38.6026065 L30.6558787,38.6026065 C32.1220294,38.6026065 33.1883208,39.9170668 33.1883208,41.3629731 C33.1883208,42.8088795 32.1220294,44.1233398 30.6558787,44.1233398 Z" id="Path" fill="#FFFFFF"></path>
        </g>
    </g>
</svg>