<?xml version="1.0" encoding="UTF-8"?>
<svg width="70px" height="70px" viewBox="0 0 70 70" version="1.1" xmlns="http://www.w3.org/2000/svg" xmlns:xlink="http://www.w3.org/1999/xlink">
    <!-- Generator: Sketch 57.1 (83088) - https://sketch.com -->
    <title>user_android_app</title>
    <desc>Created with Sketch.</desc>
    <g id="user_android_app" stroke="none" stroke-width="1" fill="none" fill-rule="evenodd">
        <g id="104471_android_icon-copy" transform="translate(8.000000, 3.000000)" fill="#0968AC" fill-rule="nonzero">
            <path d="M35.4496858,5.35915225 L36.1422208,4.31265595 L36.8220951,3.28021517 L38.3527619,0.963612267 C38.5401388,0.678668832 38.4641752,0.295336857 38.1843759,0.104948643 C37.8995123,-0.0854395712 37.5196943,-0.00877317616 37.3310513,0.277448032 L35.6915033,2.76143923 L35.0015005,3.80537997 L34.3013692,4.86337623 C32.0832317,3.99576819 29.6106161,3.50893658 26.9987339,3.50893658 C24.3893839,3.50893658 21.9167683,3.99576819 19.6986308,4.86337623 L19.0022977,3.80537997 L18.3122949,2.76143923 L16.6702148,0.276170259 C16.4828379,-0.00877317616 16.1017537,-0.0854395712 15.8181562,0.10367087 C15.5370909,0.292781311 15.4611273,0.677391059 15.6485042,0.962334494 L17.1779049,3.2789374 L17.8603114,4.31137818 L18.5528463,5.35787447 C13.3430085,7.80608802 9.81956297,12.4444049 9.81956297,17.7535528 L44.1829691,17.7535528 C44.1829691,12.4456827 40.6595236,7.80736579 35.4496858,5.35915225 Z M19.6378599,12.7996259 C18.6186814,12.7996259 17.7957423,11.9677955 17.7957423,10.9417436 C17.7957423,9.91569166 18.6186814,9.08513904 19.6378599,9.08513904 C20.6545062,9.08513904 21.4774454,9.91569166 21.4774454,10.9417436 C21.4774454,11.9677955 20.6545062,12.7996259 19.6378599,12.7996259 Z M34.3634062,12.7996259 C33.3467598,12.7996259 32.5238207,11.9677955 32.5238207,10.9417436 C32.5238207,9.91569166 33.3467598,9.08513904 34.3634062,9.08513904 C35.3825846,9.08513904 36.2055238,9.91569166 36.2055238,10.9417436 C36.2055238,11.9677955 35.3825846,12.7996259 34.3634062,12.7996259 Z" id="Shape"></path>
            <path d="M10.0841696,20.2324329 L9.81956297,20.2324329 L9.81956297,23.3220886 L9.81956297,25.8431352 L9.81956297,47.483503 C9.81956297,49.6467731 11.5616618,51.4062668 13.7051018,51.4062668 L16.5106912,51.4062668 C16.4170027,51.7333768 16.3638282,52.0796534 16.3638282,52.4374299 L16.3638282,52.6444291 L16.3638282,53.8825914 L16.3638282,60.2842354 C16.3638282,62.3350615 18.0135046,64 20.0467973,64 C22.08009,64 23.7285004,62.3350615 23.7285004,60.2842354 L23.7285004,53.8825914 L23.7285004,52.6444291 L23.7285004,52.4374299 C23.7285004,52.0809311 23.6740598,51.7333768 23.5829035,51.4062668 L30.4196286,51.4062668 C30.3259402,51.7333768 30.2740317,52.0796534 30.2740317,52.4374299 L30.2740317,52.6444291 L30.2740317,53.8825914 L30.2740317,60.2842354 C30.2740317,62.3350615 31.9237081,64 33.9557348,64 C35.9877614,64 37.6374379,62.3350615 37.6374379,60.2842354 L37.6374379,53.8825914 L37.6374379,52.6444291 L37.6374379,52.4374299 C37.6374379,52.0809311 37.5855294,51.7333768 37.4918409,51.4062668 L40.2961643,51.4062668 C42.4396042,51.4062668 44.1829691,49.6467731 44.1829691,47.483503 L44.1829691,25.8431352 L44.1829691,23.3220886 L44.1829691,20.2324329 L43.9183626,20.2324329 L10.0841696,20.2324329 Z" id="Path"></path>
            <path d="M3.68170309,20.2324329 C1.64841039,20.2324329 0,21.8948159 0,23.9494753 L0,39.8436967 C0,41.8945228 1.64841039,43.5594613 3.68170309,43.5594613 C5.71372972,43.5594613 7.36340617,41.8945228 7.36340617,39.8436967 L7.36340617,23.9481975 C7.36340617,21.8948159 5.71499578,20.2324329 3.68170309,20.2324329 Z" id="Path"></path>
            <path d="M50.320829,20.2324329 C48.2862703,20.2324329 46.6391259,21.8948159 46.6391259,23.9494753 L46.6391259,39.8436967 C46.6391259,41.8945228 48.2862703,43.5594613 50.320829,43.5594613 C52.3528557,43.5594613 54,41.8945228 54,39.8436967 L54,23.9481975 C54,21.8948159 52.3528557,20.2324329 50.320829,20.2324329 Z" id="Path"></path>
        </g>
    </g>
</svg>