<?xml version="1.0" encoding="UTF-8"?>
<svg width="70px" height="70px" viewBox="0 0 70 70" version="1.1" xmlns="http://www.w3.org/2000/svg" xmlns:xlink="http://www.w3.org/1999/xlink">
    <!-- Generator: Sketch 57.1 (83088) - https://sketch.com -->
    <title>user_ios_app</title>
    <desc>Created with Sketch.</desc>
    <g id="user_ios_app" stroke="none" stroke-width="1" fill="none" fill-rule="evenodd">
        <g id="1916086_apple_brand_brands_ios_logo_icon-copy" transform="translate(7.000000, 2.000000)" fill="#0968AC" fill-rule="nonzero">
            <path d="M29.3652994,16.76738 L29.644969,16.76738 C36.9162371,15.2764929 42.0888773,8.82470244 41.9504278,1.41888533 C41.9484662,0.99432927 41.7528936,0.593760567 41.4190557,0.330537525 C41.1034033,0.0597479338 40.6815119,-0.053197179 40.2724107,0.0235676316 C32.9905974,1.51634357 27.8148649,7.98372851 27.9669519,15.3999687 C27.9669519,16.1705813 28.5930134,16.7952864 29.3652994,16.7952864 L29.3652994,16.76738 Z" id="Path"></path>
            <path d="M55.0109943,46.1527707 C50.4744086,44.2984882 47.5199941,39.8819893 47.5438182,34.9902291 C47.5446699,30.5675233 49.8975658,26.4774685 53.7245145,24.2462829 C54.0915291,24.0353059 54.3429295,23.6697072 54.4081518,23.252104 C54.4733742,22.8345009 54.3453884,22.4099052 54.0601179,22.0974936 C50.9259264,18.7402529 46.5483721,16.8134603 41.9504278,16.76738 C39.6944691,16.8159093 37.4703925,17.3090777 35.406161,18.2185104 C33.5023381,19.0629046 31.4483414,19.5183593 29.3652994,19.5580154 C27.2822575,19.5183593 25.2282608,19.0629046 23.3244378,18.2185104 C21.2602064,17.3090777 19.0361298,16.8159093 16.7801711,16.76738 C15.074187,16.76738 0,17.3255071 0,36.3018278 C0,51.8177606 10.6274417,66.9988171 16.7801711,66.9988171 C19.4888224,67.029379 22.1712901,66.4673767 24.6388846,65.3523422 C26.1142405,64.6381118 27.7259613,64.2479499 29.3652994,64.2081817 C31.0046376,64.2479499 32.6163584,64.6381118 34.0917143,65.3523422 C36.5593088,66.4673767 39.2417765,67.029379 41.9504278,66.9988171 C46.9565122,66.9988171 52.857539,57.1478742 55.9339037,47.910871 C56.0474288,47.5556285 56.0137393,47.1698248 55.840351,46.8395279 C55.6669626,46.509231 55.3683012,46.2619214 55.0109943,46.1527707 L55.0109943,46.1527707 Z" id="Path"></path>
        </g>
    </g>
</svg>