<?xml version="1.0" encoding="UTF-8"?>
<svg width="70px" height="70px" viewBox="0 0 70 70" version="1.1" xmlns="http://www.w3.org/2000/svg" xmlns:xlink="http://www.w3.org/1999/xlink">
    <title>Configure Rate card </title>
    <g id="Configure-Rate-card-" stroke="none" stroke-width="1" fill="none" fill-rule="evenodd">
        <g id="5469588_cashback_chargeback_coin_dollar_finance_icon" transform="translate(1.000000, 5.000000)" fill="#0968AC" fill-rule="nonzero">
            <path d="M42.0181355,0 C33.2485533,0 26.1236397,7.15240763 26.1236397,15.9400008 C26.1236397,24.7276368 33.2485533,31.8778161 42.0181355,31.8778161 C50.7877238,31.8778161 57.9215022,24.7276368 57.9215022,15.9400008 C57.9215022,7.15240763 50.7877238,0 42.0181355,0 Z M43.1582096,7.48802095 L43.1582096,8.47192026 C45.0732531,8.92066377 46.3364596,10.3878286 46.8978327,12.1616606 C47.3505255,13.6075972 45.1790619,14.2856875 44.726369,12.8397505 C44.2720279,11.4041066 43.3343773,10.6608318 41.975994,10.6082121 C40.4286161,10.6210775 39.2344937,11.7921677 39.2344937,13.2674377 C39.2344937,13.845264 39.3736491,14.1278729 39.8267102,14.3489001 C40.2797945,14.5697553 41.1564065,14.692405 42.1356922,14.7942978 C43.1149736,14.8963586 44.2052188,14.97913 45.2209887,15.4746185 C46.2368274,15.9702348 47.073056,16.96181 47.073056,18.5948517 C47.073056,20.9444086 45.378734,22.9367792 43.1582096,23.4213746 L43.1582096,24.376498 C43.1925478,25.9231283 40.8525997,25.9231283 40.8869378,24.376498 L40.8869378,23.3992466 C38.66924,22.8398607 37.6877957,21.2556644 37.1561848,19.7493893 C36.6101355,18.2648983 38.9064699,17.5354336 39.3187759,19.0624215 C39.7605797,20.4228477 40.6823296,21.1962689 42.0602813,21.2496597 C43.6032064,21.2367944 44.8106263,20.0612884 44.810652,18.6036863 C44.810652,17.9986279 44.6581906,17.7388764 44.2051286,17.517851 C43.7520452,17.2969957 42.8798559,17.1700576 41.9005745,17.0679916 C40.9213017,16.9659299 39.8456271,16.8895925 38.8285909,16.3965064 C37.8064817,15.9009321 36.9632129,14.917505 36.9632129,13.2674377 C36.9632129,10.914793 38.657629,8.94051929 40.8869378,8.44310229 L40.8869378,7.48802095 C40.9800801,5.97887259 43.0473103,5.97887259 43.1582096,7.48802095 Z M24.9086174,31.7714625 C23.1470359,31.7714625 20.0018055,32.9580769 17.5114489,34.14928 C17.0241643,34.3821428 16.7382429,34.5412444 16.3159226,34.7520217 C16.7567383,35.5586408 17.030131,36.4692505 17.030131,37.4489471 L17.030131,52.7441063 C18.4763933,52.49246 19.9434826,52.261201 21.5771201,52.1989585 C22.9810362,52.1989585 25.6052489,54.1867027 27.3107605,55.3900634 C29.7411296,57.1040715 32.3590237,59 35.1981199,59 C36.052719,59 36.9111829,58.7189349 38.04165,58.2975131 C44.2545369,55.9769637 57.3593222,48.569934 64.9930857,44.1081696 C66.9247531,43.0408256 67.5593309,40.569477 66.4680856,38.6810577 C65.4210593,36.86923 63.2956217,36.4279484 61.2290697,37.1320692 L46.9692689,42.0649886 C47.0712962,42.9918943 46.9054,43.9528504 46.405887,44.8173121 C45.1574202,46.9777608 42.3644273,47.7244659 40.2020229,46.4771227 L33.3105641,42.50597 C31.8859383,41.7794249 33.1138923,39.6694169 34.4506378,40.5470056 L41.3332223,44.5159241 C42.4399455,45.1543114 43.7973072,44.7928293 44.4362631,43.687138 C45.0752318,42.5814038 44.7112259,41.227497 43.6045027,40.5890753 C38.5365573,37.665724 29.5484324,31.7714625 24.9086174,31.7714625 Z M3.41356508,34.0406964 C1.50186522,34.0406964 0,35.5850576 0,37.4511728 L0,53.3291368 C0,55.1877686 1.50288678,56.7374176 3.39138263,56.7374176 L11.3563763,56.7374176 C13.4300234,56.7374176 14.7588548,54.9771971 14.7588548,53.326924 L14.7588548,37.4489471 C14.7588548,35.5422117 13.2151,34.0406964 11.3585954,34.0406964 L3.41356508,34.0406964 Z M5.68262209,49.9275075 C6.30981716,49.9275032 6.81826229,50.4354959 6.81826229,51.0621287 C6.81826229,51.6887614 6.30981716,52.1967456 5.68262209,52.1967456 C5.05543131,52.1967456 4.54698618,51.6887614 4.54698618,51.0621287 C4.54698618,50.4355002 5.05543131,49.9275118 5.68262209,49.9275075 L5.68262209,49.9275075 Z" id="path820"></path>
        </g>
    </g>
</svg>