<?xml version="1.0" encoding="UTF-8"?>
<svg width="70px" height="70px" viewBox="0 0 70 70" version="1.1" xmlns="http://www.w3.org/2000/svg" xmlns:xlink="http://www.w3.org/1999/xlink">
    <title>View over 50+ reports </title>
    <g id="View-over-50+-reports-" stroke="none" stroke-width="1" fill="none" fill-rule="evenodd">
        <g id="1564498_business_chart_graph_pie_icon" transform="translate(2.000000, 1.000000)" fill="#0968AC" fill-rule="nonzero">
            <path d="M52.1864305,39.1832072 L34.8930572,39.1832072 C30.9881019,39.1832072 27.6409974,35.8484662 27.6409974,31.957935 L27.6409974,15.0063347 C27.9199228,12.783174 26.2463706,11.1158035 24.0149675,11.3936986 C8.67407189,13.6168593 -2.76186851,28.0674038 0.585235999,44.741109 C2.53771363,55.5790174 11.4633256,64.193765 22.3414153,66.4169257 C38.7980125,69.7516668 53.5810574,58.3579682 55.8124604,43.0737384 C56.0913857,40.8505778 54.4178335,39.1832072 52.1864305,39.1832072 Z" id="Path"></path>
            <path d="M66.9694754,29.7347743 C66.1326993,22.2316069 62.7855948,15.2842298 57.2070872,9.72632804 C51.9075051,4.44632139 44.6554453,0.83368526 37.1244602,0 C35.1719826,0 33.4984303,1.66737052 33.4984303,3.61263613 L33.4984303,30.8463546 C33.4984303,32.5137251 34.8930572,33.6253055 36.2876841,33.6253055 L63.6223709,33.6253055 C65.5748485,33.6253055 67.2484008,31.957935 66.9694754,29.7347743 Z" id="Path"></path>
        </g>
    </g>
</svg>