<?xml version="1.0" encoding="UTF-8"?>
<svg width="70px" height="70px" viewBox="0 0 70 70" version="1.1" xmlns="http://www.w3.org/2000/svg" xmlns:xlink="http://www.w3.org/1999/xlink">
    <title>Reports for different roles </title>
    <g id="Reports-for-different-roles-" stroke="none" stroke-width="1" fill="none" fill-rule="evenodd">
        <g id="2530493_admin_avatar_cog_gear_person_icon" transform="translate(1.000000, 1.000000)" fill="#0968AC" fill-rule="nonzero">
            <path d="M46.3374921,39.1205556 C45.1822555,38.0895 43.7166235,37.2505111 42.5755297,36.6787778 C41.5364122,36.1621333 40.7674951,35.8643556 40.752608,35.8576556 C38.9795581,35.2353 38.3468576,34.5988 38.128762,34.1752111 L38.040184,33.9191222 C38.014876,33.8290444 37.9925454,33.7449222 37.9717035,33.6637778 L37.7565853,32.4525667 L37.7506305,32.3937556 C38.3364367,31.6448444 38.8143116,30.7842667 39.1321505,29.9035889 L39.1768117,29.8358444 C39.6822277,29.3311111 39.9554055,28.0521556 39.9568942,28.0402444 C40.3275822,27.0002556 40.1898768,26.5476333 40.074502,26.3652444 L40.0276077,26.2908 L40.0544045,26.2081667 C40.0923665,26.0950111 40.9625157,23.4291556 39.7603848,21.3975667 L39.7395429,21.3447111 C39.7358212,21.3261 39.286976,19.4486111 37.0844341,18.6178111 C36.2537357,18.1145667 34.8662608,17.8666667 33.6097921,17.8666667 C33.5725745,17.8666667 33.5361011,17.8666667 33.5003722,17.8674111 C33.4631545,17.8666667 33.4274255,17.8666667 33.3909522,17.8666667 C32.1344836,17.8666667 30.7462643,18.1145667 29.9170546,18.6185556 C27.7145127,19.4501 27.2649232,21.3268444 27.2612014,21.3454556 L27.2403595,21.3983111 C26.038973,23.4299 26.9098666,26.0957556 26.9463399,26.2089111 L26.9731366,26.2915444 L26.9262423,26.3659889 C26.8116119,26.5476333 26.6724178,27.001 27.0431058,28.0409889 C27.0453389,28.0529 27.3177723,29.3311111 27.8239326,29.8365889 L27.8678495,29.9043333 C28.1864328,30.7850111 28.6643077,31.6448444 29.2501139,32.3945 L29.244159,32.4533111 L29.0282965,33.6645222 C29.0074546,33.7456667 28.985124,33.8297889 28.9605604,33.9198667 L28.8719823,34.1759556 C28.6531424,34.5988 28.0196976,35.2360444 26.2481363,35.8584 C26.2332493,35.8651 25.4635878,36.1621333 24.4244703,36.6795222 C23.2833765,37.252 21.8184889,38.0909889 20.6632523,39.1213 C20.6476208,39.1332111 19.7633289,39.8061889 19.1656131,41.4171667 C21.9614047,46.4570556 27.3348924,49.8755444 33.4944173,49.8755444 C39.6591528,49.8755444 45.0371066,46.4525889 47.8328982,41.4097222 C47.2351824,39.8039556 46.3538679,39.1317222 46.3374921,39.1205556 Z" id="Path"></path>
            <path d="M2.748153,40.6548556 L7.80007999,41.5012889 C8.27869927,43.0527111 8.91363278,44.5706333 9.6698959,46.0200667 L6.74607548,50.1264222 C5.71216851,51.3756 5.80967882,53.1808778 6.95077268,54.3258333 L12.6755952,60.0506111 C13.2673562,60.6394667 14.0526491,60.9729778 14.8900468,60.9729778 C15.6143027,60.9729778 16.3132506,60.7183778 16.8119674,60.3037222 L20.9788581,57.3296667 C22.4266256,58.0919778 23.9361745,58.7210333 25.5015498,59.2049222 L26.3285265,64.1837667 C26.4945173,65.7873 27.8350979,67 29.4488563,67 L37.5437002,67 C39.1663908,67 40.5054827,65.7873 40.6506316,64.2544889 L41.4969615,59.2041778 C43.0571264,58.7210333 44.5718857,58.0919778 46.015187,57.3289222 L50.1225295,60.2575667 C50.6830276,60.7161444 51.3879304,60.9417111 52.0935775,60.9417111 C52.9116219,60.9417111 53.728922,60.6394667 54.3191943,60.0476333 L60.0440168,54.3228556 C61.1880881,53.1808778 61.2841097,51.3756 60.3060293,50.1844889 L57.3286154,46.0200667 C58.0848785,44.5765889 58.7153459,43.0594111 59.1969426,41.4953333 L64.1692238,40.6548556 C65.7844708,40.5082 67,39.1696889 67,37.5468 L67,29.4509667 C67,27.8318 65.7844708,26.4918 64.2525913,26.3414222 L59.1976869,25.4949889 C58.7168346,23.9338889 58.0856229,22.4196889 57.3293597,20.9784444 L60.2628568,16.8676222 C61.2848541,15.6132333 61.1888325,13.8094444 60.0492273,12.6711889 L54.3199387,6.94864444 C53.7311551,6.35383333 52.9458622,6.03297778 52.1084645,6.03297778 C51.3856973,6.03297778 50.6807946,6.27864444 50.1865439,6.6933 L46.015187,9.67033333 C44.5718857,8.90802222 43.056382,8.27971111 41.4969615,7.79358889 L40.6677517,2.81623333 C40.5047383,1.2127 39.1656464,0 37.5437002,0 L29.4488563,0 C27.8350979,0 26.4945173,1.2127 26.3434136,2.74551111 L25.5015498,7.79358889 C23.9354301,8.27896667 22.4266256,8.90727778 20.9788581,9.67033333 L16.870027,6.73275556 C16.3125062,6.27864444 15.6090922,6.05382222 14.9041895,6.05382222 C14.0876337,6.05382222 13.271078,6.35532222 12.6785726,6.94938889 L6.95077268,12.6719333 C5.80074658,13.8139111 5.71216851,15.6221667 6.69173768,16.8132778 L9.66915155,20.9791889 C8.91288842,22.4211778 8.28242104,23.9353778 7.79933564,25.4957333 L2.82035529,26.3287667 C1.2125518,26.4925444 0,27.8325444 0,29.4509667 L0,37.5475444 C0,39.1696889 1.2125518,40.5082 2.748153,40.6548556 Z M33.4944173,14.1414667 C44.1714235,14.1414667 52.855051,22.8216889 52.855051,33.4970222 C52.855051,44.1768222 44.1714235,52.8525778 33.4944173,52.8525778 C22.8270878,52.8525778 14.1397385,44.1768222 14.1397385,33.4970222 C14.1397385,22.8216889 22.8270878,14.1414667 33.4944173,14.1414667 Z" id="Shape"></path>
        </g>
    </g>
</svg>