<?xml version="1.0" encoding="UTF-8"?>
<svg width="70px" height="70px" viewBox="0 0 70 70" version="1.1" xmlns="http://www.w3.org/2000/svg" xmlns:xlink="http://www.w3.org/1999/xlink">
    <title>View Firebase Analytics </title>
    <g id="View-Firebase-Analytics-" stroke="none" stroke-width="1" fill="none" fill-rule="evenodd">
        <g id="4691533_firebase_icon" transform="translate(10.000000, 1.000000)" fill="#0968AC" fill-rule="nonzero">
            <path d="M1.58894646,43.7541308 L8.12435233,1.28608654 C8.22138518,0.640397537 8.71753271,0.130464828 9.35489947,0.0213493551 C9.99226623,-0.087766118 10.6270079,0.22856141 10.9291883,0.805906182 L17.9564767,14.1253276 L1.58894646,43.7541308 Z M48,54.0584663 L41.7768566,14.9768103 C41.6835909,14.4183924 41.2900043,13.9590573 40.7563248,13.7857989 C40.2226453,13.6125404 39.6378738,13.7542527 39.2400691,14.1532451 L0,54.0584663 L21.7119171,66.4203188 C23.0736488,67.1932271 24.7356776,67.1932271 26.0974093,66.4203188 L48,54.0584663 Z M30.3557858,19.9544939 L25.3264249,10.2336333 C25.0677901,9.7353901 24.5568843,9.42325101 24,9.42325101 C23.4431157,9.42325101 22.9322099,9.7353901 22.6735751,10.2336333 L0.594127807,50.2058565 L30.3557858,19.9544939 Z" id="Shape"></path>
        </g>
    </g>
</svg>