<?xml version="1.0" encoding="UTF-8"?>
<svg width="70px" height="70px" viewBox="0 0 70 70" version="1.1" xmlns="http://www.w3.org/2000/svg" xmlns:xlink="http://www.w3.org/1999/xlink">
    <title>Set up base price </title>
    <g id="Set-up-base-price-" stroke="none" stroke-width="1" fill="none" fill-rule="evenodd">
        <g id="1608866_tag_icon" transform="translate(4.000000, 4.000000)" fill="#0968AC" fill-rule="nonzero">
            <path d="M18.629703,13.3069307 C18.629703,11.8376238 18.109901,10.5831683 17.070297,9.54356436 C16.0306931,8.5039604 14.7762376,7.98415842 13.3069307,7.98415842 C11.8376238,7.98415842 10.5831683,8.5039604 9.54356436,9.54356436 C8.5039604,10.5831683 7.98415842,11.8376238 7.98415842,13.3069307 C7.98415842,14.7762376 8.5039604,16.0306931 9.54356436,17.070297 C10.5831683,18.109901 11.8376238,18.629703 13.3069307,18.629703 C14.7762376,18.629703 16.0306931,18.109901 17.070297,17.070297 C18.109901,16.0306931 18.629703,14.7762376 18.629703,13.3069307 Z M63,37.2594059 C63,38.7287129 62.4871287,39.9762376 61.4613861,41.0019802 L41.0435644,61.4613861 C39.9623762,62.4871287 38.7009901,63 37.2594059,63 C35.790099,63 34.5425743,62.4871287 33.5168317,61.4613861 L3.78415842,31.6871287 C2.73069307,30.6613861 1.83663366,29.2613861 1.1019802,27.4871287 C0.367326733,25.7128713 0,24.0910891 0,22.6217822 L0,5.32277228 C0,3.88118812 0.526732673,2.63366337 1.58019802,1.58019802 C2.63366337,0.526732673 3.88118812,0 5.32277228,0 L22.6217822,0 C24.0910891,0 25.7128713,0.367326733 27.4871287,1.1019802 C29.2613861,1.83663366 30.6752475,2.73069307 31.7287129,3.78415842 L61.4613861,33.4752475 C62.4871287,34.5564356 63,35.8178218 63,37.2594059 Z" id="Shape"></path>
        </g>
    </g>
</svg>