<?xml version="1.0" encoding="UTF-8"?>
<svg width="70px" height="70px" viewBox="0 0 70 70" version="1.1" xmlns="http://www.w3.org/2000/svg" xmlns:xlink="http://www.w3.org/1999/xlink">
    <title>Create multiple taxes </title>
    <g id="Create-multiple-taxes-" stroke="none" stroke-width="1" fill="none" fill-rule="evenodd">
        <g id="2869328_exemption_gst_save_tax_icon" transform="translate(13.000000, 1.000000)" fill="#0968AC" fill-rule="nonzero">
            <path d="M36.6061406,28.6322257 C34.1155819,25.2198805 31.5927158,21.8527585 29.2671559,18.3179101 L15.7337936,18.3179101 C13.4088106,21.8527585 10.8865214,25.2198805 8.39480889,28.6322257 C3.52042153,35.3080804 -0.509933551,42.4189933 0.0525623273,51.2294956 C0.515251244,58.48123 5.22463981,63.188446 10.9822899,65.5829838 C15.9259075,67.5011124 28.2696632,67.5011124 34.4253874,65.4043809 C39.9961158,62.9594679 44.4966597,58.3083516 44.9472333,51.2289232 C45.510883,42.4189933 41.480528,35.3080804 36.6061406,28.6322257 Z M17.885124,45.6155266 C17.885124,45.8559536 17.8608934,46.0471502 17.8124322,46.1914064 C17.763971,46.3345177 17.6757024,46.4650351 17.5458957,46.5800966 C17.415512,46.6957305 17.2487825,46.8067849 17.0474378,46.9144045 C16.4618652,47.2212351 15.8993693,47.446206 15.3582194,47.5881724 C14.8170695,47.7295663 14.2274585,47.7994046 13.5893862,47.7994046 C12.8474686,47.7994046 12.1695889,47.6877779 11.5580549,47.4656692 C10.946521,47.2435605 10.4255632,46.9195565 9.99460486,46.4959472 C9.56364647,46.0729103 9.23249506,45.559427 9.00172752,44.9560699 C8.76980614,44.3521403 8.65442237,43.6772276 8.65442237,42.9330489 C8.65442237,42.2020366 8.76692154,41.5322758 8.99134298,40.9237667 C9.21576441,40.31583 9.54518507,39.800057 9.98133572,39.3764476 C10.4157556,38.9522658 10.945944,38.6288343 11.5707472,38.4050083 C12.1949733,38.1800374 12.9045835,38.0672657 13.6955393,38.0672657 C14.3474576,38.0672657 14.9237995,38.1514151 15.4239881,38.3208589 C15.9259075,38.490875 16.3332123,38.7026797 16.6459023,38.9597076 C16.9580154,39.2167354 17.1922444,39.4880744 17.3508971,39.7742969 C17.5101267,40.0610919 17.5891646,40.31583 17.5891646,40.5385111 C17.5891646,40.7783656 17.4980114,40.9827285 17.3145512,41.1515998 C17.1328218,41.3204711 16.9141695,41.4040481 16.6580176,41.4040481 C16.5166724,41.4040481 16.3822504,41.3725636 16.2524436,41.3084498 C16.1226369,41.2443359 16.0135992,41.154462 15.9259075,41.0388281 C15.6841785,40.6713184 15.4793724,40.3931101 15.3126428,40.2042032 C15.1464902,40.0152963 14.920338,39.8573015 14.6364939,39.7290738 C14.3532268,39.6014185 13.9903448,39.5373047 13.5507326,39.5373047 C13.0984283,39.5373047 12.6940082,39.6128674 12.3368954,39.7639929 C11.9809365,39.9168358 11.6763233,40.1360822 11.4230559,40.425167 C11.1703655,40.7142518 10.9765207,41.0691677 10.8420986,41.4876251 C10.7088304,41.9066549 10.6413309,42.3714803 10.6413309,42.8809564 C10.6413309,43.985203 10.9009444,44.8335666 11.422479,45.429482 C11.9445906,46.02368 12.6709314,46.3219239 13.6032323,46.3219239 C14.0555366,46.3219239 14.4807258,46.2623896 14.8805306,46.1479006 C15.2780277,46.0328391 15.6818709,45.8679749 16.0909063,45.653308 L16.0909063,44.126597 L14.5736098,44.126597 C14.2084201,44.126597 13.932076,44.0727871 13.7445774,43.9657399 C13.5576557,43.8586927 13.4641948,43.6760827 13.4641948,43.4196273 C13.4641948,43.2106848 13.5432327,43.0366615 13.6984239,42.8998471 C13.8547689,42.7630328 14.067075,42.6949118 14.3353423,42.6949118 L16.5587875,42.6949118 C16.8316701,42.6949118 17.0630146,42.7189545 17.2516671,42.7647501 C17.4408964,42.8139804 17.5943569,42.9175929 17.7103175,43.0807398 C17.8268552,43.2433142 17.885124,43.4877482 17.885124,43.8117522 L17.885124,45.6155266 Z M26.6744826,46.3476839 C26.380254,46.8022053 25.9504495,47.1559764 25.3839152,47.4130042 C24.8179578,47.6700321 24.1452704,47.7988322 23.3693145,47.7988322 C22.4375906,47.7988322 21.6702885,47.623664 21.0639468,47.2733276 C20.6352961,47.0203069 20.2862602,46.6837092 20.0179929,46.2612447 C19.7491488,45.8399251 19.6158805,45.4306269 19.6158805,45.0322051 C19.6158805,44.8015097 19.6966491,44.6028713 19.8576095,44.4385795 C20.017416,44.2742878 20.2233761,44.1907108 20.4708742,44.1907108 C20.6733728,44.1907108 20.8435638,44.2553971 20.9837551,44.3841972 C21.1233695,44.5124249 21.2422147,44.7024767 21.3408679,44.954925 C21.4620208,45.2543138 21.5912506,45.5050447 21.7302881,45.7065454 C21.8704794,45.9069012 22.0660549,46.0723378 22.3193222,46.2028553 C22.5731665,46.3339452 22.9054718,46.3986315 23.3179688,46.3986315 C23.8833492,46.3986315 24.3431536,46.2675416 24.6991125,46.0047893 C25.0527637,45.742037 25.2293009,45.4128811 25.2293009,45.0190388 C25.2293009,44.7064838 25.1341093,44.4534631 24.9425722,44.2576869 C24.7516121,44.063628 24.5058447,43.9142198 24.2023854,43.8117522 C23.9006568,43.7098569 23.4962367,43.6005199 22.9885481,43.4854585 C22.3112454,43.3268912 21.7435572,43.1419914 21.2866375,42.9296143 C20.8297178,42.718382 20.4674127,42.4292973 20.1991455,42.0629324 C19.9303013,41.6977124 19.7958792,41.2420461 19.7958792,40.6987958 C19.7958792,40.180733 19.9378012,39.7210595 20.2204915,39.3192031 C20.5037586,38.9162018 20.9139479,38.6070814 21.4510594,38.3912696 C21.9864401,38.1754578 22.6175893,38.0672657 23.3421993,38.0672657 C23.9220028,38.0672657 24.4233453,38.1393938 24.8456499,38.282505 C25.2679545,38.4256163 25.619875,38.6162405 25.8991037,38.8538052 C26.1771786,39.0919424 26.3814078,39.3403836 26.5100608,39.6025634 C26.6387137,39.8635984 26.7027516,40.117764 26.7027516,40.3656327 C26.7027516,40.5928934 26.6231368,40.7966839 26.4621765,40.978149 C26.3012161,41.1596141 26.1010253,41.2523502 25.8592963,41.2523502 C25.640644,41.2523502 25.4756453,41.196823 25.3608384,41.087486 C25.2477623,40.9787214 25.1237248,40.800691 24.9916103,40.5511049 C24.8196885,40.196189 24.6131516,39.919698 24.3731533,39.7210595 C24.1320013,39.5207038 23.7466195,39.4228157 23.2147003,39.4228157 C22.7208577,39.4228157 22.3227837,39.5304353 22.0204783,39.7462471 C21.7175959,39.9620589 21.5670201,40.2225214 21.5670201,40.5264898 C21.5670201,40.7136793 21.6189427,40.8768262 21.7210574,41.014213 C21.8249028,41.1504549 21.9662479,41.2689511 22.1462466,41.3674116 C22.3262453,41.4658722 22.5085516,41.5425798 22.6931656,41.5986794 C22.8766258,41.6536342 23.1829697,41.7343489 23.6070051,41.8419686 C24.1395012,41.9656167 24.6212284,42.1030036 25.0527637,42.2524117 C25.4831452,42.4029648 25.8506425,42.5838574 26.1535249,42.7985243 C26.4552535,43.0126188 26.6912133,43.2828129 26.8608274,43.6108239 C27.0304416,43.9382625 27.1158255,44.3389741 27.1158255,44.8135311 C27.1158255,45.3831139 26.9681343,45.8943074 26.6744826,46.3476839 Z M36.1001828,39.366716 C35.9357609,39.5035304 35.6894166,39.5716514 35.3611497,39.5716514 L33.2611651,39.5716514 L33.2611651,46.6871438 C33.2611651,47.0632403 33.1723196,47.3437384 32.9946286,47.5257759 C32.8180914,47.707241 32.5884777,47.7988322 32.3080952,47.7988322 C32.0230973,47.7988322 31.7911759,47.7060961 31.6111772,47.5229137 C31.4317555,47.3380139 31.342333,47.0592331 31.342333,46.6871438 L31.342333,39.5716514 L29.2411946,39.5716514 C28.9129278,39.5716514 28.669468,39.5035304 28.5085076,39.366716 C28.349278,39.2293292 28.2696632,39.0478641 28.2696632,38.8223208 C28.2696632,38.5881907 28.3527396,38.4044358 28.5194691,38.2693388 C28.6861986,38.1342418 28.9261969,38.0666932 29.2417715,38.0666932 L35.3611497,38.0666932 C35.693455,38.0666932 35.9415301,38.1365315 36.1036443,38.2750633 C36.2657585,38.413595 36.3465271,38.5973498 36.3465271,38.8223208 C36.3465271,39.0472917 36.2646047,39.2293292 36.1001828,39.366716 Z" id="Shape"></path>
            <path d="M15.5774486,13.768689 C14.9405301,13.768689 14.4236109,14.2815998 14.4236109,14.9130067 C14.4236109,15.5449861 14.9405301,16.0573244 15.5774486,16.0573244 L29.4235009,16.0573244 C30.0604193,16.0573244 30.5773386,15.5449861 30.5773386,14.9130067 C30.5773386,14.2810273 30.0604193,13.768689 29.4235009,13.768689 L15.5774486,13.768689 Z" id="Path"></path>
            <path d="M34.1451205,1.46111956 C34.1582739,0.344851631 33.027513,-0.071888394 32.0836738,0.00997125382 C31.5615622,0.0551944159 31.0406045,0.2086097 30.645992,0.373473886 C29.4292701,0.88352246 28.4738925,1.84465777 27.3344778,2.4875136 C26.4985224,2.95920835 25.506222,3.19620062 24.5398829,2.99698973 C23.4264295,2.76801169 22.9879712,1.39872304 21.9454788,1.08445069 C20.7264493,0.716368494 19.8172252,2.01123929 18.9835774,2.63463199 C18.0876225,3.30553763 16.9897459,3.60492641 15.9034077,3.24085134 C14.7801467,2.86532736 13.8634227,2.10454784 12.6859313,1.83549864 C11.9959363,1.67807624 11.0878661,1.98204459 10.9857514,2.75656279 C10.8657523,3.66388826 11.7755533,4.31704811 12.3034341,4.912391 C12.3034341,4.912391 14.7311086,6.72360726 16.1924441,11.4800535 L28.81889,11.4800535 C29.4033088,9.26469101 30.3073406,7.11058014 31.5834851,5.15339038 C32.3282873,4.01021754 34.1265434,2.95233901 34.1451205,1.46111956 Z" id="Path"></path>
        </g>
    </g>
</svg>