<?xml version="1.0" encoding="UTF-8"?>
<svg width="70px" height="70px" viewBox="0 0 70 70" version="1.1" xmlns="http://www.w3.org/2000/svg" xmlns:xlink="http://www.w3.org/1999/xlink">
    <title>Configure Standard Fees </title>
    <g id="Configure-Standard-Fees-" stroke="none" stroke-width="1" fill="none" fill-rule="evenodd">
        <g id="1200073_money_payment_fees_refund_icon" transform="translate(6.000000, 2.000000)" fill="#0968AC">
            <path d="M44.9638313,22.2630316 C44.9638313,24.7163873 42.718075,26.705453 39.948203,26.705453 C37.1783311,26.705453 34.9325748,24.716649 34.9325748,22.2630316 C34.9325748,19.8099378 37.1783311,17.8211337 39.948203,17.8211337 C42.718075,17.8211337 44.9638313,19.8099378 44.9638313,22.2630316 L44.9638313,22.2630316 Z M31.0480305,29.8125832 L29.9381229,1.08052794 C29.9119172,0.436437032 30.4752092,-0.0883099277 31.1655595,0.0124519573 L51.1026023,2.51788969 C51.7021589,2.59326481 52.1164221,3.15439074 52.0055107,3.74221202 L48.2377013,26.0380691 C47.5478804,25.8812993 46.8392654,25.8642876 46.1129152,25.9349518 L48.6458763,10.3333479 C45.3325652,9.28594773 44.2816868,6.15002849 44.6236855,3.80240743 L37.1815075,2.86702307 C37.2000369,5.62946904 34.9508394,8.26445776 32.3490551,8.4246299 L33.1370815,29.3433207 C32.4401135,29.5152702 31.7415573,29.6751806 31.0480305,29.8125832 L31.0480305,29.8125832 Z M26.7357232,27.2393602 L25.9281086,23.8922336 L19.1667516,6.971565 C18.8866938,6.36620854 19.2631042,5.65040657 19.9140135,5.51850011 L27.329721,4.00000541 L27.4189265,6.1092003 L25.7001977,6.46068916 C26.5925178,8.44478228 26.6086648,11.111439 23.8697634,12.1918158 L27.9634245,23.3258732 L28.0618947,23.7338934 L28.2389823,27.9337012 C27.8096309,27.5811654 27.2913388,27.3388135 26.7357232,27.2393602 L26.7357232,27.2393602 Z" id="Shape" fill-rule="nonzero"></path>
            <path d="M0,41.8493101 L6.74441586,67 L20.0643659,63.1783765 C20.6234226,63.0176809 20.9622449,62.4544612 20.8116278,61.8985697 L14.6140922,39.0279773 C14.4634751,38.471824 13.8827126,38.1431047 13.31995,38.2888823 L0,41.8493101 L0,41.8493101 Z M25.9945495,29.8897903 C20.6911871,31.6147815 20.3237767,34.2118209 18.1182555,39.1562197 L23.4097063,58.6846582 C28.3816582,57.2153667 29.2398314,59.7043161 35.6208075,58.5213454 C38.1564156,58.0512977 48.6657291,54.9794997 48.6657291,54.9794997 C50.5636632,54.4767371 52.7019493,53.3251727 52.8025371,51.1131222 C52.8721545,49.5647915 52.2781567,49.3096153 52.3258036,48.2920512 C52.3655094,47.4283779 54.6695007,46.2331064 53.8068275,44.0372824 C53.4343877,43.0861949 52.3337448,41.8652749 52.4430679,40.8621053 C52.5674792,39.7110643 53.4807111,38.4781053 53.1485064,37.2522126 C52.5788615,35.1508693 51.4678951,35.4963386 50.5472515,33.8728946 C50.0689297,33.0270182 50.9885145,31.2957458 48.9415516,29.3794379 C47.7604384,28.2728892 46.5189725,28.3972058 43.8682177,29.1349922 C40.4005837,30.1004743 34.0455487,32.0471415 30.487915,32.6326073 C28.7225981,32.9228539 26.9681341,32.4672008 26.7002527,30.331834 C26.6576352,29.9960483 26.3198718,29.7843175 25.9945495,29.8897903 L25.9945495,29.8897903 Z M13.3151853,54.9062183 C14.4822692,54.9062183 15.4285892,55.8418644 15.4285892,56.996046 C15.4285892,58.1502276 14.4822692,59.0858737 13.3151853,59.0858737 C12.1481015,59.0858737 11.2017815,58.1499659 11.2017815,56.996046 C11.2017815,55.8421261 12.1481015,54.9062183 13.3151853,54.9062183 L13.3151853,54.9062183 Z" id="Shape"></path>
        </g>
    </g>
</svg>