<?xml version="1.0" encoding="UTF-8"?>
<svg width="70px" height="70px" viewBox="0 0 70 70" version="1.1" xmlns="http://www.w3.org/2000/svg" xmlns:xlink="http://www.w3.org/1999/xlink">
    <title>Apply Multiple price cards </title>
    <g id="Apply-Multiple-price-cards-" stroke="none" stroke-width="1" fill="none" fill-rule="evenodd">
        <g id="2639806_documents_icon" transform="translate(3.000000, 3.000000)" fill-rule="nonzero">
            <path d="M63.1476364,16.8523636 L47.1476364,0.852363636 C46.6007273,0.305454545 45.8618182,0 45.0909091,0 L20.3636364,0 C17.1490909,0 14.5454545,2.60363636 14.5454545,5.81818182 L14.5454545,58.1818182 C14.5454545,61.3963636 17.1490909,64 20.3636364,64 L58.1818182,64 C61.3963636,64 64,61.3963636 64,58.1818182 L64,18.9090909 C64,18.1381818 63.6945455,17.3992727 63.1476364,16.8523636 Z M43.3246753,47.6363636 L29.038961,47.6363636 C27.4618182,47.6363636 26.1818182,46.7403636 26.1818182,45.6363636 C26.1818182,44.5323636 27.4618182,43.6363636 29.038961,43.6363636 L43.3246753,43.6363636 C44.9018182,43.6363636 46.1818182,44.5323636 46.1818182,45.6363636 C46.1818182,46.7403636 44.9018182,47.6363636 43.3246753,47.6363636 Z M46.5454545,20.3636364 C44.9396364,20.3636364 43.6363636,19.0603636 43.6363636,17.4545455 L43.6363636,5.53890909 L58.4610909,20.3636364 L46.5454545,20.3636364 Z" id="Shape" fill="#0968AC"></path>
            <path d="M36.9863727,19 C36.4356742,19 35.9896085,19.4411991 35.9896085,19.9846272 L35.9896085,20.5980015 C34.7615509,20.7755573 33.7207308,21.3512683 32.8396132,22.217525 C31.9309607,23.1106841 31.484895,24.2621061 31.484895,25.66103 C31.484895,26.7317448 31.7106814,27.6195234 32.1787751,28.2974635 C33.4068326,30.0784012 35.7142592,30.7509608 37.7022807,31.3159108 C38.4622446,31.5311299 39.0019291,31.8862414 39.3598831,32.2144504 C39.7233441,32.5426595 39.9105816,33.0269024 39.9105816,33.6725596 C39.9105816,34.3504996 39.6187114,34.9208301 39.3268412,35.1844735 C38.2750071,36.2820907 36.9918797,36.2121445 36.1217761,35.9431207 C34.6403972,35.4696387 34.370555,34.2751729 33.9024613,33.3013067 C33.6821819,32.8493467 33.1975672,32.5803228 32.564264,32.5803228 C31.6996674,32.5803228 30.9837594,33.2690238 31.0002803,34.1191391 C31.0057873,34.5495772 31.1599829,34.9907763 31.3306994,35.3351268 C31.8593699,36.4112221 32.8175853,37.4012298 33.8528984,37.8316679 C34.5137366,38.1114527 35.2461655,38.3105304 36.0006224,38.4073789 L36.0006224,39.0153728 C36.0006224,39.5641814 36.4466882,40 36.9973867,40 C37.5535921,40 37.9996579,39.5588009 37.9996579,39.0153728 L37.9996579,38.4289008 C39.3653901,38.272867 40.6705455,37.7617218 41.6397748,36.8093774 C42.5484273,35.9162183 43,34.7647963 43,33.3658724 C43,32.2951576 42.7687066,31.4127594 42.3061199,30.7294389 C41.7333935,29.8900846 40.8743039,29.2605688 39.9711584,28.9162183 C39.3543761,28.6794773 38.7045519,28.5342045 38.0822627,28.3189854 C36.8376841,27.8885473 35.7528081,27.8616449 34.9873373,26.6402767 C34.4531597,25.7901614 34.4641737,24.7140661 35.080956,23.9177556 C35.6646964,23.1752498 36.6614606,22.7501922 37.608662,22.9654112 C38.1758814,23.0945427 38.67151,23.4496541 39.0074361,23.9069946 C39.403939,24.4504228 39.403939,25.1283628 39.6958092,25.7148347 C39.9105816,26.1721752 40.4007032,26.4358186 41.0340065,26.4358186 C41.8986031,26.4358186 42.6145111,25.7471176 42.5979901,24.8916218 C42.5924831,24.4611837 42.4327806,24.0253651 42.273078,23.6756341 C41.7884634,22.6156802 40.9128528,21.7763259 39.8775397,21.2221368 C39.2937993,20.9154497 38.6549891,20.7056111 37.9996579,20.603382 L37.9996579,19.9846272 C37.9831369,19.4358186 37.5370712,19 36.9863727,19 L36.9863727,19 Z" id="path6649-2" fill="#FFFFFF"></path>
            <path d="M8.72727273,58.1818182 L8.72727273,5.81818182 C8.72727273,3.68872727 9.344,1.71927273 10.3447273,0 L5.81818182,0 C2.60363636,0 0,2.60363636 0,5.81818182 L0,58.1818182 C0,61.3963636 2.60363636,64 5.81818182,64 L10.3447273,64 C9.344,62.2807273 8.72727273,60.3112727 8.72727273,58.1818182 Z" id="Path" fill="#0968AC"></path>
        </g>
    </g>
</svg>