<?xml version="1.0" encoding="UTF-8"?>
<svg width="70px" height="70px" viewBox="0 0 70 70" version="1.1" xmlns="http://www.w3.org/2000/svg" xmlns:xlink="http://www.w3.org/1999/xlink">
    <title>Payment gateway setup </title>
    <g id="Payment-gateway-setup-" stroke="none" stroke-width="1" fill="none" fill-rule="evenodd">
        <g id="3057683_media_payment_paypal_social_icon" transform="translate(3.000000, 3.000000)" fill="#0968AC" fill-rule="nonzero">
            <path d="M2.26357546,55.6149733 L15.5588729,55.6149733 C16.830597,55.6149733 17.9867098,54.688057 18.3335436,53.5294118 L21.5706595,40.3208556 C22.0331047,38.4670232 23.7672739,37.0766488 25.7326657,37.0766488 L36.2532923,37.0766488 C46.4270852,37.0766488 54.7510974,28.7344029 54.7510974,18.5383244 L54.7510974,18.5383244 C54.7510974,8.34224599 46.4270852,0 36.2532923,0 L31.6288411,0 L19.0272113,0 C15.5588729,0 12.5529796,2.31729055 11.7437006,5.67736185 L0.066961108,52.7183601 C-0.279872738,54.2245989 0.760628799,55.6149733 2.26357546,55.6149733 Z" id="Path"></path>
            <path d="M59.3755487,18.5383244 C59.3755487,31.2834225 48.9705334,41.7112299 36.2532923,41.7112299 L29.0853929,41.7112299 C27.2356124,41.7112299 25.7326657,42.9857398 25.2702206,44.7237077 L22.2643272,56.8894831 C21.8018821,58.85918 19.9521016,60.2495544 17.9867098,60.2495544 L11.6280893,60.2495544 C10.4719765,60.2495544 9.54708622,61.0606061 9.31586366,62.1033868 C8.96902981,63.4937611 10.0095314,65 11.512478,65 L24.9233867,65 C26.1951108,65 27.3512236,64.0730838 27.6980575,62.9144385 L30.9351734,49.7058824 C31.3976185,47.8520499 33.1317877,46.4616756 35.0971795,46.4616756 L45.5021949,46.4616756 C55.6759877,46.4616756 64,38.1194296 64,27.9233512 L64,27.9233512 C64,23.057041 62.1502195,18.6541889 59.0287149,15.4099822 C59.2599374,16.3368984 59.3755487,17.3796791 59.3755487,18.5383244 Z" id="Path"></path>
        </g>
    </g>
</svg>