<?xml version="1.0" encoding="UTF-8"?>
<svg width="70px" height="70px" viewBox="0 0 70 70" version="1.1" xmlns="http://www.w3.org/2000/svg" xmlns:xlink="http://www.w3.org/1999/xlink">
    <!-- Generator: Sketch 57.1 (83088) - https://sketch.com -->
    <title>employee_management</title>
    <desc>Created with Sketch.</desc>
    <g id="employee_management" stroke="none" stroke-width="1" fill="none" fill-rule="evenodd">
        <g id="Employee_management" transform="translate(9.000000, 9.000000)" fill="#0968AC" fill-rule="nonzero">
            <path d="M51.9507109,21.8843602 C51.8890995,20.3995261 50.6938389,19.3521327 49.2274882,19.3521327 C48.4943128,19.3521327 47.7611374,19.3767773 47.0341232,19.3398104 C47.0279621,19.3398104 47.0218009,19.3398104 47.0156398,19.3398104 C47.1819905,19.3829384 46.8246445,19.3336493 47.0156398,19.3398104 C47.0094787,19.3398104 46.9971564,19.3336493 46.9909953,19.3336493 C46.9232227,19.3151659 46.8492891,19.3028436 46.7815166,19.2843602 C46.7014218,19.2658768 46.621327,19.2350711 46.5412322,19.2104265 C46.5412322,19.2104265 46.5350711,19.2104265 46.5350711,19.2104265 C46.5350711,19.2104265 46.5350711,19.2104265 46.5350711,19.2104265 C46.5104265,19.1981043 46.4364929,19.1734597 46.4118483,19.1611374 C46.350237,19.1303318 46.2886256,19.0995261 46.2331754,19.0625592 C46.1838863,19.0317536 46.1345972,19.0009479 46.0914692,18.9701422 C46.0545024,18.9454976 45.949763,18.8592417 45.9620853,18.871564 C45.8881517,18.8037915 45.814218,18.736019 45.7464455,18.6682464 C45.7094787,18.6251185 45.5616114,18.4279621 45.5924171,18.4834123 C45.5308057,18.3971564 45.4753555,18.3109005 45.4199052,18.2123223 C45.4014218,18.1753555 45.3767773,18.1322275 45.3582938,18.0952607 C45.3459716,18.0706161 45.3336493,18.0459716 45.321327,18.0151659 C45.3336493,18.0398104 45.3398104,18.0582938 45.3398104,18.064455 C45.3336493,18.0521327 45.321327,18.021327 45.3028436,17.9720379 C45.3090047,17.9843602 45.3151659,17.9966825 45.321327,18.0090047 C45.2781991,17.885782 45.2350711,17.7625592 45.2042654,17.6331754 C45.185782,17.571564 45.1549763,17.3066351 45.1611374,17.4113744 C45.1549763,17.3066351 45.1488152,17.1957346 45.1488152,17.0909953 C45.1488152,17.0478673 45.1488152,17.0047393 45.1549763,16.9554502 C45.1549763,16.9123223 45.1796209,16.7829384 45.185782,16.764455 C45.185782,16.7706161 45.1796209,16.7767773 45.1796209,16.7952607 C45.1981043,16.6966825 45.2165877,16.6042654 45.2473934,16.5056872 C45.2658768,16.450237 45.2843602,16.3947867 45.3028436,16.3454976 C45.3090047,16.3393365 45.3090047,16.3270142 45.3090047,16.3208531 C45.2165877,16.4933649 45.3521327,16.1668246 45.3090047,16.3208531 C45.3090047,16.3208531 45.3090047,16.3146919 45.3151659,16.3085308 C45.3829384,16.1791469 45.4445498,16.0559242 45.5246445,15.9388626 C45.5492891,15.8957346 45.5800948,15.8587678 45.6047393,15.8156398 C45.4815166,16.0004739 45.6663507,15.7478673 45.6971564,15.7109005 C46.1654028,15.1933649 46.6890995,14.7189573 47.1819905,14.2199052 C48.2109005,13.1848341 48.2540284,11.5706161 47.2374408,10.5047393 C46.3687204,9.59905213 45.456872,8.72417062 44.5635071,7.83080569 C43.5592417,6.82654028 42.5611374,5.82227488 41.556872,4.82417062 C40.6511848,3.92464455 39.2156398,3.71516588 38.1620853,4.50379147 C37.5459716,4.96587678 37.028436,5.58199052 36.4862559,6.12417062 C36.3876777,6.22274882 36.2890995,6.31516588 36.1843602,6.40758294 C36.1781991,6.41374408 36.1720379,6.41990521 36.1658768,6.42606635 C36.2890995,6.3521327 36.0303318,6.54312796 36.1658768,6.42606635 C36.1597156,6.43222749 36.1473934,6.43838863 36.1350711,6.44454976 C36.0734597,6.48151659 36.0118483,6.52464455 35.950237,6.56161137 C35.907109,6.58625592 35.8701422,6.61090047 35.8270142,6.62938389 C35.7962085,6.6478673 35.6606635,6.6971564 35.6421801,6.70947867 C35.6421801,6.70947867 35.6421801,6.70947867 35.6483412,6.70947867 C35.5559242,6.74028436 35.4696682,6.77109005 35.37109,6.7957346 C35.3156398,6.80805687 35.2601896,6.82037915 35.2047393,6.83270142 C35.1985782,6.83270142 35.1924171,6.83886256 35.1862559,6.83886256 C35.4018957,6.82654028 35.0137441,6.88199052 35.1862559,6.83886256 C35.0630332,6.8450237 34.9459716,6.85734597 34.8227488,6.85118483 C34.7672986,6.85118483 34.7118483,6.8450237 34.6563981,6.8450237 C34.6379147,6.8450237 34.6132701,6.83886256 34.5947867,6.83886256 C34.6132701,6.8450237 34.6317536,6.8450237 34.6379147,6.8450237 C34.6255924,6.8450237 34.5886256,6.83886256 34.5270142,6.83270142 C34.5516588,6.83270142 34.5763033,6.83886256 34.5947867,6.83886256 C34.5886256,6.83886256 34.5824645,6.83886256 34.5763033,6.83270142 C34.471564,6.80805687 34.3606635,6.78957346 34.2559242,6.75876777 C34.1943128,6.74028436 34.1327014,6.72180095 34.07109,6.6971564 C34.0464455,6.69099526 33.9848341,6.66018957 33.9540284,6.6478673 C33.9540284,6.6478673 33.9540284,6.6478673 33.9540284,6.6478673 C33.9540284,6.6478673 33.9478673,6.6478673 33.9478673,6.64170616 C33.9478673,6.64170616 33.9478673,6.64170616 33.9478673,6.64170616 C33.8739336,6.60473934 33.8,6.56777251 33.7322275,6.52464455 C33.6829384,6.49383886 33.6398104,6.46919431 33.5905213,6.43838863 C33.5597156,6.41990521 33.5350711,6.4014218 33.5042654,6.37677725 C33.5042654,6.37677725 33.5104265,6.38293839 33.5104265,6.38293839 C33.5104265,6.38293839 33.5165877,6.38909953 33.5227488,6.38909953 C33.5104265,6.38293839 33.4981043,6.37061611 33.485782,6.35829384 C33.4919431,6.36445498 33.5042654,6.37061611 33.5104265,6.37677725 C33.4303318,6.3028436 33.350237,6.23507109 33.2763033,6.16113744 C33.2270142,6.11184834 33.1900474,6.06255924 33.1407583,6.01327014 C33.1345972,6.007109 33.128436,6.00094787 33.128436,6.00094787 C33.2331754,6.16113744 33.0113744,5.87772512 33.128436,6.00094787 C33.128436,6.00094787 33.1222749,5.99478673 33.1222749,5.99478673 C33.0606635,5.90236967 32.9990521,5.80995261 32.9436019,5.71137441 C32.9127962,5.65592417 32.8819905,5.5943128 32.8511848,5.53270142 C32.8511848,5.53886256 32.857346,5.55118483 32.857346,5.55734597 C32.8450237,5.53270142 32.8388626,5.51421801 32.8327014,5.4957346 C32.8327014,5.4957346 32.8327014,5.4957346 32.8327014,5.4957346 C32.8327014,5.50189573 32.8388626,5.51421801 32.8450237,5.52037915 C32.8450237,5.52037915 32.8450237,5.52654028 32.8450237,5.52654028 C32.8327014,5.48957346 32.8203791,5.45876777 32.8080569,5.42180095 C32.77109,5.31090047 32.7402844,5.19383886 32.7156398,5.07677725 C32.7094787,5.04597156 32.6971564,4.92890995 32.6909953,4.92890995 C32.6848341,4.88578199 32.6848341,4.84881517 32.6848341,4.8056872 C32.678673,4.68246445 32.678673,4.55924171 32.678673,4.44218009 L32.678673,3.16682464 C32.678673,2.76018957 32.6971564,2.35971564 32.5924171,1.95924171 C32.3829384,1.13981043 31.7668246,0.499052133 30.9843602,0.197156398 C30.4668246,-0.00616113744 29.9123223,0.0369668246 29.363981,0.0369668246 L22.2663507,0.0369668246 C21.3853081,0.0369668246 20.5350711,0.252606635 19.9559242,0.973459716 C19.543128,1.48483412 19.3582938,2.07630332 19.3521327,2.72938389 C19.3521327,3.12985782 19.3521327,3.53649289 19.3521327,3.93696682 C19.3521327,4.25118483 19.364455,4.57156398 19.3459716,4.87962085 C19.3459716,4.91042654 19.3274882,5.02132701 19.3274882,5.03364929 C19.3274882,5.03364929 19.3336493,5.02132701 19.3336493,5.0028436 C19.3274882,5.02748815 19.3274882,5.0521327 19.321327,5.07677725 C19.2905213,5.21848341 19.2473934,5.3478673 19.2042654,5.48957346 C19.2042654,5.4957346 19.1981043,5.50805687 19.1981043,5.51421801 C19.2843602,5.3478673 19.1488152,5.68056872 19.1981043,5.51421801 C19.1981043,5.52037915 19.1919431,5.52037915 19.1919431,5.52654028 C19.1734597,5.56966825 19.1549763,5.60663507 19.1303318,5.64976303 C19.0687204,5.76682464 19.0009479,5.87156398 18.9270142,5.97630332 C18.9393365,5.95165877 18.7976303,6.13033175 18.7606635,6.16113744 C18.6867299,6.23507109 18.6127962,6.3028436 18.5327014,6.37061611 C18.557346,6.34597156 18.3725118,6.48151659 18.3293839,6.51232227 C18.2739336,6.54312796 18.2184834,6.58009479 18.156872,6.61090047 C18.1260664,6.62938389 17.9905213,6.68483412 17.9781991,6.69099526 C17.8118483,6.7464455 17.6454976,6.78957346 17.4729858,6.82654028 C17.4976303,6.81421801 17.2758294,6.85118483 17.2265403,6.85118483 C17.1033175,6.85734597 16.9800948,6.85118483 16.856872,6.83886256 C16.9,6.83886256 16.6597156,6.80189573 16.6104265,6.78957346 C16.542654,6.77109005 16.4810427,6.75260664 16.4132701,6.72796209 C16.3886256,6.72180095 16.3085308,6.68483412 16.2838863,6.67867299 C16.2838863,6.67867299 16.2838863,6.67867299 16.2838863,6.67867299 C16.2838863,6.67867299 16.2777251,6.67867299 16.2777251,6.67867299 C16.2777251,6.67867299 16.2777251,6.67867299 16.2777251,6.67867299 C16.2037915,6.64170616 16.1298578,6.60473934 16.0559242,6.56161137 C15.9943128,6.52464455 15.9327014,6.48151659 15.87109,6.44454976 C15.8464455,6.42606635 15.8279621,6.41374408 15.8218009,6.40758294 C15.8402844,6.42606635 15.8587678,6.43838863 15.8834123,6.45687204 C15.8279621,6.41374408 15.8033175,6.39526066 15.8218009,6.4014218 C15.8033175,6.38909953 15.7909953,6.37061611 15.7725118,6.35829384 C15.5383886,6.1549763 15.3227488,5.91469194 15.1009479,5.692891 C14.3862559,4.97819905 13.7393365,4.17725118 12.6734597,4.03554502 C11.7123223,3.90616114 10.936019,4.3436019 10.2829384,4.99668246 C9.81469194,5.47109005 9.34028436,5.93933649 8.87203791,6.40758294 C7.67061611,7.60900474 6.47535545,8.8042654 5.27393365,10.0056872 C4.82417062,10.4554502 4.392891,10.8620853 4.16492891,11.4843602 C3.89383886,12.2298578 4.00473934,13.1232227 4.46066351,13.7763033 C4.68246445,14.0966825 4.96587678,14.3554502 5.23696682,14.6265403 C5.52654028,14.9161137 5.81611374,15.2056872 6.11184834,15.5014218 C6.19810427,15.5876777 6.28436019,15.6739336 6.36445498,15.7663507 C6.36445498,15.7663507 6.4014218,15.8094787 6.42606635,15.8464455 C6.42606635,15.8402844 6.41990521,15.8341232 6.41374408,15.8341232 C6.41374408,15.8279621 6.40758294,15.8279621 6.40758294,15.8218009 C6.40758294,15.8156398 6.40758294,15.8156398 6.4014218,15.8156398 C6.4014218,15.8156398 6.4014218,15.8156398 6.4014218,15.8156398 C6.4014218,15.8156398 6.4014218,15.8156398 6.4014218,15.8156398 C6.4014218,15.8156398 6.4014218,15.8218009 6.40758294,15.8218009 C6.41374408,15.8279621 6.41990521,15.8341232 6.42606635,15.8464455 C6.44454976,15.8649289 6.4507109,15.8772512 6.4507109,15.8834123 C6.44454976,15.8772512 6.43838863,15.8649289 6.42606635,15.8526066 C6.4507109,15.8895735 6.48151659,15.9327014 6.48151659,15.9327014 C6.56161137,16.049763 6.62322275,16.1791469 6.68483412,16.3023697 C6.67867299,16.2962085 6.67867299,16.2962085 6.67867299,16.2962085 C6.67867299,16.3085308 6.75260664,16.4933649 6.76492891,16.5364929 C6.78341232,16.5981043 6.83886256,16.9246445 6.83270142,16.8260664 C6.83886256,16.9123223 6.8450237,16.9985782 6.85118483,17.0848341 C6.85118483,17.1526066 6.85118483,17.214218 6.8450237,17.2819905 C6.8450237,17.3251185 6.82037915,17.4606635 6.82037915,17.4729858 C6.82037915,17.4729858 6.82037915,17.4729858 6.82037915,17.4729858 C6.78341232,17.6454976 6.73412322,17.8118483 6.67867299,17.9781991 C6.67867299,17.9781991 6.67867299,17.9720379 6.67867299,17.9720379 C6.67251185,17.9720379 6.5985782,18.1507109 6.57393365,18.1938389 C6.54312796,18.2492891 6.50616114,18.3109005 6.47535545,18.3663507 C6.45687204,18.3971564 6.36445498,18.5203791 6.36445498,18.5265403 C6.31516588,18.5881517 6.26587678,18.6436019 6.21042654,18.6990521 C6.16113744,18.7483412 6.11800948,18.7914692 6.06872038,18.8345972 C6.04407583,18.8530806 5.97014218,18.9146919 5.96398104,18.9208531 C5.97014218,18.9208531 5.97014218,18.9146919 5.97630332,18.9146919 C5.97014218,18.9208531 5.96398104,18.9208531 5.96398104,18.9208531 C5.96398104,18.9208531 5.96398104,18.9208531 5.96398104,18.9208531 C5.90236967,18.963981 5.83459716,19.007109 5.77298578,19.0440758 C5.71137441,19.0810427 5.65592417,19.1118483 5.5943128,19.142654 C5.57582938,19.1549763 5.55734597,19.1611374 5.53886256,19.1734597 C5.55118483,19.1672986 5.55734597,19.1672986 5.56350711,19.1611374 L5.56350711,19.1611374 C5.55734597,19.1611374 5.55118483,19.1672986 5.53886256,19.1734597 C5.53886256,19.1734597 5.53886256,19.1734597 5.53270142,19.1734597 C5.52654028,19.1734597 5.52037915,19.1796209 5.51421801,19.1796209 C5.50805687,19.1796209 5.50189573,19.185782 5.4957346,19.185782 C5.50805687,19.1796209 5.52654028,19.1734597 5.53886256,19.1672986 C5.53886256,19.1672986 5.53886256,19.1672986 5.53886256,19.1672986 C5.41563981,19.185782 5.29241706,19.2535545 5.16919431,19.2781991 C5.12606635,19.2905213 5.08909953,19.2966825 5.04597156,19.3028436 C5.04597156,19.3028436 5.03981043,19.3028436 5.03981043,19.3028436 C5.03364929,19.3028436 5.02132701,19.3028436 5.01516588,19.3090047 L5.01516588,19.3090047 C5.01516588,19.3090047 5.00900474,19.3090047 5.0028436,19.3090047 C4.99668246,19.3090047 4.98436019,19.3151659 4.97819905,19.3151659 C4.98436019,19.3151659 4.99052133,19.3151659 4.99052133,19.3151659 C4.97203791,19.3151659 4.9535545,19.321327 4.93507109,19.321327 C4.79336493,19.3274882 4.65165877,19.3336493 4.50995261,19.3336493 C3.73364929,19.3336493 2.90805687,19.2473934 2.13791469,19.3829384 C0.874881517,19.6047393 0.055450237,20.7630332 0.055450237,22.0014218 C0.055450237,22.5312796 0.055450237,23.0672986 0.055450237,23.5971564 L0.055450237,28.8402844 C0.055450237,29.2407583 0.0492890995,29.6412322 0.055450237,30.0417062 C0.0862559242,31.514218 1.26303318,32.6170616 2.71706161,32.6293839 C3.41327014,32.635545 4.12180095,32.5985782 4.81800948,32.635545 C4.86729858,32.635545 4.91658768,32.6417062 4.97203791,32.6478673 C4.97819905,32.6478673 4.98436019,32.6478673 4.99052133,32.6478673 C4.82417062,32.6047393 5.17535545,32.6540284 4.99052133,32.6478673 C4.99668246,32.6478673 5.00900474,32.6540284 5.01516588,32.6540284 C5.15687204,32.6848341 5.29241706,32.7156398 5.43412322,32.7587678 C5.47109005,32.77109 5.50805687,32.7834123 5.5450237,32.7957346 C5.50805687,32.7834123 5.48957346,32.7772512 5.47725118,32.77109 C5.50189573,32.7834123 5.57582938,32.8080569 5.60047393,32.8203791 C5.72985782,32.8881517 5.85308057,32.9682464 5.98246445,33.0483412 C5.98862559,33.0545024 5.99478673,33.0545024 6.00094787,33.0606635 C6.00094787,33.0606635 6.00094787,33.0606635 6.00094787,33.0606635 C6.00094787,33.0606635 6.00094787,33.0606635 6.00094787,33.0606635 C6.00094787,33.0606635 6.00094787,33.0606635 6.007109,33.0606635 C6.01327014,33.0668246 6.01943128,33.0668246 6.01943128,33.0729858 C6.03175355,33.0853081 6.05023697,33.0976303 6.0563981,33.1037915 C6.0563981,33.1037915 6.06255924,33.1037915 6.06255924,33.1099526 C6.06255924,33.1099526 6.06255924,33.1099526 6.06255924,33.1099526 L6.06255924,33.1099526 L6.06255924,33.1099526 C6.08720379,33.128436 6.11184834,33.1469194 6.13033175,33.171564 C6.22274882,33.2578199 6.3028436,33.3440758 6.38293839,33.4364929 C6.38293839,33.4364929 6.38293839,33.442654 6.38909953,33.442654 C6.38909953,33.442654 6.39526066,33.4488152 6.39526066,33.4488152 L6.39526066,33.4488152 C6.41990521,33.4796209 6.44454976,33.5227488 6.44454976,33.5227488 C6.46303318,33.5473934 6.47535545,33.5720379 6.49383886,33.5966825 C6.56777251,33.7075829 6.62322275,33.8246445 6.68483412,33.9417062 C6.68483412,33.9478673 6.69099526,33.9478673 6.69099526,33.9540284 C6.62938389,33.7691943 6.77725118,34.1203791 6.69099526,33.9540284 C6.69099526,33.9540284 6.69099526,33.9601896 6.69099526,33.9601896 C6.70947867,34.0218009 6.73412322,34.0834123 6.75260664,34.1450237 C6.78957346,34.2620853 6.81421801,34.3791469 6.83886256,34.4962085 C6.83886256,34.5085308 6.8450237,34.5208531 6.8450237,34.5331754 C6.8450237,34.5331754 6.8450237,34.5331754 6.8450237,34.5393365 C6.8450237,34.5454976 6.8450237,34.5454976 6.8450237,34.5454976 C6.8450237,34.5454976 6.8450237,34.5516588 6.8450237,34.5516588 C6.8450237,34.5516588 6.8450237,34.5578199 6.8450237,34.5578199 C6.8450237,34.5578199 6.8450237,34.563981 6.8450237,34.563981 C6.8450237,34.563981 6.8450237,34.5701422 6.8450237,34.5701422 C6.8450237,34.5701422 6.8450237,34.5763033 6.8450237,34.5763033 C6.8450237,34.5886256 6.8450237,34.5947867 6.8450237,34.5947867 C6.8450237,34.5947867 6.8450237,34.5947867 6.8450237,34.5886256 C6.8450237,34.6132701 6.85118483,34.6379147 6.85118483,34.6625592 C6.85734597,34.7919431 6.85734597,34.9274882 6.8450237,35.0630332 C6.8450237,35.0815166 6.83886256,35.1184834 6.83270142,35.143128 C6.82654028,35.1862559 6.81421801,35.235545 6.80805687,35.278673 C6.78341232,35.3895735 6.7464455,35.4943128 6.70947867,35.6052133 C6.70947867,35.6113744 6.70331754,35.6236967 6.70331754,35.6298578 C6.78957346,35.4635071 6.65402844,35.7900474 6.70331754,35.6298578 C6.70331754,35.636019 6.6971564,35.636019 6.6971564,35.6421801 C6.66635071,35.7037915 6.63554502,35.7654028 6.5985782,35.8331754 C6.56161137,35.8947867 6.52464455,35.9563981 6.48767773,36.0180095 C6.47535545,36.0364929 6.39526066,36.1473934 6.40758294,36.1412322 C5.95781991,36.6895735 5.3971564,37.1701422 4.89810427,37.6691943 C4.41137441,38.1559242 4.0971564,38.7227488 4.02938389,39.4127962 C3.95545024,40.1706161 4.25734597,40.9037915 4.78104265,41.4521327 C5.07677725,41.7601896 5.38483412,42.0559242 5.68672986,42.3578199 C6.92511848,43.5962085 8.16350711,44.8345972 9.3957346,46.0668246 C9.75308057,46.4241706 10.1104265,46.7876777 10.4739336,47.1450237 C11.4781991,48.1308057 13.0492891,48.2047393 14.1090047,47.249763 C14.6080569,46.7938389 15.0701422,46.2886256 15.5507109,45.814218 C15.6369668,45.7279621 15.7293839,45.6417062 15.8218009,45.5616114 C15.8218009,45.5616114 15.8218009,45.5616114 15.8218009,45.5616114 L15.8218009,45.5616114 C15.8218009,45.5616114 15.8218009,45.5554502 15.8279621,45.5554502 C15.8279621,45.5554502 15.8218009,45.5616114 15.8218009,45.5616114 C15.8341232,45.5554502 15.9203791,45.4876777 15.9450237,45.4753555 C16.0066351,45.4383886 16.0682464,45.4014218 16.1298578,45.364455 C16.1914692,45.3274882 16.2530806,45.3028436 16.3208531,45.2658768 C16.3270142,45.2658768 16.3270142,45.2597156 16.3331754,45.2597156 C16.2099526,45.2905213 16.4810427,45.1796209 16.3331754,45.2597156 C16.3393365,45.2597156 16.3454976,45.2535545 16.3578199,45.2535545 C16.4872038,45.2165877 16.6165877,45.1672986 16.7521327,45.142654 C16.7829384,45.1364929 16.8938389,45.1180095 16.8938389,45.1180095 C16.9,45.1180095 16.9,45.1180095 16.9061611,45.1180095 C17.035545,45.1056872 17.17109,45.1056872 17.3066351,45.1118483 C17.3620853,45.1118483 17.4175355,45.1241706 17.4729858,45.1241706 C17.436019,45.1241706 17.4113744,45.1180095 17.392891,45.1180095 C17.4236967,45.1180095 17.4853081,45.1241706 17.5161137,45.1303318 C17.6454976,45.1549763 17.7748815,45.1919431 17.8981043,45.2350711 C17.9473934,45.2535545 17.9905213,45.2658768 18.0336493,45.2843602 C18.0028436,45.2658768 17.9843602,45.2597156 17.9843602,45.2535545 C17.9966825,45.2597156 18.0582938,45.2905213 18.0767773,45.2966825 C18.064455,45.2905213 18.0459716,45.2843602 18.0336493,45.2781991 C18.0336493,45.2781991 18.0398104,45.2781991 18.0398104,45.2843602 C18.156872,45.3459716 18.2739336,45.4014218 18.3848341,45.4753555 C18.4156398,45.4938389 18.4464455,45.5184834 18.4772512,45.5369668 C18.4834123,45.5369668 18.4957346,45.5492891 18.514218,45.5677725 C18.514218,45.5677725 18.5203791,45.5677725 18.5203791,45.5739336 C18.5327014,45.5862559 18.5450237,45.5985782 18.5635071,45.6109005 C18.6620853,45.6971564 18.7606635,45.7895735 18.8469194,45.8881517 C18.8469194,45.8881517 18.871564,45.9189573 18.8962085,45.9436019 C18.8900474,45.9312796 18.8777251,45.9189573 18.8777251,45.9127962 L18.8777251,45.9127962 C18.8838863,45.9189573 18.8900474,45.9312796 18.9085308,45.949763 C18.9270142,45.9744076 18.9393365,45.9867299 18.9393365,45.9867299 C18.9331754,45.9805687 18.9208531,45.9682464 18.9085308,45.949763 C18.9270142,45.9805687 18.9516588,46.0113744 18.9578199,46.0113744 C19.0317536,46.1222749 19.1056872,46.2393365 19.1611374,46.3625592 C19.1734597,46.3872038 19.2104265,46.4796209 19.2165877,46.4919431 C19.22891,46.5227488 19.2412322,46.5597156 19.2535545,46.5966825 C19.2905213,46.7137441 19.3151659,46.8308057 19.3398104,46.9540284 C19.321327,46.8862559 19.3582938,47.1758294 19.3582938,47.2251185 C19.3582938,47.336019 19.3582938,47.4469194 19.3582938,47.5516588 L19.3582938,48.8393365 C19.3582938,49.2521327 19.3398104,49.67109 19.4691943,50.071564 C19.7218009,50.878673 20.3317536,51.507109 21.1265403,51.7843602 C21.6317536,51.9630332 22.1985782,51.9199052 22.728436,51.9199052 L29.7767773,51.9199052 C29.8876777,51.9199052 29.9985782,51.9199052 30.1094787,51.9199052 C30.9597156,51.8890995 31.6990521,51.4824645 32.1919431,50.7985782 C32.7772512,49.9791469 32.6478673,48.9194313 32.6478673,47.964455 C32.6478673,47.6440758 32.6478673,47.3236967 32.6601896,47.0033175 C32.6601896,46.9971564 32.6601896,46.9848341 32.6601896,46.9848341 C32.6170616,47.1511848 32.6663507,46.8 32.6601896,46.9848341 C32.6601896,46.978673 32.6663507,46.9663507 32.6663507,46.9601896 C32.6848341,46.8924171 32.6971564,46.8184834 32.7156398,46.7507109 C32.7341232,46.6706161 32.7649289,46.5905213 32.7895735,46.5165877 C32.7895735,46.5165877 32.7895735,46.5165877 32.7895735,46.5165877 C32.7895735,46.5165877 32.7895735,46.5165877 32.7895735,46.5165877 C32.7895735,46.5165877 32.7895735,46.5165877 32.7895735,46.5165877 C32.7895735,46.5165877 32.7895735,46.5165877 32.7895735,46.5165877 L32.7895735,46.5165877 C32.7895735,46.5165877 32.7895735,46.5165877 32.7895735,46.5165877 C32.7895735,46.5165877 32.7895735,46.5165877 32.7895735,46.5104265 C32.7895735,46.5104265 32.7895735,46.5104265 32.7895735,46.5104265 C32.7895735,46.5104265 32.7895735,46.5104265 32.7895735,46.5104265 C32.8018957,46.4796209 32.8265403,46.4180095 32.8388626,46.3933649 C32.8696682,46.3317536 32.9004739,46.2701422 32.9374408,46.2146919 C32.9682464,46.1654028 32.9990521,46.1161137 33.0298578,46.0729858 C33.0483412,46.0421801 33.1161137,45.9682464 33.128436,45.9436019 C33.128436,45.9436019 33.128436,45.9436019 33.128436,45.9436019 C33.1962085,45.8696682 33.263981,45.7895735 33.3379147,45.7218009 C33.3748815,45.6848341 33.5781991,45.5369668 33.5165877,45.5739336 C33.6090047,45.5123223 33.6952607,45.456872 33.7876777,45.4014218 C33.8369668,45.3767773 33.8862559,45.3521327 33.935545,45.3274882 C33.9478673,45.321327 33.9601896,45.3151659 33.9663507,45.3090047 C33.843128,45.3459716 34.0895735,45.2350711 33.9663507,45.3090047 C33.9725118,45.3090047 33.978673,45.3028436 33.9848341,45.3028436 C34.1080569,45.2597156 34.2312796,45.2165877 34.3606635,45.185782 C34.4222749,45.1734597 34.6810427,45.1364929 34.5886256,45.142654 C34.6933649,45.1364929 34.7981043,45.1241706 34.9028436,45.1303318 C34.9459716,45.1303318 34.9890995,45.1303318 35.0383886,45.1364929 C35.0753555,45.1364929 35.2047393,45.1611374 35.2293839,45.1672986 C35.2232227,45.1672986 35.2109005,45.1611374 35.1800948,45.1549763 C35.2971564,45.1796209 35.4080569,45.2042654 35.5189573,45.2350711 C35.5620853,45.2473934 35.6052133,45.2658768 35.6483412,45.2781991 C35.6545024,45.2781991 35.6668246,45.2843602 35.6729858,45.2843602 C35.5066351,45.1981043 35.8393365,45.3336493 35.6729858,45.2843602 C35.6791469,45.2843602 35.6791469,45.2905213 35.6853081,45.2905213 C35.8146919,45.3582938 35.9379147,45.4199052 36.0549763,45.5 C36.0919431,45.5246445 36.1227488,45.5492891 36.1597156,45.5739336 C36.0056872,45.4691943 36.2459716,45.6478673 36.2829384,45.678673 C36.5109005,45.8881517 36.7203791,46.1161137 36.9421801,46.3317536 C37.2194313,46.6090047 37.4966825,46.8862559 37.7739336,47.1635071 C38.2545024,47.6440758 38.8521327,47.9336493 39.536019,47.9706161 C40.4478673,48.0260664 41.150237,47.5516588 41.7601896,46.9478673 C42.8938389,45.814218 44.0274882,44.6805687 45.1549763,43.5530806 C45.6909953,43.0170616 46.2208531,42.4872038 46.756872,41.9511848 C47.2374408,41.4706161 47.7056872,41.0208531 47.8966825,40.3369668 C48.143128,39.4374408 47.8658768,38.4886256 47.2312796,37.8232227 C47.0156398,37.5952607 46.7815166,37.3734597 46.5597156,37.1516588 C46.3132701,36.9052133 46.0606635,36.6587678 45.814218,36.4061611 C45.7526066,36.3445498 45.6971564,36.2829384 45.6417062,36.221327 C45.6293839,36.2090047 45.6170616,36.1905213 45.6047393,36.1781991 L45.6047393,36.1781991 C45.6047393,36.1781991 45.5985782,36.1720379 45.5862559,36.1535545 C45.5924171,36.1597156 45.5985782,36.1720379 45.6047393,36.1781991 C45.5985782,36.1658768 45.5308057,36.0734597 45.5184834,36.0549763 C45.4383886,35.9379147 45.3767773,35.8146919 45.3151659,35.6853081 C45.3151659,35.6914692 45.321327,35.6914692 45.321327,35.6976303 C45.3151659,35.6853081 45.3090047,35.6729858 45.3028436,35.6606635 C45.3028436,35.6668246 45.3090047,35.6729858 45.3090047,35.6791469 C45.3090047,35.6791469 45.3090047,35.6853081 45.3090047,35.6853081 C45.2843602,35.6052133 45.2535545,35.5312796 45.22891,35.4450237 C45.2104265,35.3834123 45.1549763,35.0445498 45.1611374,35.1616114 C45.1549763,35.0753555 45.1488152,34.9829384 45.142654,34.8966825 C45.142654,34.7796209 45.1488152,34.6687204 45.1611374,34.5516588 C45.1549763,34.5824645 45.1488152,34.6009479 45.1488152,34.607109 C45.1488152,34.5947867 45.1549763,34.563981 45.1611374,34.5393365 C45.1611374,34.5331754 45.1611374,34.5208531 45.1672986,34.5146919 C45.1672986,34.5085308 45.1672986,34.5023697 45.1672986,34.5023697 C45.1672986,34.5146919 45.1672986,34.5331754 45.1672986,34.5454976 C45.185782,34.4592417 45.2042654,34.3729858 45.2227488,34.2867299 C45.2535545,34.1758294 45.3028436,34.0649289 45.3336493,33.9540284 C45.2412322,34.1327014 45.3706161,33.8123223 45.3398104,33.9417062 C45.3398104,33.9478673 45.3398104,33.9478673 45.3336493,33.9540284 C45.3336493,33.9540284 45.3336493,33.9540284 45.3336493,33.9540284 C45.364455,33.8985782 45.3890995,33.8369668 45.4260664,33.7815166 C45.4815166,33.6767773 45.5677725,33.5781991 45.6170616,33.4734597 C45.6170616,33.4734597 45.6170616,33.4734597 45.6170616,33.4734597 C45.6170616,33.4734597 45.6109005,33.4796209 45.6109005,33.4796209 C45.4753555,33.6336493 45.6663507,33.3625592 45.6170616,33.4734597 C45.6725118,33.4118483 45.7279621,33.3440758 45.7895735,33.2824645 C45.8388626,33.2331754 45.8819905,33.1900474 45.9312796,33.1469194 C45.9312796,33.1469194 45.9620853,33.1222749 45.9867299,33.0976303 C45.9805687,33.1037915 45.9744076,33.1099526 45.9682464,33.1099526 C45.9620853,33.1099526 45.9620853,33.1161137 45.9620853,33.1161137 L45.9682464,33.1099526 C45.9682464,33.1099526 45.9682464,33.1099526 45.9682464,33.1099526 C45.9682464,33.1099526 45.9744076,33.1037915 45.9805687,33.0976303 C45.9867299,33.0914692 45.992891,33.0914692 45.9990521,33.0853081 C46.0236967,33.0668246 46.036019,33.0545024 46.036019,33.0545024 C46.0298578,33.0606635 46.0175355,33.0729858 45.9990521,33.0853081 C46.0298578,33.0668246 46.0606635,33.0421801 46.0606635,33.036019 C46.1161137,32.9990521 46.171564,32.9620853 46.2331754,32.9251185 C46.2947867,32.8881517 46.350237,32.857346 46.4118483,32.8265403 C46.4180095,32.8265403 46.4549763,32.8080569 46.485782,32.7957346 C46.4672986,32.8018957 46.4488152,32.8080569 46.442654,32.8080569 C46.442654,32.8080569 46.442654,32.8080569 46.4488152,32.8080569 C46.4549763,32.8080569 46.4611374,32.8018957 46.4672986,32.8018957 C46.4672986,32.8018957 46.4734597,32.8018957 46.4734597,32.7957346 C46.4734597,32.7957346 46.4796209,32.7957346 46.485782,32.7895735 C46.5042654,32.7834123 46.5165877,32.7772512 46.5227488,32.7772512 C46.5227488,32.7772512 46.52891,32.7772512 46.52891,32.7772512 C46.5227488,32.7834123 46.5104265,32.7895735 46.4919431,32.7957346 C46.52891,32.7834123 46.5658768,32.7649289 46.5720379,32.7649289 C46.664455,32.7341232 46.7507109,32.7094787 46.843128,32.6848341 C46.8800948,32.678673 46.9170616,32.6725118 46.9478673,32.6601896 C46.9478673,32.6601896 46.9971564,32.6478673 47.0279621,32.6417062 C47.0279621,32.6417062 47.0279621,32.6417062 47.0279621,32.6417062 C47.0341232,32.6417062 47.0464455,32.6417062 47.0526066,32.635545 C47.0464455,32.635545 47.0402844,32.635545 47.0341232,32.6417062 C47.1388626,32.635545 47.2436019,32.6293839 47.3483412,32.6293839 C47.471564,32.6293839 47.6009479,32.6293839 47.7241706,32.6293839 C48.6236967,32.6293839 49.6402844,32.7587678 50.4781991,32.3706161 C51.4763033,31.9146919 51.9507109,30.9042654 51.9507109,29.856872 L51.9507109,21.9398104 C51.956872,21.921327 51.956872,21.9028436 51.9507109,21.8843602 Z M20.9293839,15.1810427 C22.6298578,13.0800948 25.6734597,12.2483412 28.2118483,13.1848341 C30.8056872,14.1398104 32.5616114,16.585782 32.6047393,19.3582938 C32.6047393,19.3767773 32.6047393,19.3890995 32.6047393,19.4075829 L32.6047393,19.4137441 C32.6047393,19.4322275 32.6047393,19.4445498 32.6047393,19.4630332 C32.5554502,22.5066351 30.3682464,25.2853081 27.343128,25.8767773 C24.6014218,26.4127962 21.7734597,25.1990521 20.3255924,22.7900474 C18.8900474,20.3872038 19.185782,17.3374408 20.9293839,15.1810427 Z M37.0777251,37.3118483 C37.1023697,37.8109005 36.6341232,38.236019 36.1535545,38.236019 C36.1350711,38.236019 36.1165877,38.236019 36.0981043,38.236019 L15.8526066,38.236019 C15.3535545,38.236019 14.928436,37.8109005 14.928436,37.3118483 C14.928436,36.0364929 14.8421801,34.7180095 15.1194313,33.4672986 C15.5260664,31.6312796 16.6597156,30.0293839 18.1876777,28.9511848 C18.9270142,28.4274882 19.7834123,28.0454976 20.664455,27.836019 C21.1388626,27.7189573 21.6317536,27.6511848 22.1184834,27.6265403 C22.5127962,27.6080569 22.8824645,27.6388626 23.1597156,27.9407583 C23.8312796,28.6554502 24.42891,29.4563981 25.0635071,30.214218 C25.3777251,30.5900474 25.6919431,30.9597156 26.0061611,31.335545 C26.4251185,30.8364929 26.8440758,30.3374408 27.2630332,29.8383886 C27.6327014,29.3947867 28.0085308,28.9511848 28.3781991,28.5075829 C28.5507109,28.3042654 28.7109005,28.0824645 28.8957346,27.8914692 C29.3331754,27.4478673 30.1834123,27.6388626 30.7317536,27.7189573 C31.156872,27.7805687 31.5758294,27.8791469 31.9824645,28.0270142 C32.8943128,28.3473934 33.7199052,28.8218009 34.4592417,29.4440758 C35.907109,30.663981 36.7943128,32.4322275 37.028436,34.2990521 C37.1454976,35.2848341 37.0777251,36.3137441 37.0777251,37.3118483 Z" id="XMLID_16_"></path>
        </g>
    </g>
</svg>