<?xml version="1.0" encoding="UTF-8"?>
<svg width="70px" height="70px" viewBox="0 0 70 70" version="1.1" xmlns="http://www.w3.org/2000/svg" xmlns:xlink="http://www.w3.org/1999/xlink">
    <!-- Generator: Sketch 57.1 (83088) - https://sketch.com -->
    <title>review_management</title>
    <desc>Created with Sketch.</desc>
    <g id="review_management" stroke="none" stroke-width="1" fill="none" fill-rule="evenodd">
        <g id="Review_management">
            <path d="M0,0 L70,0 L70,70 L0,70 L0,0 Z M44.7854166,18.7104166 L39.6229166,13.5479166 C39.0541666,12.9791666 38.1354166,12.9791666 37.5666666,13.5479166 L17.5,33.6145834 L17.5,40.8333334 L24.71875,40.8333334 L44.7854166,20.7666666 C45.3541666,20.1979166 45.3541666,19.2791666 44.7854166,18.7104166 Z" id="Shape"></path>
            <path d="M58.2000001,6 L11.8,6 C8.5955,6 6.029,8.5955 6.029,11.8 L6,64 L17.6,52.4 L58.2000001,52.4 C61.4045,52.4 64,49.8045001 64,46.6 L64,11.8 C64,8.5955 61.4045,6 58.2000001,6 Z M17.6,40.8000001 L17.6,33.6225001 L37.552,13.6705 C38.1175,13.105 39.031,13.105 39.5965,13.6705 L44.7295,18.8035 C45.295,19.369 45.295,20.2825 44.7295,20.848 L24.7775,40.8000001 L17.6,40.8000001 Z M52.4,40.8000001 L30.65,40.8000001 L36.4500001,35 L52.4,35 L52.4,40.8000001 Z" id="Shape" fill="#0968AC" fill-rule="nonzero"></path>
        </g>
    </g>
</svg>