<?xml version="1.0" encoding="UTF-8"?>
<svg width="70px" height="70px" viewBox="0 0 70 70" version="1.1" xmlns="http://www.w3.org/2000/svg" xmlns:xlink="http://www.w3.org/1999/xlink">
    <!-- Generator: Sketch 57.1 (83088) - https://sketch.com -->
    <title>terms_and-conditions</title>
    <desc>Created with Sketch.</desc>
    <g id="terms_and-conditions" stroke="none" stroke-width="1" fill="none" fill-rule="evenodd">
        <g id="noun-terms-and-conditions-3842633" transform="translate(8.000000, 1.000000)" fill="#0968AC" fill-rule="nonzero">
            <path d="M43.8192301,11.1256403 L33.2603749,0.566785063 C33.1185078,0.424917965 32.9771342,0.354231174 32.8352671,0.283544383 L32.8352671,11.550786 L44.1025088,11.550786 C44.0318232,11.4089189 43.9606417,11.2670518 43.8192681,11.1256782 L43.8192301,11.1256403 Z" id="Path"></path>
            <path d="M42.1184953,39.9672682 C42.8980241,39.9672682 43.6775022,40.0379538 44.3863948,40.1091353 L44.3863948,15.5193444 L30.8513802,15.5193444 C29.7886234,15.5193444 28.8671896,14.6691289 28.8671896,13.5351538 L28.8671896,0.000139197046 L2.08061621,0.000139197046 C1.01785942,0.000139197046 0.0964255902,0.921522408 0.0964255902,1.98432982 L0.0964255902,54.919701 C0.0964255902,55.9824578 0.946641148,56.9038917 2.08061621,56.9038917 L26.5286792,56.9038917 C26.4579937,56.4787839 26.4579937,56.0536761 26.4579937,55.6285936 C26.4574994,46.9831916 33.4732717,39.9676605 42.1189268,39.9676605 L42.1184953,39.9672682 Z M11.0800849,11.550824 L20.7175822,11.550824 C21.780339,11.550824 22.7017728,12.4722072 22.7017728,13.5350146 C22.7017728,14.5977714 21.8515572,15.5192052 20.7175822,15.5192052 L11.0800849,15.5192052 C10.0173281,15.5192052 9.09589425,14.6689897 9.09589425,13.5350146 C9.09589425,12.4717643 10.0172775,11.550824 11.0800849,11.550824 Z M11.0800849,22.1092996 L33.4022294,22.1092996 C34.4649862,22.1092996 35.38642,22.9595151 35.38642,24.0934902 C35.38642,25.156247 34.5362044,26.0776808 33.4022294,26.0776808 L11.0800849,26.0776808 C10.0173281,26.0776808 9.09589425,25.2274652 9.09589425,24.0934902 C9.09589425,22.9600466 10.0172775,22.1092996 11.0800849,22.1092996 Z M11.0800849,32.5975439 L33.4022294,32.5975439 C34.4649862,32.5975439 35.38642,33.4477595 35.38642,34.5817345 C35.38642,35.6444913 34.5362044,36.5659251 33.4022294,36.5659251 L11.0800849,36.5659251 C10.0173281,36.5659251 9.09589425,35.7157096 9.09589425,34.5817345 C9.09589425,33.5184842 10.0172775,32.5975439 11.0800849,32.5975439 Z M21.5683292,47.1246538 L11.0800849,47.1246538 C10.0173281,47.1246538 9.09589425,46.2032706 9.09589425,45.1404632 C9.09589425,44.0776558 9.94610981,43.1562726 11.0800849,43.1562726 L21.567823,43.1562726 C22.6305798,43.1562726 23.5520139,44.0064881 23.5520139,45.1404632 C23.5525079,46.2037135 22.631124,47.1246538 21.5683292,47.1246538 L21.5683292,47.1246538 Z" id="Shape"></path>
            <path d="M42.1184953,43.9356495 C35.6697492,43.9356495 30.4261965,49.1797084 30.4261965,55.6279483 C30.4261965,62.0766943 35.6702554,67.3202471 42.1184953,67.3202471 C48.5672414,67.3202471 53.8107941,62.0761882 53.8107941,55.6279483 C53.8107941,49.1797084 48.5671148,43.9356495 42.1184953,43.9356495 L42.1184953,43.9356495 Z M47.5751461,54.5652421 L41.9059035,60.2344847 C41.5514825,60.5889057 40.9845202,60.8014596 40.488751,60.8014596 C39.9924629,60.8014596 39.496681,60.5889057 39.0715985,60.2344847 L36.2372936,57.4001798 C35.4577648,56.620651 35.4577648,55.3453783 36.2372936,54.6364857 C37.0168223,53.8569569 38.2920951,53.8569569 39.0009876,54.6364857 L40.4181401,56.0536381 L44.6702303,51.801548 C45.449759,51.0220192 46.7250317,51.0220192 47.4339243,51.801548 C48.354814,52.5810768 48.354814,53.7857386 47.5752979,54.5652421 L47.5751461,54.5652421 Z" id="Shape"></path>
        </g>
    </g>
</svg>