<?xml version="1.0" encoding="UTF-8"?>
<svg width="70px" height="70px" viewBox="0 0 70 70" version="1.1" xmlns="http://www.w3.org/2000/svg" xmlns:xlink="http://www.w3.org/1999/xlink">
    <!-- Generator: Sketch 57.1 (83088) - https://sketch.com -->
    <title>privacy policy</title>
    <desc>Created with Sketch.</desc>
    <g id="privacy-policy" stroke="none" stroke-width="1" fill="none" fill-rule="evenodd">
        <g id="noun-privacy-policy-3908089" transform="translate(9.000000, 2.000000)" fill="#0968AC" fill-rule="nonzero">
            <path d="M37.9920015,1.14234005 L37.9920015,13.1039405 L49.953602,13.1039405 L37.9920015,1.14234005 Z M33.4892413,37.0271415 L26.8363211,45.4942218 C26.4331931,46.0318818 25.828513,46.3679658 25.156321,46.4349978 L24.887725,46.4349978 C24.283033,46.4349978 23.7453849,46.2334338 23.3422449,45.8303058 L19.1085248,42.2017457 C18.1007167,41.3280016 17.9661847,39.7825456 18.8399287,38.7746655 C19.7136728,37.7668575 21.2591288,37.6323255 22.2670089,38.5060695 L24.619249,40.5221896 L29.7263292,34.0037894 C30.5325852,32.9284813 32.0785693,32.7944293 33.1534093,33.6006613 C34.1616854,34.4064374 34.3632494,35.9524214 33.4895053,37.0272615 L33.4892413,37.0271415 Z M36.0429614,17.0687407 C34.9676534,17.0687407 34.0944014,16.1949966 34.0944014,15.1201806 L34.0944014,0.000180000007 L7.21440029,0.000180000007 C3.24972013,0.000180000007 0.0237600009,3.22566013 0.0237600009,7.19082029 L0.0237600009,59.9428224 C0.0237600009,63.9075025 3.24924013,67.1334627 7.21440029,67.1334627 L43.9728017,67.1334627 C47.9374819,67.1334627 51.163442,63.9079825 51.163442,59.9428224 L51.163442,17.0680207 L36.0429614,17.0687407 Z M40.0752016,39.3119416 C40.0752016,51.206462 26.7696011,56.9855423 26.232001,57.2543423 C26.030437,57.3213731 25.761373,57.3888743 25.492777,57.3888743 C25.224181,57.3888743 25.022149,57.3218435 24.753553,57.2543423 C24.215893,56.9857463 10.9103524,51.206582 10.9103524,39.3119416 L10.9103524,29.5005012 C10.9103524,28.6942451 11.3809805,28.0221011 12.1197125,27.7534211 L24.887713,23.3856609 C25.290841,23.2511289 25.693969,23.2511289 26.030053,23.3856609 L38.7980535,27.7534211 C39.5372776,28.0220171 40.0074136,28.6941971 40.0074136,29.5005012 L40.0078824,39.3119416 L40.0752016,39.3119416 Z" id="Shape"></path>
        </g>
    </g>
</svg>