<?xml version="1.0" encoding="UTF-8"?>
<svg width="70px" height="70px" viewBox="0 0 70 70" version="1.1" xmlns="http://www.w3.org/2000/svg" xmlns:xlink="http://www.w3.org/1999/xlink">
    <!-- Generator: Sketch 57.1 (83088) - https://sketch.com -->
    <title>Role_based_access</title>
    <desc>Created with Sketch.</desc>
    <g id="Role_based_access" stroke="none" stroke-width="1" fill="none" fill-rule="evenodd">
        <g id="noun-access-2445058" transform="translate(2.000000, 3.000000)" fill="#0968AC" fill-rule="nonzero">
            <path d="M14.4085553,43.1414634 L8.86096435,43.1414634 C4.76983114,43.1414634 1.37188368,46.1926942 0.886727955,50.2146079 L0.123926454,56.6632908 C0.0547577111,57.4952623 0.609565103,58.3276548 1.37185891,58.4660938 C4.56190019,59.1597253 8.02906717,59.5060458 11.6345493,59.5060458 C12.9521966,59.5060458 14.2697201,59.436877 15.4485568,59.3672229 L15.4485568,59.2980541 L16.4198341,51.3934087 C16.7666499,48.8970485 17.7374814,46.6085945 19.1933201,44.8059153 C17.8756728,43.7659633 16.2118041,43.1414634 14.4085058,43.1414634 L14.4085553,43.1414634 Z" id="Path"></path>
            <path d="M65.1678799,50.2144841 C64.6822413,46.1925704 61.2847767,43.1413396 57.1936435,43.1413396 L51.6460525,43.1413396 C49.912469,43.1413396 48.2481051,43.6961482 46.9309531,44.8057036 C48.3874109,46.6780976 49.3582176,48.8968368 49.6353433,51.393197 L50.5369553,59.3674334 L50.5364717,59.4370863 C51.7844041,59.506255 53.0328319,59.5759092 54.3504792,59.5759092 C57.9564567,59.5759092 61.3540327,59.2290934 64.6131696,58.5359572 C65.4451411,58.3279644 65.9999126,57.5651752 65.8611021,56.7331542 L65.1678799,50.2144841 Z" id="Path"></path>
            <path d="M19.1239024,32.9479925 C19.1239024,37.084075 15.7709043,40.4370732 11.6348218,40.4370732 C7.49873921,40.4370732 4.14574109,37.084075 4.14574109,32.9479925 C4.14574109,28.8124053 7.49873921,25.4592833 11.6348218,25.4592833 C15.7709043,25.4592833 19.1239024,28.8122814 19.1239024,32.9479925" id="Path"></path>
            <path d="M61.9780863,32.9479925 C61.9780863,37.084075 58.6250882,40.4370732 54.4890056,40.4370732 C50.3529231,40.4370732 46.999925,37.084075 46.999925,32.9479925 C46.999925,28.8124053 50.3529231,25.4592833 54.4890056,25.4592833 C58.6250882,25.4592833 61.9780863,28.8122814 61.9780863,32.9479925" id="Path"></path>
            <path d="M36.4597373,43.2108068 L29.5946229,43.2108068 C24.6709981,43.2108068 20.5107692,46.8860038 19.886803,51.8095047 L18.916021,59.7837411 C18.7771981,60.8236931 19.4708296,61.7944503 20.4415745,62.0029756 C24.3943925,62.8349471 28.6238409,63.3206229 32.9927189,63.3206229 C37.361597,63.3206229 41.5914169,62.9046371 45.5438634,62.0029756 C46.5838154,61.7949827 47.2082274,60.8242008 47.1386364,59.7837411 L46.1678544,51.8095047 C45.6130458,46.9550994 41.452755,43.2108068 36.4600345,43.2108068 L36.4597373,43.2108068 Z" id="Path"></path>
            <path d="M42.2845779,30.9370356 C42.2845779,36.0304278 38.155182,40.1596998 33.0619137,40.1596998 C27.9686454,40.1596998 23.8392495,36.0303039 23.8392495,30.9370356 C23.8392495,25.8436435 27.9686454,21.7143715 33.0619137,21.7143715 C38.155182,21.7143715 42.2845779,25.8437674 42.2845779,30.9370356" id="Path"></path>
            <path d="M24.4633396,16.721651 C27.583666,16.721651 30.2880563,14.9880675 31.7445141,12.4224878 L35.4888068,12.4224878 C35.6967996,12.4224878 35.8356225,12.3533191 35.9744454,12.2144949 L38.4017099,9.78723039 L40.5512296,11.9367501 C40.8283925,12.2139129 41.2448612,12.2139129 41.5220116,11.9367501 L43.6024356,9.78723039 L45.7519553,11.9367501 C46.0291182,12.2139129 46.4455869,12.2139129 46.7227373,11.9367501 L49.8430638,8.88551932 C50.1202266,8.60835647 50.1202266,8.1918878 49.8430638,7.91473734 L46.4451163,4.58638086 C46.3062934,4.44755797 46.1679535,4.37838799 45.9594777,4.37838799 L31.7440931,4.37838799 C30.2881306,1.81280826 27.5837403,0.0792247655 24.4629186,0.0792247655 C19.8861343,0.0792247655 16.1418417,3.82351745 16.1418417,8.40030169 C16.1418417,13.0463054 19.8866296,16.7213786 24.4629186,16.7213786 L24.4633396,16.721651 Z M21.6206341,6.04302439 C22.9382814,6.04302439 23.9781839,7.08297636 23.9781839,8.40057411 C23.9781839,9.71817186 22.9382319,10.7581238 21.6206341,10.7581238 C20.3029869,10.7581238 19.2630843,9.71817186 19.2630843,8.40057411 C19.2626008,7.08292683 20.3030364,6.04302439 21.6206341,6.04302439 Z" id="Shape"></path>
        </g>
    </g>
</svg>