<?xml version="1.0" encoding="UTF-8"?>
<svg width="70px" height="70px" viewBox="0 0 70 70" version="1.1" xmlns="http://www.w3.org/2000/svg" xmlns:xlink="http://www.w3.org/1999/xlink">
    <!-- Generator: Sketch 57.1 (83088) - https://sketch.com -->
    <title>User and role mapping </title>
    <desc>Created with Sketch.</desc>
    <g id="User-and-role-mapping-" stroke="none" stroke-width="1" fill="none" fill-rule="evenodd">
        <g id="noun-user-role-1589836" transform="translate(1.000000, 6.000000)" fill="#0968AC" fill-rule="nonzero">
            <path d="M48.5182077,52.107943 L48.5182077,58.1670061 L0.0457026477,58.1670061 L0.0457026477,52.107943 C0.0457026477,46.5103381 7.64605295,41.8129369 17.9611405,40.420391 C18.4301743,39.5515699 18.6979642,38.5788513 18.6979642,37.5526191 C18.6979642,36.6280684 18.423679,35.7652301 18.0298468,34.9510305 C14.5275006,32.5609206 12.1643967,28.2719348 12.1643967,23.3273238 C12.1643967,15.7978819 17.5899935,9.69436253 24.282523,9.69436253 C30.9750525,9.69436253 36.4006493,15.7977434 36.4006493,23.3273238 C36.4006493,28.2719348 34.0376839,32.5609206 30.5351992,34.9510305 C30.1413532,35.7652163 29.8670819,36.6280407 29.8670819,37.5526191 C29.8670819,38.578879 30.1354118,39.5516253 30.6039055,40.420391 C40.9184391,41.8129369 48.5193434,46.5103381 48.5193434,52.107943 L48.5182077,52.107943 Z" id="Path"></path>
            <path d="M67.9072098,29.0835031 C67.9072098,30.8682607 66.4606517,32.3148187 64.6758941,32.3148187 L45.2868921,32.3148187 C43.5021344,32.3148187 42.0555764,30.8677067 42.0555764,29.0835031 L42.0555764,16.1576864 C42.0555764,14.3729287 43.5021344,12.9263707 45.2868921,12.9263707 L45.2868921,9.69450102 C45.2868921,4.3403666 49.6272587,0 54.9813931,0 C60.3355275,0 64.6758941,4.3403666 64.6758941,9.69450102 L64.6758941,12.9258167 C66.4606517,12.9258167 67.9072098,14.3723747 67.9072098,16.1571324 L67.9072098,29.0835031 Z M54.9813931,19.389002 C53.1966354,19.389002 51.7500774,20.8355601 51.7500774,22.6203177 C51.7500774,24.4050754 53.1966354,25.8516334 54.9813931,25.8516334 C56.7661507,25.8516334 58.2127088,24.4045214 58.2127088,22.6203177 C58.2127088,20.8355601 56.7661507,19.389002 54.9813931,19.389002 Z M54.9813931,3.2310387 C51.4179715,3.2310387 48.5182077,6.13024847 48.5182077,9.69422403 L48.5182077,12.9255397 L61.4440244,12.9255397 L61.4445655,9.69422403 C61.4445655,6.13080244 58.5453558,3.2310387 54.9813802,3.2310387 L54.9813931,3.2310387 Z" id="Shape"></path>
        </g>
    </g>
</svg>