<?xml version="1.0" encoding="UTF-8"?>
<svg width="70px" height="70px" viewBox="0 0 70 70" version="1.1" xmlns="http://www.w3.org/2000/svg" xmlns:xlink="http://www.w3.org/1999/xlink">
    <!-- Generator: Sketch 57.1 (83088) - https://sketch.com -->
    <title>Cancel _or_Merge_Show </title>
    <desc>Created with Sketch.</desc>
    <g id="Cancel-_or_Merge_Show-" stroke="none" stroke-width="1" fill="none" fill-rule="evenodd">
        <g id="705447_casino_cinema_movie_premiere_show_icon" transform="translate(-2.000000, -5.000000)">
            <g id="_266237968">
                <rect id="_266238328" x="0" y="0" width="68.2666" height="68.2666"></rect>
                <rect id="_266238256" x="8.53331" y="8.53331" width="51.2" height="51.2"></rect>
            </g>
            <polygon id="Path" fill="#0968AC" fill-rule="nonzero" points="11.7333 9.59992 57.6 9.59992 58.6667 9.59992 58.6667 10.6666 58.6667 35.2 58.6667 36.2667 57.6 36.2667 11.7333 36.2667 10.6667 36.2667 10.6667 35.2 10.6667 10.6666 10.6667 9.59992"></polygon>
            <g id="_266237248" transform="translate(9.000000, 37.000000)" fill="#0968AC" fill-rule="nonzero">
                <path d="M4.1328,10.5494 L11.80036,10.5494 C12.714927,10.5494 13.54571,10.922825 14.14725,11.524361 C14.748785,12.125975 15.122211,12.956681 15.122211,13.871251 L15.122211,21.538811 L15.122211,22.605501 L14.055521,22.605501 L1.877621,22.605501 L0.810931,22.605501 L0.810931,21.538811 L0.810931,13.871251 C0.810931,12.956684 1.184356,12.125901 1.785892,11.524361 C2.387427,10.922826 3.218172,10.5494 4.132782,10.5494 L4.1328,10.5494 Z M8.19209,0.58338 C9.48288,0.58338 10.65166,1.106687 11.49768,1.95275 C12.343743,2.798774 12.86705,3.96755 12.86705,5.25834 C12.86705,6.54921 12.343743,7.71791 11.49768,8.56393 C10.651656,9.409993 9.48288,9.9333 8.19209,9.9333 C6.9013,9.9333 5.73248,9.409954 4.8865,8.56397 C4.040476,7.717907 3.51717,6.54917 3.51717,5.25834 C3.51717,3.96751 4.040477,2.79877 4.8865,1.95271 C5.732484,1.106726 6.9013,0.58338 8.19209,0.58338 L8.19209,0.58338 Z" id="_266237632"></path>
                <path d="M21.8329,10.5494 L29.50046,10.5494 C30.415027,10.5494 31.24581,10.922825 31.84735,11.524361 C32.448885,12.125975 32.822311,12.956681 32.822311,13.871251 L32.822311,21.538811 L32.822311,22.605501 L31.755621,22.605501 L19.577721,22.605501 L18.511031,22.605501 L18.511031,21.538811 L18.511031,13.871251 C18.511031,12.956684 18.884456,12.125901 19.485992,11.524361 C20.087527,10.922826 20.918272,10.5494 21.832882,10.5494 L21.8329,10.5494 Z M25.89219,0.58338 C27.18298,0.58338 28.35176,1.106687 29.19778,1.95275 C30.043843,2.798774 30.56715,3.96755 30.56715,5.25834 C30.56715,6.54921 30.043843,7.71791 29.19778,8.56393 C28.351756,9.409993 27.18298,9.9333 25.89219,9.9333 C24.6014,9.9333 23.43258,9.409954 22.5866,8.56397 C21.740576,7.717907 21.21727,6.54917 21.21727,5.25834 C21.21727,3.96751 21.740577,2.79877 22.5866,1.95271 C23.432584,1.106726 24.6014,0.58338 25.89219,0.58338 L25.89219,0.58338 Z" id="_266237824"></path>
                <path d="M39.533,10.5494 L47.20056,10.5494 C48.115127,10.5494 48.94591,10.922825 49.54745,11.524361 C50.148985,12.125975 50.522411,12.956681 50.522411,13.871251 L50.522411,21.538811 L50.522411,22.605501 L49.455721,22.605501 L37.277821,22.605501 L36.211131,22.605501 L36.211131,21.538811 L36.211131,13.871251 C36.211131,12.956684 36.584556,12.125901 37.186092,11.524361 C37.787627,10.922826 38.618372,10.5494 39.532982,10.5494 L39.533,10.5494 Z M43.59229,0.58338 C44.88308,0.58338 46.05186,1.106687 46.89788,1.95275 C47.743943,2.798774 48.26725,3.96755 48.26725,5.25834 C48.26725,6.54921 47.743943,7.71791 46.89788,8.56393 C46.051856,9.409993 44.88308,9.9333 43.59229,9.9333 C42.3015,9.9333 41.13268,9.409954 40.2867,8.56397 C39.440676,7.717907 38.91737,6.54917 38.91737,5.25834 C38.91737,3.96751 39.440677,2.79877 40.2867,1.95271 C41.132684,1.106726 42.3015,0.58338 43.59229,0.58338 L43.59229,0.58338 Z" id="_266237488"></path>
            </g>
        </g>
        <circle id="Oval" stroke="#0968AC" stroke-width="3" fill="#FFFFFF" cx="54" cy="54" r="12.5"></circle>
        <polygon id="Path" fill="#0968AC" fill-rule="nonzero" points="48 57 51 60 54 57 57 60 60 57 57 54 60 51 57 48 54 51 51 48 48 51 51 54"></polygon>
    </g>
</svg>