<?xml version="1.0" encoding="UTF-8"?>
<svg width="70px" height="70px" viewBox="0 0 70 70" version="1.1" xmlns="http://www.w3.org/2000/svg" xmlns:xlink="http://www.w3.org/1999/xlink">
    <!-- Generator: Sketch 57.1 (83088) - https://sketch.com -->
    <title>block_and_unblock_seats</title>
    <desc>Created with Sketch.</desc>
    <g id="block_and_unblock_seats" stroke="none" stroke-width="1" fill="none" fill-rule="evenodd">
        <g id="noun-seats-763109" transform="translate(1.000000, 18.000000)" fill="#0968AC" fill-rule="nonzero">
            <path d="M67.0562069,18.2251724 L66.3177181,18.2251724 L66.3177181,7.63856897 C66.3177181,3.45319828 62.8708216,0.00644827586 58.6855974,0.00644827586 L56.5519509,0.00644827586 C52.3665802,0.00644827586 48.9198302,3.45334483 48.9198302,7.63856897 L48.9198302,18.2251724 L48.1813414,18.2251724 C47.6890155,18.2251724 47.3604172,18.5531991 47.3604172,19.0460966 L47.3604172,20.3593319 L44.3240121,20.3593319 L44.2421497,20.3593319 L44.2421497,19.0460966 C44.2421497,18.5537707 43.914123,18.2251724 43.4212256,18.2251724 L42.6827368,18.2251724 L42.6815918,7.63856897 C42.6815918,3.45319828 39.2346952,0.00644827586 35.0494711,0.00644827586 L32.9158246,0.00644827586 C28.7304539,0.00644827586 25.2837039,3.45334483 25.2837039,7.63856897 L25.2837039,18.2251724 L24.5452151,18.2251724 C24.0528892,18.2251724 23.7242909,18.5531991 23.7242909,19.0460966 L23.7242909,20.3593319 L20.6878858,20.3593319 L20.6060234,20.3593319 L20.6060234,19.0460966 C20.6060234,18.5537707 20.2779967,18.2251724 19.7850993,18.2251724 L19.0466105,18.2251724 L19.0460381,7.63856897 C19.0460381,3.45319828 15.5991415,0.00644827586 11.4139174,0.00644827586 L9.28027084,0.00644827586 C5.09490015,0.00644827586 1.64815015,3.45334483 1.64815015,7.63856897 L1.64815015,18.2251724 L0.90851825,18.2251724 C0.416192388,18.2251724 0.0875941121,18.5531991 0.0875941121,19.0460966 L0.0875941121,21.3440276 C0.0875941121,22.8209759 1.31839411,24.0523034 2.79586997,24.0523034 L9.52581825,24.0523034 L9.52581825,33.1619586 L2.46788722,33.1619586 C1.97556135,33.1619586 1.64696308,33.4899853 1.64696308,33.9828828 C1.64696308,34.4752086 1.9749898,34.8038069 2.46788722,34.8038069 L65.5789217,34.8038069 C66.0712476,34.8038069 66.3998458,34.4757802 66.3998458,33.9828828 C66.3998458,33.4905569 66.0718191,33.1619586 65.5789217,33.1619586 L58.5209907,33.1619586 L58.5209907,24.0523034 L65.2509389,24.0523034 C66.7278872,24.0523034 67.9592148,22.8215034 67.9592148,21.3440276 L67.9592148,19.0460966 C67.8767795,18.5537707 67.4663174,18.2251724 67.0558553,18.2251724 L67.0562069,18.2251724 Z M50.4782759,7.63856897 C50.4782759,4.35610345 53.1865517,1.64768103 56.4691638,1.64768103 L58.6028103,1.64768103 C61.8852759,1.64768103 64.5936983,4.3559569 64.5936983,7.63856897 L64.5936983,18.2251724 L50.4784224,18.2251724 L50.4782759,7.63856897 Z M26.432069,22.4109828 C25.8573078,22.4109828 25.3649966,21.9186569 25.3649966,21.3439103 L25.3649966,19.8669621 L42.6815483,19.8669621 L42.6815483,21.3439103 C42.6815483,21.9186716 42.1892224,22.4109828 41.6144759,22.4109828 L26.432069,22.4109828 Z M26.842531,7.63856897 C26.842531,4.35610345 29.5508069,1.64768103 32.833419,1.64768103 L34.9670655,1.64768103 C38.249531,1.64768103 40.9579534,4.3559569 40.9579534,7.63856897 L40.9579534,18.2251724 L26.8426776,18.2251724 L26.842531,7.63856897 Z M3.20666897,7.63856897 C3.20666897,4.35610345 5.91494483,1.64768103 9.1975569,1.64768103 L11.3312034,1.64768103 C14.613669,1.64768103 17.3220914,4.3559569 17.3220914,7.63856897 L17.3220914,18.2251724 L3.20681552,18.2251724 L3.20666897,7.63856897 Z M1.72972069,21.3440862 L1.72972069,19.8671379 L19.0462724,19.8671379 L19.0462724,21.3440862 C19.0462724,21.9188474 18.5539466,22.4111586 17.9792,22.4111586 L2.79644138,22.4111586 C2.14038793,22.4111586 1.72994052,21.9182612 1.72994052,21.3440862 L1.72972069,21.3440862 Z M11.1673586,24.0523621 L17.8973069,24.0523621 C19.2105422,24.0523621 20.2770138,23.1495741 20.5238069,21.9187155 L20.688106,21.9187155 L23.8068733,21.9187155 C24.0530362,23.1495155 25.1201086,24.0523621 26.4333733,24.0523621 L33.1633216,24.0523621 L33.1633216,33.1620172 L11.1673586,33.1620172 L11.1673586,24.0523621 Z M56.7977034,33.1620172 L34.8032207,33.1620172 L34.8032207,24.0523621 L41.5325828,24.0523621 C42.8458181,24.0523621 43.9122897,23.1495741 44.1590828,21.9187155 L44.3233819,21.9187155 L47.4421491,21.9187155 C47.6883121,23.1495155 48.7553845,24.0523621 50.0686491,24.0523621 L56.7985974,24.0523621 L56.7977034,33.1620172 Z M66.2359276,21.3439397 C66.2359276,21.9187009 65.7436017,22.4110121 65.1688552,22.4110121 L50.0681655,22.4110121 C49.4934043,22.4110121 49.0010931,21.9186862 49.0010931,21.3439397 L49.0010931,19.8669914 L66.3176448,19.8669914 L66.3182173,21.3439397 L66.2359276,21.3439397 Z" id="Shape"></path>
            <path d="M61.2293103,7.5562069 C61.2293103,8.00960862 60.8617879,8.37713103 60.4083862,8.37713103 C59.9549845,8.37713103 59.5880336,8.00960862 59.5880336,7.5562069 C59.5880336,7.10339138 59.9549845,6.73585431 60.4083862,6.73585431 C60.8617879,6.73585431 61.2293103,7.10337672 61.2293103,7.5562069" id="Path"></path>
            <path d="M55.6486207,7.5562069 C55.6486207,8.00960862 55.2810983,8.37713103 54.8282681,8.37713103 C54.3748664,8.37713103 54.007344,8.00960862 54.007344,7.5562069 C54.007344,7.10339138 54.3748664,6.73585431 54.8282681,6.73585431 C55.2810836,6.73585431 55.6486207,7.10337672 55.6486207,7.5562069" id="Path"></path>
            <path d="M37.5934483,7.5562069 C37.5934483,8.00960862 37.2259259,8.37713103 36.7730957,8.37713103 C36.319694,8.37713103 35.9521716,8.00960862 35.9521716,7.5562069 C35.9521716,7.10339138 36.319694,6.73585431 36.7730957,6.73585431 C37.2259112,6.73585431 37.5934483,7.10337672 37.5934483,7.5562069" id="Path"></path>
            <path d="M31.9306897,7.5562069 C31.9306897,8.00960862 31.5631672,8.37713103 31.1103371,8.37713103 C30.6569353,8.37713103 30.2894129,8.00960862 30.2894129,7.5562069 C30.2894129,7.10339138 30.6569353,6.73585431 31.1103371,6.73585431 C31.5631526,6.73585431 31.9306897,7.10337672 31.9306897,7.5562069" id="Path"></path>
            <path d="M13.9575862,7.5562069 C13.9575862,8.00960862 13.5906353,8.37713103 13.1372336,8.37713103 C12.6838319,8.37713103 12.3163095,8.00960862 12.3163095,7.5562069 C12.3163095,7.10339138 12.6838319,6.73585431 13.1372336,6.73585431 C13.5906353,6.73585431 13.9575862,7.10337672 13.9575862,7.5562069" id="Path"></path>
            <path d="M8.29482759,7.5562069 C8.29482759,8.00960862 7.92730517,8.37713103 7.47390345,8.37713103 C7.02050172,8.37713103 6.65297931,8.00960862 6.65297931,7.5562069 C6.65297931,7.10339138 7.02050172,6.73585431 7.47390345,6.73585431 C7.92730517,6.73585431 8.29482759,7.10337672 8.29482759,7.5562069" id="Path"></path>
        </g>
        <path d="M66.332489,36.9752884 L66.332489,24.7358543 C65.8182128,22.8818261 65.2991088,21.6922512 64.775177,21.1671295 C62.6769834,19.064171 59.9983326,18.7962378 58.6596552,18.8667564 C57.9710542,18.9030305 57.1355929,18.4498961 55.8279823,18.8667564 C54.7856368,19.1990515 53.2933514,20.2823833 52.425415,21.1671295 C51.7902145,21.8146324 51.2330958,23.2777534 50.7540588,25.5564927 L50.7540588,36.9752884 L65.5936983,36.9752884 L66.332489,36.9752884 Z" id="Path-3" fill="#0968AC"></path>
        <path d="M42.5784302,36.9752884 L42.5784302,24.7358543 C42.064154,22.8818261 41.54505,21.6922512 41.0211182,21.1671295 C38.9229245,19.064171 36.2442737,18.7962378 34.9055963,18.8667564 C34.2169954,18.9030305 33.3815341,18.4498961 32.0739235,18.8667564 C31.031578,19.1990515 29.5392926,20.2823833 28.6713562,21.1671295 C28.0361557,21.8146324 27.4790369,23.2777534 27,25.5564927 L27,36.9752884 L41.8396394,36.9752884 L42.5784302,36.9752884 Z" id="Path-3-Copy" fill="#0968AC"></path>
    </g>
</svg>