<?xml version="1.0" encoding="UTF-8"?>
<svg width="70px" height="70px" viewBox="0 0 70 70" version="1.1" xmlns="http://www.w3.org/2000/svg" xmlns:xlink="http://www.w3.org/1999/xlink">
    <!-- Generator: Sketch 57.1 (83088) - https://sketch.com -->
    <title>Offer Management</title>
    <desc>Created with Sketch.</desc>
    <g id="Offer-Management" stroke="none" stroke-width="1" fill="none" fill-rule="evenodd">
        <g id="Offer_management" transform="translate(6.000000, 6.000000)" fill="#0968AC" fill-rule="nonzero">
            <path d="M32,34 C32,35.1025888 32.8969156,36 33.9996805,36 C35.1024454,36 36,35.1025887 36,34 C36,32.8974113 35.1024452,32 33.9996805,32 C32.8969157,32 32,32.8974113 32,34 Z" id="Path"></path>
            <path d="M25.4139639,25.4150552 C25.7916601,25.0372384 26,24.534761 26,24.0003196 C26,23.4665176 25.7916601,22.9640403 25.4139639,22.5868627 C25.0362679,22.2084066 24.533951,22 24.0003196,22 C23.466049,22 22.9637323,22.2084066 22.5860361,22.5862234 C22.5860361,22.5862234 22.5860361,22.5862234 22.5860361,22.5868627 C22.20834,22.9640403 22,23.4665176 22,24.0003196 C22,24.534761 22.20834,25.0372384 22.5860361,25.4150552 C23.3657133,26.1949816 24.6342867,26.1949816 25.4139639,25.4150552 Z" id="Path"></path>
            <path d="M29,47 C38.925,47 47,38.9251336 47,29.0002977 C47,19.0748666 38.925,11 29,11 C19.075,11 11,19.0748665 11,29.0002977 C11,38.9251335 19.075,47 29,47 Z M38.2458334,33.945454 C38.2458334,36.3168434 36.3166668,38.2459781 33.9452382,38.2459781 C31.5744049,38.2459781 29.6452382,36.3168433 29.6452382,33.945454 C29.6452382,31.5740646 31.5744047,29.6449299 33.9452382,29.6449299 C36.3166667,29.6449299 38.2458334,31.5740646 38.2458334,33.945454 Z M34.3904762,21.8861296 C34.8666667,21.409947 35.6380952,21.409947 36.1142857,21.8861296 C36.5904762,22.3623121 36.5904762,23.133728 36.1142857,23.6099106 L23.6095238,36.1138705 C23.3714286,36.3519618 23.0595238,36.4710075 22.747619,36.4710075 C22.4357142,36.4710075 22.1238094,36.3519618 21.8857142,36.1138705 C21.4095237,35.6376879 21.4095237,34.8662721 21.8857142,34.3900895 L34.3904762,21.8861296 Z M21.0136906,21.0141203 L21.0136906,21.013525 C22.6386906,19.3897423 25.4708334,19.3891471 27.0958334,21.0141203 C27.9077381,21.8260116 28.3553571,22.9057556 28.3553571,24.0545461 C28.3553571,25.2033366 27.9077381,26.2830807 27.0952381,27.0955673 C26.2571429,27.9336486 25.1559524,28.3526894 24.0547619,28.3526894 C22.9535715,28.3526894 21.852381,27.9342439 21.0136906,27.0961626 C20.2011906,26.2830807 19.7535715,25.2033366 19.7535715,24.0545461 C19.7535715,22.9057556 20.2011906,21.8260116 21.0136906,21.0141203 Z" id="Shape"></path>
            <path d="M2.24748235,35.9116312 C2.23538718,35.9479167 2.22336583,35.9721069 2.21127066,36.0083186 C1.08752948,38.7270686 2.39247644,41.8687794 5.11122643,42.9925206 C5.13541667,43.0046159 5.15960702,43.0166371 5.1958186,43.0287324 C6.24706267,43.5 6.92372643,44.5512441 6.92372643,45.7233659 C6.92372643,47.1491904 7.47958635,48.4904226 8.49461873,49.5053812 C9.50957741,50.5204138 10.8508098,51.0762735 12.2766341,51.0762735 C13.4487558,51.0762735 14.5,51.7529373 14.9712676,52.8041814 C14.9833629,52.8403931 14.9953841,52.8645833 15.0074794,52.8887735 C16.1433156,55.6075235 19.2729314,56.9124706 21.9916814,55.8008244 C22.0157979,55.7887293 22.0520833,55.7646127 22.0762735,55.7525176 C23.2725117,55.3175352 24.4204431,55.63164 25.2058156,56.4170862 C26.2087529,57.44414 27.5620804,58 29,58 C30.4379196,58 31.7912471,57.44414 32.7941843,56.4291814 C33.6158421,55.6075235 34.8241755,55.341652 35.9116312,55.7525176 C35.9358215,55.7646129 35.9721069,55.7766341 36.0083186,55.8008244 C38.7270686,56.9124704 41.8687794,55.6075235 42.9925206,52.8887735 C43.0046159,52.8645833 43.0166371,52.8403929 43.0287324,52.8041814 C43.5,51.7529373 44.5512441,51.0762735 45.7233659,51.0762735 C47.1491904,51.0762735 48.4904226,50.5204137 49.5053812,49.5053812 C50.5204138,48.4904226 51.0762735,47.1491902 51.0762735,45.7233659 C51.0762735,44.5633392 51.7408421,43.5120951 52.7799911,43.0408275 C52.8282978,43.0287324 52.8645832,43.0166373 52.9008687,42.9925207 C55.6196187,41.8566846 56.9245656,38.7270687 55.7887293,35.9721071 C55.6316399,35.5975265 55.5591429,35.2349677 55.5591429,34.8603873 C55.5591429,34.0871101 55.8612264,33.3499707 56.4291813,32.7941846 L56.4291813,32.7820893 C57.44414,31.7550354 58,30.4137294 58,29 C58,27.5862706 57.44414,26.2449646 56.4291814,25.2058157 C55.5833333,24.3720627 55.3416519,23.1154226 55.8008245,21.9916814 C56.9245657,19.2729314 55.6196188,16.1433156 52.9008688,15.0074794 C52.8645833,14.9833629 52.8282979,14.9712676 52.7920862,14.9591726 C51.7408421,14.487905 51.0762735,13.4487559 51.0762735,12.2766342 C51.0762735,10.8508098 50.5204137,9.50957753 49.5053812,8.49461885 C48.4904226,7.47958635 47.1491902,6.92372655 45.7233659,6.92372655 C44.5633392,6.92372655 43.5120952,6.25915797 43.0408275,5.22000907 C43.0287324,5.18372365 43.0166373,5.1354169 42.9925207,5.0991315 C41.8566846,2.3803815 38.7270687,1.07543455 35.9721071,2.2112709 C34.8241756,2.69456002 33.6158423,2.40457173 32.7941844,1.582914 C31.7912471,0.555859917 30.4500147,0 29,0 C27.5499853,0 26.2087529,0.555859917 25.2058157,1.5708186 C24.3720627,2.41666667 23.1154226,2.65834808 22.1124853,2.24748235 C22.0762735,2.23538718 22.0278931,2.21127066 21.9916814,2.1991756 C19.2729314,1.07543443 16.1312206,2.38038138 15.0074794,5.09913138 C14.9833629,5.13541679 14.9712676,5.1717022 14.9591726,5.20791389 C14.487905,6.25915797 13.4487559,6.92372655 12.2766342,6.92372655 C10.8508098,6.92372655 9.50957753,7.47958648 8.49461885,8.49461885 C7.47958635,9.50957753 6.92372655,10.8508099 6.92372655,12.2766342 C6.92372655,13.4487559 6.2470628,14.5 5.19581872,14.9712677 C5.15960702,14.983363 5.13541679,14.9953842 5.11122655,15.0074795 C2.39247655,16.1433157 1.0875296,19.2729315 2.21127078,21.9916815 C2.21127078,22.0157981 2.2353873,22.0520834 2.24748248,22.0762736 C2.3803815,22.4387589 2.44085714,22.777054 2.44085714,23.1154227 C2.44085714,23.9128902 2.1387738,24.6500296 1.57081883,25.2179109 C0.555859917,26.2449646 0,27.5862706 0,29 C0,30.4137294 0.555859917,31.7550354 1.5708186,32.7941843 C2.39247644,33.6158421 2.65834808,34.8241755 2.24748235,35.9116312 Z M29,8.73622643 C40.1649882,8.73622643 49.2637735,17.8350118 49.2637735,29 C49.2637735,40.1770833 40.1649882,49.2637735 29,49.2637735 C17.8350118,49.2637735 8.73622643,40.1770833 8.73622643,29 C8.73622643,17.8350118 17.8350118,8.73622643 29,8.73622643 Z" id="Shape"></path>
        </g>
    </g>
</svg>