<?xml version="1.0" encoding="UTF-8"?>
<svg width="70px" height="70px" viewBox="0 0 70 70" version="1.1" xmlns="http://www.w3.org/2000/svg" xmlns:xlink="http://www.w3.org/1999/xlink">
    <!-- Generator: Sketch 57.1 (83088) - https://sketch.com -->
    <title>Discounts and Coupons</title>
    <desc>Created with Sketch.</desc>
    <g id="Discounts-and-Coupons" stroke="none" stroke-width="1" fill="none" fill-rule="evenodd">
        <g id="noun-discount-coupon-2606375" transform="translate(5.000000, 17.000000)" fill="#0968AC" fill-rule="nonzero">
            <path d="M58.9792,0.0224 L19.69072,0.0224 C19.69072,2.104928 18.009824,3.785824 15.927296,3.785824 C13.845216,3.785824 12.163872,2.104928 12.163872,0.0224 L1.275792,0.0224 C0.5858496,0.0224 0.021504,0.5867792 0.021504,1.276688 L0.021504,33.891088 C0.021504,34.5810304 0.5858832,35.145376 1.275792,35.145376 L12.163872,35.145376 C12.163872,33.075616 13.844768,31.381952 15.927296,31.381952 C18.009376,31.381952 19.69072,33.075504 19.69072,35.145376 L58.9792,35.1458135 C59.6691424,35.1458135 60.233488,34.5814343 60.233488,33.8915255 L60.233488,1.27712547 C60.233488,0.587183072 59.6691088,0.022837472 58.9792,0.022837472 L58.9792,0.0224 Z M15.92752,27.6192 C14.54768,27.6192 13.418944,26.490464 13.418944,25.110624 C13.418944,23.730784 14.548128,22.602048 15.92752,22.602048 C17.30736,22.602048 18.4360961,23.731232 18.4360961,25.110624 C18.4365336,26.490016 17.30736,27.6192 15.92752,27.6192 Z M15.92752,20.092464 C14.54768,20.092464 13.418944,18.963728 13.418944,17.583888 C13.418944,16.204048 14.548128,15.075312 15.92752,15.075312 C17.30736,15.075312 18.4360961,16.204496 18.4360961,17.583888 C18.4365336,18.963728 17.30736,20.092464 15.92752,20.092464 Z M15.92752,12.566176 C14.54768,12.566176 13.418944,11.43744 13.418944,10.0576 C13.418944,8.67776 14.548128,7.549024 15.92752,7.549024 C17.30736,7.549024 18.4360961,8.678208 18.4360961,10.0576 C18.4365336,11.43744 17.30736,12.566176 15.92752,12.566176 Z M32.34784,9.743888 C33.8156,8.263808 36.198736,8.263808 37.666496,9.743888 C39.134256,11.211648 39.134256,13.594784 37.666496,15.062544 C36.198736,16.530304 33.8156,16.530304 32.34784,15.062544 C30.88008,13.594784 30.88008,11.211648 32.34784,9.743888 Z M32.2095872,25.561648 C31.7204608,25.0725216 31.7204608,24.281936 32.2095872,23.792832 L46.3966272,9.605792 C46.8857536,9.1166656 47.6885472,9.1166656 48.1780992,9.605792 C48.6672256,10.0949184 48.6672256,10.885504 48.1780992,11.374608 L33.9776192,25.561648 C33.495056,26.0695904 32.6781952,26.0555904 32.2088032,25.561648 L32.2095872,25.561648 Z M48.0407872,25.4233952 C46.5730272,26.9034752 44.1898912,26.9034752 42.7093632,25.4233952 C41.2416032,23.9556352 41.2416032,21.5724992 42.7093632,20.1047392 C44.1894432,18.6369792 46.5729152,18.6369792 48.0407872,20.1047392 C49.5082112,21.5724992 49.5082112,23.9556352 48.0407872,25.4233952 Z" id="Shape"></path>
        </g>
    </g>
</svg>