<?xml version="1.0" encoding="UTF-8"?>
<svg width="70px" height="70px" viewBox="0 0 70 70" version="1.1" xmlns="http://www.w3.org/2000/svg" xmlns:xlink="http://www.w3.org/1999/xlink">
    <!-- Generator: Sketch 57.1 (83088) - https://sketch.com -->
    <title>Loyalty_Management</title>
    <desc>Created with Sketch.</desc>
    <g id="Loyalty_Management" stroke="none" stroke-width="1" fill="none" fill-rule="evenodd">
        <g id="Review_management">
            <path d="M0,0 L70,0 L70,70 L0,70 L0,0 Z M44.7854166,18.7104166 L39.6229166,13.5479166 C39.0541666,12.9791666 38.1354166,12.9791666 37.5666666,13.5479166 L17.5,33.6145834 L17.5,40.8333334 L24.71875,40.8333334 L44.7854166,20.7666666 C45.3541666,20.1979166 45.3541666,19.2791666 44.7854166,18.7104166 Z" id="Shape"></path>
        </g>
        <g id="noun-points-3883703" transform="translate(2.000000, 6.000000)" fill="#0968AC" fill-rule="nonzero">
            <path d="M34.84,48.5271429 L27.4346109,43.3080695 C26.8703374,42.9553372 26.1653891,42.8849872 25.6010526,43.1668784 C25.0367791,43.4487695 24.6137094,44.0838716 24.6137094,44.7184573 L24.6137094,47.750837 L18.1956887,47.750837 C16.6441098,47.750837 15.374888,46.4816152 15.374888,44.9300363 L15.374396,29.8374047 C14.6689314,29.9077534 13.9639957,29.9785959 13.1882062,29.9785959 C12.4827415,29.9785959 11.7069017,29.9082471 11.0020163,29.8374047 L11.0020163,45.0005626 C11.0020163,48.9499103 14.2464788,52.1943727 18.1958265,52.1943727 L24.6138472,52.1943727 L24.6138472,55.2267524 C24.6138472,55.8613759 24.9665795,56.4959742 25.6011904,56.7783314 C25.8830816,56.9195226 26.1654639,56.9898726 26.4473551,56.9898726 C26.8000874,56.9898726 27.1528197,56.8486814 27.5050483,56.6371402 L34.9104374,51.4180669 C35.4043609,51.0653346 35.6862521,50.5719023 35.6862521,49.9367624 C35.6862521,49.3026301 35.3335197,48.8795603 34.8400874,48.5268658 L34.84,48.5271429 Z" id="Path"></path>
            <path d="M26.4473684,13.1934586 C26.4473684,5.85897368 20.5232838,0.00503759398 13.2589474,0.00503759398 C5.92446241,0.00503759398 0.0705263158,5.92912218 0.0705263158,13.1934586 C0.0705263158,20.5279436 5.9946109,26.3818797 13.2589474,26.3818797 C20.5232838,26.3818797 26.4473684,20.4577951 26.4473684,13.1934586 Z M9.73263158,19.6818797 C8.95681692,20.104962 8.03987406,19.4703385 8.18105263,18.5533453 L8.88651729,14.9566291 C8.95686603,14.745088 8.88651729,14.5335468 8.67497613,14.3923556 L5.99485019,11.9236827 C5.36022669,11.3594092 5.71295902,10.2309252 6.55912368,10.1605248 L10.226618,9.73744248 C10.4381592,9.73744248 10.6497004,9.59625132 10.7205415,9.38471015 L12.2721205,5.99957293 C12.6248528,5.22375827 13.753425,5.22375827 14.176457,5.99957293 L15.7280359,9.38471015 C15.7983846,9.59625132 16.0099271,9.73744248 16.2219594,9.73744248 L19.8894538,10.1605248 C20.7356184,10.2308736 21.1586756,11.3594092 20.4537273,11.9236827 L17.7032009,14.3923556 C17.5620098,14.5335468 17.4916598,14.745088 17.4916598,14.9566291 L18.1971244,18.5533453 C18.4086656,19.39951 17.4213098,20.1049242 16.6455455,19.6818797 L13.4719872,17.8483214 C13.2604461,17.7071303 13.0489049,17.7071303 12.8373637,17.8483214 L9.73263158,19.6818797 Z" id="Shape"></path>
            <path d="M39.5652632,57.483985 C39.5652632,58.1894496 40.1295367,58.7532068 40.834485,58.7532068 L50.9904004,58.7532068 L50.9904004,44.1542594 L39.5652632,44.1542594 L39.5652632,57.483985 Z" id="Path"></path>
            <path d="M53.3178947,58.6829323 L63.4738102,58.6829323 C64.1792748,58.6829323 64.743032,58.1186588 64.743032,57.4137105 L64.743032,44.1547632 L53.3178947,44.1547632 L53.3178947,58.6829323 Z" id="Path"></path>
            <path d="M65.7305263,37.2429323 L59.6652632,37.2429323 C60.4410778,37.0313912 61.1465677,36.5374677 61.64,35.9028064 C62.4158147,34.9154632 62.6976932,33.6457124 62.3454647,32.446891 C61.9927323,31.106765 61.0053387,30.0491222 59.6653387,29.6260902 C58.3253387,29.2030583 56.9148124,29.4848991 55.8571695,30.4019049 L52.1192748,33.5754632 L48.3813801,30.4019049 C47.3236868,29.4849117 45.9127071,29.2030205 44.5732109,29.6260902 C43.233085,30.0491726 42.2458425,31.1073947 41.893085,32.446891 C41.6111938,33.6457754 41.8227362,34.9155639 42.5985496,35.9028064 C43.0924731,36.5374299 43.797434,37.0313408 44.5732865,37.2429323 L38.5080233,37.2429323 C37.8025586,37.2429323 37.2388015,37.8072058 37.2388015,38.5121541 L37.2388015,40.5571654 C37.2388015,41.2626301 37.803075,41.8263872 38.5080233,41.8263872 L50.9205289,41.8263872 L50.9205289,37.4538816 L53.2478974,37.4538816 L53.2478974,41.8263872 L65.660403,41.8263872 C66.3658677,41.8263872 66.9296248,41.2621137 66.9296248,40.5571654 L66.9296248,38.5126579 C66.9999736,37.8071932 66.4357013,37.2429323 65.7307404,37.2429323 L65.7305263,37.2429323 Z M45.7715789,34.9155639 C45.2776555,34.9155639 44.8545857,34.7040227 44.5726945,34.3512904 C44.2908034,33.9985581 44.2199622,33.5051258 44.2908034,33.0820686 C44.4319945,32.5881451 44.7847269,32.1650754 45.2781466,32.0243754 C45.4193378,31.9540266 45.5600378,31.9540266 45.7012289,31.9540266 C46.0539613,31.9540266 46.4066936,32.0952178 46.6182222,32.306759 L49.6506019,34.9161067 L45.7715789,34.9155639 Z M58.5368421,34.9155639 L54.5165902,34.9155639 L57.5489699,32.3062162 C57.9720523,31.9534838 58.4659632,31.8831338 58.9593703,32.024325 C59.4532938,32.1655162 59.805535,32.5885985 59.9467135,33.0820182 C60.0879047,33.5051006 59.9467135,33.9990115 59.6648224,34.35124 C59.3829312,34.7039724 58.9598489,34.9155135 58.5367791,34.9155135 L58.5368421,34.9155639 Z" id="Shape"></path>
            <path d="M31.1726316,14.6745113 L38.5780207,19.8935846 C38.8599118,20.1051258 39.2126442,20.2463169 39.6357139,20.2463169 C39.9176051,20.2463169 40.1999874,20.1759682 40.4818786,20.0347758 C41.0461521,19.7528846 41.4692218,19.1177825 41.4692218,18.4831968 L41.4692218,15.4508171 L47.1817274,15.4508171 C48.7333064,15.4508171 50.0734323,16.7200389 50.0734323,18.342522 L50.0734323,26.5237006 C50.0734323,27.722585 51.0607756,28.7098904 52.2596222,28.7098904 C53.4584688,28.7098904 54.445812,27.7225472 54.445812,26.5237006 L54.446304,18.2008397 C54.446304,14.2514919 51.2018415,11.0070295 47.2524938,11.0070295 L41.5399882,11.0070295 L41.5399882,7.97464981 C41.5399882,7.34002632 41.1872558,6.70542801 40.5526449,6.42307086 C39.9883714,6.1411797 39.2834231,6.1411797 38.7190867,6.56426203 L31.172519,11.7125571 C30.6785955,12.0652895 30.3967043,12.5587218 30.3967043,13.1938617 C30.4675455,13.757644 30.7494367,14.3219049 31.172519,14.6746624 L31.1726316,14.6745113 Z" id="Path"></path>
        </g>
    </g>
</svg>