<?xml version="1.0" encoding="UTF-8"?>
<svg width="70px" height="70px" viewBox="0 0 70 70" version="1.1" xmlns="http://www.w3.org/2000/svg" xmlns:xlink="http://www.w3.org/1999/xlink">
    <!-- Generator: Sketch 57.1 (83088) - https://sketch.com -->
    <title>feedback_management</title>
    <desc>Created with Sketch.</desc>
    <g id="feedback_management" stroke="none" stroke-width="1" fill="none" fill-rule="evenodd">
        <g id="1587213_audit_customer-form_feedback_form_satisfaction_icon" transform="translate(2.000000, 1.000000)" fill="#0968AC" fill-rule="nonzero">
            <path d="M0.450341772,0.424050633 L0.450341772,45.3734177 L0.450341772,52.1582278 C0.450341772,56.8227848 4.26679747,60.6392405 8.93135443,60.6392405 L24.4872278,60.6392405 L26.4726329,49.4680506 L26.6227468,48.625038 L27.0875063,47.9058481 L37.6098987,31.6384177 L31.8970886,28.0848734 L41.5722278,12.5264557 C42.3253418,11.306038 43.3888608,10.3307215 44.5745063,9.69040506 C45.7618481,9.0475443 47.0738608,8.71848101 48.4138608,8.71763291 C49.6860127,8.71339241 50.9963291,9.05008861 52.1836709,9.68446835 L52.1836709,0.424050633 L0.450341772,0.424050633 Z M14.5406962,39.0855949 L7.65920253,33.9240506 L10.2035063,30.5316456 L13.4983797,33.0030127 L18.5208354,25.4710253 L22.0489367,27.8228101 L14.5406962,39.0855949 Z M14.5406962,23.8197722 L7.65920253,18.6582278 L10.2035063,15.2658228 L13.4983797,17.7371899 L18.5208354,10.2052025 L22.0489367,12.5569873 L14.5406962,23.8197722 Z" id="Shape"></path>
            <g id="Group" transform="translate(27.139241, 11.873418)">
                <path d="M35.4625063,1.43329114 C34.3243544,0.696291139 33.0462658,0.344329114 31.783443,0.344329114 C29.563962,0.344329114 27.3885823,1.43413924 26.0901392,3.43311392 L23.3058228,1.6724557 C22.6748354,1.273 21.9573418,1.08048101 21.2618987,1.08217722 C20.6343038,1.08217722 20.0177342,1.23398734 19.4605316,1.52743038 C18.9033291,1.82087342 18.4012532,2.26443038 18.0348734,2.83096203 L10.1746709,14.982557 L13.7358481,17.2851519 L21.3772405,5.47110127 L23.785,6.99174684 L3.50774684,38.3358734 L0.450341772,55.5506329 L14.9588101,45.6159747 L37.4640253,10.828557 L37.4742025,10.8141392 C39.5087975,7.66937975 38.6081139,3.46873418 35.4625063,1.43329114 Z M33.9554304,8.44624051 L30.6885443,13.4966835 L26.4158101,10.7318734 L29.6419873,5.74758228 C30.1126835,5.01991139 30.9141392,4.58483544 31.783443,4.58483544 C32.2702532,4.58483544 32.746038,4.72562025 33.1590633,4.99362025 C34.3150253,5.74249367 34.6627468,7.27586076 33.9554304,8.44624051 Z" id="Shape"></path>
                <polygon id="Path" points="18.0348734 2.83181013 18.0348734 2.83096203 18.0365696 2.82926582"></polygon>
            </g>
        </g>
    </g>
</svg>