<?xml version="1.0" encoding="UTF-8"?>
<svg width="70px" height="70px" viewBox="0 0 70 70" version="1.1" xmlns="http://www.w3.org/2000/svg" xmlns:xlink="http://www.w3.org/1999/xlink">
    <title>Stock Adjustment</title>
    <g id="Stock-Adjustment" stroke="none" stroke-width="1" fill="none" fill-rule="evenodd">
        <g id="7830819_warehouse_cart_packages_icon" transform="translate(2.000000, 5.000000)" fill="#0968AC" fill-rule="nonzero">
            <ellipse id="Oval" cx="19.5416666" cy="54.4186047" rx="5.58333334" ry="5.58139535"></ellipse>
            <ellipse id="Oval" cx="58.625" cy="54.4186047" rx="5.58333334" ry="5.58139535"></ellipse>
            <rect id="Rectangle" x="19.5416666" y="18.1395349" width="19.5416667" height="19.5348837" rx="2.78"></rect>
            <rect id="Rectangle" x="43.2708333" y="18.1395349" width="19.5416667" height="19.5348837" rx="2.78"></rect>
            <rect id="Rectangle" x="30.7083333" y="0" width="22.3333334" height="13.9534884" rx="2.78"></rect>
            <path d="M64.2083333,41.8604651 L15.3541666,41.8604651 L15.3541666,8.37209302 C15.3541666,8.33302326 15.3318333,8.29674419 15.3290416,8.25767442 C15.32625,8.21860465 15.3541666,8.18232558 15.3541666,8.14046512 C15.3510913,5.95777468 13.5818233,4.18912073 11.398375,4.18604651 L2.79166661,4.18604651 C1.24987171,4.18604651 0,5.43548444 0,6.97674419 C0,8.51800393 1.24987171,9.76744183 2.79166661,9.76744186 L9.77083328,9.76744186 L9.77083328,41.8604651 C9.77083328,44.9429847 12.2705768,47.4418605 15.3541666,47.4418605 L64.2083333,47.4418605 C65.7501283,47.4418605 67,46.1924226 67,44.6511628 C67,43.109903 65.7501283,41.8604651 64.2083333,41.8604651 Z" id="Path"></path>
        </g>
    </g>
</svg>