<?xml version="1.0" encoding="UTF-8"?>
<svg width="70px" height="70px" viewBox="0 0 70 70" version="1.1" xmlns="http://www.w3.org/2000/svg" xmlns:xlink="http://www.w3.org/1999/xlink">
    <title>Waste Management</title>
    <g id="Waste-Management" stroke="none" stroke-width="1" fill="none" fill-rule="evenodd">
        <g id="3189292_ecology_environment_recycling_reuse_waste_icon" transform="translate(-8.000000, -9.000000)">
            <g id="box">
                <rect id="Rectangle" x="0" y="0" width="87" height="87"></rect>
            </g>
            <g id="icon" transform="translate(10.802404, 11.006534)" fill="#0968AC" fill-rule="nonzero">
                <path d="M62.6306258,24.1530203 L58.4404883,25.0230203 C55.8432664,13.283186 46.4013196,4.19386095 34.3359149,2.20414377 L30.9482164,13.4805672 C38.7250649,14.0622438 45.2931571,19.6074063 47.0675493,27.3841188 L42.8931805,28.2508563 C41.1333336,28.6159844 40.4603071,30.7754875 41.6939399,32.0769531 C41.9227227,32.3183781 54.8787899,46.0166641 55.1423727,46.2194828 C55.1520243,46.2268235 55.1614039,46.2343 55.1710555,46.2417766 C56.4171946,47.1710453 58.1773133,46.6181875 58.697818,45.1889406 C63.7972414,31.1853391 60.8331243,39.3258203 65.2538118,27.1853781 C65.8682493,25.4975781 64.3868024,23.7874844 62.6306258,24.1530203 Z M16.6227149,18.9561297 L19.5090758,22.1925297 C20.7024711,23.5305625 22.9098243,23.0439063 23.4223086,21.3179078 C23.7545399,20.1987344 22.6868868,23.7950969 28.8743539,2.94962502 C29.3502711,1.34501877 27.9775743,-0.263121859 26.2759086,0.0362125165 C18.793093,1.35439845 18.1128618,1.47429533 7.40628831,3.3602922 C5.63665394,3.67186095 4.89796956,5.80975002 6.09150081,7.14819064 L8.87998675,10.2746172 C0.802988315,18.2175813 -2.21903825,30.2456031 1.71322581,41.2845438 L13.1257227,38.5910781 C10.1999399,31.8714156 11.619943,24.1844219 16.6227149,18.9561297 Z M24.419818,48.5951266 L25.8478414,44.2693235 C26.4114383,42.5633078 24.8780633,40.9003844 23.1341211,41.3179844 C21.2479883,41.7697047 6.39708831,45.3266453 4.50062425,45.7808125 C2.86216956,46.1729922 2.17228675,48.1704578 3.27677894,49.4875563 C13.3891696,61.5427656 5.52627269,52.1696031 15.5901336,64.1667672 C16.742068,65.5401438 18.9632868,65.1214563 19.5278352,63.4113625 L20.7840336,59.6067438 C32.1492243,63.1566156 44.5631727,59.5174328 52.1813821,50.438575 L44.1280368,41.8862031 C39.5924821,48.1934313 31.6209711,50.7328797 24.419818,48.5951266 Z" id="Shape"></path>
            </g>
        </g>
    </g>
</svg>