<?xml version="1.0" encoding="UTF-8"?>
<svg width="70px" height="70px" viewBox="0 0 70 70" version="1.1" xmlns="http://www.w3.org/2000/svg" xmlns:xlink="http://www.w3.org/1999/xlink">
    <title>Canteen Management </title>
    <g id="Canteen-Management-" stroke="none" stroke-width="1" fill="none" fill-rule="evenodd">
        <g id="5115591_chef_cooking_dish_food_menu_icon" transform="translate(3.000000, 1.000000)" fill="#0968AC" fill-rule="nonzero">
            <path d="M5.64216246,31.7222723 L58.1789265,31.7222723 C58.4303829,31.7222723 58.6713088,31.6217155 58.8475625,31.4430941 C59.0238162,31.2644727 59.1206136,31.0228068 59.1163466,30.7724047 C58.6186808,17.1065335 47.9662386,5.95610983 34.2866204,4.78208738 C35.0227921,4.35290263 35.4925369,3.58341686 35.5363212,2.73496093 C35.5363212,1.22827587 33.891978,0 31.8694359,0 C29.8468938,0 28.2025507,1.26102989 28.2025507,2.73496093 C28.2463349,3.58341686 28.7160797,4.35290263 29.4522515,4.78208738 C15.8169795,5.99337777 5.21389997,17.1149704 4.70488685,30.7396507 C4.69134086,30.9956249 4.78407623,31.2458844 4.96133906,31.4317231 C5.13860189,31.6175619 5.38479361,31.7226267 5.64216246,31.7222723 L5.64216246,31.7222723 Z M13.7816611,21.7978024 C16.5221019,16.1761218 21.717863,12.1318185 27.8572386,10.8415817 C28.6088887,10.6338348 29.4138394,10.8677572 29.9353685,11.4454959 C30.4568975,12.0232346 30.6051169,12.8452136 30.3180245,13.5675875 C30.030932,14.2899614 29.3580093,14.7882258 28.5807496,14.8539495 C23.6912381,15.8773132 19.5549036,19.1016318 17.3827726,23.5828967 C17.0356436,24.2885277 16.3136125,24.7339969 15.5246649,24.7293244 C15.2180686,24.726976 14.9154426,24.6599974 14.6367196,24.5327633 C13.6521094,24.0045937 13.272167,22.7893229 13.7816611,21.7978024 Z M52.2592911,47.9027588 C52.8545237,48.6220609 53.1311116,49.5511873 53.025718,50.4773745 C52.9203244,51.4035616 52.4419772,52.2474743 51.7002145,52.8158623 L39.8938305,62.1180049 C38.4165006,63.2832504 36.5820879,63.9076692 34.6977062,63.8867221 L31.5898976,63.8867221 L18.7146906,63.690198 C18.5104713,63.6790343 18.3199995,63.5841831 18.1885008,63.4281658 L8.84863163,51.7186025 C8.73076718,51.5770365 8.67636138,51.3935183 8.6981165,51.2108945 C8.71987161,51.0282706 8.81588337,50.8625265 8.96373565,50.7523588 L13.7816611,47.0184002 C15.2325281,45.8742621 17.0285292,45.2510859 18.8791249,45.249683 L35.1581222,45.249683 C36.8745175,45.249683 38.2659308,46.6354759 38.2659308,48.3449381 C38.2659308,50.0544004 36.8745175,51.4401933 35.1581222,51.4401933 L29.2549303,51.4401933 C28.1197482,51.4401933 27.1995013,52.3567231 27.1995013,53.4873198 C27.1995013,54.6179165 28.1197482,55.5344462 29.2549303,55.5344462 L35.9145201,55.5344462 C36.5118145,55.518005 37.088103,55.3113791 37.5588633,54.9448738 L47.3098182,47.3295634 C48.032985,46.7585995 48.9547427,46.4980944 49.8712332,46.6056621 C50.7877236,46.7132298 51.6234271,47.1800065 52.1935174,47.9027588 L52.2592911,47.9027588 Z M63.9999512,38.289453 C64.0042797,39.0089562 63.7203632,39.7004879 63.2110705,40.2107975 C62.7017778,40.7211072 62.0091696,41.008037 61.2867351,41.008037 L2.51791045,41.008037 C1.09678909,40.8979332 0,39.7172986 0,38.2976415 C0,36.8779845 1.09678909,35.6973499 2.51791045,35.5872461 L61.2209614,35.5872461 C62.7194017,35.5872461 63.9341276,36.7970654 63.9341276,38.289453 L63.9999512,38.289453 Z M15.0971356,65.131375 C15.3769674,65.4846025 15.3182243,65.9965284 14.9655882,66.2777658 L13.0088198,67.8172049 C12.8401629,67.9554118 12.6223974,68.0195062 12.405403,67.994807 C12.1884087,67.9701078 11.9907783,67.8587314 11.8577796,67.6861888 L2.94543967,56.5006899 C2.66560791,56.1474624 2.72435101,55.6355365 3.07698712,55.3542991 L5.03375549,53.81486 C5.20241239,53.6766531 5.42017795,53.6125587 5.63717229,53.6372579 C5.85416663,53.6619571 6.05179706,53.7733335 6.1847957,53.9458761 L15.0971356,65.131375 Z" id="Shape"></path>
        </g>
    </g>
</svg>