<?xml version="1.0" encoding="UTF-8"?>
<svg width="70px" height="70px" viewBox="0 0 70 70" version="1.1" xmlns="http://www.w3.org/2000/svg" xmlns:xlink="http://www.w3.org/1999/xlink">
    <title>Product Management </title>
    <g id="Product-Management-" stroke="none" stroke-width="1" fill="none" fill-rule="evenodd">
        <path d="M59.4332223,25.354187 C60.4361304,25.354187 61.3099512,24.9251709 61.9692887,24.284668 C62.6047947,23.644165 63,22.7357787 63,21.7468261 C63,20.7316893 62.6047947,19.8494871 61.9692887,19.1807861 C61.3099512,18.5402833 60.4361304,18.1394653 59.4332223,18.1394653 L59.3001632,18.1394653 L59.1690901,18.1394653 C58.6666431,18.1918334 58.217817,17.7910156 58.1900136,17.2834472 C58.1641962,17.1243286 58.1900136,16.9893798 58.2436344,16.8564451 C58.2972553,16.6691282 58.3488901,16.4818114 58.3766936,16.2683102 C58.402511,16.0809934 58.4283284,15.8674924 58.4283284,15.6278073 C58.4283284,14.4515377 57.9516988,13.3820187 57.1871055,12.6347652 C56.4463438,11.8593135 55.3898148,11.3779293 54.2260444,11.3779293 C54.0155331,11.3779293 53.8030357,11.4061276 53.6183418,11.4323116 C53.4078304,11.4584957 53.1953331,11.512878 53.0106391,11.5652461 C52.5081922,11.726379 52.0057452,11.4323116 51.8488545,10.9509272 C51.7952337,10.7636103 51.7952337,10.6044916 51.8488545,10.4433588 C51.9004894,10.2298578 51.9263068,10.068725 51.9541102,9.88140815 C51.9799276,9.72228957 51.9799276,9.5349725 51.9799276,9.32147157 C51.9799276,8.14520204 51.5311015,7.07769721 50.7645222,6.32842953 C49.9979432,5.55297862 48.9672319,5.07360845 47.8054473,5.07360845 C47.1183064,5.07360845 46.4569829,5.26092532 45.8750975,5.55297862 C45.2951983,5.84704595 44.7649479,6.30224609 44.3955601,6.86218267 C44.1036244,7.29119876 43.5237252,7.36975113 43.1007163,7.07769783 C42.9676572,6.97094737 42.8624016,6.86218267 42.7849493,6.70306409 L42.7849493,6.72924815 C42.4930137,6.06256111 41.9905668,5.5006103 41.3828641,5.12597656 C40.8009789,4.75134282 40.113838,4.53784169 39.3750621,4.53784169 C38.739556,4.53784169 38.1576708,4.69897451 37.6294065,4.96484375 C37.0753247,5.23272702 36.6245125,5.65972908 36.2829279,6.16729734 C35.9651749,6.59631342 35.3832897,6.6748658 34.9880842,6.3828125 C34.7497694,6.22167969 34.6167103,6.00817876 34.5908929,5.74029549 C34.4320164,4.67279066 33.903752,3.73620611 33.1371727,3.06951907 C32.3705937,2.40081779 31.3935031,2 30.3091709,2 C29.119583,2 28.0372367,2.4813842 27.2428541,3.28301999 C26.4504573,4.08465579 25.9758138,5.18035891 25.9758138,6.3828125 L25.9758138,6.51574702 L25.9758138,6.67486559 C26.0274486,7.18444809 25.6322434,7.6376342 25.103979,7.66381826 C24.8914817,7.69201655 24.6531669,7.61145014 24.4962764,7.47851542 C24.1527059,7.26501449 23.7813321,7.07769762 23.3861268,6.94274887 C23.0147529,6.83599841 22.5917442,6.755432 22.1429181,6.755432 C20.9811335,6.755432 19.9504222,7.2368162 19.183843,8.01226794 C18.4430809,8.75952159 17.9684374,9.82904045 17.9684374,11.00531 L17.9684374,11.1382445 L17.9684374,11.2993773 C17.9942548,11.8069458 17.6248669,12.2601317 17.0966026,12.28833 C16.8304843,12.3145142 16.5663522,12.2077638 16.3816582,12.0204467 C16.117526,11.8069458 15.8017588,11.6196289 15.4581884,11.4866944 C15.1126319,11.3517456 14.7432441,11.2993775 14.3480388,11.2993775 C13.4484006,11.2993775 12.6560038,11.6458132 12.0741186,12.2339478 C11.4922334,12.8220825 11.1228455,13.6499023 11.1228455,14.5321045 C11.1228455,14.7717895 11.1486629,14.9591066 11.1764664,15.1726075 C11.2281012,15.3861084 11.281722,15.5734253 11.3611603,15.7607422 C11.5458542,16.2421264 11.3075394,16.7758789 10.8328959,16.9631958 C10.7534575,17.0175781 10.6740192,17.0175781 10.5945809,17.0437622 C9.58968702,17.1766967 8.6662174,17.6842652 8.03071133,18.4073486 C7.39719129,19.154602 7,20.1173706 7,21.1848755 C7,22.3349609 7.47662955,23.3762817 8.21540546,24.1255494 C8.95616719,24.8728028 9.98687872,25.354187 11.1228457,25.354187 L28.6449393,25.354187 L41.3828641,25.354187 L59.4332223,25.354187 Z M18.3120078,68 L27.7194837,68 L27.7194837,55.3329467 C27.6658628,55.2805786 27.614228,55.2261962 27.5347897,55.1738281 C25.6322434,53.2221069 24.4426555,50.5513306 24.4426555,47.6106567 C24.4426555,44.645813 25.6322434,41.9730225 27.5347897,40.0494995 C27.614228,39.9971314 27.6658628,39.9427491 27.7194837,39.8621827 L27.7194837,27.2233277 L12.2071777,27.2233277 L18.3120078,68 Z M29.3062628,54.2372436 C30.8116178,55.5746459 32.8194199,56.4024658 35.0139016,56.4024658 C37.2063976,56.4024658 39.2161856,55.5746459 40.7473579,54.2372436 L40.7731753,54.1848755 C40.9062344,54.078125 41.0392935,53.9431762 41.1723526,53.8384398 C42.7571459,52.2331542 43.708419,50.043762 43.708419,47.6106565 C43.708419,45.1795653 42.7571459,42.9901731 41.1723526,41.3848874 C41.0392935,41.2519529 40.9062344,41.1452025 40.7731753,41.0122677 L40.7473579,40.9860837 C39.2161854,39.6224973 37.2063976,38.8208615 35.0139016,38.8208615 C32.8194197,38.8208615 30.8116176,39.6224973 29.3062628,40.9860837 L29.2526419,41.0122677 C29.1195828,41.1452022 28.9885098,41.2519527 28.8554507,41.3848874 C27.2964748,42.9901731 26.3193843,45.1795653 26.3193843,47.6106565 C26.3193843,50.043762 27.296475,52.233154 28.8554507,53.8384398 C28.9885098,53.9431762 29.1195828,54.078125 29.2526419,54.1848755 L29.3062628,54.2372436 Z M29.5962124,68 L40.4315909,68 L40.4315909,56.7770995 C38.8448117,57.7378539 36.9958862,58.2998047 35.0139016,58.2998047 C33.031917,58.2998047 31.1810057,57.7378541 29.5962124,56.7770995 L29.5962124,68 Z M42.3083198,68 L52.24406,68 L58.3488901,27.2233277 L42.3083198,27.2233277 L42.3083198,39.8621827 C42.3599546,39.9427491 42.4393929,39.9971314 42.4930137,40.0494995 C44.3955601,41.9730225 45.5851479,44.645813 45.5851479,47.6106567 C45.5851479,50.5513306 44.3955601,53.2221069 42.4930137,55.1738281 C42.4393929,55.2261962 42.3599546,55.2805786 42.3083198,55.3329467 L42.3083198,68 Z M40.4315909,27.2233275 L29.5962124,27.2233275 L29.5962124,38.4462279 C31.1810057,37.4834593 33.031917,36.9235228 35.0139016,36.9235228 C36.9958862,36.9235228 38.8448117,37.4834595 40.4315909,38.4462279 L40.4315909,27.2233275 Z M45.7956594,21.6400756 C45.3468333,21.3721923 45.1879568,20.8102415 45.4540748,20.3570556 C45.7440244,19.8233031 45.8214768,19.1807861 45.6645862,18.6208495 C45.531527,18.085083 45.1879566,17.6036985 44.6855096,17.2834472 C44.6338748,17.2572631 44.6080574,17.231079 44.580254,17.204895 C44.0519896,16.9370117 43.4442868,16.8826294 42.9160224,17.0175781 C42.3599546,17.1505126 41.8853111,17.4969483 41.567558,18.0327148 C41.567558,18.0588989 41.5417406,18.085083 41.5139372,18.1132812 C41.4623024,18.2462158 41.4086815,18.3791505 41.3570467,18.485901 C41.3034259,18.6208497 41.2776085,18.7799683 41.249805,18.9411011 C41.249805,19.0216675 41.249805,19.1002197 41.249805,19.154602 C41.249805,19.2351684 41.249805,19.3137206 41.249805,19.394287 C41.2776085,19.9038695 40.9062346,20.3570556 40.4057734,20.411438 C39.875523,20.4638061 39.4266969,20.0629883 39.4008795,19.5554198 C39.3750621,19.4224853 39.3750621,19.2875365 39.3750621,19.1284178 C39.3750621,18.9672849 39.4008795,18.8343504 39.4008795,18.6994017 C39.4545004,18.4335324 39.5061352,18.1656492 39.5855734,17.8997801 C39.6650117,17.6318968 39.7960848,17.3901976 39.9291439,17.1505124 L39.9291439,17.1243286 C40.5110291,16.1353759 41.4086815,15.4666749 42.4393929,15.2008056 C43.4442868,14.9329223 44.5544366,15.0396728 45.5593305,15.6278077 C46.5364212,16.1877442 47.1977446,17.1243286 47.4618768,18.1394653 C47.7518264,19.154602 47.6187673,20.3026733 47.0646855,21.2916259 C46.8005534,21.7468261 46.2186681,21.9059448 45.7956594,21.6400756 Z M29.5425917,19.6621705 C29.0937656,19.4224855 28.9348891,18.8343506 29.1990213,18.3791505 C29.5962126,17.7124635 29.6756508,16.963196 29.4909569,16.2683107 C29.306263,15.5734253 28.8554509,14.9329225 28.1941274,14.5582886 L28.1424926,14.5321045 C27.4811691,14.1574708 26.7423932,14.1051025 26.0810697,14.2642213 C25.3939288,14.4515381 24.786226,14.9067383 24.3890347,15.5734253 C24.3095964,15.7607422 24.2301582,15.921875 24.1785232,16.0809936 C24.0990849,16.2683104 24.0732675,16.4556273 24.045464,16.6429442 C24.0196466,16.7496946 24.0196466,16.8564451 24.0196466,16.9108275 C24.0196466,16.9893796 24.0196466,17.0961303 24.0196466,17.2048948 C24.0732675,17.7386473 23.6760762,18.1918332 23.1736292,18.2200315 C22.6711823,18.2723998 22.2223562,17.871582 22.1687353,17.3640138 C22.1687353,17.2048952 22.1687353,17.0699464 22.1687353,16.8826296 C22.1687353,16.6973267 22.1687353,16.5361939 22.1965388,16.4032594 C22.2223562,16.1091921 22.3017944,15.8151245 22.4070501,15.4948732 C22.5123058,15.2008058 22.6195475,14.9067383 22.778424,14.638855 C23.411944,13.5169678 24.4426555,12.7677001 25.6044399,12.4474488 C26.7145895,12.1533814 27.9577984,12.2883302 29.067948,12.9026489 C29.067948,12.9026489 29.0937654,12.928833 29.1195828,12.928833 C30.2297324,13.5693359 30.9704944,14.612671 31.2862614,15.7607422 C31.578197,16.9370117 31.4451379,18.1918334 30.8116178,19.3137208 C30.5474857,19.7689209 29.9914179,19.9300538 29.5425917,19.6621705 Z" id="Shape" fill="#0968AC" fill-rule="nonzero"></path>
    </g>
</svg>