<?xml version="1.0" encoding="UTF-8"?>
<svg width="70px" height="70px" viewBox="0 0 70 70" version="1.1" xmlns="http://www.w3.org/2000/svg" xmlns:xlink="http://www.w3.org/1999/xlink">
    <title>Raw Material Management </title>
    <g id="Raw-Material-Management-" stroke="none" stroke-width="1" fill="none" fill-rule="evenodd">
        <g id="2979112_agriculture_bag_farming_flour_grain_icon" transform="translate(9.000000, 1.000000)" fill="#0968AC" fill-rule="nonzero">
            <path d="M51.5672328,62.7478553 C50.7046455,62.0757862 50.4290939,60.9525552 50.8819564,60.0058146 C54.7323813,52.0213571 51.0734153,32.9387861 49.9127426,27.4955482 C49.2973237,27.7952761 48.6419926,28.0397771 47.9539455,28.2187503 C41.0124983,30.0304123 33.8709813,30.9374118 26.7306636,30.9374118 C19.5885469,30.9374118 12.4494261,30.0304123 5.50558499,28.2187503 C4.65819662,27.9979913 3.86666603,27.6704321 3.13286666,27.2693809 C2.03022052,32.393827 -1.78815781,51.9115608 2.1133344,60.0034779 C2.57158567,60.9607385 2.28645132,62.0863061 1.4202683,62.7443501 C0.618779133,63.3544673 0.101226278,64.1971849 0.000590595325,65.0574329 C-0.00240414573,65.0831465 -0.000607566098,65.2152199 0.174307138,65.3882052 C0.431885464,65.6430049 1.35257971,66.2239079 4.12005254,66.1865057 C4.35367029,66.1830006 4.59088143,66.1818321 4.83108841,66.1818321 C7.13372182,66.1818321 9.71729561,66.3384509 12.6656738,66.5184464 C16.3616259,66.7440319 20.5499745,67 25.2325129,67 L27.7657693,67 C32.9245311,67 37.0949087,66.737017 40.7752873,66.5055897 C43.8159164,66.3139056 46.4480063,66.1491037 48.8644539,66.1865059 C51.6618801,66.2379331 52.5556169,65.6488514 52.8167908,65.3928788 C52.9964957,65.2163885 52.9988943,65.0796369 52.9978355,65.0644433 C52.8958611,64.1948482 52.3747127,63.353299 51.5672328,62.7478553 Z M28.9947325,41.4265675 C29.3316822,40.2126816 30.631408,39.405253 31.2858383,39.066877 C31.6215106,39.6130068 32.1973208,40.7265939 32.122294,41.8170963 C32.1202722,41.839597 32.1176531,41.8630469 32.1158518,41.8851092 C32.1022277,42.0296743 32.0799881,42.1738789 32.0405999,42.3158152 C31.7041787,43.5288248 30.4052018,44.336477 29.7504728,44.6750675 C29.3635805,44.0429609 28.6540426,42.6546977 28.9947325,41.4265675 Z M24.4099845,44.5717748 C24.8314702,43.0527527 26.4882097,42.0644477 27.2452964,41.6829053 C27.4680562,42.0384419 27.8047807,42.6410376 28.0385502,43.3435716 C28.0598157,43.4230493 28.0816051,43.5015047 28.1057149,43.5785726 C28.297399,44.2424585 28.3874054,44.9746494 28.1945174,45.6699494 L28.1942187,45.6701685 C27.7729604,47.1899163 26.1150952,48.1783673 25.3583829,48.5594761 C24.906497,47.8408722 23.9822082,46.1130739 24.4099845,44.5717748 Z M16.8123126,58.0611299 C16.600259,58.2538363 16.2710244,58.2433162 16.0776908,58.0380452 L16.0772405,58.0376071 C15.8844307,57.832409 15.8996309,57.5102536 16.1118337,57.3177618 L19.4167017,54.3195386 C19.5257243,54.4529995 19.6370676,54.5845663 19.7551492,54.7101405 C19.8703866,54.8327938 19.992211,54.9493085 20.1157583,55.0641436 L16.8123126,58.0611299 Z M18.9530616,48.1832644 C19.4663458,46.3328858 21.5144715,45.1513588 22.3712945,44.7289776 C22.8864511,45.534147 24.0464552,47.6320229 23.5268048,49.5047515 C23.0147177,51.3504565 21.2130894,52.7428775 20.4154199,53.2834574 C19.8145279,52.3881442 18.4340844,50.053218 18.9530616,48.1832644 Z M26.261181,55.9594568 C24.3164629,56.3157967 22.1416445,54.8658098 21.3142477,54.2409325 C21.8812954,53.4795229 23.3683631,51.7316383 25.2886726,51.3794562 C27.2271003,51.0242848 29.2688596,52.3283145 30.0466145,52.8968719 C29.5502514,53.7009414 28.1889759,55.6058189 26.261181,55.9594568 Z M30.4193545,50.9664998 C28.8259591,51.2587062 27.1416658,50.2157562 26.4459037,49.7156499 C26.8944974,49.0058182 28.0327834,47.4658289 29.6100045,47.1766211 C30.3328724,47.0439635 31.0701134,47.1916687 31.7296349,47.4333971 C31.8050385,47.462762 31.882087,47.4900091 31.9601098,47.5168912 C32.6554216,47.8025208 33.240739,48.1810007 33.5841261,48.4277631 C33.1350867,49.1370883 31.9968007,50.677073 30.4193545,50.9664998 Z M33.9861452,46.7372209 C32.7100835,46.9709851 31.3562977,46.1642091 30.7458965,45.7347446 C31.1411747,45.1225051 32.0626145,43.9185551 33.3290957,43.6863974 L33.3287924,43.6866165 C33.4760018,43.6596614 33.6241851,43.6496526 33.7721434,43.6482651 C33.7937857,43.6482651 33.8168479,43.6476079 33.8387844,43.6474618 C34.9507182,43.6627285 36.0395115,44.3167515 36.5688208,44.6892388 C36.1735424,45.3014782 35.2518728,46.5046981 33.9861452,46.7372209 Z M36.4722297,41.6392185 C35.5335633,42.4884353 33.9666764,42.4699556 33.2750313,42.41312 C33.2721135,41.7330182 33.378138,40.2025266 34.3206963,39.3498778 C35.2593627,38.5005881 36.8263967,38.5189262 37.5181152,38.5758304 C37.520739,39.2560827 37.41471,40.7864966 36.4722297,41.6392185 Z" id="Shape"></path>
            <path d="M5.98060679,26.4842315 C19.5556009,30.0280757 33.905724,30.0280757 47.4795212,26.4842315 C49.67433,25.9126803 51.4606042,24.5638707 52.3830962,22.7814274 C53.0887421,21.4185903 53.1929746,19.962248 52.6754194,18.6823985 L52.1243209,17.2318981 L50.6150918,12.5234777 C50.0499878,12.9318325 49.2754539,13.315423 48.3189728,13.6800921 L48.3804443,13.7277952 L46.7261747,14.2221302 C46.7197371,14.2240289 46.7144942,14.2261477 46.7079831,14.2280475 C43.108467,15.3045247 38.0061637,16.0562177 32.4258451,16.3647859 C30.565739,16.4676405 28.6524689,16.5212608 26.7240721,16.5212608 C19.0104896,16.5212608 11.5389132,15.6633519 6.73776699,14.226878 L5.08926407,13.7336395 L5.14991546,13.6855713 C4.18908637,13.3190753 3.41155886,12.9336593 2.84481104,12.5234777 L1.3519778,17.1863152 L0.790695723,18.6660343 C0.267751804,19.9622482 0.371980766,21.4174221 1.07702824,22.7814275 C1.99892064,24.5627 3.78639632,25.9126802 5.98060679,26.4842315 Z" id="Path"></path>
            <path d="M46.6286119,12.3689026 C49.8108307,11.3589744 50.0253564,10.5611119 50.0253564,10.553296 C50.0253564,10.0813144 47.7151584,8.66909464 40.6334726,7.7185569 L46.6286119,12.3689026 Z" id="Path"></path>
            <path d="M3.4359697,10.5532962 C3.4359697,10.5611121 3.64959585,11.3569286 6.81474323,12.3659076 L12.6406622,7.74785002 C5.7001156,8.70211427 3.4359697,10.0919064 3.4359697,10.5532962 Z" id="Path"></path>
            <path d="M8.97390998,12.9657283 C13.5851664,14.0772697 20.0485936,14.7259631 26.7240744,14.7259631 C33.3881734,14.7259631 39.8408162,14.0796076 44.4508733,12.9715725 L28.6714897,0.734089505 C27.3979736,-0.254727243 25.6296636,-0.244208003 24.3699254,0.763309521 L8.97390998,12.9657283 Z M34.3230167,10.9409041 C34.3230167,11.344583 33.9940808,11.6717782 33.5882432,11.6717782 C33.1824103,11.6717782 32.8533963,11.344583 32.8533963,10.9409041 C32.8533963,10.5372981 33.1824104,10.2100299 33.5882432,10.2100299 C33.9940808,10.2100299 34.3230167,10.5372981 34.3230167,10.9409041 Z M17.6675641,11.6717782 C17.2617289,11.6717782 16.9327172,11.344583 16.9327172,10.9409041 C16.9327172,10.5372981 17.261729,10.2100299 17.6675641,10.2100299 C18.0733992,10.2100299 18.4023376,10.5372981 18.4023376,10.9409041 C18.4023376,11.344583 18.0733994,11.6717782 17.6675641,11.6717782 Z M21.0965791,11.6717782 C21.0965791,11.2681723 21.425591,10.9409041 21.8314285,10.9409041 C22.2372637,10.9409041 22.5661997,11.2681723 22.5661997,11.6717782 C22.5661997,12.0754572 22.2372637,12.4026524 21.8314285,12.4026524 C21.4255909,12.4026524 21.0965791,12.0754571 21.0965791,11.6717782 Z M38.2419572,10.9409041 C38.2419572,11.344583 37.9130213,11.6717782 37.5071838,11.6717782 C37.1013462,11.6717782 36.7723368,11.344583 36.7723368,10.9409041 C36.7723368,10.5372981 37.1013464,10.2100299 37.5071838,10.2100299 C37.9130212,10.2100299 38.2419572,10.5372981 38.2419572,10.9409041 Z M21.8314284,7.89563156 C21.8314284,8.29931171 21.5024165,8.62650573 21.096579,8.62650573 C20.6908174,8.62650573 20.3618055,8.29931171 20.3618055,7.89563156 C20.3618055,7.4920256 20.6908174,7.16475859 21.096579,7.16475859 C21.5024167,7.16475859 21.8314284,7.4920256 21.8314284,7.89563156 Z M27.4649132,2.41418653 C27.8707462,2.41418653 28.1996867,2.74138115 28.1996867,3.14498771 C28.1996867,3.54866666 27.8707462,3.87586128 27.4649132,3.87586128 C27.0590757,3.87586128 26.7300663,3.54866666 26.7300663,3.14498771 C26.7300663,2.74138115 27.0590757,2.41418653 27.4649132,2.41418653 Z" id="Shape"></path>
        </g>
    </g>
</svg>