<?xml version="1.0" encoding="UTF-8"?>
<svg width="70px" height="70px" viewBox="0 0 70 70" version="1.1" xmlns="http://www.w3.org/2000/svg" xmlns:xlink="http://www.w3.org/1999/xlink">
    <title>Vendor Management </title>
    <g id="Vendor-Management-" stroke="none" stroke-width="1" fill="none" fill-rule="evenodd">
        <g id="2639918_shop_icon" transform="translate(1.000000, 6.000000)" fill="#0968AC" fill-rule="nonzero">
            <path d="M52.6428571,26.5833333 C50.8888929,26.5833333 49.2593571,26.0806667 47.8451786,25.2445 C46.4333929,26.0734167 44.8182143,26.5833333 43.0714286,26.5833333 C41.3198571,26.5833333 39.6998929,26.071 38.2857143,25.2396667 C36.8715357,26.071 35.2515714,26.5833333 33.5,26.5833333 C31.7484286,26.5833333 30.1284643,26.071 28.7142857,25.2396667 C27.3001071,26.071 25.6801429,26.5833333 23.9285714,26.5833333 C22.1817857,26.5833333 20.5666071,26.0734167 19.1548214,25.2445 C17.7406429,26.0806667 16.1111071,26.5833333 14.3571429,26.5833333 C12.6175357,26.5833333 11.0071429,26.0758333 9.60014286,25.2541667 C8.18357143,26.09275 6.54207143,26.5833333 4.78571429,26.5833333 L4.78571429,53.1666667 C4.78571429,55.8370833 6.92732143,58 9.57142857,58 L38.2857143,58 L38.2857143,33.8333333 L52.6428571,33.8333333 L52.6428571,58 L57.4285714,58 C60.0726786,58 62.2142857,55.8370833 62.2142857,53.1666667 L62.2142857,26.5833333 C60.4579286,26.5833333 58.8164286,26.09275 57.3998571,25.2541667 C55.9928571,26.0758333 54.3824643,26.5833333 52.6428571,26.5833333 Z M28.7142857,48.3333333 L14.3571429,48.3333333 L14.3571429,33.8333333 L28.7142857,33.8333333 L28.7142857,48.3333333 Z" id="Shape"></path>
            <path d="M59.8214286,7.25 L7.17857143,7.25 L7.17857143,4.83333333 C7.17857143,2.16291667 9.32017857,0 11.9642857,0 L55.0357143,0 C57.6798214,0 59.8214286,2.16291667 59.8214286,4.83333333 L59.8214286,7.25 Z" id="Path"></path>
            <path d="M45.4642857,7.25 L38.2857143,7.25 L38.2857143,16.9166667 C38.2857143,19.5870833 40.4273214,21.75 43.0714286,21.75 C45.7155357,21.75 47.8571429,19.5870833 47.8571429,16.9166667 L45.4642857,7.25 Z" id="Path"></path>
            <path d="M59.8214286,7.25 L52.6428571,7.25 L57.4285714,16.9166667 C57.4285714,19.5870833 59.5701786,21.75 62.2142857,21.75 C64.8583929,21.75 67,19.5870833 67,16.9166667 L59.8214286,7.25 Z" id="Path"></path>
            <path d="M45.4642857,7.25 L38.2857143,7.25 L38.2857143,16.9166667 C38.2857143,19.5870833 40.4273214,21.75 43.0714286,21.75 C45.7155357,21.75 47.8571429,19.5870833 47.8571429,16.9166667 L45.4642857,7.25 Z" id="Path"></path>
            <path d="M21.5357143,7.25 L28.7142857,7.25 L28.7142857,16.9166667 C28.7142857,19.5870833 26.5726786,21.75 23.9285714,21.75 C21.2844643,21.75 19.1428571,19.5870833 19.1428571,16.9166667 L21.5357143,7.25 Z" id="Path"></path>
            <path d="M7.17857143,7.25 L14.3571429,7.25 L9.57142857,16.9166667 C9.57142857,19.5870833 7.42982143,21.75 4.78571429,21.75 C2.14160714,21.75 0,19.5870833 0,16.9166667 L7.17857143,7.25 Z" id="Path"></path>
        </g>
    </g>
</svg>