<?xml version="1.0" encoding="UTF-8"?>
<svg width="70px" height="70px" viewBox="0 0 70 70" version="1.1" xmlns="http://www.w3.org/2000/svg" xmlns:xlink="http://www.w3.org/1999/xlink">
    <title>Indent Creation </title>
    <g id="Indent-Creation-" stroke="none" stroke-width="1" fill="none" fill-rule="evenodd">
        <g id="4639520_bills_finance_invoice_money_payment_icon" transform="translate(3.000000, 4.000000)" fill="#0968AC" fill-rule="nonzero">
            <path d="M46.4754457,54.7376588 L46.4754457,0 L0,0 L0,54.7376588 C0,59.3007752 3.69909666,63 8.26234122,63 L46.4754454,63 L54.7376586,63 C50.1745423,63 46.4754457,59.3007752 46.4754457,54.7376588 Z M21.8213379,22.9405518 C19.7326172,21.8843995 16.8717774,20.436548 16.8717774,17.150171 C16.8717774,14.0208071 18.4669006,11.739441 21.1374024,10.9919313 L21.1374024,8.94807123 C21.1374024,7.78835442 22.0776856,6.84807123 23.2374024,6.84807123 C24.3971192,6.84807123 25.3374024,7.78835442 25.3374024,8.94807123 L25.3374024,11.1744507 C27.1588806,11.846466 28.551361,13.152173 29.2656739,14.1437255 C29.9434571,15.0850342 29.7301759,16.3975342 28.7888672,17.0753174 C27.8516601,17.7510497 26.5463379,17.5418702 25.8654787,16.60979 C25.7813966,16.4980223 24.2545901,14.5241454 22.3258302,15.0091553 C21.9505373,15.1024658 21.0717774,15.3218995 21.0717774,17.150171 C21.0717774,17.7572023 21.8520996,18.2493898 23.7172851,19.1937745 C26.0849121,20.3914307 29.6614746,22.2012452 29.6614746,26.6688721 C29.6614746,29.9053894 27.7229736,32.1679138 25.3374024,33.1189637 L25.3374024,35.4123781 C25.3374024,36.5720949 24.3971192,37.5123781 23.2374024,37.5123781 C22.0776856,37.5123781 21.1374024,36.5720949 21.1374024,35.4123781 L21.1374024,33.385309 C18.8441163,32.7708438 16.8143554,30.8478517 16.8143554,27.3651124 C16.8143554,26.2053956 17.7546386,25.2651124 18.9143554,25.2651124 C20.0740722,25.2651124 21.0143554,26.2053956 21.0143554,27.3651124 C21.0143554,28.7309327 21.6049804,29.4240969 22.7698241,29.4240969 C23.8105957,29.4240969 25.4614746,28.6755617 25.4614746,26.6688723 C25.4614746,24.9615967 24.3520019,24.22229 21.8213379,22.9405518 Z M36.1470703,56.9999268 L10.3277345,56.9999268 C9.16801767,56.9999268 8.22773448,56.0596436 8.22773448,54.8999268 C8.22773448,53.74021 9.16801767,52.7999268 10.3277345,52.7999268 L36.1470705,52.7999268 C37.3067873,52.7999268 38.2470705,53.74021 38.2470705,54.8999268 C38.2470705,56.0596436 37.3067871,56.9999268 36.1470703,56.9999268 Z M36.1470703,49.0962158 L10.3277345,49.0962158 C9.16801767,49.0962158 8.22773448,48.1559327 8.22773448,46.9962158 C8.22773448,45.836499 9.16801767,44.8962158 10.3277345,44.8962158 L36.1470705,44.8962158 C37.3067873,44.8962158 38.2470705,45.836499 38.2470705,46.9962158 C38.2470705,48.1559327 37.3067871,49.0962158 36.1470703,49.0962158 Z" id="Shape"></path>
            <path d="M48.5758302,13.4262085 L48.5758302,54.1898437 C48.5758302,57.5879884 51.3402834,60.3524414 54.7374024,60.3524414 C55.8971192,60.3524414 56.8374024,61.2927246 56.8374024,62.4524414 C56.8374024,62.545111 56.7962585,62.6240662 56.7845947,62.7135314 C60.3516724,61.7986267 63,58.5899231 63,54.7376588 L63,13.4262085 L48.5758302,13.4262085 Z" id="Path"></path>
        </g>
    </g>
</svg>