<?xml version="1.0" encoding="UTF-8"?>
<svg width="70px" height="70px" viewBox="0 0 70 70" version="1.1" xmlns="http://www.w3.org/2000/svg" xmlns:xlink="http://www.w3.org/1999/xlink">
    <title>Stock in and In store</title>
    <g id="Stock-in-and-In-store" stroke="none" stroke-width="1" fill="none" fill-rule="evenodd">
        <g id="if_96_3421973" transform="translate(4.000000, 5.000000)" fill="#0968AC">
            <path d="M60.9922207,58.053528 L58.6687075,58.053528 L58.6687075,18.3454988 L60.5081555,19.4160584 C60.9922207,19.7080292 61.573099,19.513382 61.8635381,19.026764 C62.1539773,18.540146 61.9603512,17.9562044 61.4762859,17.6642336 C56.5388205,14.7445255 43.1786197,6.95863747 31.4642408,0.145985401 C31.1738017,-0.0486618005 30.7865495,-0.0486618005 30.4961104,0.145985401 L0.484065244,17.6642336 C0,17.9562044 -0.0968130487,18.540146 0.0968130487,19.026764 C0.387252195,19.513382 0.968130487,19.6107056 1.45219573,19.4160584 L3.29164366,18.3454988 L3.29164366,58.053528 L0.968130487,58.053528 C0.484065244,58.053528 0,58.4428224 0,59.026764 C0,59.513382 0.387252195,60 0.968130487,60 L60.9922207,60 C61.573099,60 61.9603512,59.513382 61.9603512,59.026764 C61.9603512,58.4428224 61.573099,58.053528 60.9922207,58.053528 Z M30.9801756,6.56934307 C34.4654453,6.56934307 37.2730238,9.39172749 37.2730238,12.8953771 C37.2730238,16.3990268 34.4654453,19.2214112 30.9801756,19.2214112 C27.4949058,19.2214112 24.6873274,16.3990268 24.6873274,12.8953771 C24.6873274,9.39172749 27.4949058,6.56934307 30.9801756,6.56934307 Z M47.5352069,58.053528 L14.4251443,58.053528 L14.4251443,28.5644769 L47.5352069,28.5644769 L47.5352069,58.053528 Z" id="Shape" fill-rule="nonzero"></path>
            <path d="M30.9801756,17.1776156 C33.4005018,17.1776156 35.3367628,15.2311436 35.3367628,12.7980535 C35.3367628,10.3649635 33.4005018,8.41849148 30.9801756,8.41849148 C28.5598494,8.41849148 26.6235884,10.3649635 26.6235884,12.7980535 C26.6235884,15.2311436 28.5598494,17.1776156 30.9801756,17.1776156 Z" id="Path"></path>
            <g id="Group" transform="translate(16.356702, 30.680556)" fill-rule="nonzero">
                <path d="M29.2865964,0.972222222 L29.2865964,10.7916667 C29.2865964,11.375 28.8080572,11.7638889 28.3295181,11.7638889 L16.5574548,11.7638889 C16.0789157,11.7638889 15.6003765,11.375 15.6003765,10.7916667 L15.6003765,0.972222222 C15.6003765,0.388888889 16.0789157,0 16.5574548,0 L21.534262,0 L21.534262,3.5 C21.534262,4.08333333 22.0128012,4.47222222 22.4913404,4.47222222 C22.9698795,4.47222222 23.4484187,4.08333333 23.4484187,3.5 L23.4484187,0 L28.4252259,0 C28.9037651,0 29.2865964,0.388888889 29.2865964,0.972222222 Z" id="Shape"></path>
                <path d="M13.6862199,14.3888889 L13.6862199,24.2083333 C13.6862199,24.7916667 13.3033886,25.1805556 12.7291416,25.1805556 L0.957078313,25.1805556 C0.478539157,25.1805556 0,24.7916667 0,24.2083333 L0,14.3888889 C0,13.9027778 0.478539157,13.4166667 0.957078313,13.4166667 L5.93388554,13.4166667 L5.93388554,16.9166667 C5.93388554,17.4027778 6.31671687,17.8888889 6.89096386,17.8888889 C7.46521084,17.8888889 7.84804217,17.4027778 7.84804217,16.9166667 L7.84804217,13.4166667 L12.7291416,13.4166667 C13.3033886,13.4166667 13.6862199,13.9027778 13.6862199,14.3888889 Z" id="Shape"></path>
                <path d="M29.2865964,14.3888889 L29.2865964,24.2083333 C29.2865964,24.7916667 28.8080572,25.1805556 28.3295181,25.1805556 L16.5574548,25.1805556 C16.0789157,25.1805556 15.6003765,24.7916667 15.6003765,24.2083333 L15.6003765,14.3888889 C15.6003765,13.9027778 16.0789157,13.4166667 16.5574548,13.4166667 L21.534262,13.4166667 L21.534262,16.9166667 C21.534262,17.4027778 22.0128012,17.8888889 22.4913404,17.8888889 C22.9698795,17.8888889 23.4484187,17.4027778 23.4484187,16.9166667 L23.4484187,13.4166667 L28.4252259,13.4166667 C28.9037651,13.4166667 29.2865964,13.9027778 29.2865964,14.3888889 Z" id="Shape"></path>
            </g>
        </g>
    </g>
</svg>