<?xml version="1.0" encoding="UTF-8"?>
<svg width="70px" height="70px" viewBox="0 0 70 70" version="1.1" xmlns="http://www.w3.org/2000/svg" xmlns:xlink="http://www.w3.org/1999/xlink">
    <title>Recipe creation</title>
    <g id="Recipe-creation" stroke="none" stroke-width="1" fill="none" fill-rule="evenodd">
        <g id="1602204_book_chef_cook_cookbook_hat_icon" transform="translate(10.000000, 2.000000)" fill="#0968AC" fill-rule="nonzero">
            <path d="M49.961091,13.350666 C49.961091,13.350666 48.1347193,9.36547461 48.1347193,6.71753516 C48.1347193,4.0695957 49.961091,0.00667382812 49.961091,0.00667382812 C49.961091,0.00667382812 50.0486363,0 49.961091,0 L6.62915371,0 C2.9679676,0 0,2.99026758 0,6.67866992 C0,6.67866992 0,56.632666 0,60.3213301 C0,64.0099941 2.9679676,67 6.62915371,67 L49.961091,67 C49.961091,66.993457 49.961091,13.350666 49.961091,13.350666 Z M33.7226064,43.7354277 L33.7226064,51.3027637 C33.7226064,52.1426191 33.046793,52.8232187 32.2134241,52.8232187 L29.5393957,52.8232187 L29.5393957,43.7250898 C28.7668149,43.5026289 28.0442414,43.1606934 27.3923276,42.7211367 L27.3923276,52.8232187 L22.5798039,52.8232187 L22.5798039,42.7211367 C21.9278901,43.1608242 21.2053167,43.5027598 20.4327359,43.7250898 L20.4327359,52.8232187 L17.7587075,52.8232187 C16.9253385,52.8232187 16.2495252,52.1426191 16.2495252,51.3027637 L16.2495252,43.7354277 C13.0247667,42.8245156 10.6598745,39.8414453 10.6598745,36.3014375 C10.6598745,32.3074785 13.6703159,29.0218613 17.5298428,28.6222168 C18.3299601,25.219873 21.3644309,22.6885293 24.9860008,22.6885293 C28.6077006,22.6885293 31.6420416,25.219873 32.4421589,28.6222168 C36.3015559,29.0219922 39.3121271,32.3073477 39.3121271,36.3014375 C39.3121271,39.8414453 36.947235,42.8245156 33.7226064,43.7354277 Z M8.99664366,6.10589844 L45.5582377,6.10589844 C45.5440798,6.31331055 45.535637,6.51758203 45.535637,6.71753516 C45.535637,6.87155664 45.5407026,7.02832617 45.5492753,7.18653516 L8.99664366,7.18653516 C8.63788977,7.18653516 8.34693802,7.47966016 8.34693802,7.84122461 C8.34693802,8.2026582 8.63788977,8.49591406 8.99664366,8.49591406 L45.7005962,8.49591406 C45.8267186,9.25162695 46.0128498,10.0147988 46.2231404,10.7321699 L6.62902382,10.7321699 C4.40687985,10.7321699 2.59895246,8.91374805 2.59895246,6.67866992 C2.59895246,4.44005859 4.40687985,2.61849609 6.62902382,2.61849609 L46.2405455,2.61849609 C46.0361,3.31741602 45.8513975,4.06030469 45.7222877,4.79678125 L8.99664366,4.79678125 C8.63788977,4.79678125 8.34693802,5.08990625 8.34693802,5.4514707 C8.34693802,5.81303516 8.63801966,6.10589844 8.99664366,6.10589844 Z" id="Shape"></path>
        </g>
    </g>
</svg>