<?xml version="1.0" encoding="UTF-8"?>
<svg width="70px" height="70px" viewBox="0 0 70 70" version="1.1" xmlns="http://www.w3.org/2000/svg" xmlns:xlink="http://www.w3.org/1999/xlink">
    <title>Locations</title>
    <g id="Locations" stroke="none" stroke-width="1" fill="none" fill-rule="evenodd">
        <g id="216284_location_icon" transform="translate(8.000000, 3.000000)" fill="#0968AC" fill-rule="nonzero">
            <path d="M46.0918807,7.8847748 C35.5477217,-2.62825827 18.4522783,-2.62825827 7.90811926,7.8847748 C-2.63603975,18.401229 -2.63603975,35.4485585 7.90811926,45.9615916 L26.9983124,65 L46.0918807,45.9615916 C56.6360398,35.4485585 56.6360398,18.401229 46.0918807,7.8847748 Z M26.9983124,35.92067 C24.7436715,35.92067 22.6274142,35.0311846 21.0309394,33.4164265 C17.7401088,30.0808563 17.7401088,24.6549955 21.0309394,21.3194253 C22.624039,19.7046672 24.7436715,18.8151818 26.9983124,18.8151818 C29.2529533,18.8151818 31.3725858,19.7046672 32.9656854,21.3194253 C36.256516,24.6549955 36.256516,30.0842774 32.9656854,33.4164265 C31.3725858,35.0311846 29.2529533,35.92067 26.9983124,35.92067 Z" id="Shape"></path>
        </g>
    </g>
</svg>