<?xml version="1.0" encoding="UTF-8"?>
<svg width="70px" height="70px" viewBox="0 0 70 70" version="1.1" xmlns="http://www.w3.org/2000/svg" xmlns:xlink="http://www.w3.org/1999/xlink">
    <title>Ticket blocking </title>
    <g id="Ticket-blocking-" stroke="none" stroke-width="1" fill="none" fill-rule="evenodd">
        <g id="326541_block_icon" transform="translate(35.000000, 35.000000) scale(-1, 1) translate(-35.000000, -35.000000) translate(4.000000, 4.000000)" fill="#0968AC" fill-rule="nonzero" stroke="#0968AC" stroke-width="2.0615">
            <path d="M31,-1.03075 C39.8084563,-1.03075 47.8168002,2.5715996 53.6226003,8.37739969 C59.4284004,14.1831998 63.03075,22.1915438 63.03075,31 C63.03075,39.8084562 59.4284004,47.8168002 53.6226003,53.6226003 C47.8168002,59.4284004 39.8084562,63.03075 31,63.03075 C22.1915438,63.03075 14.1831998,59.4284004 8.37739969,53.6226003 C2.5715996,47.8168002 -1.03075,39.8084563 -1.03075,31 C-1.03075,22.1915438 2.5715996,14.1831998 8.37739969,8.37739969 C14.1831998,2.5715996 22.1915437,-1.03075 31,-1.03075 Z M50.4174214,17.3802793 L17.3802793,50.4174214 L17.7935721,50.7047494 C21.6748108,53.3432636 26.2184946,54.76925 31,54.76925 C37.5365437,54.76925 43.4781998,52.0940996 47.7861497,47.7861497 C52.0940996,43.4781998 54.76925,37.5365437 54.76925,31 C54.76925,26.0477265 53.2395886,21.3505653 50.4174214,17.3802793 L50.4174214,17.3802793 Z M31,7.23075 C24.4634563,7.23075 18.5218002,9.9059004 14.2138503,14.2138503 C9.9059004,18.5218002 7.23075,24.4634563 7.23075,31 C7.23075,35.9522735 8.76041144,40.6494347 11.5825786,44.6197207 L11.5825786,44.6197207 L44.6197207,11.5825786 L44.2064279,11.2952506 C40.3251892,8.65673641 35.7815054,7.23075 31,7.23075 Z" id="Shape"></path>
        </g>
    </g>
</svg>