<?xml version="1.0" encoding="UTF-8"?>
<svg width="70px" height="70px" viewBox="0 0 70 70" version="1.1" xmlns="http://www.w3.org/2000/svg" xmlns:xlink="http://www.w3.org/1999/xlink">
    <title>Movie Creation </title>
    <g id="Movie-Creation-" stroke="none" stroke-width="1" fill="none" fill-rule="evenodd">
        <g id="3669324_movie_ic_icon" transform="translate(-3.000000, -3.000000)">
            <path d="M56.25,12.5 L62.5,25 L53.125,25 L46.875,12.5 L40.625,12.5 L46.875,25 L37.5,25 L31.25,12.5 L25,12.5 L31.25,25 L21.875,25 L15.625,12.5 L12.5,12.5 C9.046875,12.5 6.28125,15.296875 6.28125,18.75 L6.25,56.25 C6.25,59.703125 9.046875,62.5 12.5,62.5 L62.5,62.5 C65.953125,62.5 68.75,59.703125 68.75,56.25 L68.75,12.5 L56.25,12.5 Z" id="Path" fill="#0968AC" fill-rule="nonzero"></path>
            <polygon id="Path" points="0 0 75 0 75 75 0 75"></polygon>
        </g>
    </g>
</svg>