<?xml version="1.0" encoding="UTF-8"?>
<svg width="70px" height="70px" viewBox="0 0 70 70" version="1.1" xmlns="http://www.w3.org/2000/svg" xmlns:xlink="http://www.w3.org/1999/xlink">
    <title>Schedule Manager </title>
    <g id="Schedule-Manager-" stroke="none" stroke-width="1" fill="none" fill-rule="evenodd">
        <g id="465050_calendar_schedule_date_day_event_icon" transform="translate(6.000000, 1.000000)" fill="#0968AC" fill-rule="nonzero">
            <rect id="Rectangle" x="25.0399282" y="32.0076202" width="8.60251234" height="8.50918327"></rect>
            <rect id="Rectangle" x="38.5260206" y="32.0076202" width="8.60251234" height="8.50918327"></rect>
            <rect id="Rectangle" x="11.5670704" y="44.9415787" width="8.60251234" height="8.50918327"></rect>
            <rect id="Rectangle" x="25.0399282" y="44.9415787" width="8.60251234" height="8.50918327"></rect>
            <rect id="Rectangle" x="38.5260206" y="44.9415787" width="8.60251234" height="8.50918327"></rect>
            <path d="M16.0800808,16.1936303 L16.0800808,16.1936303 C13.9625393,16.1936303 12.2288022,14.4787026 12.2288022,12.3841344 L12.2288022,3.8094959 C12.2288022,1.71492771 13.9625393,0 16.0800808,0 L16.0800808,0 C18.1976223,0 19.9313594,1.71492771 19.9313594,3.8094959 L19.9313594,12.3972255 C19.9313594,14.4787026 18.1976223,16.1936303 16.0800808,16.1936303 Z" id="Path"></path>
            <path d="M52.4620906,8.09026964 L48.0946613,8.09026964 L48.0946613,13.287417 C48.0946613,16.4947245 45.4874383,19.1129347 42.2978914,19.1129347 L40.7626738,19.1129347 C37.573127,19.1129347 34.965904,16.4947245 34.965904,13.287417 L34.965904,8.09026964 L23.0017945,8.09026964 L23.0017945,13.287417 C23.0017945,16.4947245 20.3945716,19.1129347 17.2050247,19.1129347 L15.6698071,19.1129347 C12.4802602,19.1129347 9.87303724,16.4947245 9.87303724,13.287417 L9.87303724,8.09026964 L6.52467474,8.09026964 C2.93808883,8.09026964 0,11.0357562 0,14.6357952 L0,60.4544744 C0,64.0545135 2.93808883,67 6.52467474,67 L52.4753253,67 C56.0619112,67 59,64.0545135 59,60.4544744 L59,14.6357952 C58.9867654,11.0357562 56.0486765,8.09026964 52.4620906,8.09026964 Z M51.3503813,54.2754982 C51.3503813,56.514068 49.5240018,58.3468152 47.3005832,58.3468152 L11.6994168,58.3468152 C9.47599821,58.3468152 7.64961866,56.514068 7.64961866,54.2754982 L7.64961866,31.1828839 C7.64961866,28.9443142 9.47599821,26.9544744 11.6994168,26.9544744 L47.3005832,26.9544744 C49.5240018,26.9544744 51.3503813,28.9443142 51.3503813,31.1828839 L51.3503813,54.2754982 Z" id="Shape"></path>
            <path d="M41.5567519,16.1936303 L41.5567519,16.1936303 C39.4392104,16.1936303 37.7054733,14.4787026 37.7054733,12.3841344 L37.7054733,3.8094959 C37.7054733,1.71492771 39.4392104,0 41.5567519,0 L41.5567519,0 C43.6742934,0 45.4080305,1.71492771 45.4080305,3.8094959 L45.4080305,12.3972255 C45.4080305,14.4787026 43.6742934,16.1936303 41.5567519,16.1936303 Z" id="Path"></path>
        </g>
    </g>
</svg>