<?xml version="1.0" encoding="UTF-8"?>
<svg width="70px" height="70px" viewBox="0 0 70 70" version="1.1" xmlns="http://www.w3.org/2000/svg" xmlns:xlink="http://www.w3.org/1999/xlink">
    <title>Seat Category </title>
    <g id="Seat-Category-" stroke="none" stroke-width="1" fill="none" fill-rule="evenodd">
        <g id="4731098_armchair_chair_furniture_interior_sofa_icon" transform="translate(4.000000, 4.000000)" fill="#0968AC" fill-rule="nonzero">
            <path d="M12.8489655,19.2601654 C12.8810345,19.580634 13.7158966,28.3721571 13.886931,32.8694004 C18.3979655,31.3204686 32.9572759,27.2611992 48.1152069,32.8373535 C48.2862414,28.329428 49.1200345,19.5699518 49.1531724,19.1640248 C49.1531724,15.724328 52.0383103,12.8401103 55.5776552,12.8401103 C55.9411034,12.8401103 56.3045517,12.8721571 56.6573103,12.9362509 L56.6573103,12.8187457 C56.6573103,5.7363887 50.9169655,0 43.8297241,0 L18.1724138,0 C11.0851724,0 5.34482759,5.7363887 5.34482759,12.8187457 L5.34482759,12.9362509 C5.69758621,12.8721571 6.06103448,12.8401103 6.42448276,12.8401103 C9.96275862,12.8401103 12.8489655,15.724328 12.8489655,19.2601654 Z" id="Path"></path>
            <path d="M6.42448276,49.1385252 C6.07172414,49.1385252 5.70827586,49.1064783 5.34482759,49.0423846 L5.34482759,53.432805 L56.6551724,53.432805 L56.6551724,49.0423846 C56.2917241,49.1064783 55.9282759,49.1385252 55.5755172,49.1385252 L6.42448276,49.1385252 L6.42448276,49.1385252 Z" id="Path"></path>
            <polygon id="Path" points="5.34482759 62 8.55172414 62 9.49241379 54.5010338 5.34482759 54.5010338"></polygon>
            <polygon id="Path" points="53.4482759 62 56.6551724 62 56.6551724 54.5010338 52.5075862 54.5010338"></polygon>
            <path d="M56.6551724,14.015162 C56.3131034,13.9510682 55.9496552,13.9083391 55.5755172,13.9083391 C54.0885862,13.9083391 52.7523793,14.5065472 51.7913793,15.4786354 C50.8186207,16.4400414 50.22,17.7753274 50.22,19.2601654 C50.22,19.2601654 49.1510345,30.4552033 49.1510345,34.2046864 L49.1082759,34.375603 C30.9358621,26.9727774 12.8906552,34.375603 12.8906552,34.375603 L12.8489655,34.2046864 C12.8489655,30.4552033 11.78,19.2601654 11.78,19.2601654 C11.78,16.3011716 9.38658621,13.9083391 6.42448276,13.9083391 C6.05034483,13.9083391 5.68689655,13.9510682 5.34482759,14.015162 C4.29724138,14.2288077 3.35655172,14.7522398 2.64034483,15.4786354 C1.66758621,16.4400414 1.06896552,17.7753274 1.06896552,19.2601654 C0.299310345,27.2825637 0,27.2505169 0,34.2046864 L0,42.71847 C0,45.2608546 2.55482759,47.3866299 5.14172414,47.9207443 L5.50624138,47.9955203 C5.81624138,48.0489318 6.12624138,48.0702963 6.42448276,48.0702963 L55.5755172,48.0702963 C55.8737586,48.0702963 56.1837586,48.0489318 56.4937586,47.9955203 L56.8582759,47.9207443 C57.937931,47.6964163 59.0175862,47.1943487 59.8941379,46.5 C61.1341379,45.5385941 62,44.2033081 62,42.71847 L62,34.2046864 C62,27.2505169 61.7006897,27.2825637 60.9310345,19.2601654 C60.9310345,16.6750517 59.0924138,14.5172295 56.6551724,14.015162 Z" id="Path"></path>
        </g>
    </g>
</svg>