<?xml version="1.0" encoding="UTF-8"?>
<svg width="70px" height="70px" viewBox="0 0 70 70" version="1.1" xmlns="http://www.w3.org/2000/svg" xmlns:xlink="http://www.w3.org/1999/xlink">
    <title>Theatre Grouping </title>
    <g id="Theatre-Grouping-" stroke="none" stroke-width="1" fill="none" fill-rule="evenodd">
        <g id="4356198_architecture_commercial-building_mall_mart_shopping-center_icon" transform="translate(4.000000, 4.000000)" fill="#0968AC" fill-rule="nonzero">
            <path d="M9.7314882,5.54702161 L52.2624378,5.54702161 C52.8827635,5.54702161 53.3869073,5.04508694 53.3869073,4.42732119 L53.3869073,1.11970042 C53.3869073,0.50193467 52.8827635,0 52.2624378,0 L9.7314882,0 C9.11116253,0 8.60701866,0.50193467 8.60701866,1.11970042 L8.60701866,4.42732119 C8.60701866,5.04508694 9.11116253,5.54702161 9.7314882,5.54702161 Z" id="Path"></path>
            <path d="M23.4881146,51.25345 C23.4881146,47.1350117 26.8480827,43.7887806 30.9965107,43.7887806 C35.1384769,43.7887806 38.5178302,47.1167361 38.5178302,51.25345 L38.5178302,62 L48.7921034,62 L48.7921034,6.83866682 L13.2138414,6.83866682 L13.2138414,62 L23.4881146,62 L23.4881146,51.25345 Z M34.9102487,12.0878739 L42.973707,12.0878739 L42.973707,20.1179277 L34.9102487,20.1179277 L34.9102487,12.0878739 L34.9102487,12.0878739 Z M34.9102487,27.3478461 L42.973707,27.3478461 L42.973707,35.3634854 L34.9102487,35.3634854 L34.9102487,27.3478461 L34.9102487,27.3478461 Z M19.0198312,12.0878739 L27.0686861,12.0878739 L27.0686861,20.1179277 L19.0198312,20.1179277 L19.0198312,12.0878739 Z M19.0198312,27.3478461 L27.0686861,27.3478461 L27.0686861,35.3634854 L19.0198312,35.3634854 L19.0198312,27.3478461 Z" id="Shape"></path>
            <path d="M62,26.7873524 L50.0845777,26.7873524 L50.0845777,62 L62,62 L62,26.7873524 Z M58.6914672,59.5114336 L53.3929813,59.5114336 L53.3929813,56.9374097 L58.6914672,56.9374097 L58.6914672,59.5114336 Z M58.6914672,53.9772822 L53.3929813,53.9772822 L53.3929813,51.4032582 L58.6914672,51.4032582 L58.6914672,53.9772822 Z M58.6914672,48.4431307 L53.3929813,48.4431307 L53.3929813,45.8691067 L58.6914672,45.8691067 L58.6914672,48.4431307 Z M58.6914672,42.9089792 L53.3929813,42.9089792 L53.3929813,40.3349552 L58.6914672,40.3349552 L58.6914672,42.9089792 Z M58.6914672,37.3748277 L53.3929813,37.3748277 L53.3929813,34.8008038 L58.6914672,34.8008038 L58.6914672,37.3748277 Z M58.6914672,31.8535463 L53.3929813,31.8535463 L53.3929813,29.2795224 L58.6914672,29.2795224 L58.6914672,31.8535463 Z" id="Shape"></path>
            <path d="M11.9154223,26.7873524 L0,26.7873524 L0,62 L11.9154223,62 L11.9154223,26.7873524 Z M8.60688945,59.5114336 L3.30853281,59.5114336 L3.30853281,56.9374097 L8.60701868,56.9374097 L8.60701868,59.5114336 L8.60688945,59.5114336 Z M8.60688945,53.9772822 L3.30853281,53.9772822 L3.30853281,51.4032582 L8.60701868,51.4032582 L8.60701868,53.9772822 L8.60688945,53.9772822 Z M8.60688945,48.4431307 L3.30853281,48.4431307 L3.30853281,45.8691067 L8.60701868,45.8691067 L8.60701868,48.4431307 L8.60688945,48.4431307 Z M8.60688945,42.9089792 L3.30853281,42.9089792 L3.30853281,40.3349552 L8.60701868,40.3349552 L8.60701868,42.9089792 L8.60688945,42.9089792 Z M8.60688945,37.3748277 L3.30853281,37.3748277 L3.30853281,34.8008038 L8.60701868,34.8008038 L8.60701868,37.3748277 L8.60688945,37.3748277 Z M8.60688945,31.8535463 L3.30853281,31.8535463 L3.30853281,29.2795224 L8.60701868,29.2795224 L8.60701868,31.8535463 L8.60688945,31.8535463 Z" id="Shape"></path>
        </g>
    </g>
</svg>