<?xml version="1.0" encoding="UTF-8"?>
<svg width="70px" height="70px" viewBox="0 0 70 70" version="1.1" xmlns="http://www.w3.org/2000/svg" xmlns:xlink="http://www.w3.org/1999/xlink">
    <title>Group Scheduling </title>
    <g id="Group-Scheduling-" stroke="none" stroke-width="1" fill="none" fill-rule="evenodd">
        <g id="3690002_cinema_movie_movie-theater_play-button_theatre_icon" transform="translate(3.000000, 3.000000)" fill="#0968AC" fill-rule="nonzero">
            <path d="M10.1,41.2 C13,41.2 15.3,43.5 15.3,46.4 C15.3,49.2 13,51.6 10.1,51.6 C7.3,51.6 4.9,49.3 4.9,46.4 C4.9,43.5 7.2,41.2 10.1,41.2 Z" id="Path"></path>
            <path d="M19.6,62.8 C19.6,62.9 19.6,62.9 19.6,63 C19.6,63.6 19.1,64 18.6,64 C18.6,64 18.6,64 18.6,64 L1.6,64 C1.1,64 0.6,63.6 0.6,63 C0.6,57.8 4.9,53.5 10.1,53.5 C15.2,53.5 19.5,57.6 19.6,62.8 Z" id="Path"></path>
            <path d="M32.3,41.2 C35.1,41.2 37.5,43.5 37.5,46.4 C37.5,49.2 35.2,51.6 32.3,51.6 C29.4,51.6 27.1,49.3 27.1,46.4 C27.1,43.5 29.4,41.2 32.3,41.2 Z" id="Path"></path>
            <path d="M41.8,62.8 C41.8,62.9 41.8,62.9 41.8,63 C41.8,63.6 41.3,64 40.8,64 C40.8,64 40.8,64 40.8,64 L23.8,64 C23.3,64 22.8,63.6 22.8,63 C22.8,57.8 27.1,53.5 32.3,53.5 C37.5,53.5 41.7,57.6 41.8,62.8 Z" id="Path"></path>
            <path d="M64,63 C64,63.6 63.6,64 63,64 C63,64 63,64 63,64 L46,64 C45.5,64 45,63.6 45,63 C45,57.8 49.3,53.5 54.5,53.5 C59.7,53.5 63.9,57.6 64,62.8 C64,62.9 64,62.9 64,63 Z" id="Path"></path>
            <path d="M59.5,0 L4.5,0 C2,0 0,2 0,4.5 L0,33.4 C0,35.9 2,37.9 4.5,37.9 L59.5,37.9 C62,37.9 64,35.9 64,33.4 L64,4.5 C64,2 62,0 59.5,0 Z M38.1,20 L29.7,25.3 C28.8,25.8 27.7,25.2 27.7,24.2 L27.7,13.6 C27.7,12.6 28.8,12 29.7,12.5 L38.1,17.8 C38.9,18.4 38.9,19.5 38.1,20 Z" id="Shape"></path>
            <path d="M59.7,46.4 C59.7,49.2 57.4,51.6 54.5,51.6 C51.6,51.6 49.3,49.3 49.3,46.4 C49.3,43.5 51.6,41.2 54.5,41.2 C57.3,41.2 59.7,43.5 59.7,46.4 Z" id="Path"></path>
        </g>
    </g>
</svg>