<?xml version="1.0" encoding="UTF-8"?>
<svg width="54px" height="54px" viewBox="0 0 54 54" version="1.1" xmlns="http://www.w3.org/2000/svg" xmlns:xlink="http://www.w3.org/1999/xlink">
    <!-- Generator: Sketch 57.1 (83088) - https://sketch.com -->
    <title>theatre_chains_icon</title>
    <desc>Created with Sketch.</desc>
    <g id="Page-1" stroke="none" stroke-width="1" fill="none" fill-rule="evenodd">
        <g id="theatre_chains_icon">
            <rect id="Rectangle-Copy" fill="#D55C94" x="0" y="0" width="54" height="54" rx="8"></rect>
            <g id="4168582_3d_data_global_internet_network_icon-copy" transform="translate(7.000000, 7.000000)" fill="#FFFFFF" fill-rule="nonzero">
                <path d="M12.8080096,11.6829486 C13.1401444,10.6357118 13.534918,9.666816 13.9832344,8.80140545 C14.8042883,7.19911995 15.8070693,5.92614832 16.9322207,5.09817259 C13.9611983,5.70651192 11.3038381,7.18345174 9.23845052,9.24977893 C8.85633601,9.63219582 8.49269428,10.0367546 8.15118236,10.4599839 C9.70242662,10.9649318 11.2567653,11.3725867 12.8080096,11.6829486 M11.5920884,19.6285133 C11.6233139,17.0228057 11.9807668,14.5739678 12.5855861,12.4230135 C10.9433845,12.0906035 9.30127671,11.6516122 7.65907513,11.1060395 C5.91991493,13.5110627 4.8667792,16.4489927 4.78848089,19.6285133 L11.5920884,19.6285133 L11.5920884,19.6285133 Z M12.5698327,27.5458377 C11.9744842,25.4072679 11.6234077,22.977382 11.5920884,20.3967247 L4.78848089,20.3967247 C4.8667792,23.5541972 5.90406772,26.4734567 7.62456761,28.8721 C9.27305181,28.3202413 10.9214422,27.8780601 12.5698327,27.5458377 Z M16.9322207,34.9268778 C15.8070693,34.0990897 14.8043821,32.8260242 13.9832344,31.2237387 C13.5287291,30.34266 13.1275792,29.354906 12.7893493,28.2858088 C11.2317286,28.5962645 9.67091976,29.0069217 8.11367419,29.5180618 C8.46446938,29.9601493 8.84058258,30.3771863 9.23854429,30.7753653 C11.3037443,32.8416924 13.9611983,34.3185384 16.9322207,34.9268778 Z M27.2050529,28.2794289 C26.8697298,29.3518099 26.4652042,30.3395639 26.0107927,31.2237387 C25.1868319,32.8260242 24.1840509,34.0989959 23.0618063,34.9268778 C26.0329225,34.3186323 28.690189,32.8416924 30.7555765,30.7753653 C31.1534445,30.3771863 31.5296514,29.9569593 31.8808217,29.5180618 C30.3231073,29.0037318 28.7622047,28.5898846 27.2050529,28.2794289 Z M28.4018449,20.3966309 C28.3705256,22.974192 28.0198242,25.404078 27.4273826,27.5394579 C29.075773,27.8686779 30.7241634,28.3139553 32.3725539,28.8720062 C34.0897718,26.4733629 35.1269665,23.5541034 35.2053586,20.3966309 L28.4018449,20.3966309 L28.4018449,20.3966309 Z M27.4116291,12.4292057 C28.0136353,14.5802538 28.3706193,17.0259956 28.4019387,19.6284195 L35.2055462,19.6284195 C35.1271541,16.4488989 34.0743934,13.514065 32.3348581,11.1059457 C30.6959385,11.6578983 29.0537369,12.1000795 27.4116291,12.4292057 Z M23.0617126,5.09826641 C24.1839571,5.92614832 25.1867381,7.19921377 26.0106989,8.80149927 C26.4588278,9.67000593 26.8537888,10.6389017 27.1891119,11.6892347 C28.7404499,11.3819689 30.291788,10.9713117 31.8427509,10.4600777 C31.5011452,10.0367546 31.1377848,9.63228965 30.755389,9.24987275 C28.6900952,7.18345174 26.0328287,5.70660575 23.0617126,5.09826641 Z M39.3829251,11.714285 C39.097863,11.4289735 38.6997138,11.2534333 38.2609619,11.2534333 C37.8253045,11.2534333 37.4274365,11.4289735 37.1420931,11.714285 C36.9824958,11.8742509 36.8538428,12.0718392 36.7754507,12.291288 L36.7725438,12.3006701 L36.7692619,12.3100523 L36.766355,12.3131484 L36.763073,12.3227182 L36.7601661,12.3289104 L36.7601661,12.3289104 L36.7568842,12.3382926 L36.7538835,12.3477686 L36.7538835,12.3477686 L36.7506016,12.3572446 L36.7506016,12.3666267 L36.7476947,12.3666267 L36.7476947,12.3761027 L36.7444127,12.3855787 L36.7444127,12.3855787 L36.7415058,12.3950547 L36.7382239,12.4044368 L36.7382239,12.4044368 L36.7349419,12.4139128 L36.7319412,12.4233888 L36.7319412,12.4233888 L36.7319412,12.4328648 L36.7287531,12.4422469 L36.7287531,12.4422469 L36.7257524,12.4516291 L36.7224704,12.4611989 L36.7224704,12.4611989 L36.7224704,12.4705811 L36.7195636,12.4799632 L36.7162816,12.489533 L36.7162816,12.4989152 L36.7162816,12.4989152 L36.7133747,12.5082973 L36.7100927,12.5177733 L36.7100927,12.5177733 L36.7100927,12.5272493 L36.7070921,12.5366315 L36.7070921,12.5366315 L36.7038101,12.5461075 L36.7038101,12.5555834 L36.7038101,12.5586796 L36.7009032,12.5649656 L36.7009032,12.5744416 L36.7009032,12.5775377 L36.6976213,12.5837299 L36.6976213,12.5932059 L36.6976213,12.596302 L36.6947144,12.6025881 L36.6947144,12.6119702 L36.6947144,12.6150663 L36.6914324,12.6244485 L36.6914324,12.6371144 L36.6914324,12.6433066 L36.6884318,12.6558787 L36.6884318,12.6621648 L36.6884318,12.6746431 L36.6852436,12.6809291 L36.6852436,12.6903113 L36.6822429,12.7154555 L36.6822429,12.7186454 L36.6822429,12.7374097 L36.6822429,12.7405058 C36.678961,12.7719361 36.678961,12.8063686 36.678961,12.837705 C36.678961,13.2766025 36.8576874,13.6717792 37.1426557,13.9602806 C37.4279992,14.2455921 37.8257733,14.4242285 38.2615245,14.4242285 C38.7002764,14.4242285 39.0984256,14.2455921 39.3834878,13.9602806 C39.6687374,13.6717792 39.8474639,13.2766025 39.8474639,12.837705 C39.8469012,12.3979631 39.6681748,12.0027865 39.3829251,11.714285 Z M3.61635049,10.0148942 C3.32800641,9.72958266 2.93313912,9.55085249 2.49448104,9.55085249 C2.05582296,9.55085249 1.66095567,9.72958266 1.37261159,10.0148942 C1.08764324,10.3002057 0.908916799,10.6983846 0.908916799,11.137376 C0.908916799,11.5732712 1.08764324,11.9714501 1.37261159,12.2599515 C1.66095567,12.5452631 2.05582296,12.7208971 2.49448104,12.7208971 C2.93313912,12.7208971 3.32810018,12.5452631 3.61635049,12.2599515 L3.63838654,12.2380911 L3.66961209,12.2003748 L3.71996682,12.1407981 L3.72615567,12.1346059 L3.72915632,12.1315098 L3.73243828,12.1284136 L3.73862713,12.1190315 L3.74162779,12.1158415 L3.74490975,12.1127454 L3.7510986,12.1032694 L3.75409925,12.1001733 L3.75738122,12.0970772 L3.76038187,12.0907912 L3.76366384,12.0876951 L3.7669458,12.081409 L3.77322842,12.0720269 L3.77622908,12.0720269 L3.77951104,12.0657408 L3.78579366,12.0562648 L3.78579366,12.0562648 L3.79207628,12.0500726 L3.79498316,12.0405966 L3.79826513,12.0405966 L3.80126578,12.0344044 L3.80745463,12.0249284 L3.80745463,12.0249284 L3.81373725,12.0155462 L3.81701921,12.009354 L3.82001987,12.009354 L3.82330183,11.9997842 L3.82958445,11.993592 L3.82958445,11.993592 L3.83586707,11.9842098 L3.83914904,11.9747338 L3.83914904,11.9747338 L3.84543165,11.9684478 L3.84843231,11.9590656 L3.84843231,11.9590656 L3.85462116,11.9495896 L3.85790312,11.9433974 L3.86090378,11.9433974 L3.86418574,11.9339214 L3.87037459,11.9277292 L3.87037459,11.9245393 L3.87337524,11.9151571 L3.88293983,11.8993951 L3.88922245,11.8932029 L3.88922245,11.8900129 L3.8922231,11.8806308 L3.89841195,11.8712486 L3.90169391,11.8648687 L3.90497588,11.8586765 L3.90797653,11.8555804 L3.9112585,11.8461982 L3.91425915,11.8431021 L3.91754112,11.8369099 L3.92054177,11.83053 L3.92382374,11.8243378 L3.92382374,11.8212417 L3.93001258,11.8118595 L3.93001258,11.8087634 L3.93301324,11.8024774 L3.9362952,11.7930014 L3.93920209,11.7899053 L3.93920209,11.7868092 L3.94548471,11.7773332 L3.94548471,11.7710471 L3.94876667,11.767951 L3.95176732,11.758475 L3.95504929,11.7553789 L3.95504929,11.7491867 L3.96133191,11.7429006 L3.96133191,11.7367084 L3.96433256,11.7336123 L3.96761453,11.7241363 L3.96761453,11.7178503 L3.97052141,11.7147542 L3.97380338,11.705372 L3.97708534,11.7022759 L3.97708534,11.6991798 L3.98336796,11.6803216 L3.98627484,11.6709395 L3.98955681,11.6646534 C4.04581907,11.4984953 4.07713839,11.3228613 4.07713839,11.1378451 C4.07704462,10.6983846 3.90160014,10.3002057 3.61635049,10.0148942 Z M9.31055999,34.5662275 C9.04434573,34.3027764 8.68070399,34.1303323 8.27955408,34.1053757 L8.27036458,34.1053757 L8.27036458,34.1053757 L8.13542893,34.1053757 L8.12914631,34.1053757 L8.12914631,34.1053757 L8.10748534,34.1053757 L8.02918703,34.111568 L8.01634048,34.1147579 L8.02252933,34.111568 L8.00705721,34.1147579 L7.9287589,34.1241401 L7.91300546,34.1272362 L7.91928808,34.1272362 L7.91000481,34.1303323 L7.80638848,34.1522865 L7.77516293,34.1584788 L7.75640884,34.164671 L7.73765476,34.1710509 L7.72809017,34.1710509 L7.70305347,34.180433 L7.70014658,34.180433 L7.6813925,34.1866253 L7.67811053,34.1897214 L7.6623571,34.1928175 L7.65616825,34.1960074 L7.64360301,34.1991035 L7.63741416,34.2021996 C7.42117955,34.2838245 7.22707475,34.4091701 7.07038436,34.565946 C6.78175897,34.8544475 6.60640826,35.2495303 6.60640826,35.6885216 C6.60640826,36.127513 6.78175897,36.5256919 7.07038436,36.8110034 C7.3553527,37.0964087 7.75359573,37.2751389 8.18897185,37.2751389 C8.62762993,37.2751389 9.02587295,37.0964087 9.3108413,36.8110034 C9.59618472,36.5256919 9.7748174,36.127513 9.7748174,35.6885216 C9.7748174,35.2495303 9.59590341,34.854729 9.31055999,34.5662275 Z M26.6689673,27.3920641 C27.2550325,25.3101625 27.5999202,22.9301897 27.6312395,20.3966309 L20.3823162,20.3966309 L20.3823162,26.7962969 C22.4789293,26.815155 24.5722605,27.0127433 26.6689673,27.3920641 Z M20.3823162,35.2152854 C22.2910134,35.020887 24.0302674,33.3997434 25.3275813,30.8726583 C25.7507672,30.0479663 26.1267867,29.1292651 26.4464501,28.1352251 C24.4218527,27.7714787 22.400631,27.5833664 20.3823162,27.5614121 L20.3823162,35.2152854 Z M13.5507652,28.1415111 C13.8673341,29.1354573 14.243166,30.0511562 14.666352,30.8725644 C15.9635722,33.3997434 17.7028261,35.0207932 19.6115233,35.2151916 L19.6115233,27.5644144 C17.5933023,27.5864625 15.5720806,27.7808609 13.5507652,28.1415111 Z M12.3631626,20.3966309 C12.3943882,22.9332858 12.7389945,25.3164486 13.3283417,27.4013524 C15.4216728,27.0220317 17.515004,26.8182511 19.611617,26.7962969 L19.611617,20.3966309 L12.3631626,20.3966309 Z M13.3438138,12.5672173 C12.7451834,14.6648809 12.3943882,17.0667142 12.3631626,19.6285133 L19.611617,19.6285133 L19.611617,13.1692706 C17.5212866,13.1473164 15.4308623,12.9435358 13.3438138,12.5672173 Z M19.611617,4.80985878 C17.7029199,5.00425716 15.9636659,6.62549462 14.6664458,9.15257974 C14.2494487,9.95850739 13.8829,10.8552544 13.569613,11.8272463 C15.5846458,12.1878965 17.596678,12.379105 19.6117108,12.4010592 L19.6117108,4.80985878 L19.611617,4.80985878 Z M20.3823162,13.1692706 L20.3823162,19.6285133 L27.6312395,19.6285133 C27.5999202,17.0699041 27.2488437,14.671167 26.6534014,12.5766933 C24.5630709,12.952918 22.4727405,13.1504125 20.3823162,13.1692706 Z M25.214963,1.48613434 C25.7852748,1.59909556 25.8511016,0.830884198 25.424915,0.743067169 C25.1708909,0.680394332 24.920055,0.608245512 24.6634053,0.548668789 C24.1306017,0.442087437 24.0207028,1.20401275 24.4847726,1.29501971 L25.214963,1.48613434 Z M29.3891538,3.21704926 C29.5145249,3.2922942 29.6932513,3.27662599 29.7998683,3.19509501 C30.034857,3.01955477 30.0098203,2.69024091 29.7653608,2.54603709 L29.0725848,2.17290854 C28.5210271,1.95336597 28.3331112,2.70281301 28.7247903,2.8594951 C28.9472137,2.96307416 29.1729192,3.09789582 29.3891538,3.21704926 Z M33.0462944,5.87595376 C33.3787106,6.20836373 33.9519292,5.69412747 33.5666265,5.30842682 L32.9805613,4.7878107 C32.7676087,4.57474181 32.3477047,4.75028205 32.3477047,5.06064394 C32.3477047,5.2080377 32.3851191,5.2770904 32.4822653,5.37419577 L33.0462944,5.87595376 Z M35.9827155,9.31254559 C36.2335514,9.72639272 36.8916323,9.33140374 36.6221361,8.88303025 C36.4780109,8.66348768 36.3242274,8.45032497 36.1739134,8.23706845 C35.8606264,7.8231275 35.2525251,8.29664517 35.55034,8.69172798 C35.700654,8.8954147 35.8447792,9.102479 35.9827155,9.31254559 Z M39.2295167,20.252427 C39.2295167,20.7665695 39.997309,20.7572811 39.997309,20.2586193 C40.0002159,20.0046442 40.0034979,19.7287148 39.9911202,19.4748335 C39.9911202,18.9825515 39.2233279,18.9920275 39.2233279,19.4935978 C39.2295167,19.7444768 39.2295167,19.9984519 39.2295167,20.252427 Z M38.6463584,24.7362557 C38.5367408,25.2786385 39.3015324,25.3759315 39.392396,24.9212719 L39.5710286,24.1562505 C39.6710817,23.6513026 38.9158546,23.5070988 38.8158016,23.9994746 L38.6463584,24.7362557 Z M37.0295686,28.9568209 C36.810052,29.3267596 37.3740812,29.7752269 37.687462,29.3518099 C37.8223038,29.1292651 37.9507693,28.8501458 38.0635752,28.6118389 C38.2735272,28.0850305 37.5341473,27.8655818 37.3678923,28.2826188 L37.0295686,28.9568209 Z M34.4692607,32.6849165 C34.1588806,32.9953722 34.6446114,33.5973317 35.052044,33.1897706 C35.2244878,32.9922761 35.3936496,32.7914979 35.5565289,32.5876235 C35.8823811,32.1581082 35.2432419,31.7254967 34.9578984,32.1048175 C34.7980199,32.302312 34.6351406,32.4936143 34.4692607,32.6849165 Z M31.1159363,35.7137596 C30.6930316,36.0336913 31.1754805,36.6325547 31.5640652,36.3409571 C31.7740172,36.1999432 31.9931587,36.0305014 32.1969218,35.8738193 C32.5951649,35.5727458 32.1186235,34.9707863 31.7239438,35.26548 C31.5295577,35.4159698 31.3195119,35.5758419 31.1159363,35.7137596 Z M27.1516975,37.880476 C26.6938165,38.0623022 26.9604996,38.7866989 27.4366658,38.5953966 C27.6686539,38.5107695 27.9348682,38.3915223 28.1606674,38.2881309 C28.5993254,38.1125906 28.3423944,37.3850978 27.8565698,37.5794962 C27.6278638,37.6797915 27.3834042,37.7958489 27.1516975,37.880476 Z M22.7860275,39.0532461 C22.2407524,39.1629236 22.4509857,39.9060846 22.8988333,39.8151714 C23.1529512,39.7806451 23.4253543,39.7399265 23.6761902,39.686542 C24.1806751,39.5862467 24.0207028,38.8337035 23.532065,38.9309027 C23.2937944,38.9842872 23.0275801,39.0219097 22.7860275,39.0532461 Z M18.2673241,39.1785918 C17.6778832,39.1785918 17.7750294,39.9468031 18.2014973,39.9468031 C18.4518643,39.9655675 18.7467723,39.9718535 18.9847617,40 C19.5396014,40 19.482964,39.2317886 19.0225512,39.2317886 C18.7685271,39.2193104 18.5210669,39.200546 18.2673241,39.1785918 Z M13.8452981,38.2504146 C13.3907928,38.0685883 13.1212966,38.789795 13.6008386,38.9810035 L14.3498768,39.2162143 C14.5347921,39.291553 14.7197074,39.1597336 14.8011001,39.0250058 C14.9047164,38.7647447 14.8043821,38.5734424 14.5693934,38.4794331 L13.8452981,38.2504146 Z M2.33779065,27.6492291 C2.1590642,27.2008557 1.43543778,27.461023 1.63254322,27.9564011 C1.73287759,28.1978979 1.84577719,28.4362048 1.95867679,28.671228 C2.13412127,29.1071232 2.85184016,28.837386 2.65107766,28.3359095 C2.54483576,28.1100809 2.43493681,27.8811562 2.33779065,27.6492291 Z M1.04685311,23.3190803 C0.943236778,22.798558 0.194479876,22.974192 0.288344079,23.450712 C0.332416182,23.7077832 0.382395823,23.9681382 0.438751852,24.2221133 C0.532897366,24.7018232 1.29112508,24.5731938 1.19107203,24.0590513 C1.13762288,23.8143646 1.08764324,23.5635794 1.04685311,23.3190803 Z M0.802299818,18.8038214 C0.802299818,18.2331983 0.0312255539,18.3084432 0.0312255539,18.7537206 C0.0157534326,19.0170779 0.00618884853,19.2741491 0,19.5376002 C0,20.0706008 0.767792299,20.0423605 0.767792299,19.5562707 L0.802299818,18.8038214 Z M1.60760029,14.3576151 C1.7737615,13.9468641 1.08764324,13.5925937 0.87440928,14.1255005 C0.79611097,14.3795694 0.73319101,14.6335445 0.658174664,14.8843297 C0.545275063,15.4392845 1.31306736,15.5208155 1.40093026,15.0787281 C1.4667571,14.8373251 1.53549083,14.595922 1.60760029,14.3576151 Z M4.86059035,8.13986926 C5.17715933,7.71973608 4.54730334,7.27445871 4.25277041,7.66635158 C4.09279806,7.87332206 3.93291947,8.08019871 3.78251169,8.29354906 C3.63838654,8.48166139 3.71996682,8.78264113 3.93291947,8.86726822 C4.10208133,8.95198914 4.30284382,8.87984032 4.40608507,8.74182872 C4.55358596,8.538142 4.70690062,8.33736375 4.86059035,8.13986926 Z M8.04456538,4.93529827 C8.43943267,4.64041694 7.98830312,4.01650322 7.56839913,4.33005505 C7.36472975,4.49311701 7.15468398,4.65936891 6.9602041,4.83181303 C6.55605354,5.23956176 7.15468398,5.72546389 7.46468903,5.41200588 L8.04456538,4.93529827 Z M11.8899033,2.55532543 C12.3223725,2.38288131 12.0745372,1.65538853 11.5670517,1.85926289 C11.3383456,1.96274813 11.0780389,2.0819954 10.8588974,2.20424496 C10.3731665,2.49584253 10.8305787,3.11985007 11.2129745,2.8877354 L11.8899033,2.55532543 Z M16.1861832,1.14743832 C16.5936157,1.06600116 16.590615,0.473330034 16.1861832,0.391799053 C16.1519569,0.379226957 16.067376,0.385513005 16.0294928,0.391799053 C15.77575,0.445089729 15.5187252,0.498474226 15.2650762,0.561147063 C14.8011001,0.65525014 14.9389426,1.41407934 15.4467095,1.31050028 C15.691169,1.25101738 15.938723,1.1977267 16.1861832,1.14743832 Z M19.9969198,0 L19.9310929,0 C19.426608,0 19.426608,0.768211361 19.9310929,0.768211361 C20.2068718,0.768211361 20.4796499,0.774403588 20.7521468,0.783879571 C21.2944212,0.783879571 21.2536311,0.0124782744 20.7804655,0.0124782744 L19.9969198,0 Z M25.3275813,9.15257974 C24.0302674,6.62540079 22.2910134,5.00425716 20.3823162,4.80985878 L20.3823162,12.4041554 C22.3976304,12.3822949 24.4093812,12.1940888 26.427696,11.8334385 C26.111127,10.8615404 25.7443909,9.96160351 25.3275813,9.15257974 Z" id="Shape"></path>
            </g>
        </g>
    </g>
</svg>