<?xml version="1.0" encoding="UTF-8"?>
<svg width="510px" height="440px" viewBox="0 0 510 440" version="1.1" xmlns="http://www.w3.org/2000/svg" xmlns:xlink="http://www.w3.org/1999/xlink">
    <!-- Generator: Sketch 57.1 (83088) - https://sketch.com -->
    <title>how_cinicloud_started</title>
    <desc>Created with Sketch.</desc>
    <defs>
        <rect id="path-1" x="0" y="0" width="396.093033" height="385" rx="13.2"></rect>
        <rect id="path-3" x="0" y="0" width="367.486314" height="134.990625" rx="17.424"></rect>
        <rect id="path-5" x="3.96567965" y="-1.3234375" width="367.486314" height="134.990625" rx="17.424"></rect>
        <linearGradient x1="-1.55670463%" y1="10.2266115%" x2="70.8163088%" y2="75.7231604%" id="linearGradient-7">
            <stop stop-color="#ED1E79" offset="0%"></stop>
            <stop stop-color="#FBB03B" offset="100%"></stop>
        </linearGradient>
        <linearGradient x1="110.14514%" y1="83.8905224%" x2="35.4993713%" y2="37.1941939%" id="linearGradient-8">
            <stop stop-color="#ED1E79" offset="0%"></stop>
            <stop stop-color="#FBB03B" offset="100%"></stop>
        </linearGradient>
        <linearGradient x1="-30.0961979%" y1="24.8536203%" x2="126.023057%" y2="71.2635276%" id="linearGradient-9">
            <stop stop-color="#ED1E79" offset="0%"></stop>
            <stop stop-color="#FBB03B" offset="100%"></stop>
        </linearGradient>
        <linearGradient x1="80.7592025%" y1="13.9455055%" x2="47.3427914%" y2="55.8247473%" id="linearGradient-10">
            <stop stop-color="#999999" offset="0%"></stop>
            <stop stop-color="#FFFFFF" offset="100%"></stop>
        </linearGradient>
        <linearGradient x1="7.89420568%" y1="81.4332132%" x2="48.6844092%" y2="47.6087807%" id="linearGradient-11">
            <stop stop-color="#C1272D" offset="0%"></stop>
            <stop stop-color="#FFFFFF" offset="100%"></stop>
        </linearGradient>
        <linearGradient x1="44.5900383%" y1="-29.6931618%" x2="51.4176245%" y2="67.8251794%" id="linearGradient-12">
            <stop stop-color="#999999" offset="0%"></stop>
            <stop stop-color="#FFFFFF" offset="100%"></stop>
        </linearGradient>
    </defs>
    <g id="how_cinicloud_started" stroke="none" stroke-width="1" fill="none" fill-rule="evenodd">
        <g id="Group-101-Copy" transform="translate(10.000000, 6.000000)">
            <g id="Group-91-Copy" transform="translate(0.000000, 43.000000)">
                <g id="Stroke-6" transform="translate(69.316281, 0.000000)">
                    <mask id="mask-2" fill="white">
                        <use xlink:href="#path-1"></use>
                    </mask>
                    <use id="Mask" fill="#FEE8E8" xlink:href="#path-1"></use>
                    <path d="M219.248774,0.810849912 C219.248774,0.810849912 239.613732,53.0083663 323.482141,60.8148401 C407.350549,68.6213139 435.968339,40.8144109 465.215704,48.9262967" stroke="#C9A0A0" stroke-width="0.9" stroke-linecap="round" stroke-linejoin="round" stroke-dasharray="4.5,4.5" mask="url(#mask-2)"></path>
                </g>
                <g id="Group" transform="translate(419.198460, 291.050000) rotate(20.000000) translate(-419.198460, -291.050000) translate(374.087865, 208.000000)">
                    <path d="M87.7436441,135.750737 L55.4587328,117.214517 L45.3650237,123.009768 L35.2713145,117.214517 L2.9864032,135.750737 C-0.317567822,137.647208 -0.317567822,142.389245 2.9864032,144.286288 L37.185351,163.920345 C42.2468758,166.826552 48.4831715,166.826552 53.544121,163.920345 L87.7436441,144.286288 C91.0470398,142.389245 91.0470398,137.647208 87.7436441,135.750737" id="Fill-216" fill="#F4D3D3"></path>
                    <polyline id="Fill-217" fill="#F48B7F" points="16.9875773 124.442276 16.9875773 139.302259 45.3650237 155.594178 45.3650237 123.009768 36.4299768 135.604855 16.9875773 124.442276"></polyline>
                    <polyline id="Fill-218" fill="#E08075" points="45.3650237 137.611167 38.0051593 133.385154 45.3650237 123.009768 45.3650237 137.611167"></polyline>
                    <polyline id="Fill-219" fill="#F48B7F" points="73.74247 124.442276 73.74247 139.302259 45.3650237 155.594178 45.3650237 123.009768 54.2994952 135.604855 73.74247 124.442276"></polyline>
                    <polyline id="Fill-220" fill="#AEC3D7" points="70.8947151 126.077303 61.5868713 120.732858 70.0622502 115.86725 73.74247 124.442276 70.8947151 126.077303"></polyline>
                    <polyline id="Fill-221" fill="#9EB5C9" points="54.2994952 135.604855 48.911773 128.009816 61.5868713 120.732858 70.8947151 126.077303 54.2994952 135.604855"></polyline>
                    <polyline id="Fill-222" fill="#D6786D" points="50.6198506 144.753684 45.3650237 137.346862 45.3650237 123.009768 54.2994952 135.604855 73.74247 124.442276 73.74247 131.478385 50.6198506 144.753684"></polyline>
                    <path d="M41.5012818,52.2888338 C41.5012818,54.4107078 43.231221,56.1309761 45.3650237,56.1309761 C47.4988263,56.1309761 49.2287655,54.4107078 49.2287655,52.2888338 L50.8252342,52.2888338 L50.8252342,45.6949487 L39.9048132,45.6949487 L39.9048132,52.2888338 L41.5012818,52.2888338" id="Fill-223" fill="#75777F"></path>
                    <path d="M45.3650237,17.8577237 C52.0730686,17.8577237 57.5114176,23.2656706 57.5114176,29.9362155 C57.5114176,32.8315523 56.4873764,35.4889006 54.7792987,37.5690122 C51.1422267,41.6319804 51.2756972,45.6949487 51.2756972,45.6949487 L39.4537748,45.6949487 C39.4537748,45.6949487 39.5878206,41.6319804 35.9507486,37.5684401 C34.2426709,35.4889006 33.2180545,32.8315523 33.2180545,29.9362155 C33.2180545,23.2656706 38.6569787,17.8577237 45.3650237,17.8577237" id="Fill-224" fill="#F9CD62"></path>
                    <polygon id="Fill-225" fill="#423E46" points="38.4901406 53.0039437 52.2399068 53.0039437 52.2399068 51.5737239 38.4901406 51.5737239"></polygon>
                    <path d="M40.1406878,44.9798388 L50.5893595,44.9798388 C50.7193782,43.5627771 51.3441584,40.3310526 54.2419648,37.0936072 C55.87928,35.0981646 56.7922875,32.5477967 56.7922875,29.9362155 C56.7922875,23.6707088 51.6663287,18.5728336 45.3650237,18.5728336 C39.0637187,18.5728336 33.9371845,23.6707088 33.9371845,29.9362155 C33.9371845,32.5483688 34.850192,35.0981646 36.5076429,37.1164907 C39.3904914,40.3356293 40.0106691,43.5639213 40.1406878,44.9798388 Z M51.2751219,46.4100586 L38.710482,46.4100586 L38.7352201,45.6714931 C38.7357954,45.6354515 38.7967776,41.8236299 35.4139899,38.0444172 C33.527568,35.7486285 32.4989244,32.8773193 32.4989244,29.9362155 C32.4989244,22.8817996 38.2709497,17.1426138 45.3650237,17.1426138 C52.4590976,17.1426138 58.2305476,22.8817996 58.2305476,29.9362155 C58.2305476,32.8767473 57.2030546,35.7480564 55.3367683,38.0215337 C51.9332697,41.8236299 51.9931013,45.6354515 51.9936766,45.6737814 L52.013237,46.4077702 L51.2751219,46.4100586 L51.2751219,46.4100586 Z" id="Fill-226" fill="#423E46"></path>
                    <path d="M45.3650237,56.846086 C43.9635831,56.846086 42.6461368,56.3037466 41.6554633,55.3180392 L42.6726008,54.3071599 C43.3917309,55.0222698 44.3478861,55.4158662 45.3650237,55.4158662 C46.3815859,55.4158662 47.3377412,55.0222698 48.0568712,54.3071599 L49.0740087,55.3180392 C48.0833352,56.3037466 46.765889,56.846086 45.3650237,56.846086" id="Fill-227" fill="#423E46"></path>
                    <polygon id="Fill-228" fill="#423E46" points="38.4901406 49.6978477 52.2399068 49.6978477 52.2399068 48.267628 38.4901406 48.267628"></polygon>
                    <path d="M42.66167,28.8046256 C41.9494437,30.8504119 40.1383866,32.0844055 38.6155568,31.5609451 C37.0933024,31.0369126 36.4363052,28.9539406 37.1485316,26.9075821 C37.8596073,24.8617958 39.6706644,23.6278022 41.1934942,24.1512627 C42.7157486,24.6747231 43.3733211,26.7582672 42.66167,28.8046256" id="Fill-229" fill="#FFFFFF" opacity="0.434571039"></path>
                    <polygon id="Fill-230" fill="#423E46" points="44.6458936 14.4023128 46.0841537 14.4023128 46.0841537 8.86450196 44.6458936 8.86450196"></polygon>
                    <polyline id="Fill-231" fill="#423E46" points="36.9322172 16.8416956 34.1471705 12.0453107 35.3921284 11.3302008 38.1771752 16.1265857 36.9322172 16.8416956"></polyline>
                    <polyline id="Fill-232" fill="#423E46" points="31.4771845 22.7891214 26.6538355 20.0196439 27.3729656 18.7810736 32.1963145 21.549979 31.4771845 22.7891214"></polyline>
                    <polygon id="Fill-233" fill="#423E46" points="24.1748505 30.6513253 29.7432181 30.6513253 29.7432181 29.2211056 24.1748505 29.2211056"></polygon>
                    <polyline id="Fill-234" fill="#423E46" points="27.3729656 41.0919295 26.6538355 39.8533592 31.4771845 37.0838817 32.1963145 38.322452 27.3729656 41.0919295"></polyline>
                    <polyline id="Fill-235" fill="#423E46" points="63.3565065 41.0919295 58.5331575 38.322452 59.2522875 37.0838817 64.0756365 39.8533592 63.3565065 41.0919295"></polyline>
                    <polyline id="Fill-236" fill="#423E46" points="53.7978301 16.8416956 52.5528722 16.1265857 55.337919 11.3302008 56.5828769 12.0453107 53.7978301 16.8416956"></polyline>
                    <polyline id="Fill-237" fill="#423E46" points="59.2522875 22.7891214 58.5331575 21.549979 63.3565065 18.7810736 64.0756365 20.0196439 59.2522875 22.7891214"></polyline>
                    <polygon id="Fill-238" fill="#423E46" points="60.9856786 30.6513253 66.5551969 30.6513253 66.5551969 29.2211056 60.9856786 29.2211056"></polygon>
                    <polyline id="Fill-239" fill="#423E46" points="73.382905 107.33742 65.2348741 102.659457 65.9540041 101.420314 74.1020351 106.098277 73.382905 107.33742"></polyline>
                    <polyline id="Fill-240" fill="#423E46" points="45.3650237 156.419701 16.2684472 139.714734 16.2684472 124.442276 17.7067073 124.442276 17.7067073 138.889211 45.3650237 154.768655 73.02334 138.889211 73.02334 124.442276 74.4616001 124.442276 74.4616001 139.714734 45.3650237 156.419701"></polyline>
                    <polyline id="Fill-241" fill="#423E46" points="17.3471423 107.33742 16.6280123 106.098277 23.9821236 101.876269 24.7012537 103.115411 17.3471423 107.33742"></polyline>
                    <polyline id="Fill-242" fill="#FFD8D4" points="36.4299768 135.604855 45.3650237 123.009768 16.9875773 106.717848 8.05253045 119.312363 36.4299768 135.604855"></polyline>
                    <polyline id="Fill-243" fill="#FFD8D4" points="54.2994952 135.604855 45.3650237 123.009768 73.74247 106.717848 82.6763663 119.312363 54.2994952 135.604855"></polyline>
                    <path d="M9.09440604,119.084672 L36.2211415,134.658621 L44.3231481,123.238031 L17.1964126,107.66351 L9.09440604,119.084672 Z M36.6393875,136.550516 L7.01123016,119.540627 L16.7781666,105.771615 L46.4063239,122.782077 L36.6393875,136.550516 L36.6393875,136.550516 Z" id="Fill-244" fill="#423E46"></path>
                    <path d="M46.4063239,123.238031 L54.5083305,134.658621 L81.635066,119.084672 L73.5336347,107.66351 L46.4063239,123.238031 Z M54.0906598,136.550516 L44.3231481,122.782077 L73.9513054,105.771615 L83.7182419,119.540627 L54.0906598,136.550516 L54.0906598,136.550516 Z" id="Fill-245" fill="#423E46"></path>
                    <polygon id="Fill-246" fill="#423E46" points="44.6458936 155.594178 46.0841537 155.594178 46.0841537 123.009768 44.6458936 123.009768"></polygon>
                    <path d="M45.3609965,108.959861 L43.9227365,108.959861 C43.9227365,108.662947 43.9273389,108.369466 43.9365438,108.078845 L45.3736532,108.12404 C45.365599,108.399787 45.3609965,108.678394 45.3609965,108.959861" id="Fill-247" fill="#423E46"></path>
                    <path d="M44.7235597,66.4914879 C44.6999722,65.9308418 44.6821378,65.3518888 44.6706317,64.7557732 L46.1088918,64.7271688 C46.1203978,65.3129868 46.137657,65.880498 46.1612444,66.4314187 L44.7235597,66.4914879 Z M44.9887748,69.9755032 C44.9243408,69.4291593 44.8685363,68.8421971 44.8236626,68.2312072 L46.2584708,68.1270872 C46.3016186,68.7174819 46.3545466,69.2827048 46.4172547,69.8084535 L44.9887748,69.9755032 Z M45.6348413,73.4589464 C45.4875634,72.9126025 45.3569694,72.3279286 45.2470863,71.7209434 L46.6629095,71.4675084 C46.7653137,72.0355917 46.8867028,72.5802194 47.0242005,73.0870893 L45.6348413,73.4589464 Z M51.4454119,73.5739361 L51.1669648,72.1706045 C51.7802389,72.050466 52.3975401,71.9800992 53.0021846,71.9617924 L53.0459077,73.39144 C52.5200798,73.4074585 51.9815953,73.4686719 51.4454119,73.5739361 Z M56.147947,73.8977378 C55.676773,73.710093 55.1682043,73.5722198 54.636048,73.4881229 L54.8632931,72.0756379 C55.5001547,72.1768974 56.1122782,72.343375 56.6829798,72.5704939 L56.147947,73.8977378 Z M48.4089573,74.6654798 L47.7180171,73.4114631 C48.2501734,73.1208425 48.8151219,72.8685517 49.396179,72.6597396 L49.8846121,74.0047183 C49.3731668,74.1883585 48.8766794,74.4109007 48.4089573,74.6654798 Z M58.588962,75.6775033 C58.3110902,75.3033578 57.9480733,74.9555283 57.508541,74.6431684 L58.346759,73.4801137 C58.9076804,73.8805752 59.3782791,74.3336688 59.7453231,74.8273807 L58.588962,75.6775033 Z M46.9701219,76.8108094 C46.8199675,76.5430723 46.6772921,76.2650375 46.5438216,75.9789936 C46.3067964,76.1809406 46.0622921,76.4011945 45.810309,76.6380389 L44.8213614,75.5996993 C45.2965625,75.1528987 45.7527786,74.7575859 46.1779283,74.425775 L46.6295419,74.9984349 L47.5344951,74.647173 C47.7375775,75.1631963 47.9700003,75.6569081 48.2260106,76.1151505 L46.9701219,76.8108094 Z M60.5806645,78.6758159 L59.1815251,78.3428608 C59.2350284,78.1220349 59.2620677,77.8874788 59.2620677,77.6472019 C59.2620677,77.4155063 59.236179,77.1838107 59.1861276,76.9584081 L60.5898694,76.6477643 C60.6635083,76.9744265 60.7003278,77.3108142 60.7003278,77.6472019 C60.7003278,77.999608 60.6600565,78.3457212 60.5806645,78.6758159 Z M43.4791771,79.0871471 L42.3918525,78.1506393 C42.7755802,77.7107037 43.1713894,77.2724843 43.571801,76.8502835 L44.6188543,77.83027 C44.23225,78.2387408 43.8496729,78.6615137 43.4791771,79.0871471 Z M49.2063286,79.6884115 C48.7598927,79.2633502 48.3473997,78.8079682 47.9792052,78.3342795 L49.1160059,77.458985 C49.441628,77.8766091 49.8063707,78.2799311 50.2016046,78.656365 L49.2063286,79.6884115 Z M31.1026616,81.2038724 C30.942727,81.1912864 30.7839431,81.1809888 30.6245839,81.1724075 C30.2477598,81.1518124 29.8726615,81.1420869 29.4998645,81.1420869 L29.4285268,81.1420869 L29.4285268,79.7118671 L29.4998645,79.7118671 C29.8985502,79.7118671 30.2995371,79.7227368 30.70225,79.7444761 C30.8725399,79.7536295 31.0428299,79.7644992 31.2125446,79.7776572 L31.1026616,81.2038724 Z M26.1090226,81.4315633 L25.8576148,80.0230829 C26.4357953,79.9212513 27.0346868,79.8434473 27.6370301,79.7913873 L27.7607205,81.2164583 C27.2009497,81.2645137 26.6457813,81.3365967 26.1090226,81.4315633 Z M57.8681061,81.5562785 L57.2749676,80.2536344 C57.7645513,80.0328084 58.195454,79.7547737 58.5187749,79.4492788 L59.5088731,80.4870462 C59.0635878,80.9063867 58.5118713,81.2662299 57.8681061,81.5562785 Z M34.4158374,81.7113143 C33.8629703,81.5860271 33.3072266,81.4801908 32.7652902,81.396666 L32.9867822,79.9830368 C33.5609357,80.0722825 34.1494717,80.1844117 34.7345559,80.316564 L34.4158374,81.7113143 Z M41.3447991,81.7296211 L40.1901639,80.8777823 C40.5163613,80.4395629 40.8788029,79.9727392 41.2659825,79.4939016 L42.38725,80.3892192 C42.0127271,80.8531825 41.6612163,81.305704 41.3447991,81.7296211 Z M52.2514129,81.813146 C51.8820677,81.6689798 51.5317075,81.4887721 51.2112632,81.2759554 C51.0018525,81.1369381 50.7987702,80.9956324 50.6025915,80.8526104 L51.4557674,79.7004254 C51.6335363,79.8308614 51.8187842,79.9595812 52.0092099,80.0860126 C52.2439339,80.2416205 52.5022454,80.374917 52.7766654,80.4813253 L52.2514129,81.813146 Z M54.6533072,82.2445002 C54.4858937,82.2445002 54.3179049,82.2387794 54.1504914,82.2279097 L54.2459919,80.8011225 C54.7580125,80.8343036 55.2763614,80.804555 55.7935597,80.7107326 L56.0518712,82.1174967 C55.5864503,82.2015936 55.1164269,82.2445002 54.6533072,82.2445002 Z M22.9310432,82.3285972 L22.3868056,81.0042137 C22.9327691,80.7833878 23.5092237,80.5865895 24.1012116,80.4212561 L24.4912677,81.7976996 C23.9510572,81.9493029 23.4258046,82.1272222 22.9310432,82.3285972 Z M37.6524979,82.6546873 C37.113438,82.4636099 36.5732275,82.2879789 36.0462491,82.1340873 L36.4518384,80.7616484 C37.0047056,80.9235493 37.57138,81.1071895 38.135178,81.3074203 L37.6524979,82.6546873 Z M20.1425446,83.9510384 L19.2255099,82.8491971 C19.6851779,82.471047 20.1966231,82.119213 20.7460385,81.8028484 L21.4663191,83.0408466 C20.9859403,83.316593 20.5406549,83.6232321 20.1425446,83.9510384 Z M39.4112023,84.5311356 L38.2053651,83.7513798 C38.5114268,83.284556 38.8312958,82.8017139 39.1724511,82.3057136 L39.5308655,82.548851 L39.7851499,81.9418657 C40.3196074,82.1638358 40.8626944,82.4035407 41.3971518,82.6541152 L40.7838777,83.948178 C40.5324698,83.8297558 40.2799114,83.7147661 40.0267776,83.6026369 C39.8139151,83.9184294 39.6096822,84.2285011 39.4112023,84.5311356 Z M43.7932931,85.5237081 C43.3192425,85.249678 42.8227552,84.9745037 42.3044062,84.7039061 L42.9740601,83.4378756 C43.5102435,83.7181987 44.0251406,84.0025263 44.5158749,84.286854 L43.7932931,85.5237081 Z M29.9509029,86.2622735 L29.8128299,84.8383468 C30.1016325,84.8108865 30.3973388,84.7925797 30.6999487,84.7845705 C31.0042846,84.7754171 31.3276054,84.7817101 31.650351,84.7988727 L31.5715343,86.2268041 C31.2919366,86.2113577 31.016366,86.2062089 30.7413706,86.2142182 C30.4704024,86.2216553 30.2080638,86.2376738 29.9509029,86.2622735 Z M18.2054959,86.3772632 L16.9030076,85.7714221 C17.1670721,85.2102039 17.5047756,84.6718644 17.9074884,84.1718644 L19.0299066,85.0671819 C18.6985315,85.477941 18.4212349,85.9190208 18.2054959,86.3772632 Z M65.0024513,86.4888203 L64.8367637,85.067754 C65.3827272,85.0048243 65.9108563,84.9733595 66.4061931,84.9733595 L66.6581763,84.9756479 L66.63689,86.4058676 L66.4061931,86.4035793 C65.9655102,86.4035793 65.4931856,86.4321836 65.0024513,86.4888203 Z M34.7702247,86.8475195 C34.2564782,86.6747489 33.7248973,86.5345874 33.1898646,86.4304674 L33.4660105,85.0271358 C34.0631761,85.1432696 34.6568898,85.2994496 35.2310432,85.4922432 L34.7702247,86.8475195 Z M69.8654962,86.8812726 C69.3552015,86.7353902 68.8178676,86.6209727 68.2684522,86.5408803 L68.4767123,85.1249628 C69.0905617,85.2147806 69.6911791,85.3429283 70.2630313,85.5065454 L69.8654962,86.8812726 Z M26.8937373,87.0837918 L26.2298365,85.8143287 C26.7527878,85.5443032 27.3470769,85.321189 27.9960198,85.152423 L28.3601873,86.5357316 C27.8153744,86.6776094 27.3211882,86.8623937 26.8937373,87.0837918 Z M61.7479564,87.1861955 L61.3268339,85.8183333 C61.9107674,85.6409861 62.4935504,85.4882386 63.0596496,85.3658118 L63.365136,86.7639946 C62.8387328,86.8778401 62.2944952,87.0197179 61.7479564,87.1861955 Z M46.6680873,87.3395151 C46.2348833,87.0408852 45.7602575,86.7262368 45.2493876,86.4030072 L46.0208703,85.1959017 C46.5489993,85.5294289 47.0397337,85.855519 47.4873202,86.1638744 L46.6680873,87.3395151 Z M72.7408657,88.2434139 C72.3404541,87.9453561 71.8830874,87.6753306 71.3796964,87.4407746 L71.9912446,86.1461397 C72.5820818,86.4218861 73.1245935,86.7422553 73.6026712,87.098094 L72.7408657,88.2434139 Z M37.6335129,88.309204 C37.2267729,88.0048533 36.7676803,87.7222419 36.2700423,87.4705232 L36.6065952,86.8131942 L36.3264221,86.623261 C36.6336345,86.1735999 36.9442986,85.698767 37.2670442,85.2004784 L38.475758,85.9750854 C38.2974137,86.2514039 38.1213707,86.5214294 37.9476289,86.7834456 C38.1386298,86.9070166 38.3233024,87.0345922 38.4987701,87.1673166 L37.6335129,88.309204 Z M58.6160013,88.393301 L58.0038778,87.0998102 C58.5423624,86.8475195 59.0929283,86.6123913 59.6400425,86.4007188 L60.1612679,87.7336836 C59.6446449,87.9339144 59.1245701,88.1553124 58.6160013,88.393301 Z M23.8647616,89.0872436 L23.863611,89.0168768 C23.863611,88.3114924 24.1340039,87.6221265 24.6460245,87.0237225 L25.7414033,87.9499328 C25.4497242,88.2914693 25.3018711,88.6507405 25.3018711,89.0168768 L23.8647616,89.0872436 Z M49.3892753,89.389306 C48.904294,89.0014304 48.4532557,88.6444475 48.0424886,88.3315155 L48.9169507,87.1964931 C49.3351967,87.5145739 49.79544,87.8784219 50.2902014,88.2737346 L49.3892753,89.389306 Z M16.1930824,89.4625332 C16.1838776,89.3137904 16.1792751,89.1644754 16.1792751,89.0134442 C16.1792751,88.6118385 16.2126428,88.2039399 16.2770768,87.80119 C16.2885829,87.7279627 16.3023902,87.6490146 16.3179234,87.5700665 L17.7302948,87.8412361 C17.7182134,87.9013054 17.7078579,87.9613746 17.6980778,88.0220159 C17.6445745,88.3555432 17.6175352,88.6873541 17.6175352,89.0134442 C17.6175352,89.1341548 17.620987,89.2542932 17.6290413,89.3732875 L16.1930824,89.4625332 Z M55.6756224,90.0186027 L54.8943595,88.8172181 C55.3919975,88.497421 55.905744,88.1907818 56.4200658,87.9064542 L57.1184849,89.1564662 C56.632353,89.4253475 56.1467964,89.7153961 55.6756224,90.0186027 Z M35.2413987,90.2102521 L34.2501499,89.1736288 C34.6108655,88.8332366 34.967554,88.4396401 35.340351,87.9722443 L36.4673716,88.8606968 C36.0520021,89.3818688 35.6510152,89.8229486 35.2413987,90.2102521 Z M74.5283353,90.599844 C74.378181,90.1404574 74.1451829,89.7039543 73.835094,89.3023486 L74.9764972,88.4322029 C75.3861136,88.9631005 75.6950519,89.5437697 75.895833,90.1570479 L74.5283353,90.599844 Z M39.567685,90.6513319 C39.37841,90.2056754 39.1114689,89.7754653 38.7731901,89.3732875 L39.8766233,88.4562306 C40.3063754,88.9671051 40.648106,89.5185979 40.8920349,90.0946904 L39.567685,90.6513319 Z M52.9866514,92.0214824 L52.3244765,91.2606055 L52.0937795,91.5512261 C51.6254821,91.1822295 51.1709919,90.8195257 50.7354867,90.4688358 L51.6398647,89.3572691 C52.0207159,89.6633361 52.4153745,89.9791286 52.8215391,90.2994978 C53.0234709,90.1387411 53.2282791,89.981989 53.4336626,89.8286695 L54.2954681,90.9739895 C53.8496074,91.3058004 53.4094999,91.6576345 52.9866514,92.0214824 Z M26.4737654,92.1467696 C25.8046868,91.8738837 25.2213285,91.5066033 24.786974,91.0826862 L25.793756,90.0615093 C26.0969412,90.3567066 26.520365,90.6204391 27.0185783,90.8235303 L26.4737654,92.1467696 Z M32.0524885,92.149058 L31.59167,90.7949259 C32.0996634,90.6232996 32.5627832,90.4081945 33.0057673,90.1358807 L33.7611415,91.3527116 C33.2238075,91.6822343 32.6657626,91.9425343 32.0524885,92.149058 Z M29.1046307,92.663365 C28.849771,92.6627929 28.5920348,92.6479186 28.3371751,92.6193143 L28.4988355,91.1982479 C28.8595512,91.2388662 29.2248692,91.2463033 29.5832836,91.2096897 C29.7397663,91.1936712 29.8916466,91.1753644 30.0406503,91.1541971 L30.2431573,92.5701147 C30.0763192,92.5941424 29.9048786,92.6147375 29.7288355,92.6319002 C29.523452,92.6536395 29.3146166,92.663365 29.1046307,92.663365 Z M17.325856,93.0306455 C16.9967821,92.4785806 16.7344435,91.9036323 16.5463191,91.3212468 L17.916118,90.8847437 C18.0702995,91.3647255 18.2883397,91.8412747 18.563335,92.3006613 L17.325856,93.0306455 Z M54.8719227,93.6582259 C54.3967216,93.3155452 53.9284241,92.9659995 53.4699068,92.617598 L54.342643,91.4814314 C54.7925307,91.8229679 55.2516233,92.1645044 55.7170443,92.5008921 L54.8719227,93.6582259 Z M75.8227694,94.0083437 L74.4759827,93.5066226 C74.5611277,93.2806479 74.6244111,93.0449476 74.6635318,92.806387 C74.7061043,92.5535241 74.7302671,92.3006613 74.7354448,92.0563798 L76.1737049,92.0884167 C76.1662259,92.3996325 76.1357348,92.7194296 76.0828068,93.0386547 C76.0281529,93.3698936 75.9401314,93.6959837 75.8227694,94.0083437 Z M40.9633726,94.0386643 L39.692526,93.3687494 C39.8541864,93.0661149 39.8984848,92.8567307 39.9065391,92.7337318 C39.9145933,92.6198863 39.9186204,92.5066129 39.9186204,92.3950558 C39.9186204,92.2909358 39.9151686,92.1873879 39.908265,92.0849842 L41.3436485,91.9900176 C41.3522781,92.1238861 41.3568805,92.2583268 41.3568805,92.3950558 C41.3568805,92.5386499 41.3517028,92.6845323 41.3419226,92.8321309 C41.3154586,93.2125694 41.1877411,93.6181797 40.9633726,94.0386643 Z M50.6163988,94.3802008 L49.5261977,93.4471254 C49.9105008,93.0031852 50.3189666,92.5661101 50.7406645,92.1473417 L51.7572267,93.1582211 C51.3614175,93.5523896 50.9776897,93.9637208 50.6163988,94.3802008 Z M57.7881388,95.6147665 C57.3123624,95.3241458 56.8141491,95.0037766 56.3078815,94.6628122 L57.1150331,93.4785903 C57.587933,93.7978153 58.0642847,94.1050265 58.5417871,94.3967913 L57.7881388,95.6147665 Z M19.7381058,95.8012671 C19.2536998,95.3962289 18.811291,94.9665909 18.4218102,94.524939 L19.5039571,93.5821382 C19.8445371,93.9694417 20.2351685,94.3475918 20.66377,94.706863 L19.7381058,95.8012671 Z M38.3463145,96.737775 L37.5236298,95.5644227 C37.9890507,95.2417652 38.4067215,94.8996566 38.7645606,94.5489667 L39.7747944,95.5667111 C39.3588496,95.9746098 38.8784708,96.3687783 38.3463145,96.737775 Z M73.3190463,96.9259919 L72.5515907,95.716026 C73.0072315,95.4305542 73.3984382,95.1044641 73.7171567,94.7463371 L74.7947011,95.6925704 C74.3862353,96.1531012 73.8897479,96.5672928 73.3190463,96.9259919 Z M48.6333258,97.0610047 L47.4119554,96.3052766 C47.7226196,95.8087043 48.0597477,95.3144203 48.414135,94.8355828 L49.572222,95.6822729 C49.2402716,96.1319339 48.9244297,96.5953251 48.6333258,97.0610047 Z M60.9390789,97.2749656 C60.4224559,97.0535675 59.8793689,96.7915513 59.3259265,96.4963539 L60.0059358,95.2360443 C60.5231341,95.5123627 61.0282511,95.7555001 61.5074793,95.9608797 L60.9390789,97.2749656 Z M22.790669,97.7549473 C22.2441302,97.4900706 21.7119739,97.1925849 21.2091582,96.8727878 L21.984668,95.6679707 C22.4414594,95.9585913 22.9247148,96.2286168 23.4212022,96.4694658 L22.790669,97.7549473 Z M69.8447853,98.221771 L69.5784195,96.8161511 C70.1272595,96.7131752 70.6507862,96.5718695 71.1334663,96.3973827 L71.6265018,97.740073 C71.0701828,97.9425921 70.4707161,98.104493 69.8447853,98.221771 Z M64.4386533,98.2618172 C64.1809171,98.2246315 63.9203044,98.1817249 63.6573905,98.1325253 C63.3346449,98.0724561 62.9946402,97.9917917 62.6500331,97.8922484 L63.0498694,96.5186654 C63.3496028,96.6050506 63.6430079,96.6754174 63.9220303,96.7269054 C64.1671098,96.7726724 64.4087375,96.8121464 64.6474887,96.8476159 L64.4386533,98.2618172 Z M35.1194343,98.4019787 L34.6171938,97.0627209 C35.1372687,96.8693552 35.6435362,96.6473851 36.1210386,96.4019594 L36.7809123,97.6725666 C36.2527832,97.9443084 35.6935877,98.189162 35.1194343,98.4019787 Z M67.1247478,98.4643363 C66.8307675,98.4643363 66.5316094,98.4563271 66.2272736,98.4408807 L66.3014878,97.0129493 C66.8727647,97.0421258 67.4244812,97.0409816 67.9526103,97.0106609 L68.0348788,98.4385923 C67.7374466,98.4551829 67.4342614,98.4643363 67.1247478,98.4643363 Z M26.1895652,98.9734945 C25.6108093,98.8356213 25.027451,98.6617066 24.4561741,98.4563271 L24.944032,97.1113484 C25.4658327,97.2984212 25.9979889,97.4574616 26.5255427,97.583893 L26.1895652,98.9734945 Z M31.6054773,99.2635431 L31.4231059,97.8447651 C31.9684941,97.7761146 32.5127317,97.674855 33.0425867,97.544419 L33.3871938,98.9334484 C32.8044109,99.0764703 32.2049441,99.1874554 31.6054773,99.2635431 Z M29.6051452,99.3899745 L29.3261227,99.3876862 C28.8865904,99.3796769 28.4321003,99.3487842 27.9758842,99.2950079 L28.1455989,97.8750858 C28.5540647,97.9231411 28.9596541,97.9506014 29.3520114,97.9574664 L29.6051452,97.9597548 L29.7817635,97.9586106 L29.7949955,99.3888303 L29.6051452,99.3899745 Z M47.09899,100.012406 L45.7734895,99.458053 C46.0024605,98.9151416 46.2578955,98.3739464 46.5300143,97.8499139 L47.8077646,98.5066708 C47.5523296,98.9975222 47.3135784,99.50382 47.09899,100.012406 Z M46.0479095,103.168615 L44.652222,102.82479 C44.7954727,102.25213 44.9611602,101.678898 45.1458328,101.121112 L46.5121799,101.569629 C46.3384381,102.09309 46.1825307,102.630852 46.0479095,103.168615 Z M45.4835363,106.454116 L44.0521799,106.313382 C44.1108609,105.72356 44.1902528,105.134309 44.2886298,104.559933 L45.7067543,104.80021 C45.613555,105.341405 45.5387655,105.898046 45.4835363,106.454116 L45.4835363,106.454116 Z" id="Fill-248" fill="#423E46"></path>
                    <polyline id="Fill-249" fill="#423E46" points="44.6481948 62.9022084 44.6458936 62.040072 46.0841537 62.040072 46.0864549 62.8941992 44.6481948 62.9022084"></polyline>
                    <path d="M12.6572639,43.8848626 C11.2356876,43.8848626 10.0787512,45.0353313 10.0787512,46.4489605 C10.0787512,47.8631618 11.2356876,49.0136306 12.6572639,49.0136306 C14.0794154,49.0136306 15.2363518,47.8631618 15.2363518,46.4489605 C15.2363518,45.0353313 14.0794154,43.8848626 12.6572639,43.8848626 Z M12.6572639,50.4438503 C10.4423434,50.4438503 8.64049117,48.652071 8.64049117,46.4489605 C8.64049117,44.2464221 10.4423434,42.4546428 12.6572639,42.4546428 C14.8727597,42.4546428 16.6746119,44.2464221 16.6746119,46.4489605 C16.6746119,48.652071 14.8727597,50.4438503 12.6572639,50.4438503 L12.6572639,50.4438503 Z" id="Fill-250" fill="#72C576"></path>
                    <path d="M11.9168476,5.08986602 C10.9083396,5.08986602 10.0879561,5.90566336 10.0879561,6.90853344 C10.0879561,7.91083144 10.9083396,8.72662878 11.9168476,8.72662878 C12.9253556,8.72662878 13.7457391,7.91083144 13.7457391,6.90853344 C13.7457391,5.90566336 12.9253556,5.08986602 11.9168476,5.08986602 Z M11.9168476,10.1568485 C10.1155707,10.1568485 8.64969603,8.69974065 8.64969603,6.90853344 C8.64969603,5.11732624 10.1155707,3.66021836 11.9168476,3.66021836 C13.7181245,3.66021836 15.1839992,5.11732624 15.1839992,6.90853344 C15.1839992,8.69974065 13.7181245,10.1568485 11.9168476,10.1568485 L11.9168476,10.1568485 Z" id="Fill-251" fill="#EEC5C5"></path>
                    <path d="M71.9665065,52.9942182 C71.4774981,52.9942182 71.079963,53.3895309 71.079963,53.8752335 C71.079963,54.3615082 71.4774981,54.756821 71.9665065,54.756821 C72.4555149,54.756821 72.8524747,54.3615082 72.8524747,53.8752335 C72.8524747,53.3895309 72.4555149,52.9942182 71.9665065,52.9942182 Z M71.9665065,56.1870407 C70.6841538,56.1870407 69.6417029,55.1498454 69.6417029,53.8752335 C69.6417029,52.6011938 70.6841538,51.5639984 71.9665065,51.5639984 C73.2482839,51.5639984 74.2907348,52.6011938 74.2907348,53.8752335 C74.2907348,55.1498454 73.2482839,56.1870407 71.9665065,56.1870407 L71.9665065,56.1870407 Z" id="Fill-252" fill="#D976B9"></path>
                    <polyline id="Fill-253" fill="#6FC08D" points="86.0470726 31.6313119 82.1557161 27.7617094 83.1728536 26.750258 87.0636348 30.6198605 86.0470726 31.6313119"></polyline>
                    <polyline id="Fill-254" fill="#6FC08D" points="83.1728536 31.6313119 82.1557161 30.6198605 86.0470726 26.750258 87.0636348 27.7617094 83.1728536 31.6313119"></polyline>
                    <polyline id="Fill-255" fill="#5FAAE7" points="30.0124604 61.2952135 26.121104 57.4250389 27.1376662 56.4141596 31.0295979 60.2837621 30.0124604 61.2952135"></polyline>
                    <polyline id="Fill-256" fill="#5FAAE7" points="27.1376662 61.2952135 26.121104 60.2837621 30.0124604 56.4141596 31.0295979 57.4250389 27.1376662 61.2952135"></polyline>
                    <polyline id="Fill-257" fill="#D695D7" points="3.89135643 29.6965106 2.27373675e-13 25.8269081 1.01713752 24.8154567 4.90791865 28.6856313 3.89135643 29.6965106"></polyline>
                    <polyline id="Fill-258" fill="#D695D7" points="1.01713752 29.6965106 2.27373675e-13 28.6856313 3.89135643 24.8154567 4.90791865 25.8269081 1.01713752 29.6965106"></polyline>
                    <polyline id="Fill-259" fill="#A388DB" points="67.9928816 4.88048185 64.1009499 1.01087931 65.1180874 9.09494702e-13 69.0094438 3.86960253 67.9928816 4.88048185"></polyline>
                    <polyline id="Fill-260" fill="#A388DB" points="65.1180874 4.88048185 64.1009499 3.86960253 67.9928816 9.09494702e-13 69.0094438 1.01087931 65.1180874 4.88048185"></polyline>
                </g>
                <g id="Group-87" transform="translate(128.000000, 18.000000)">
                    <path d="M51.2685293,95.0535424 L51.2685293,76.3673255 L57.0956262,76.3673255 L57.0956262,95.0535424 L51.2685293,95.0535424 Z" id="Fill-157" stroke-opacity="0.85" stroke="#000000" stroke-width="1.21" fill="#F9CD62"></path>
                    <polygon id="Fill-158" stroke-opacity="0.85" stroke="#000000" stroke-width="1.21" fill="#BD79F8" points="49.4351129 85.2184967 58.9290426 85.2184967 58.9290426 75.7641183 49.4351129 75.7641183"></polygon>
                    <path d="M82.9427443,95.0535424 L82.9427443,76.3673255 L88.7679029,76.3673255 L88.7679029,95.0535424 L82.9427443,95.0535424 Z" id="Fill-159" stroke-opacity="0.85" stroke="#000000" stroke-width="1.21" fill="#F9CD62"></path>
                    <polygon id="Fill-160" stroke-opacity="0.85" stroke="#000000" stroke-width="1.21" fill="#BD79F8" points="81.1093279 85.2184967 90.6013193 85.2184967 90.6013193 75.7641183 81.1093279 75.7641183"></polygon>
                    <path d="M114.615021,95.0535424 L114.615021,76.3673255 L120.442118,76.3673255 L120.442118,95.0535424 L114.615021,95.0535424 Z" id="Fill-161" stroke-opacity="0.85" stroke="#000000" stroke-width="1.21" fill="#F9CD62"></path>
                    <polygon id="Fill-162" stroke-opacity="0.85" stroke="#000000" stroke-width="1.21" fill="#BD79F8" points="112.783543 85.2184967 122.275534 85.2184967 122.275534 75.7641183 112.783543 75.7641183"></polygon>
                    <path d="M144.804719,48.9416392 C143.562251,48.9416392 142.366302,49.1269813 141.238195,49.4687058 C142.72877,36.7598356 130.691754,25.8561204 118.139143,28.4912606 C116.987776,23.4057432 114.778082,18.7194837 111.752353,14.6743921 C94.7493409,-8.73451002 57.1554726,-2.97268705 47.6188997,23.6932166 C39.8520201,21.2499828 30.7651393,22.8987553 24.3861024,28.0203758 C5.52229598,42.1729838 16.3653018,73.8160954 40.140831,73.3372949 L144.804719,73.3372949 C149.326838,73.3372949 153.273273,70.8950265 155.393804,67.2634794 C160.191165,59.4540122 154.033097,48.7080309 144.804719,48.9416392" id="Fill-163" stroke-opacity="0.85" stroke="#000000" stroke-width="1.21" fill="#FFF9F9"></path>
                    <g id="Group-90" transform="translate(54.819788, 36.748235)" fill="#000000" fill-opacity="0.85">
                        <path d="M11.3605394,3.84565581 C11.2364864,4.04277487 11.1066185,4.19162775 10.9709355,4.29009075 C10.8352526,4.38855375 10.6588647,4.43681992 10.4437103,4.43681992 C10.2537542,4.43681992 10.0502298,4.37696987 9.83119874,4.2592004 C9.61410602,4.13950028 9.36600006,4.00570644 9.08881918,3.85801195 C8.81357663,3.70993132 8.4976292,3.57671668 8.1429152,3.45740269 C7.78820121,3.33828177 7.38309069,3.27862478 6.92952198,3.27862478 C6.14643754,3.27862478 5.56300086,3.44504655 5.17921196,3.7778901 C4.79542305,4.11054058 4.60352859,4.56038133 4.60352859,5.12799156 C4.60352859,5.48902255 4.71982826,5.78827284 4.95048927,6.02767307 C5.18115028,6.26514266 5.48352942,6.47172189 5.85956502,6.64354947 C6.23560062,6.81537706 6.66397107,6.97369011 7.1466147,7.11848864 C7.62925833,7.26135652 8.1215936,7.42160022 8.62555883,7.59921975 C9.12952407,7.77490863 9.62185934,7.98341851 10.104503,8.22088809 C10.5871466,8.46028832 11.015517,8.7633999 11.3915526,9.13408413 C11.7656499,9.50283771 12.0699674,9.95267847 12.3006284,10.4836064 C12.5312894,11.0126037 12.6475891,11.6516479 12.6475891,12.3988083 C12.6475891,13.2289865 12.5022145,14.0070372 12.2134036,14.7290992 C11.9245928,15.4530918 11.505914,16.0824828 10.9573672,16.6211333 C10.4088204,17.1597838 9.73234402,17.5825955 8.92793797,17.891499 C8.12353193,18.1984719 7.21057952,18.3529237 6.18714243,18.3529237 C5.62696568,18.3529237 5.05515897,18.2950043 4.47366063,18.1810961 C3.89216228,18.0652573 3.33004721,17.9030829 2.78537709,17.694573 C2.24070697,17.4841325 1.72898842,17.235079 1.25022145,16.9474126 C0.771454475,16.6597462 0.354713992,16.3392588 0,15.9859504 L1.23859148,14.0398582 C1.3374462,13.898921 1.46731417,13.7830822 1.62819538,13.6884805 C1.78907658,13.5938788 1.96352609,13.5456126 2.15348222,13.5456126 C2.40158818,13.5456126 2.64969414,13.6247691 2.90167676,13.7811515 C3.15365938,13.9356033 3.43859357,14.1093615 3.75647933,14.2985649 C4.07436509,14.4877683 4.43877072,14.6595959 4.85163455,14.8159783 C5.26449838,14.9723607 5.75101866,15.0495866 6.31119541,15.0495866 C7.07101991,15.0495866 7.66027157,14.883551 8.08088871,14.549549 C8.50150585,14.2174777 8.71278358,13.6904111 8.71278358,12.9664185 C8.71278358,12.5474681 8.59648392,12.2057435 8.3658229,11.9431756 C8.13516189,11.6806076 7.83084442,11.4624444 7.45674715,11.2906169 C7.08071155,11.1168586 6.65427943,10.9662682 6.17551246,10.8349842 C5.69674549,10.7037002 5.20634854,10.556971 4.70238331,10.3967273 C4.19841807,10.2364836 3.70802113,10.0395576 3.22925416,9.8059493 C2.75242552,9.57041036 2.32405507,9.26343748 1.94995779,8.88116937 C1.5739222,8.49890126 1.27154305,8.02203145 1.03894372,7.45055993 C0.808282704,6.87908841 0.693921362,6.17440225 0.693921362,5.33650144 C0.693921362,4.66270563 0.82960431,4.00570644 1.10097021,3.3649247 C1.37427443,2.72394989 1.77356996,2.15305756 2.30273346,1.65166853 C2.82995863,1.15066563 3.47736012,0.749863304 4.24493794,0.450033821 C5.01251576,0.150011274 5.89057827,0 6.88106379,0 C7.43348722,0 7.97234235,0.0432464933 8.49569087,0.129353351 C9.01903938,0.215653273 9.51718963,0.343269041 9.98626497,0.511428397 C10.4572786,0.680166946 10.8953407,0.881340366 11.3043279,1.11533479 C11.7133151,1.34952227 12.0777207,1.61460011 12.3994831,1.91056829 L11.3605394,3.84565581" id="Fill-164"></path>
                        <path d="M18.9452162,15.8257067 C19.4414281,15.8257067 19.8736752,15.7407582 20.2458342,15.567 C20.6160548,15.3951724 20.9920904,15.1152286 21.3720026,14.7290992 L21.3720026,12.9548346 C20.6044248,12.9876556 19.9725299,13.0532976 19.4782563,13.1517606 C18.9839827,13.2502236 18.5905022,13.373785 18.3016913,13.5205142 C18.0128805,13.669174 17.8132327,13.8371403 17.702748,14.0263437 C17.590325,14.2155471 17.5360519,14.4201957 17.5360519,14.6422201 C17.5360519,15.0785463 17.6542899,15.3855192 17.8946425,15.5612081 C18.1330568,15.7388276 18.4838942,15.8257067 18.9452162,15.8257067 Z M23.3510353,18.1559977 C22.988568,18.1559977 22.7133255,18.1058009 22.5291843,18.0073379 C22.3431049,17.9088749 22.1880386,17.7042263 22.0639857,17.3914615 L21.7926198,16.6887059 C21.4708573,16.9609272 21.1607249,17.1983968 20.8641607,17.4030453 C20.5675966,17.6096246 20.2594025,17.7833828 19.9415167,17.9281813 C19.6236309,18.0710492 19.2863619,18.1791654 18.9277712,18.2486687 C18.5691806,18.318172 18.1698851,18.3529237 17.7337613,18.3529237 C17.1483863,18.3529237 16.6153461,18.2776284 16.1365792,18.1251073 C15.6578122,17.9725862 15.2527017,17.7486312 14.917371,17.4532422 C14.5839786,17.1578532 14.326181,16.7890996 14.1439782,16.3508427 C13.9637137,15.9106552 13.8726123,15.402895 13.8726123,14.8275622 C13.8726123,14.3757908 13.9869736,13.9124355 14.2195729,13.4355657 C14.450234,12.9586959 14.8495295,12.5243003 15.4193979,12.1343096 C15.9892662,11.7443189 16.7549057,11.4180396 17.720193,11.1554716 C18.6854803,10.8909729 19.9027501,10.7442438 21.3720026,10.7114228 L21.3720026,10.1689109 C21.3720026,9.42175054 21.2169364,8.88116937 20.9068039,8.54716744 C20.5986098,8.21509615 20.1586094,8.04906051 19.588741,8.04906051 C19.1351723,8.04906051 18.7649517,8.09732668 18.4761409,8.19578968 C18.18733,8.29425268 17.9295324,8.40623021 17.702748,8.52979161 C17.4759637,8.65335302 17.2549943,8.7633999 17.0398399,8.8618629 C16.8266239,8.9603259 16.5707646,9.01052272 16.2722621,9.01052272 C16.0086495,9.01052272 15.7857418,8.94488072 15.6054773,8.81359673 C15.4232745,8.68231273 15.2740233,8.52593032 15.1596619,8.3444495 L14.4657406,7.14937899 C15.2410717,6.46786059 16.1016893,5.96010043 17.0456549,5.62609849 C17.9915589,5.2940272 19.003366,5.12799156 20.0849529,5.12799156 C20.8602841,5.12799156 21.5600204,5.25348362 22.1822237,5.50253708 C22.8044269,5.75352119 23.3335904,6.10296831 23.7658375,6.55087842 C24.2000229,6.99878853 24.531477,7.5316471 24.762138,8.1475235 C24.992799,8.7633999 25.1090987,9.43719572 25.1090987,10.1689109 L25.1090987,18.1559977 L23.3510353,18.1559977 L23.3510353,18.1559977 Z" id="Fill-165"></path>
                        <path d="M32.0017924,15.8257067 C32.496066,15.8257067 32.9283131,15.7407582 33.3004721,15.567 C33.672631,15.3951724 34.0467283,15.1152286 34.4266405,14.7290992 L34.4266405,12.9548346 C33.6590627,12.9876556 33.0291062,13.0532976 32.5328943,13.1517606 C32.0386207,13.2502236 31.6470784,13.373785 31.3582676,13.5205142 C31.0694567,13.669174 30.869809,13.8371403 30.757386,14.0263437 C30.6469013,14.2155471 30.5906898,14.4201957 30.5906898,14.6422201 C30.5906898,15.0785463 30.7089278,15.3855192 30.9492804,15.5612081 C31.1876947,15.7388276 31.5385321,15.8257067 32.0017924,15.8257067 Z M36.4056733,18.1559977 C36.043206,18.1559977 35.7699017,18.1058009 35.5838223,18.0073379 C35.3977428,17.9088749 35.2426766,17.7042263 35.1186236,17.3914615 L34.8472577,16.6887059 C34.5254953,16.9609272 34.2153628,17.1983968 33.9187987,17.4030453 C33.6222345,17.6096246 33.3140404,17.7833828 32.9980929,17.9281813 C32.6802072,18.0710492 32.3409998,18.1791654 31.9824092,18.2486687 C31.6238185,18.318172 31.2264613,18.3529237 30.7883992,18.3529237 C30.2030242,18.3529237 29.6699841,18.2776284 29.1912171,18.1251073 C28.7143884,17.9725862 28.3073396,17.7486312 27.9739472,17.4532422 C27.6386165,17.1578532 27.3808189,16.7890996 27.2005544,16.3508427 C27.0183516,15.9106552 26.9272502,15.402895 26.9272502,14.8275622 C26.9272502,14.3757908 27.0435498,13.9124355 27.2742109,13.4355657 C27.5048719,12.9586959 27.9041674,12.5243003 28.4740358,12.1343096 C29.0439042,11.7443189 29.811482,11.4180396 30.7767692,11.1554716 C31.7420565,10.8909729 32.9573881,10.7442438 34.4266405,10.7114228 L34.4266405,10.1689109 C34.4266405,9.42175054 34.2715743,8.88116937 33.9633802,8.54716744 C33.6532477,8.21509615 33.2132473,8.04906051 32.6453173,8.04906051 C32.1917486,8.04906051 31.8195896,8.09732668 31.5307788,8.19578968 C31.2419679,8.29425268 30.9841703,8.40623021 30.757386,8.52979161 C30.5306016,8.65335302 30.3096322,8.7633999 30.0964162,8.8618629 C29.8812618,8.9603259 29.6254025,9.01052272 29.3288384,9.01052272 C29.0632874,9.01052272 28.8403797,8.94488072 28.6601153,8.81359673 C28.4779124,8.68231273 28.3305995,8.52593032 28.2142999,8.3444495 L27.5223168,7.14937899 C28.297648,6.46786059 29.1563272,5.96010043 30.1022312,5.62609849 C31.0461968,5.2940272 32.0580039,5.12799156 33.1395909,5.12799156 C33.914922,5.12799156 34.6146583,5.25348362 35.2368616,5.50253708 C35.8590648,5.75352119 36.3882283,6.10296831 36.8204754,6.55087842 C37.2546608,6.99878853 37.5861149,7.5316471 37.8167759,8.1475235 C38.0474369,8.7633999 38.1637366,9.43719572 38.1637366,10.1689109 L38.1637366,18.1559977 L36.4056733,18.1559977 L36.4056733,18.1559977 Z" id="Fill-166"></path>
                        <path d="M51.1195198,3.84565581 C50.9954668,4.04277487 50.8655988,4.19162775 50.7299159,4.29009075 C50.594233,4.38855375 50.4178451,4.43681992 50.2046291,4.43681992 C50.0146729,4.43681992 49.8092102,4.37696987 49.5921175,4.2592004 C49.3730864,4.13950028 49.1249805,4.00570644 48.8497379,3.85801195 C48.572557,3.70993132 48.2566096,3.57671668 47.9018956,3.45740269 C47.5471816,3.33828177 47.1440094,3.27862478 46.6904407,3.27862478 C45.9054179,3.27862478 45.3219813,3.44504655 44.9381924,3.7778901 C44.5544034,4.11054058 44.362509,4.56038133 44.362509,5.12799156 C44.362509,5.48902255 44.4788087,5.78827284 44.7094697,6.02767307 C44.9401307,6.26514266 45.2444481,6.47172189 45.6185454,6.64354947 C45.994581,6.81537706 46.4229515,6.97369011 46.9055951,7.11848864 C47.3882387,7.26135652 47.8825123,7.42160022 48.3845392,7.59921975 C48.8885045,7.77490863 49.3808397,7.98341851 49.8634834,8.22088809 C50.346127,8.46028832 50.7744974,8.7633999 51.150533,9.13408413 C51.5265686,9.50283771 51.8289478,9.95267847 52.0596088,10.4836064 C52.2902698,11.0126037 52.4065695,11.6516479 52.4065695,12.3988083 C52.4065695,13.2289865 52.2631332,14.0070372 51.9743224,14.7290992 C51.6855115,15.4530918 51.2668327,16.0824828 50.7182859,16.6211333 C50.1697392,17.1597838 49.4932627,17.5825955 48.6888567,17.891499 C47.8844507,18.1984719 46.9695599,18.3529237 45.9480612,18.3529237 C45.3859461,18.3529237 44.8141394,18.2950043 44.232641,18.1810961 C43.6511427,18.0652573 43.0890276,17.9030829 42.5443575,17.694573 C41.9996874,17.4841325 41.4879688,17.235079 41.0092018,16.9474126 C40.5304349,16.6597462 40.1136944,16.3392588 39.7589804,15.9859504 L40.9975719,14.0398582 C41.0964266,13.898921 41.2262946,13.7830822 41.3871758,13.6884805 C41.548057,13.5938788 41.7225065,13.5456126 41.9124626,13.5456126 C42.1605686,13.5456126 42.4106129,13.6247691 42.6625955,13.7811515 C42.9126398,13.9356033 43.197574,14.1093615 43.5154597,14.2985649 C43.8333455,14.4877683 44.1977511,14.6595959 44.610615,14.8159783 C45.0234788,14.9723607 45.5099991,15.0495866 46.0701758,15.0495866 C46.8300003,15.0495866 47.419252,14.883551 47.8398691,14.549549 C48.2604862,14.2174777 48.471764,13.6904111 48.471764,12.9664185 C48.471764,12.5474681 48.3554643,12.2057435 48.1248033,11.9431756 C47.8941423,11.6806076 47.5917631,11.4624444 47.2157276,11.2906169 C46.839692,11.1168586 46.4132598,10.9662682 45.9344929,10.8349842 C45.4557259,10.7037002 44.9653289,10.556971 44.4613637,10.3967273 C43.9593368,10.2364836 43.4689399,10.0395576 42.9901729,9.8059493 C42.5114059,9.57041036 42.0849738,9.26343748 41.7089382,8.88116937 C41.3329026,8.49890126 41.0305235,8.02203145 40.7998624,7.45055993 C40.5692014,6.87908841 40.4529018,6.17440225 40.4529018,5.33650144 C40.4529018,4.66270563 40.5885847,4.00570644 40.8618889,3.3649247 C41.1332548,2.72394989 41.5325504,2.15305756 42.0617139,1.65166853 C42.588939,1.15066563 43.2363405,0.749863304 44.0039183,0.450033821 C44.7714962,0.150011274 45.6495587,0 46.6400442,0 C47.1924676,0 47.7313228,0.0432464933 48.2546713,0.129353351 C48.7780198,0.215653273 49.27617,0.343269041 49.7471837,0.511428397 C50.216259,0.680166946 50.6562594,0.881340366 51.0633083,1.11533479 C51.4722955,1.34952227 51.8367011,1.61460011 52.1584635,1.91056829 L51.1195198,3.84565581" id="Fill-167"></path>
                    </g>
                    <path d="M53.6005794,97.5649844 L54.7635761,97.5649844 L54.7635761,96.0204668 L53.6005794,96.0204668 L53.6005794,97.5649844 Z M53.6005794,102.198537 L54.7635761,102.198537 L54.7635761,100.65402 L53.6005794,100.65402 L53.6005794,102.198537 Z M54.6026949,106.89001 L53.4455132,106.760656 C53.5017247,106.26448 53.5424296,105.75865 53.5695662,105.258613 L54.7306245,105.316532 C54.7034879,105.839738 54.6608447,106.370666 54.6026949,106.89001 Z M53.6374076,111.525493 L52.5267458,111.185699 C52.6740587,110.706899 52.8078033,110.218445 52.924103,109.729991 L54.0560865,110.000282 C53.9320335,110.509973 53.7924739,111.023525 53.6374076,111.525493 Z M51.8289478,115.906131 L50.7996957,115.367481 C51.0342334,114.923432 51.2571411,114.465868 51.4626038,114.010236 L52.5228691,114.483244 C52.3077148,114.962045 52.0751154,115.440845 51.8289478,115.906131 Z M49.2432185,119.877472 L48.3302661,119.161202 C48.6403985,118.76735 48.944716,118.359984 49.2315885,117.946825 L50.1871841,118.607106 C49.8867433,119.039571 49.5688575,119.466244 49.2432185,119.877472 Z M45.9732594,123.310163 L45.2076199,122.439441 C45.5836555,122.1093 45.9577528,121.763714 46.3144051,121.410406 L47.1323795,122.232861 C46.7582822,122.603546 46.3686783,122.964577 45.9732594,123.310163 Z M42.1314937,126.090294 L41.536427,125.09408 C41.9686741,124.839235 42.3989829,124.567014 42.8137851,124.285139 L43.4670015,125.24274 C43.0328161,125.538129 42.583124,125.821934 42.1314937,126.090294 Z M37.8419742,128.119404 L37.4426786,127.030519 C37.9136923,126.860622 38.384706,126.671419 38.846028,126.470632 L39.3112267,127.532488 C38.8305214,127.740997 38.3362478,127.939854 37.8419742,128.119404 Z M33.2481372,129.326059 L33.0562428,128.183116 C33.5524547,128.100098 34.0525433,128.001635 34.5410019,127.889657 L34.8026761,129.019086 C34.2909576,129.136855 33.7676091,129.23918 33.2481372,129.326059 Z M28.989631,129.675506 L28.5205557,129.675506 L28.5205557,128.517118 L28.983816,128.517118 C29.33853,128.515187 29.693244,128.509395 30.0460197,128.49395 L30.0964162,129.652338 C29.7281339,129.667783 29.3559749,129.675506 28.989631,129.675506 Z M23.9150887,129.745009 L23.827864,128.590482 C24.3512125,128.549939 24.8842526,128.526771 25.4114778,128.519048 L25.4269844,129.677436 C24.9230192,129.685159 24.4151773,129.708327 23.9150887,129.745009 Z M19.4414281,130.496031 L19.1429256,129.376255 C19.6507675,129.24111 20.1702394,129.12141 20.6877729,129.017155 L20.9164956,130.154306 C20.422222,130.252769 19.9260101,130.366677 19.4414281,130.496031 Z M15.1809835,132.057924 L14.6789566,131.013444 C15.1557853,130.785628 15.6442439,130.571326 16.1327025,130.376331 L16.5688263,131.44977 C16.1016893,131.637043 15.6345523,131.841692 15.1809835,132.057924 Z M11.2830063,134.374701 L10.5987766,133.440267 C11.0232704,133.131364 11.4652091,132.830183 11.9071478,132.548309 L12.5351661,133.523285 C12.1106723,133.793576 11.6900551,134.079312 11.2830063,134.374701 Z M7.87930262,137.363342 L7.03225336,136.567916 C7.39472066,136.187578 7.77269459,135.813033 8.1564835,135.453932 L8.95119791,136.299556 C8.58485395,136.64128 8.22432497,137.000381 7.87930262,137.363342 Z M5.08035724,140.919594 L4.10150168,140.292134 C4.38643587,139.851946 4.69075334,139.413689 5.00282412,138.992808 L5.93903646,139.678188 C5.64053398,140.081693 5.35172313,140.498713 5.08035724,140.919594 Z M2.98308653,144.921825 L1.90731458,144.483568 C2.10696235,144.000907 2.32211674,143.514384 2.55083942,143.043306 L3.59947478,143.547205 C3.38044373,143.997045 3.17304265,144.460401 2.98308653,144.921825 Z M1.6650236,149.246475 L0.525286841,149.012866 C0.631894872,148.499314 0.754009525,147.981901 0.891630801,147.476071 L2.01392261,147.779183 C1.88405465,148.261845 1.76581665,148.75609 1.6650236,149.246475 Z M1.16687335,153.73716 L0.00387665565,153.715922 C0.0135682948,153.190786 0.0407048844,152.659859 0.0814097688,152.138584 L1.24052981,152.231255 C1.20176325,152.729362 1.17656499,153.235191 1.16687335,153.73716 Z M0,158.361059 L1.1629967,158.361059 L1.1629967,156.816542 L0,156.816542 L0,158.361059 Z M0,162.994612 L1.1629967,162.994612 L1.1629967,161.450094 L0,161.450094 L0,162.994612 Z" id="Fill-193" fill="#C9A0A0"></path>
                    <path d="M116.947071,97.5649844 L118.110068,97.5649844 L118.110068,96.0204668 L116.947071,96.0204668 L116.947071,97.5649844 Z M116.947071,102.198537 L118.110068,102.198537 L118.110068,100.65402 L116.947071,100.65402 L116.947071,102.198537 Z M116.947071,106.835951 L116.947071,105.287573 L118.110068,105.287573 L118.110068,106.828229 L116.947071,106.835951 Z M117.41227,111.5448 C117.311477,111.031247 117.228129,110.506111 117.160287,109.986767 L118.313592,109.838108 C118.377557,110.334284 118.458967,110.836252 118.553945,111.326636 L117.41227,111.5448 Z M118.738086,116.093404 C118.544253,115.60302 118.363989,115.102982 118.201169,114.602944 L119.307954,114.245775 C119.463021,114.722645 119.635532,115.201445 119.821611,115.668662 L118.738086,116.093404 Z M120.887692,120.31766 C120.606634,119.873611 120.337207,119.414117 120.083286,118.954623 L121.104784,118.398596 C121.345137,118.838784 121.602935,119.277041 121.872362,119.701783 L120.887692,120.31766 Z M123.7758,124.076629 C123.419148,123.692431 123.06831,123.290856 122.736856,122.88349 L123.638179,122.151774 C123.956065,122.539834 124.289457,122.924033 124.630603,123.290856 L123.7758,124.076629 Z M127.301618,127.244821 C126.881001,126.932056 126.464261,126.599985 126.063027,126.262122 L126.815098,125.377885 C127.198887,125.702234 127.596244,126.01693 127.999416,126.318111 L127.301618,127.244821 Z M131.350785,129.71798 C130.879772,129.486302 130.408758,129.237249 129.951313,128.976612 L130.528934,127.970744 C130.965058,128.219798 131.41475,128.457267 131.864442,128.679292 L131.350785,129.71798 Z M135.789556,131.405365 C135.283652,131.266359 134.773872,131.106115 134.275722,130.934288 L134.657573,129.841541 C135.132463,130.003716 135.618983,130.156237 136.101627,130.291382 L135.789556,131.405365 Z M140.464803,132.249058 C139.941454,132.202723 139.410352,132.140942 138.89088,132.063716 L139.063392,130.918842 C139.559604,130.992207 140.065507,131.052057 140.565596,131.094531 L140.464803,132.249058 Z M143.614585,132.347521 L145.165248,132.347521 L145.165248,131.189133 L143.614585,131.189133 L143.614585,132.347521 Z M148.266572,132.347521 L149.817234,132.347521 L149.817234,131.189133 L148.266572,131.189133 L148.266572,132.347521 Z M152.918559,132.347521 L154.469221,132.347521 L154.469221,131.189133 L152.918559,131.189133 L152.918559,132.347521 Z M157.570546,132.347521 L159.121208,132.347521 L159.121208,131.189133 L157.570546,131.189133 L157.570546,132.347521 Z M163.678217,132.586921 C163.182005,132.517418 162.676101,132.461429 162.174074,132.422816 L162.263237,131.26829 C162.790463,131.308833 163.319626,131.366753 163.841036,131.440117 L163.678217,132.586921 Z M168.091789,133.62754 C167.616899,133.467296 167.130379,133.320567 166.643858,133.189283 L166.946237,132.071439 C167.456018,132.208515 167.965798,132.361036 168.463948,132.529002 L168.091789,133.62754 Z M172.239811,135.463586 C171.801749,135.218393 171.350118,134.982854 170.89655,134.766622 L171.400515,133.722142 C171.875405,133.949958 172.350295,134.197081 172.809679,134.453857 L172.239811,135.463586 Z M175.978845,138.027485 C175.593118,137.706997 175.191884,137.394233 174.784835,137.096913 L175.47488,136.16441 C175.899374,136.475245 176.319991,136.803455 176.723163,137.139387 L175.978845,138.027485 Z M179.182901,141.228498 C178.861139,140.842368 178.52387,140.462031 178.180786,140.097138 L179.029773,139.305573 C179.388364,139.687841 179.741139,140.085554 180.07647,140.48906 L179.182901,141.228498 Z M181.743432,144.956577 C181.499203,144.520251 181.237529,144.083924 180.968101,143.663043 L181.946957,143.039444 C182.229952,143.479632 182.503257,143.935265 182.759116,144.392828 L181.743432,144.956577 Z M183.573214,149.088162 C183.414271,148.615153 183.237883,148.138283 183.047927,147.674928 L184.127575,147.240532 C184.325285,147.727055 184.509426,148.225162 184.676122,148.721339 L183.573214,149.088162 Z M184.604404,153.488106 C184.536562,152.99193 184.451276,152.491892 184.352421,152.001508 L185.492158,151.773692 C185.596828,152.287244 185.685991,152.810449 185.757709,153.329793 L184.604404,153.488106 Z M186,158.030919 L184.837003,158.030919 L184.837003,156.866738 C184.837003,156.741246 184.835065,156.617685 184.833127,156.494124 L185.996123,156.476748 C185.998062,156.606101 186,156.735454 186,156.866738 L186,158.030919 Z M184.837003,162.664471 L186,162.664471 L186,161.119954 L184.837003,161.119954 L184.837003,162.664471 Z M184.837003,167.298024 L186,167.298024 L186,165.753507 L184.837003,165.753507 L184.837003,167.298024 Z M184.837003,171.931577 L186,171.931577 L186,170.38706 L184.837003,170.38706 L184.837003,171.931577 Z M184.837003,176.56513 L186,176.56513 L186,175.020612 L184.837003,175.020612 L184.837003,176.56513 Z M184.837003,181.198683 L186,181.198683 L186,179.654165 L184.837003,179.654165 L184.837003,181.198683 Z M184.837003,185.832236 L186,185.832236 L186,184.287718 L184.837003,184.287718 L184.837003,185.832236 Z M184.837003,190.465789 L186,190.465789 L186,188.921271 L184.837003,188.921271 L184.837003,190.465789 Z M184.837003,195.099341 L186,195.099341 L186,193.554824 L184.837003,193.554824 L184.837003,195.099341 Z M184.837003,199.732894 L186,199.732894 L186,198.188377 L184.837003,198.188377 L184.837003,199.732894 Z M184.837003,204.366447 L186,204.366447 L186,202.82193 L184.837003,202.82193 L184.837003,204.366447 Z M184.837003,209 L186,209 L186,207.455482 L184.837003,207.455482 L184.837003,209 Z" id="Fill-194" fill="#C9A0A0"></path>
                    <path d="M85.2747944,97.5649844 L86.4377911,97.5649844 L86.4377911,96.0204668 L85.2747944,96.0204668 L85.2747944,97.5649844 Z M85.2747944,102.198537 L86.4377911,102.198537 L86.4377911,100.65402 L85.2747944,100.65402 L85.2747944,102.198537 Z M85.2747944,106.83209 L86.4377911,106.83209 L86.4377911,105.287573 L85.2747944,105.287573 L85.2747944,106.83209 Z M85.2747944,111.465643 L86.4377911,111.465643 L86.4377911,109.921125 L85.2747944,109.921125 L85.2747944,111.465643 Z M85.2747944,116.099196 L86.4377911,116.099196 L86.4377911,114.554678 L85.2747944,114.554678 L85.2747944,116.099196 Z M85.2747944,120.732749 L86.4377911,120.732749 L86.4377911,119.188231 L85.2747944,119.188231 L85.2747944,120.732749 Z M85.2747944,125.366302 L86.4377911,125.366302 L86.4377911,123.821784 L85.2747944,123.821784 L85.2747944,125.366302 Z M85.2747944,129.999854 L86.4377911,129.999854 L86.4377911,128.455337 L85.2747944,128.455337 L85.2747944,129.999854 Z M85.6760283,134.712564 C85.5810502,134.197081 85.5015788,133.670014 85.4414906,133.14874 L86.596734,133.015525 C86.6548839,133.511701 86.7304786,134.01367 86.8196417,134.504054 L85.6760283,134.712564 Z M86.9805229,139.270821 C86.7886285,138.782368 86.608364,138.2804 86.4474828,137.778431 L87.554268,137.425123 C87.7073959,137.901993 87.879907,138.380793 88.0640482,138.846079 L86.9805229,139.270821 Z M89.1456351,143.491216 C88.8626393,143.049098 88.589335,142.591534 88.3334758,142.13204 L89.3510979,141.572153 C89.5953272,142.01041 89.8550631,142.446736 90.126429,142.867617 L89.1456351,143.491216 Z M92.0822018,147.219295 C91.7197345,146.838958 91.3630821,146.441244 91.0258131,146.03967 L91.9155056,145.296371 C92.2392063,145.678639 92.5784137,146.057046 92.9253744,146.420007 L92.0822018,147.219295 Z M95.6797382,150.317984 C95.2494294,150.012941 94.8249356,149.692454 94.4140102,149.362313 L95.1466981,148.462632 C95.5382403,148.777327 95.9433508,149.08237 96.352338,149.371967 L95.6797382,150.317984 Z M99.8025615,152.671442 C99.3237945,152.457141 98.8430892,152.221602 98.3778906,151.97641 L98.924499,150.953167 C99.3683761,151.186775 99.8238831,151.41073 100.27939,151.615379 L99.8025615,152.671442 Z M104.307235,154.190862 C103.793579,154.071162 103.277983,153.934086 102.774018,153.781564 L103.111287,152.673373 C103.590054,152.818172 104.082389,152.949456 104.570848,153.063364 L104.307235,154.190862 Z M109.01931,154.816391 C108.494023,154.797085 107.960983,154.760403 107.437635,154.708275 L107.553934,153.555679 C108.052085,153.605876 108.559927,153.640627 109.061954,153.658003 L109.01931,154.816391 Z M113.675174,154.84342 C113.434821,154.835698 113.194468,154.833767 112.952177,154.833767 L112.141956,154.833767 L112.141956,153.675379 L112.952177,153.675379 C113.206098,153.675379 113.458081,153.67924 113.710064,153.685032 L113.675174,154.84342 Z M118.170156,155.411031 C117.681697,155.300984 117.181609,155.206382 116.685397,155.127225 L116.869538,153.982352 C117.38901,154.06537 117.914297,154.165763 118.427954,154.281602 L118.170156,155.411031 Z M122.475182,156.833917 C122.01386,156.631199 121.542846,156.440065 121.071833,156.268238 L121.473067,155.181284 C121.96734,155.362764 122.463552,155.561621 122.946196,155.775923 L122.475182,156.833917 Z M126.419679,159.058023 C126.008754,158.770356 125.582322,158.492343 125.153951,158.231706 L125.758709,157.243215 C126.208402,157.515436 126.656155,157.806964 127.088402,158.108144 L126.419679,159.058023 Z M129.866026,161.990676 C129.517127,161.631575 129.150783,161.278267 128.780563,160.940404 L129.563647,160.085127 C129.953251,160.438435 130.33704,160.80912 130.703384,161.187526 L129.866026,161.990676 Z M132.682416,165.52569 C132.411051,165.10674 132.120301,164.68972 131.819861,164.288146 L132.754135,163.596974 C133.068144,164.017855 133.372461,164.456112 133.659334,164.894369 L132.682416,165.52569 Z M134.766119,169.527922 C134.580039,169.066497 134.376515,168.603142 134.159422,168.15137 L135.209996,167.651333 C135.43678,168.124341 135.649996,168.610864 135.845767,169.097387 L134.766119,169.527922 Z M136.037662,173.860294 C135.942684,173.367979 135.832199,172.873733 135.708146,172.38914 L136.834315,172.101474 C136.966121,172.609234 137.082421,173.128578 137.179337,173.644061 L136.037662,173.860294 Z M137.609646,178.360632 L136.446649,178.35677 L136.446649,178.233209 C136.446649,177.771784 136.433081,177.306498 136.405944,176.848935 L137.567003,176.781362 C137.596077,177.260163 137.609646,177.750547 137.609646,178.233209 L137.609646,178.360632 Z M137.130879,183.073341 L135.991142,182.845525 C136.088058,182.35514 136.171407,181.857033 136.239248,181.360857 L137.390615,181.513378 C137.322773,182.034653 137.23361,182.557858 137.130879,183.073341 Z M135.748851,187.610362 L134.673079,187.168243 C134.864974,186.704888 135.045238,186.229949 135.206119,185.75694 L136.307089,186.127625 C136.138455,186.625732 135.950437,187.125769 135.748851,187.610362 Z M133.512021,191.796004 L132.542857,191.15503 C132.821976,190.73801 133.089465,190.307476 133.33951,189.87308 L134.34744,190.450343 C134.085766,190.905976 133.804708,191.357747 133.512021,191.796004 Z M130.515366,195.473887 L129.685762,194.659154 C130.038537,194.303915 130.38356,193.9313 130.713075,193.552893 L131.593076,194.311637 C131.246116,194.709351 130.883648,195.099341 130.515366,195.473887 Z M126.867433,198.510795 L126.21034,197.555124 C126.625142,197.27325 127.036067,196.974 127.431486,196.665096 L128.148668,197.576362 C127.733866,197.90071 127.303557,198.215406 126.867433,198.510795 Z M122.707781,200.796681 L122.246459,199.732894 C122.707781,199.535968 123.167165,199.319736 123.612981,199.09385 L124.142144,200.124816 C123.673069,200.362285 123.190425,200.588171 122.707781,200.796681 Z M118.175971,202.240805 L117.931742,201.109446 C118.422139,201.00326 118.914474,200.881629 119.399056,200.744553 L119.716942,201.858537 C119.2091,202.001405 118.691566,202.130758 118.175971,202.240805 Z M113.454204,202.789109 L113.430944,201.63072 C113.932971,201.621067 114.442752,201.594038 114.940902,201.553494 L115.037818,202.708021 C114.51447,202.750496 113.98143,202.777525 113.454204,202.789109 Z M104.138601,202.79297 L105.689263,202.79297 L105.689263,201.634582 L104.138601,201.634582 L104.138601,202.79297 Z M108.790588,202.79297 L110.34125,202.79297 L110.34125,201.634582 L108.790588,201.634582 L108.790588,202.79297 Z" id="Fill-195" fill="#C9A0A0"></path>
                </g>
                <g id="Group-94" transform="translate(0.000000, 173.900000)">
                    <g id="Group-89">
                        <g id="Group-86">
                            <mask id="mask-4" fill="white">
                                <use xlink:href="#path-3"></use>
                            </mask>
                            <rect stroke-opacity="0.85" stroke="#000000" stroke-width="1.452" x="-0.726" y="-0.726" width="368.938314" height="136.442625" rx="17.424"></rect>
                            <mask id="mask-6" fill="white">
                                <use xlink:href="#path-5"></use>
                            </mask>
                            <rect stroke-opacity="0.85" stroke="#000000" stroke-width="2.0328" x="2.94927965" y="-2.3398375" width="369.519114" height="137.023425" rx="17.424"></rect>
                        </g>
                        <g id="Group-9" transform="translate(48.910049, 18.604036)">
                            <text id="CINICLOUD" font-family="HelveticaNeue-CondensedBold, Helvetica Neue" font-size="49.5811218" font-style="condensed" font-weight="bold" fill="#000000" fill-opacity="0.85">
                                <tspan x="56.2912158" y="48">CINICLOUD</tspan>
                            </text>
                            <g id="gjghjhg" transform="translate(0.000000, 5.378487)" fill-rule="nonzero">
                                <path d="M43.5072113,7.92080928 C43.0241054,7.40563525 42.5183539,6.91235611 41.9975053,6.438396 C37.3818231,2.28397456 31.444877,-0.00510020184 25.2988986,0 C11.448604,0 0.197519871,11.3956581 0,25.5268818 C0.147196337,19.4607076 3.87113785,14.6077682 9.09220451,12.0460653 C10.6152293,11.2996883 12.2258396,10.7572962 13.884263,10.4322827 C20.0036048,9.22548752 27.0954488,10.921698 32.8361059,15.5659919 C32.8548988,15.5780681 32.8725844,15.5918625 32.8889457,15.6072058 C33.164467,15.8197151 33.4274075,16.0425279 33.6827994,16.27822 L33.6827994,16.27822 C42.6592598,23.8332472 49.4428722,14.8434603 43.5072113,7.92080928 Z" id="Shape" fill="url(#linearGradient-7)"></path>
                                <path d="M33.6895216,33.4281494 L33.6895216,33.4281494 C33.4580304,33.6432343 33.2177324,33.8454399 32.9686278,34.0399179 C27.2052512,38.7550429 20.0541853,40.4860257 13.8907315,39.2689284 C12.2365925,38.9425411 10.6299798,38.401087 9.1099345,37.6577235 C3.87621989,35.1037511 0.152230641,30.2508171 0,24.1833617 C0.192489985,38.3171455 11.4487507,49.7102436 25.2941905,49.7102436 C30.2717476,49.718856 35.1399856,48.2160033 39.2830541,45.3917649 L39.3082162,45.3775977 C40.8282847,44.3402988 42.2345956,43.1381402 43.5027365,41.7919904 C43.507153,41.7846704 43.5122059,41.7777734 43.5178338,41.7713835 C49.4359572,34.8500281 42.6497417,25.88601 33.6895216,33.4281494 Z" id="Shape" fill="url(#linearGradient-8)"></path>
                                <path d="M25.2818787,37.230626 C19.14207,37.2315167 13.8970251,32.7940076 12.8680873,26.7280826 C11.8391494,20.6621575 15.326431,14.7370765 21.1216651,12.7048051 C21.1274647,12.7060667 21.1334669,12.7060667 21.1392665,12.7048051 C25.0881556,11.3275628 29.4615468,12.0024849 32.8140154,14.5065068 C27.0772203,9.96319483 19.9901473,8.30386543 13.8749224,9.48442098 C12.2217203,9.80169901 10.6160617,10.3305825 9.09740288,11.0580751 C3.8735625,13.569118 0.152126278,18.3165387 0,24.2508147 C0,24.3768079 0,24.4939815 0,24.6149349 C0,24.7358883 0,24.8555817 0,24.9815748 C0.14709731,30.9183707 3.86853354,35.6657915 9.08608771,38.1692748 C10.607082,38.8969837 12.214737,39.4266757 13.8698934,39.7454487 C20.030379,40.9360837 27.1752851,39.2414763 32.9347106,34.630128 C30.7403543,36.3201501 28.049401,37.2345592 25.2818787,37.230626 Z" id="Shape" fill="url(#linearGradient-9)"></path>
                                <path d="M0,23.7035331 C0.329599673,18.0201519 4.00570943,13.4799651 9.10629594,11.0531839 C10.6334666,10.3271678 12.2484291,9.79928455 13.9113793,9.48254499 C20.0538039,8.30801296 27.1723991,9.95887601 32.9347106,14.4790068 C29.5691308,11.9873436 25.1779811,11.314029 21.2118226,12.6814839 C21.2059972,12.682739 21.1999683,12.682739 21.1941429,12.6814839 C20.6220423,12.8803352 20.0653357,13.1203927 19.5284649,13.3997409 C8.78301044,10.415151 0.443254732,18.0063634 0,23.7035331 Z" id="Shape" fill="url(#linearGradient-10)" style="mix-blend-mode: multiply;"></path>
                                <path d="M25.3779967,49.7102436 C16.450061,49.7138779 8.18734111,44.7236001 3.65941229,36.593245 C7.89761276,44.3394815 19.2212022,47.4512175 28.5259445,45.0902705 C36.2404218,43.1358355 42.3834315,37.0646399 43.9837218,31.4767565 C46.2394169,33.6457027 46.5689991,37.8763396 43.5300765,41.5481881 C43.5244707,41.5547576 43.5194376,41.5618485 43.5150385,41.5693743 C42.2518776,42.9533701 40.8510891,44.1893266 39.3369899,45.2557884 L39.3119266,45.270354 C35.1851278,48.1739938 30.3360071,49.7190981 25.3779967,49.7102436 L25.3779967,49.7102436 Z" id="Shape" fill="url(#linearGradient-11)" style="mix-blend-mode: multiply;"></path>
                                <path d="M2.46316303,32.8202766 C0.919577091,30.5571486 0.0636015319,27.8892227 0,25.1430286 C0,25.0157533 0,24.8973872 0,24.7739301 C0,24.6504731 0,24.5282888 0,24.4061044 C0.147638358,18.4114363 3.88276263,13.6157018 9.1195078,11.0841954 C10.6470456,10.3461779 12.2624945,9.80975086 13.9259566,9.48816277 C20.0636743,8.29559291 27.1768146,9.97180903 32.9347106,14.5613575 C29.5717098,12.0314287 25.1839249,11.3477737 21.2208057,12.7362292 C21.2149847,12.7375036 21.2089605,12.7375036 21.2031396,12.7362292 C17.833882,13.9301625 15.120435,16.5024946 13.7303673,19.8203742 C6.27778488,18.7932623 0.609481426,25.2270303 2.46316303,32.8202766 Z" id="Shape" fill="url(#linearGradient-12)" style="mix-blend-mode: multiply;"></path>
                            </g>
                        </g>
                        <g id="Group-88" transform="translate(23.794078, 96.610937)">
                            <rect id="Rectangle" stroke="#050505" stroke-width="1.32" fill="#262626" x="0.66" y="1.9834375" width="70.0622337" height="70.145625" rx="10.56"></rect>
                            <rect id="Rectangle" stroke="#050505" stroke-width="1.32" fill="#98CC7D" x="1.98189322" y="0.66" width="70.0622337" height="70.145625" rx="10.56"></rect>
                            <g id="4731098_armchair_chair_furniture_interior_sofa_icon" transform="translate(19.828398, 18.528125)" fill="#FFFFFF" fill-rule="nonzero">
                                <path d="M7.12272531,10.6891976 C7.1405025,10.8670545 7.60330187,15.7462612 7.69811352,18.2421859 C10.1987708,17.3825444 18.2696127,15.1296907 26.6722953,18.2244002 C26.7671069,15.722547 27.2293137,10.8611259 27.2476835,10.6358406 C27.2476835,8.72684356 28.8470375,7.12613176 30.8090461,7.12613176 C31.0105209,7.12613176 31.2119956,7.14391745 31.4075447,7.17948882 L31.4075447,7.11427464 C31.4075447,3.1836379 28.2254286,0 24.2966708,0 L10.073738,0 C6.14498016,0 2.96286411,3.1836379 2.96286411,7.11427464 L2.96286411,7.17948882 C3.15841314,7.14391745 3.3598879,7.12613176 3.56136266,7.12613176 C5.52277869,7.12613176 7.12272531,8.72684356 7.12272531,10.6891976 Z" id="Path"></path>
                                <path d="M3.56136266,27.2713861 C3.36581362,27.2713861 3.16433887,27.2536004 2.96286411,27.2180291 L2.96286411,29.6546681 L31.4063595,29.6546681 L31.4063595,27.2180291 C31.2048848,27.2536004 31.00341,27.2713861 30.807861,27.2713861 L3.56136266,27.2713861 L3.56136266,27.2713861 Z" id="Path"></path>
                                <polygon id="Path" points="2.96286411 34.409375 4.74058257 34.409375 5.26204665 30.2475243 2.96286411 30.2475243"></polygon>
                                <polygon id="Path" points="29.6286411 34.409375 31.4063595 34.409375 31.4063595 30.2475243 29.107177 30.2475243"></polygon>
                                <path d="M31.4063595,7.7782736 C31.2167362,7.74270223 31.0152615,7.71898798 30.807861,7.71898798 C29.9835922,7.71898798 29.2428762,8.05098747 28.7101532,8.59048663 C28.1709119,9.12405722 27.8390711,9.8651275 27.8390711,10.6891976 C27.8390711,10.6891976 27.2464983,16.9023308 27.2464983,18.9832562 L27.2227954,19.0781132 C17.1490574,14.9696196 7.14583565,19.0781132 7.14583565,19.0781132 L7.12272531,18.9832562 C7.12272531,16.9023308 6.53015249,10.6891976 6.53015249,10.6891976 C6.53015249,9.04698591 5.20338194,7.71898798 3.56136266,7.71898798 C3.35396217,7.71898798 3.15248741,7.74270223 2.96286411,7.7782736 C2.38214274,7.89684485 1.86067866,8.1873444 1.46365487,8.59048663 C0.924413601,9.12405722 0.592572821,9.8651275 0.592572821,10.6891976 C0.16592039,15.1415479 0,15.1237622 0,18.9832562 L0,23.7083202 C0,25.119318 1.41624904,26.2991019 2.85027527,26.59553 L3.0523426,26.63703 C3.22418872,26.6666728 3.39603484,26.6785299 3.56136266,26.6785299 L30.807861,26.6785299 C30.9731888,26.6785299 31.1450349,26.6666728 31.316881,26.63703 L31.5189484,26.59553 C32.1174469,26.4710302 32.7159455,26.1923878 33.2018552,25.8070312 C33.8892396,25.2734607 34.3692236,24.5323904 34.3692236,23.7083202 L34.3692236,18.9832562 C34.3692236,15.1237622 34.2033032,15.1415479 33.7766508,10.6891976 C33.7766508,9.25448559 32.7574256,8.05691603 31.4063595,7.7782736 Z" id="Path"></path>
                            </g>
                        </g>
                        <g id="Group-88" transform="translate(108.395244, 96.610937)">
                            <rect id="Rectangle" stroke="#050505" stroke-width="1.32" fill="#262626" x="0.66" y="1.9834375" width="70.0622337" height="70.145625" rx="10.56"></rect>
                            <rect id="Rectangle" stroke="#050505" stroke-width="1.32" fill="#936CCB" x="1.98189322" y="0.66" width="70.0622337" height="70.145625" rx="10.56"></rect>
                            <g id="306038_ticket_star_icon" transform="translate(15.862719, 14.557813)" fill="#FFFFFF" fill-rule="nonzero">
                                <path d="M37.0281701,9.39960008 C35.8915709,10.5376285 34.048423,10.5380454 32.9118238,9.40001698 C31.7755369,8.26240543 31.7755369,6.41679616 32.9122402,5.27876771 C32.9155715,5.27543253 32.9194233,5.27345226 32.9222341,5.27063819 L27.6577331,0 L21.863763,5.80072453 L22.2079284,6.14518684 L21.6026721,6.75114869 L21.2585068,6.40668637 L0,27.6899757 L5.26450099,32.9606139 C5.26783229,32.9572787 5.26970615,32.9534224 5.27251693,32.9506084 C6.40974076,31.8120588 8.25268046,31.8125799 9.38896736,32.9500872 C10.5256707,34.0881157 10.5256707,35.9328912 9.38844684,37.0714407 C9.38574016,37.0741506 9.38188834,37.0761308 9.37845293,37.0793618 L14.6429539,42.35 L35.9013566,21.0668149 L35.5572954,20.7224568 L36.1625516,20.1164949 L36.5066129,20.4609572 L42.3005829,14.6602327 L37.0360819,9.38959452 C37.0334794,9.39230436 37.0316055,9.3962649 37.0281701,9.39960008 Z M22.936547,23.8531554 L20.7246654,24.5416631 L20.0377922,26.7551853 L18.6998573,24.862258 L16.3846012,24.8917536 L17.7696948,23.0337416 L17.025773,20.8383545 L19.2190202,21.5827266 L21.0749728,20.1961225 L21.0453033,22.5141819 L22.936547,23.8531554 Z M35.0346971,18.9871171 L34.4294409,19.593079 L32.9923997,18.1544668 L33.5976559,17.5485049 L35.0346971,18.9871171 Z M32.4690727,16.4185018 L31.8638164,17.0244636 L30.4267753,15.5858514 L31.0320315,14.9798896 L32.4690727,16.4185018 Z M29.9034483,13.8499906 L29.298192,14.4559525 L27.8617755,13.0178614 L28.4670317,12.4118996 L29.9034483,13.8499906 Z M27.3384485,11.2818964 L26.7331922,11.8878583 L25.2966716,10.449663 L25.9019278,9.84370112 L27.3384485,11.2818964 Z M24.7728241,8.71338529 L24.1675678,9.31934714 L22.7310472,7.88115184 L23.3363034,7.27518999 L24.7728241,8.71338529 Z" id="Shape"></path>
                            </g>
                        </g>
                        <g id="Group-88" transform="translate(192.996410, 96.610937)" stroke="#050505" stroke-width="1.32">
                            <rect id="Rectangle" fill="#262626" x="0.66" y="1.9834375" width="70.0622337" height="70.145625" rx="10.56"></rect>
                            <rect id="Rectangle" fill="#5CB4DC" x="1.98189322" y="0.66" width="70.0622337" height="70.145625" rx="10.56"></rect>
                        </g>
                        <g id="Group-88" transform="translate(277.597575, 96.610937)" stroke="#050505" stroke-width="1.32">
                            <rect id="Rectangle" fill="#262626" x="0.66" y="1.9834375" width="70.0622337" height="70.145625" rx="10.56"></rect>
                            <rect id="Rectangle" fill="#EFCB6F" x="1.98189322" y="0.66" width="70.0622337" height="70.145625" rx="10.56"></rect>
                        </g>
                        <g id="1564515_call_device_mobile_phone_smartphone_icon" transform="translate(214.146701, 109.845312)" fill="#FFFFFF" fill-rule="nonzero">
                            <path d="M29.0816508,7.27890625 C29.0816508,3.27550781 25.8099651,0 21.8112381,0 L7.27041269,0 C3.27168571,0 0,3.27550781 0,7.27890625 L0,36.3945313 C0,40.3979297 3.27168571,43.6734375 7.27041269,43.6734375 L21.8112381,43.6734375 C25.8099651,43.6734375 29.0816508,40.3979297 29.0816508,36.3945313 L29.0816508,7.27890625 Z M16.3584286,40.0339844 L12.7232222,40.0339844 C11.6326603,40.0339844 10.905619,39.3060938 10.905619,38.2142578 C10.905619,37.1224219 11.6326603,36.3945312 12.7232222,36.3945312 L16.3584286,36.3945312 C17.4489905,36.3945312 18.1760317,37.1224219 18.1760317,38.2142578 C18.1760317,39.3060938 17.4489905,40.0339844 16.3584286,40.0339844 Z M25.4464444,30.9353516 C25.4464444,32.0271875 24.7194032,32.7550781 23.6288412,32.7550781 L5.45280952,32.7550781 C4.36224761,32.7550781 3.63520635,32.0271875 3.63520635,30.9353516 L3.63520635,9.09863281 C3.63520635,8.00679687 4.36224761,7.27890625 5.45280952,7.27890625 L23.6288412,7.27890625 C24.7194032,7.27890625 25.4464444,8.00679687 25.4464444,9.09863281 L25.4464444,30.9353516 Z" id="mobile"></path>
                        </g>
                    </g>
                    <g id="if_chart_27_276279" transform="translate(295.969517, 113.300000)" fill="#FFFFFF" fill-rule="nonzero">
                        <path d="M18.3963209,16.8586341 L18.3963209,31.7869956 C18.3963209,33.059148 19.4316532,34.1 20.6970593,34.1 L23.8414018,34.1 C25.1068079,34.1 26.1421402,33.059148 26.1421402,31.7869956 L26.1421402,12.3138889 L18.3963209,16.8586341 Z" id="Shape"></path>
                        <path d="M15.3637552,18.3509875 L13.2261414,14.6819444 L9.19816044,17.036979 L9.19816044,31.772124 C9.19816044,33.0524558 10.243846,34.1 11.5219062,34.1 L14.620234,34.1 C15.8982941,34.1 16.9439798,33.0524558 16.9439798,31.772124 L16.9439798,17.4271311 L15.3637552,18.3509875 Z" id="Shape"></path>
                        <path d="M34.8812834,13.4982507 C34.5879492,14.5975081 33.8816079,15.2538427 32.9920781,15.2538427 C32.9920006,15.2538427 32.9920006,15.2538427 32.9919231,15.2538427 C32.5769021,15.2538427 31.7843499,15.0917047 31.1395879,14.0034345 L29.2966251,10.8930556 L27.5944813,11.8719112 L27.5944813,31.810993 C27.5944813,33.0699469 28.6401669,34.1 29.9182271,34.1 L33.0165548,34.1 C34.294615,34.1 35.3403006,33.0699469 35.3403006,31.810993 L35.3403006,11.7830978 L34.8812834,13.4982507 Z" id="Shape"></path>
                        <path d="M0.484113707,22.4439595 L0.484113707,31.8120345 C0.484113707,33.0704155 1.53731276,34.1 2.81537295,34.1 L5.90618723,34.1 C7.18424742,34.1 8.22993302,33.0704155 8.22993302,31.8120345 L8.22993302,17.9972222 L0.484113707,22.4439595 Z" id="Shape"></path>
                        <path d="M34.6908048,2.24904511 L26.2339003,0.0770699461 C25.0811899,-0.219407645 24.6216099,0.366346593 25.2224286,1.37323993 L27.6913348,5.5105309 L17.7087516,11.2086459 L15.5239061,7.547469 L11.7940645,9.67430276 L0,16.404166 L0,21.3125 L13.9614135,13.3454681 L16.148159,17.006645 L29.8752302,9.17170781 L32.3580703,13.3314533 C32.958889,14.3382692 33.7056965,14.2355977 34.0086789,13.1082241 L36.237701,4.83673931 C36.5406042,3.70944308 35.843436,2.54560013 34.6908048,2.24904511 Z" id="Shape"></path>
                    </g>
                </g>
            </g>
            <g id="Group-93-Copy" transform="translate(243.000000, 0.000000)" stroke="#000000" stroke-opacity="0.85">
                <polyline id="Fill-7" fill="#C7EEFF" points="22.4398584 45.4973726 35.7247942 26.4348014 54.2163168 20.859907 2.27373675e-13 9.09494702e-13 22.4398584 45.4973726"></polyline>
                <polyline id="Fill-8" fill="#87B3C6" points="0 1.8189894e-12 34.0546212 28.8321502 37.8788407 38.0341494 39.5535107 25.2807226 0 1.8189894e-12"></polyline>
                <polyline id="Fill-9" fill="#A4CCDD" points="30.2825664 34.2448789 37.8788407 38.0341494 34.0546212 28.8321502 30.2825664 34.2448789"></polyline>
            </g>
            <g id="Group-92-Copy" transform="translate(374.000000, 134.000000)">
                <path d="M24.3159924,33.7565801 C19.1867535,33.7565801 15.0288591,29.5916259 15.0288591,24.4536778 C15.0288591,19.3157298 19.1867535,15.1507755 24.3159924,15.1507755 C29.4452314,15.1507755 33.6031258,19.3157298 33.6031258,24.4536778 C33.6031258,29.5916259 29.4452314,33.7565801 24.3159924,33.7565801 Z M48.0932484,28.7492655 L48.0932484,20.1851178 L41.6517949,18.883288 C41.4260472,18.1787684 41.1499335,17.5003755 40.8441398,16.8363973 L44.94897,11.5633112 L39.3610406,5.08028918 L33.214588,8.54883207 C32.2054689,7.98215325 31.1378893,7.51007105 30.0226418,7.14069375 L28.6042988,0 L20.0546678,0 L18.6165382,7.13889191 C17.5525562,7.4902508 16.5290468,7.92899895 15.5621992,8.46054189 L8.73130843,4.60550422 L3.14427835,11.0885262 L7.72308874,16.9706344 C7.53421618,17.3886614 7.36692906,17.8184003 7.20953526,18.2526439 L0,19.7103328 L0,28.2744805 L6.8650677,29.6429784 C7.08811719,30.392544 7.35703574,31.1204875 7.67002454,31.826809 L2.87446042,37.9873015 L8.46238988,44.4703235 L15.5756901,40.4549221 C16.2268507,40.8116865 16.9058925,41.1189003 17.600224,41.3954828 L19.2191316,49.5506127 L27.769662,49.5506127 L29.293234,41.9855855 C30.2402949,41.7162104 31.1513802,41.370257 32.0282885,40.9576355 L39.092122,44.9442076 L44.6800515,38.4620865 L40.4088336,32.9754823 C40.9034998,32.0403271 41.3208182,31.0565222 41.6481973,30.0330768 L48.0932484,28.7492655 L48.0932484,28.7492655 Z" id="Fill-19" stroke-opacity="0.85" stroke="#000000" fill="#E9849D"></path>
                <path d="M38.1162805,24.7753064 C38.1162805,32.5583562 31.8169311,38.8684015 24.0461745,38.8684015 C16.2763173,38.8684015 9.9769679,32.5583562 9.9769679,24.7753064 C9.9769679,16.9922565 16.2763173,10.6822112 24.0461745,10.6822112 C31.8169311,10.6822112 38.1162805,16.9922565 38.1162805,24.7753064 Z" id="Stroke-20" stroke-opacity="0.399019681" stroke="#FFFFFF" stroke-width="0.9" stroke-linecap="round" stroke-linejoin="round"></path>
            </g>
        </g>
    </g>
</svg>